<svg version="1.1" viewBox="0.0 0.0 682.0 371.0" fill="none" stroke="none" stroke-linecap="square" stroke-miterlimit="10" width="682" height="371" xmlns:xlink="http://www.w3.org/1999/xlink" xmlns="http://www.w3.org/2000/svg"><path fill="#ffffff" d="M0 0L682.0 0L682.0 371.0L0 371.0L0 0Z" fill-rule="nonzero"/><path stroke="#333333" stroke-width="1.0" stroke-linecap="butt" d="M62.5 306.5L663.5 306.5" fill-rule="nonzero"/><path stroke="#cccccc" stroke-width="1.0" stroke-linecap="butt" d="M62.5 225.5L663.5 225.5" fill-rule="nonzero"/><path stroke="#cccccc" stroke-width="1.0" stroke-linecap="butt" d="M62.5 143.5L663.5 143.5" fill-rule="nonzero"/><path stroke="#cccccc" stroke-width="1.0" stroke-linecap="butt" d="M62.5 62.5L663.5 62.5" fill-rule="nonzero"/><clipPath id="id_0"><path d="M62.55 62.416668L663.45 62.416668L663.45 306.45L62.55 306.45L62.55 62.416668Z" clip-rule="nonzero"/></clipPath><path stroke="#000000" stroke-width="2.0" stroke-linecap="butt" stroke-opacity="0.0" clip-path="url(#id_0)" d="M117.0 306.0L92.0 306.0L92.0 89.0C92.0 87.89543 92.89543 87.0 94.0 87.0L115.0 87.0C116.10457 87.0 117.0 87.89543 117.0 89.0Z" fill-rule="nonzero"/><path fill="#c27ba0" clip-path="url(#id_0)" d="M117.0 306.0L92.0 306.0L92.0 89.0C92.0 87.89543 92.89543 87.0 94.0 87.0L115.0 87.0C116.10457 87.0 117.0 87.89543 117.0 89.0Z" fill-rule="nonzero"/><path stroke="#000000" stroke-width="2.0" stroke-linecap="butt" stroke-opacity="0.0" clip-path="url(#id_0)" d="M198.0 306.0L173.0 306.0L173.0 139.0C173.0 137.89543 173.89543 137.0 175.0 137.0L196.0 137.0C197.10457 137.0 198.0 137.89543 198.0 139.0Z" fill-rule="nonzero"/><path fill="#c27ba0" clip-path="url(#id_0)" d="M198.0 306.0L173.0 306.0L173.0 139.0C173.0 137.89543 173.89543 137.0 175.0 137.0L196.0 137.0C197.10457 137.0 198.0 137.89543 198.0 139.0Z" fill-rule="nonzero"/><path stroke="#000000" stroke-width="2.0" stroke-linecap="butt" stroke-opacity="0.0" clip-path="url(#id_0)" d="M280.0 306.0L255.0 306.0L255.0 105.0C255.0 103.89543 255.89543 103.0 257.0 103.0L278.0 103.0C279.10458 103.0 280.0 103.89543 280.0 105.0Z" fill-rule="nonzero"/><path fill="#c27ba0" clip-path="url(#id_0)" d="M280.0 306.0L255.0 306.0L255.0 105.0C255.0 103.89543 255.89543 103.0 257.0 103.0L278.0 103.0C279.10458 103.0 280.0 103.89543 280.0 105.0Z" fill-rule="nonzero"/><path stroke="#000000" stroke-width="2.0" stroke-linecap="butt" stroke-opacity="0.0" clip-path="url(#id_0)" d="M362.0 306.0L337.0 306.0L337.0 161.0C337.0 159.89543 337.89542 159.0 339.0 159.0L360.0 159.0C361.10458 159.0 362.0 159.89543 362.0 161.0Z" fill-rule="nonzero"/><path fill="#c27ba0" clip-path="url(#id_0)" d="M362.0 306.0L337.0 306.0L337.0 161.0C337.0 159.89543 337.89542 159.0 339.0 159.0L360.0 159.0C361.10458 159.0 362.0 159.89543 362.0 161.0Z" fill-rule="nonzero"/><path stroke="#000000" stroke-width="2.0" stroke-linecap="butt" stroke-opacity="0.0" clip-path="url(#id_0)" d="M444.0 306.0L419.0 306.0L419.0 119.0C419.0 117.89543 419.89542 117.0 421.0 117.0L442.0 117.0C443.10458 117.0 444.0 117.89543 444.0 119.0Z" fill-rule="nonzero"/><path fill="#c27ba0" clip-path="url(#id_0)" d="M444.0 306.0L419.0 306.0L419.0 119.0C419.0 117.89543 419.89542 117.0 421.0 117.0L442.0 117.0C443.10458 117.0 444.0 117.89543 444.0 119.0Z" fill-rule="nonzero"/><path stroke="#000000" stroke-width="2.0" stroke-linecap="butt" stroke-opacity="0.0" clip-path="url(#id_0)" d="M526.0 306.0L501.0 306.0L501.0 114.0C501.0 112.89543 501.89542 112.0 503.0 112.0L524.0 112.0C525.10455 112.0 526.0 112.89543 526.0 114.0Z" fill-rule="nonzero"/><path fill="#c27ba0" clip-path="url(#id_0)" d="M526.0 306.0L501.0 306.0L501.0 114.0C501.0 112.89543 501.89542 112.0 503.0 112.0L524.0 112.0C525.10455 112.0 526.0 112.89543 526.0 114.0Z" fill-rule="nonzero"/><path stroke="#000000" stroke-width="2.0" stroke-linecap="butt" stroke-opacity="0.0" clip-path="url(#id_0)" d="M607.0 306.0L582.0 306.0L582.0 114.0C582.0 112.89543 582.89545 112.0 584.0 112.0L605.0 112.0C606.10455 112.0 607.0 112.89543 607.0 114.0Z" fill-rule="nonzero"/><path fill="#c27ba0" clip-path="url(#id_0)" d="M607.0 306.0L582.0 306.0L582.0 114.0C582.0 112.89543 582.89545 112.0 584.0 112.0L605.0 112.0C606.10455 112.0 607.0 112.89543 607.0 114.0Z" fill-rule="nonzero"/><path stroke="#000000" stroke-width="2.0" stroke-linecap="butt" stroke-opacity="0.0" clip-path="url(#id_0)" d="M144.0 306.0L119.0 306.0L119.0 197.0C119.0 195.89543 119.89543 195.0 121.0 195.0L142.0 195.0C143.10457 195.0 144.0 195.89543 144.0 197.0Z" fill-rule="nonzero"/><path fill="#a4c2f4" clip-path="url(#id_0)" d="M144.0 306.0L119.0 306.0L119.0 197.0C119.0 195.89543 119.89543 195.0 121.0 195.0L142.0 195.0C143.10457 195.0 144.0 195.89543 144.0 197.0Z" fill-rule="nonzero"/><path stroke="#000000" stroke-width="2.0" stroke-linecap="butt" stroke-opacity="0.0" clip-path="url(#id_0)" d="M225.0 306.0L200.0 306.0L200.0 203.0C200.0 201.89543 200.89543 201.0 202.0 201.0L223.0 201.0C224.10457 201.0 225.0 201.89543 225.0 203.0Z" fill-rule="nonzero"/><path fill="#a4c2f4" clip-path="url(#id_0)" d="M225.0 306.0L200.0 306.0L200.0 203.0C200.0 201.89543 200.89543 201.0 202.0 201.0L223.0 201.0C224.10457 201.0 225.0 201.89543 225.0 203.0Z" fill-rule="nonzero"/><path stroke="#000000" stroke-width="2.0" stroke-linecap="butt" stroke-opacity="0.0" clip-path="url(#id_0)" d="M307.0 306.0L282.0 306.0L282.0 212.0C282.0 210.89543 282.89542 210.0 284.0 210.0L305.0 210.0C306.10458 210.0 307.0 210.89543 307.0 212.0Z" fill-rule="nonzero"/><path fill="#a4c2f4" clip-path="url(#id_0)" d="M307.0 306.0L282.0 306.0L282.0 212.0C282.0 210.89543 282.89542 210.0 284.0 210.0L305.0 210.0C306.10458 210.0 307.0 210.89543 307.0 212.0Z" fill-rule="nonzero"/><path stroke="#000000" stroke-width="2.0" stroke-linecap="butt" stroke-opacity="0.0" clip-path="url(#id_0)" d="M389.0 306.0L364.0 306.0L364.0 255.0C364.0 253.89543 364.89542 253.0 366.0 253.0L387.0 253.0C388.10458 253.0 389.0 253.89543 389.0 255.0Z" fill-rule="nonzero"/><path fill="#a4c2f4" clip-path="url(#id_0)" d="M389.0 306.0L364.0 306.0L364.0 255.0C364.0 253.89543 364.89542 253.0 366.0 253.0L387.0 253.0C388.10458 253.0 389.0 253.89543 389.0 255.0Z" fill-rule="nonzero"/><path stroke="#000000" stroke-width="2.0" stroke-linecap="butt" stroke-opacity="0.0" clip-path="url(#id_0)" d="M471.0 306.0L446.0 306.0L446.0 221.0C446.0 219.89543 446.89542 219.0 448.0 219.0L469.0 219.0C470.10458 219.0 471.0 219.89543 471.0 221.0Z" fill-rule="nonzero"/><path fill="#a4c2f4" clip-path="url(#id_0)" d="M471.0 306.0L446.0 306.0L446.0 221.0C446.0 219.89543 446.89542 219.0 448.0 219.0L469.0 219.0C470.10458 219.0 471.0 219.89543 471.0 221.0Z" fill-rule="nonzero"/><path stroke="#000000" stroke-width="2.0" stroke-linecap="butt" stroke-opacity="0.0" clip-path="url(#id_0)" d="M553.0 306.0L528.0 306.0L528.0 213.0C528.0 211.89543 528.89545 211.0 530.0 211.0L551.0 211.0C552.10455 211.0 553.0 211.89543 553.0 213.0Z" fill-rule="nonzero"/><path fill="#a4c2f4" clip-path="url(#id_0)" d="M553.0 306.0L528.0 306.0L528.0 213.0C528.0 211.89543 528.89545 211.0 530.0 211.0L551.0 211.0C552.10455 211.0 553.0 211.89543 553.0 213.0Z" fill-rule="nonzero"/><path stroke="#000000" stroke-width="2.0" stroke-linecap="butt" stroke-opacity="0.0" clip-path="url(#id_0)" d="M634.0 306.0L609.0 306.0L609.0 214.0C609.0 212.89543 609.89545 212.0 611.0 212.0L632.0 212.0C633.10455 212.0 634.0 212.89543 634.0 214.0Z" fill-rule="nonzero"/><path fill="#a4c2f4" clip-path="url(#id_0)" d="M634.0 306.0L609.0 306.0L609.0 214.0C609.0 212.89543 609.89545 212.0 611.0 212.0L632.0 212.0C633.10455 212.0 634.0 212.89543 634.0 214.0Z" fill-rule="nonzero"/><path fill="#000000" d="M19.3 306.59064Q19.3 304.3094 19.76875 302.91876Q20.2375 301.52814 21.159374 300.77814Q22.096874 300.0125 23.503124 300.0125Q24.534374 300.0125 25.315624 300.4344Q26.096874 300.84064 26.596874 301.6375Q27.1125 302.41876 27.409374 303.5594Q27.70625 304.6844 27.70625 306.59064Q27.70625 308.85626 27.2375 310.2625Q26.76875 311.65314 25.83125 312.41876Q24.909374 313.16876 23.503124 313.16876Q21.628124 313.16876 20.565624 311.84064Q19.3 310.23126 19.3 306.59064ZM20.925 306.59064Q20.925 309.7625 21.659374 310.825Q22.409374 311.8719 23.503124 311.8719Q24.58125 311.8719 25.33125 310.825Q26.08125 309.7625 26.08125 306.59064Q26.08125 303.41876 25.33125 302.3719Q24.58125 301.325 23.4875 301.325Q22.39375 301.325 21.7375 302.2469Q20.925 303.41876 20.925 306.59064ZM30.190624 312.95L30.190624 311.15314L31.9875 311.15314L31.9875 312.95L30.190624 312.95ZM34.3 306.59064Q34.3 304.3094 34.76875 302.91876Q35.2375 301.52814 36.159374 300.77814Q37.096874 300.0125 38.503124 300.0125Q39.534374 300.0125 40.315624 300.4344Q41.096874 300.84064 41.596874 301.6375Q42.1125 302.41876 42.409374 303.5594Q42.70625 304.6844 42.70625 306.59064Q42.70625 308.85626 42.2375 310.2625Q41.76875 311.65314 40.83125 312.41876Q39.909374 313.16876 38.503124 313.16876Q36.628124 313.16876 35.565624 311.84064Q34.3 310.23126 34.3 306.59064ZM35.925 306.59064Q35.925 309.7625 36.659374 310.825Q37.409374 311.8719 38.503124 311.8719Q39.58125 311.8719 40.33125 310.825Q41.08125 309.7625 41.08125 306.59064Q41.08125 303.41876 40.33125 302.3719Q39.58125 301.325 38.4875 301.325Q37.39375 301.325 36.7375 302.2469Q35.925 303.41876 35.925 306.59064ZM44.3 306.59064Q44.3 304.3094 44.76875 302.91876Q45.2375 301.52814 46.159374 300.77814Q47.096874 300.0125 48.503124 300.0125Q49.534374 300.0125 50.315624 300.4344Q51.096874 300.84064 51.596874 301.6375Q52.1125 302.41876 52.409374 303.5594Q52.70625 304.6844 52.70625 306.59064Q52.70625 308.85626 52.2375 310.2625Q51.76875 311.65314 50.83125 312.41876Q49.909374 313.16876 48.503124 313.16876Q46.628124 313.16876 45.565624 311.84064Q44.3 310.23126 44.3 306.59064ZM45.925 306.59064Q45.925 309.7625 46.659374 310.825Q47.409374 311.8719 48.503124 311.8719Q49.58125 311.8719 50.33125 310.825Q51.08125 309.7625 51.08125 306.59064Q51.08125 303.41876 50.33125 302.3719Q49.58125 301.325 48.4875 301.325Q47.39375 301.325 46.7375 302.2469Q45.925 303.41876 45.925 306.59064Z" fill-rule="nonzero"/><path fill="#000000" d="M19.3 225.24619Q19.3 222.96494 19.76875 221.57431Q20.2375 220.18369 21.159374 219.43369Q22.096874 218.66806 23.503124 218.66806Q24.534374 218.66806 25.315624 219.08994Q26.096874 219.49619 26.596874 220.29306Q27.1125 221.07431 27.409374 222.21494Q27.70625 223.33994 27.70625 225.24619Q27.70625 227.51181 27.2375 228.91806Q26.76875 230.30869 25.83125 231.07431Q24.909374 231.82431 23.503124 231.82431Q21.628124 231.82431 20.565624 230.49619Q19.3 228.88681 19.3 225.24619ZM20.925 225.24619Q20.925 228.41806 21.659374 229.48056Q22.409374 230.52744 23.503124 230.52744Q24.58125 230.52744 25.33125 229.48056Q26.08125 228.41806 26.08125 225.24619Q26.08125 222.07431 25.33125 221.02744Q24.58125 219.98056 23.4875 219.98056Q22.39375 219.98056 21.7375 220.90244Q20.925 222.07431 20.925 225.24619ZM30.190624 231.60556L30.190624 229.80869L31.9875 229.80869L31.9875 231.60556L30.190624 231.60556ZM42.6125 230.08994L42.6125 231.60556L34.096874 231.60556Q34.08125 231.02744 34.284374 230.51181Q34.6125 229.63681 35.315624 228.79306Q36.034374 227.94931 37.39375 226.83994Q39.4875 225.12119 40.221874 224.12119Q40.971874 223.10556 40.971874 222.21494Q40.971874 221.26181 40.3 220.62119Q39.628124 219.98056 38.55 219.98056Q37.39375 219.98056 36.70625 220.66806Q36.034374 221.35556 36.01875 222.55869L34.39375 222.38681Q34.565624 220.57431 35.64375 219.62119Q36.7375 218.66806 38.58125 218.66806Q40.425 218.66806 41.503124 219.69931Q42.596874 220.73056 42.596874 222.24619Q42.596874 223.01181 42.26875 223.76181Q41.95625 224.51181 41.221874 225.33994Q40.4875 226.16806 38.784374 227.60556Q37.3625 228.80869 36.95625 229.23056Q36.55 229.65244 36.3 230.08994L42.6125 230.08994ZM44.3 225.24619Q44.3 222.96494 44.76875 221.57431Q45.2375 220.18369 46.159374 219.43369Q47.096874 218.66806 48.503124 218.66806Q49.534374 218.66806 50.315624 219.08994Q51.096874 219.49619 51.596874 220.29306Q52.1125 221.07431 52.409374 222.21494Q52.70625 223.33994 52.70625 225.24619Q52.70625 227.51181 52.2375 228.91806Q51.76875 230.30869 50.83125 231.07431Q49.909374 231.82431 48.503124 231.82431Q46.628124 231.82431 45.565624 230.49619Q44.3 228.88681 44.3 225.24619ZM45.925 225.24619Q45.925 228.41806 46.659374 229.48056Q47.409374 230.52744 48.503124 230.52744Q49.58125 230.52744 50.33125 229.48056Q51.08125 228.41806 51.08125 225.24619Q51.08125 222.07431 50.33125 221.02744Q49.58125 219.98056 48.4875 219.98056Q47.39375 219.98056 46.7375 220.90244Q45.925 222.07431 45.925 225.24619Z" fill-rule="nonzero"/><path fill="#000000" d="M19.3 143.90173Q19.3 141.62048 19.76875 140.22986Q20.2375 138.83923 21.159374 138.08923Q22.096874 137.32361 23.503124 137.32361Q24.534374 137.32361 25.315624 137.74548Q26.096874 138.15173 26.596874 138.94861Q27.1125 139.72986 27.409374 140.87048Q27.70625 141.99548 27.70625 143.90173Q27.70625 146.16736 27.2375 147.57361Q26.76875 148.96423 25.83125 149.72986Q24.909374 150.47986 23.503124 150.47986Q21.628124 150.47986 20.565624 149.15173Q19.3 147.54236 19.3 143.90173ZM20.925 143.90173Q20.925 147.07361 21.659374 148.13611Q22.409374 149.18298 23.503124 149.18298Q24.58125 149.18298 25.33125 148.13611Q26.08125 147.07361 26.08125 143.90173Q26.08125 140.72986 25.33125 139.68298Q24.58125 138.63611 23.4875 138.63611Q22.39375 138.63611 21.7375 139.55798Q20.925 140.72986 20.925 143.90173ZM30.190624 150.26111L30.190624 148.46423L31.9875 148.46423L31.9875 150.26111L30.190624 150.26111ZM39.3625 150.26111L39.3625 147.18298L33.784374 147.18298L33.784374 145.72986L39.659374 137.37048L40.95625 137.37048L40.95625 145.72986L42.690624 145.72986L42.690624 147.18298L40.95625 147.18298L40.95625 150.26111L39.3625 150.26111ZM39.3625 145.72986L39.3625 139.91736L35.33125 145.72986L39.3625 145.72986ZM44.3 143.90173Q44.3 141.62048 44.76875 140.22986Q45.2375 138.83923 46.159374 138.08923Q47.096874 137.32361 48.503124 137.32361Q49.534374 137.32361 50.315624 137.74548Q51.096874 138.15173 51.596874 138.94861Q52.1125 139.72986 52.409374 140.87048Q52.70625 141.99548 52.70625 143.90173Q52.70625 146.16736 52.2375 147.57361Q51.76875 148.96423 50.83125 149.72986Q49.909374 150.47986 48.503124 150.47986Q46.628124 150.47986 45.565624 149.15173Q44.3 147.54236 44.3 143.90173ZM45.925 143.90173Q45.925 147.07361 46.659374 148.13611Q47.409374 149.18298 48.503124 149.18298Q49.58125 149.18298 50.33125 148.13611Q51.08125 147.07361 51.08125 143.90173Q51.08125 140.72986 50.33125 139.68298Q49.58125 138.63611 48.4875 138.63611Q47.39375 138.63611 46.7375 139.55798Q45.925 140.72986 45.925 143.90173Z" fill-rule="nonzero"/><path fill="#000000" d="M19.3 62.55729Q19.3 60.27604 19.76875 58.885414Q20.2375 57.49479 21.159374 56.74479Q22.096874 55.979164 23.503124 55.979164Q24.534374 55.979164 25.315624 56.40104Q26.096874 56.80729 26.596874 57.604164Q27.1125 58.385414 27.409374 59.52604Q27.70625 60.65104 27.70625 62.55729Q27.70625 64.822914 27.2375 66.229164Q26.76875 67.61979 25.83125 68.385414Q24.909374 69.135414 23.503124 69.135414Q21.628124 69.135414 20.565624 67.80729Q19.3 66.197914 19.3 62.55729ZM20.925 62.55729Q20.925 65.729164 21.659374 66.791664Q22.409374 67.83854 23.503124 67.83854Q24.58125 67.83854 25.33125 66.791664Q26.08125 65.729164 26.08125 62.55729Q26.08125 59.385414 25.33125 58.33854Q24.58125 57.291664 23.4875 57.291664Q22.39375 57.291664 21.7375 58.21354Q20.925 59.385414 20.925 62.55729ZM30.190624 68.916664L30.190624 67.11979L31.9875 67.11979L31.9875 68.916664L30.190624 68.916664ZM42.503124 59.18229L40.940624 59.30729Q40.721874 58.385414 40.33125 57.96354Q39.690624 57.27604 38.753124 57.27604Q38.003124 57.27604 37.425 57.697914Q36.675 58.24479 36.2375 59.291664Q35.815624 60.33854 35.8 62.27604Q36.378124 61.40104 37.190624 60.979164Q38.01875 60.55729 38.925 60.55729Q40.51875 60.55729 41.628124 61.729164Q42.7375 62.885414 42.7375 64.729164Q42.7375 65.947914 42.20625 66.99479Q41.690624 68.02604 40.76875 68.58854Q39.8625 69.135414 38.70625 69.135414Q36.721874 69.135414 35.471874 67.68229Q34.221874 66.229164 34.221874 62.885414Q34.221874 59.15104 35.6125 57.447914Q36.815624 55.979164 38.846874 55.979164Q40.378124 55.979164 41.346874 56.83854Q42.315624 57.68229 42.503124 59.18229ZM36.05 64.74479Q36.05 65.55729 36.39375 66.30729Q36.7375 67.05729 37.3625 67.447914Q37.9875 67.83854 38.675 67.83854Q39.675 67.83854 40.39375 67.02604Q41.1125 66.21354 41.1125 64.822914Q41.1125 63.49479 40.39375 62.729164Q39.690624 61.947914 38.6125 61.947914Q37.534374 61.947914 36.784374 62.729164Q36.05 63.49479 36.05 64.74479ZM44.3 62.55729Q44.3 60.27604 44.76875 58.885414Q45.2375 57.49479 46.159374 56.74479Q47.096874 55.979164 48.503124 55.979164Q49.534374 55.979164 50.315624 56.40104Q51.096874 56.80729 51.596874 57.604164Q52.1125 58.385414 52.409374 59.52604Q52.70625 60.65104 52.70625 62.55729Q52.70625 64.822914 52.2375 66.229164Q51.76875 67.61979 50.83125 68.385414Q49.909374 69.135414 48.503124 69.135414Q46.628124 69.135414 45.565624 67.80729Q44.3 66.197914 44.3 62.55729ZM45.925 62.55729Q45.925 65.729164 46.659374 66.791664Q47.409374 67.83854 48.503124 67.83854Q49.58125 67.83854 50.33125 66.791664Q51.08125 65.729164 51.08125 62.55729Q51.08125 59.385414 50.33125 58.33854Q49.58125 57.291664 48.4875 57.291664Q47.39375 57.291664 46.7375 58.21354Q45.925 59.385414 45.925 62.55729Z" fill-rule="nonzero"/><path fill="#000000" d="M107.390945 329.45L107.390945 319.34064L103.609695 319.34064L103.609695 317.9969L112.68782 317.9969L112.68782 319.34064L108.90657 319.34064L108.90657 329.45L107.390945 329.45ZM114.828445 329.45L112.28157 321.15314L113.734695 321.15314L115.06282 325.9344L115.547195 327.71564Q115.578445 327.59064 115.984695 326.0125L117.297195 321.15314L118.75032 321.15314L119.984695 325.96564L120.40657 327.54376L120.87532 325.95L122.297195 321.15314L123.672195 321.15314L121.078445 329.45L119.609695 329.45L118.297195 324.48126L117.96907 323.0594L116.297195 329.45L114.828445 329.45ZM123.765945 325.29376Q123.765945 322.9969 125.047195 321.8875Q126.12532 320.96564 127.65657 320.96564Q129.37532 320.96564 130.45345 322.09064Q131.5472 323.2 131.5472 325.1844Q131.5472 326.77814 131.06282 327.7Q130.57845 328.6219 129.65657 329.1375Q128.75032 329.6375 127.65657 329.6375Q125.922195 329.6375 124.84407 328.52814Q123.765945 327.40314 123.765945 325.29376ZM125.21907 325.29376Q125.21907 326.8875 125.90657 327.6844Q126.609695 328.48126 127.65657 328.48126Q128.70345 328.48126 129.39095 327.6844Q130.09407 326.8875 130.09407 325.2469Q130.09407 323.71564 129.39095 322.91876Q128.70345 322.1219 127.65657 322.1219Q126.609695 322.1219 125.90657 322.91876Q125.21907 323.7 125.21907 325.29376Z" fill-rule="nonzero"/><path fill="#000000" d="M80.96907 348.45L80.96907 336.9969L85.297195 336.9969Q86.43782 336.9969 87.03157 337.10626Q87.87532 337.2469 88.43782 337.6375Q89.015945 338.02814 89.359695 338.7469Q89.71907 339.45 89.71907 340.3094Q89.71907 341.7625 88.78157 342.77814Q87.859695 343.79376 85.422195 343.79376L82.484695 343.79376L82.484695 348.45L80.96907 348.45ZM82.484695 342.4344L85.453445 342.4344Q86.922195 342.4344 87.53157 341.8875Q88.15657 341.34064 88.15657 340.35626Q88.15657 339.6375 87.78157 339.1219Q87.422195 338.60626 86.828445 338.45Q86.453445 338.34064 85.422195 338.34064L82.484695 338.34064L82.484695 342.4344ZM91.78157 348.45L91.78157 340.15314L93.047195 340.15314L93.047195 341.40314Q93.53157 340.52814 93.93782 340.2469Q94.34407 339.96564 94.84407 339.96564Q95.547195 339.96564 96.28157 340.41876L95.797195 341.71564Q95.28157 341.41876 94.765945 341.41876Q94.31282 341.41876 93.93782 341.7Q93.578445 341.96564 93.422195 342.46564Q93.18782 343.21564 93.18782 344.10626L93.18782 348.45L91.78157 348.45ZM96.265945 344.29376Q96.265945 341.9969 97.547195 340.8875Q98.62532 339.96564 100.15657 339.96564Q101.87532 339.96564 102.953445 341.09064Q104.047195 342.2 104.047195 344.1844Q104.047195 345.77814 103.56282 346.7Q103.078445 347.6219 102.15657 348.1375Q101.25032 348.6375 100.15657 348.6375Q98.422195 348.6375 97.34407 347.52814Q96.265945 346.40314 96.265945 344.29376ZM97.71907 344.29376Q97.71907 345.8875 98.40657 346.6844Q99.109695 347.48126 100.15657 347.48126Q101.203445 347.48126 101.890945 346.6844Q102.59407 345.8875 102.59407 344.2469Q102.59407 342.71564 101.890945 341.91876Q101.203445 341.1219 100.15657 341.1219Q99.109695 341.1219 98.40657 341.91876Q97.71907 342.7 97.71907 344.29376ZM106.12532 348.45L106.12532 341.2469L104.890945 341.2469L104.890945 340.15314L106.12532 340.15314L106.12532 339.2625Q106.12532 338.4344 106.28157 338.02814Q106.484695 337.48126 106.984695 337.1375Q107.50032 336.79376 108.422195 336.79376Q109.015945 336.79376 109.734695 336.9344L109.53157 338.16876Q109.09407 338.09064 108.703445 338.09064Q108.06282 338.09064 107.797195 338.3719Q107.53157 338.6375 107.53157 339.3875L107.53157 340.15314L109.140945 340.15314L109.140945 341.2469L107.53157 341.2469L107.53157 348.45L106.12532 348.45ZM115.46907 345.77814L116.922195 345.95Q116.578445 347.23126 115.640945 347.9344Q114.71907 348.6375 113.28157 348.6375Q111.453445 348.6375 110.390945 347.5125Q109.328445 346.3875 109.328445 344.3719Q109.328445 342.27814 110.40657 341.1219Q111.484695 339.96564 113.203445 339.96564Q114.859695 339.96564 115.90657 341.10626Q116.96907 342.23126 116.96907 344.27814Q116.96907 344.40314 116.96907 344.65314L110.78157 344.65314Q110.859695 346.02814 111.547195 346.7625Q112.25032 347.48126 113.28157 347.48126Q114.06282 347.48126 114.609695 347.075Q115.15657 346.66876 115.46907 345.77814ZM110.859695 343.4969L115.484695 343.4969Q115.390945 342.45 114.953445 341.9344Q114.28157 341.1219 113.21907 341.1219Q112.25032 341.1219 111.578445 341.77814Q110.922195 342.41876 110.859695 343.4969ZM118.234695 345.96564L119.62532 345.7469Q119.734695 346.59064 120.265945 347.04376Q120.81282 347.48126 121.765945 347.48126Q122.734695 347.48126 123.203445 347.09064Q123.672195 346.6844 123.672195 346.15314Q123.672195 345.6844 123.265945 345.40314Q122.96907 345.21564 121.828445 344.9344Q120.28157 344.54376 119.672195 344.2625Q119.078445 343.96564 118.765945 343.46564Q118.46907 342.96564 118.46907 342.35626Q118.46907 341.79376 118.71907 341.325Q118.96907 340.85626 119.40657 340.54376Q119.734695 340.29376 120.297195 340.1375Q120.87532 339.96564 121.515945 339.96564Q122.50032 339.96564 123.234695 340.2469Q123.96907 340.52814 124.31282 341.0125Q124.672195 341.48126 124.81282 342.29376L123.43782 342.48126Q123.34407 341.84064 122.890945 341.48126Q122.43782 341.1219 121.62532 341.1219Q120.65657 341.1219 120.234695 341.45Q119.828445 341.7625 119.828445 342.1844Q119.828445 342.46564 120.00032 342.6844Q120.172195 342.90314 120.53157 343.0594Q120.75032 343.1375 121.78157 343.41876Q123.265945 343.8094 123.859695 344.075Q124.453445 344.325 124.78157 344.8094Q125.12532 345.29376 125.12532 346.0125Q125.12532 346.71564 124.703445 347.34064Q124.297195 347.95 123.515945 348.29376Q122.75032 348.6375 121.78157 348.6375Q120.15657 348.6375 119.31282 347.96564Q118.46907 347.29376 118.234695 345.96564ZM126.234695 345.96564L127.62532 345.7469Q127.734695 346.59064 128.26595 347.04376Q128.81282 347.48126 129.76595 347.48126Q130.7347 347.48126 131.20345 347.09064Q131.6722 346.6844 131.6722 346.15314Q131.6722 345.6844 131.26595 345.40314Q130.96907 345.21564 129.82845 344.9344Q128.28157 344.54376 127.672195 344.2625Q127.078445 343.96564 126.765945 343.46564Q126.46907 342.96564 126.46907 342.35626Q126.46907 341.79376 126.71907 341.325Q126.96907 340.85626 127.40657 340.54376Q127.734695 340.29376 128.2972 340.1375Q128.87532 339.96564 129.51595 339.96564Q130.50032 339.96564 131.2347 340.2469Q131.96907 340.52814 132.31282 341.0125Q132.6722 341.48126 132.81282 342.29376L131.43782 342.48126Q131.34407 341.84064 130.89095 341.48126Q130.43782 341.1219 129.62532 341.1219Q128.65657 341.1219 128.2347 341.45Q127.828445 341.7625 127.828445 342.1844Q127.828445 342.46564 128.00032 342.6844Q128.1722 342.90314 128.53157 343.0594Q128.75032 343.1375 129.78157 343.41876Q131.26595 343.8094 131.8597 344.075Q132.45345 344.325 132.78157 344.8094Q133.12532 345.29376 133.12532 346.0125Q133.12532 346.71564 132.70345 347.34064Q132.2972 347.95 131.51595 348.29376Q130.75032 348.6375 129.78157 348.6375Q128.15657 348.6375 127.31282 347.96564Q126.46907 347.29376 126.234695 345.96564ZM134.26595 344.29376Q134.26595 341.9969 135.5472 340.8875Q136.62532 339.96564 138.15657 339.96564Q139.87532 339.96564 140.95345 341.09064Q142.0472 342.2 142.0472 344.1844Q142.0472 345.77814 141.56282 346.7Q141.07845 347.6219 140.15657 348.1375Q139.25032 348.6375 138.15657 348.6375Q136.4222 348.6375 135.34407 347.52814Q134.26595 346.40314 134.26595 344.29376ZM135.71907 344.29376Q135.71907 345.8875 136.40657 346.6844Q137.1097 347.48126 138.15657 347.48126Q139.20345 347.48126 139.89095 346.6844Q140.59407 345.8875 140.59407 344.2469Q140.59407 342.71564 139.89095 341.91876Q139.20345 341.1219 138.15657 341.1219Q137.1097 341.1219 136.40657 341.91876Q135.71907 342.7 135.71907 344.29376ZM143.78157 348.45L143.78157 340.15314L145.0472 340.15314L145.0472 341.40314Q145.53157 340.52814 145.93782 340.2469Q146.34407 339.96564 146.84407 339.96564Q147.5472 339.96564 148.28157 340.41876L147.7972 341.71564Q147.28157 341.41876 146.76595 341.41876Q146.31282 341.41876 145.93782 341.7Q145.57845 341.96564 145.4222 342.46564Q145.18782 343.21564 145.18782 344.10626L145.18782 348.45L143.78157 348.45ZM148.2347 345.96564L149.62532 345.7469Q149.7347 346.59064 150.26595 347.04376Q150.81282 347.48126 151.76595 347.48126Q152.7347 347.48126 153.20345 347.09064Q153.6722 346.6844 153.6722 346.15314Q153.6722 345.6844 153.26595 345.40314Q152.96907 345.21564 151.82845 344.9344Q150.28157 344.54376 149.6722 344.2625Q149.07845 343.96564 148.76595 343.46564Q148.46907 342.96564 148.46907 342.35626Q148.46907 341.79376 148.71907 341.325Q148.96907 340.85626 149.40657 340.54376Q149.7347 340.29376 150.2972 340.1375Q150.87532 339.96564 151.51595 339.96564Q152.50032 339.96564 153.2347 340.2469Q153.96907 340.52814 154.31282 341.0125Q154.6722 341.48126 154.81282 342.29376L153.43782 342.48126Q153.34407 341.84064 152.89095 341.48126Q152.43782 341.1219 151.62532 341.1219Q150.65657 341.1219 150.2347 341.45Q149.82845 341.7625 149.82845 342.1844Q149.82845 342.46564 150.00032 342.6844Q150.1722 342.90314 150.53157 343.0594Q150.75032 343.1375 151.78157 343.41876Q153.26595 343.8094 153.8597 344.075Q154.45345 344.325 154.78157 344.8094Q155.12532 345.29376 155.12532 346.0125Q155.12532 346.71564 154.70345 347.34064Q154.2972 347.95 153.51595 348.29376Q152.75032 348.6375 151.78157 348.6375Q150.15657 348.6375 149.31282 347.96564Q148.46907 347.29376 148.2347 345.96564Z" fill-rule="nonzero"/><path fill="#000000" d="M175.14604 329.45L175.14604 319.34064L171.36479 319.34064L171.36479 317.9969L180.44292 317.9969L180.44292 319.34064L176.66167 319.34064L176.66167 329.45L175.14604 329.45ZM186.72417 326.77814L188.17729 326.95Q187.83354 328.23126 186.89604 328.9344Q185.97417 329.6375 184.53667 329.6375Q182.70854 329.6375 181.64604 328.5125Q180.58354 327.3875 180.58354 325.3719Q180.58354 323.27814 181.66167 322.1219Q182.73979 320.96564 184.45854 320.96564Q186.11479 320.96564 187.16167 322.10626Q188.22417 323.23126 188.22417 325.27814Q188.22417 325.40314 188.22417 325.65314L182.03667 325.65314Q182.11479 327.02814 182.80229 327.7625Q183.50542 328.48126 184.53667 328.48126Q185.31792 328.48126 185.86479 328.075Q186.41167 327.66876 186.72417 326.77814ZM182.11479 324.4969L186.73979 324.4969Q186.64604 323.45 186.20854 322.9344Q185.53667 322.1219 184.47417 322.1219Q183.50542 322.1219 182.83354 322.77814Q182.17729 323.41876 182.11479 324.4969ZM195.45854 328.41876Q194.67729 329.09064 193.95854 329.3719Q193.23979 329.6375 192.41167 329.6375Q191.03667 329.6375 190.30229 328.96564Q189.56792 328.29376 189.56792 327.2625Q189.56792 326.65314 189.84917 326.15314Q190.13042 325.6375 190.56792 325.34064Q191.02104 325.02814 191.58354 324.8719Q192.00542 324.7625 192.83354 324.66876Q194.53667 324.46564 195.34917 324.1844Q195.34917 323.8875 195.34917 323.8094Q195.34917 322.95 194.95854 322.60626Q194.41167 322.1219 193.34917 322.1219Q192.36479 322.1219 191.88042 322.48126Q191.41167 322.825 191.19292 323.7L189.81792 323.5125Q190.00542 322.6375 190.42729 322.09064Q190.86479 321.54376 191.67729 321.2625Q192.48979 320.96564 193.55229 320.96564Q194.61479 320.96564 195.27104 321.21564Q195.94292 321.46564 196.25542 321.84064Q196.56792 322.21564 196.69292 322.79376Q196.77104 323.15314 196.77104 324.09064L196.77104 325.96564Q196.77104 327.9344 196.84917 328.45Q196.94292 328.96564 197.20854 329.45L195.73979 329.45Q195.52104 329.0125 195.45854 328.41876ZM195.34917 325.27814Q194.58354 325.59064 193.05229 325.8094Q192.17729 325.9344 191.81792 326.09064Q191.45854 326.2469 191.25542 326.5594Q191.06792 326.85626 191.06792 327.21564Q191.06792 327.77814 191.48979 328.15314Q191.92729 328.52814 192.73979 328.52814Q193.55229 328.52814 194.17729 328.1844Q194.81792 327.825 195.11479 327.2Q195.34917 326.73126 195.34917 325.79376L195.34917 325.27814ZM204.45854 326.40314L205.84917 326.59064Q205.61479 328.0125 204.67729 328.825Q203.75542 329.6375 202.39604 329.6375Q200.69292 329.6375 199.64604 328.52814Q198.61479 327.40314 198.61479 325.325Q198.61479 323.98126 199.05229 322.98126Q199.50542 321.96564 200.41167 321.46564Q201.33354 320.96564 202.39604 320.96564Q203.75542 320.96564 204.61479 321.65314Q205.47417 322.325 205.70854 323.59064L204.34917 323.79376Q204.14604 322.96564 203.64604 322.54376Q203.16167 322.1219 202.45854 322.1219Q201.39604 322.1219 200.72417 322.8875Q200.06792 323.6375 200.06792 325.29376Q200.06792 326.96564 200.70854 327.73126Q201.34917 328.48126 202.38042 328.48126Q203.20854 328.48126 203.75542 327.98126Q204.31792 327.46564 204.45854 326.40314ZM207.05229 329.45L207.05229 317.9969L208.45854 317.9969L208.45854 322.10626Q209.44292 320.96564 210.94292 320.96564Q211.86479 320.96564 212.53667 321.325Q213.22417 321.6844 213.50542 322.325Q213.80229 322.96564 213.80229 324.1844L213.80229 329.45L212.39604 329.45L212.39604 324.1844Q212.39604 323.1375 211.94292 322.65314Q211.48979 322.16876 210.64604 322.16876Q210.02104 322.16876 209.47417 322.4969Q208.92729 322.825 208.69292 323.3875Q208.45854 323.9344 208.45854 324.90314L208.45854 329.45L207.05229 329.45ZM220.72417 326.77814L222.17729 326.95Q221.83354 328.23126 220.89604 328.9344Q219.97417 329.6375 218.53667 329.6375Q216.70854 329.6375 215.64604 328.5125Q214.58354 327.3875 214.58354 325.3719Q214.58354 323.27814 215.66167 322.1219Q216.73979 320.96564 218.45854 320.96564Q220.11479 320.96564 221.16167 322.10626Q222.22417 323.23126 222.22417 325.27814Q222.22417 325.40314 222.22417 325.65314L216.03667 325.65314Q216.11479 327.02814 216.80229 327.7625Q217.50542 328.48126 218.53667 328.48126Q219.31792 328.48126 219.86479 328.075Q220.41167 327.66876 220.72417 326.77814ZM216.11479 324.4969L220.73979 324.4969Q220.64604 323.45 220.20854 322.9344Q219.53667 322.1219 218.47417 322.1219Q217.50542 322.1219 216.83354 322.77814Q216.17729 323.41876 216.11479 324.4969ZM224.03667 329.45L224.03667 321.15314L225.30229 321.15314L225.30229 322.40314Q225.78667 321.52814 226.19292 321.2469Q226.59917 320.96564 227.09917 320.96564Q227.80229 320.96564 228.53667 321.41876L228.05229 322.71564Q227.53667 322.41876 227.02104 322.41876Q226.56792 322.41876 226.19292 322.7Q225.83354 322.96564 225.67729 323.46564Q225.44292 324.21564 225.44292 325.10626L225.44292 329.45L224.03667 329.45Z" fill-rule="nonzero"/><path fill="#000000" d="M169.70854 344.7625L171.14604 344.6375Q171.23979 345.4969 171.61479 346.0594Q171.98979 346.60626 172.77104 346.95Q173.55229 347.27814 174.52104 347.27814Q175.39604 347.27814 176.05229 347.02814Q176.72417 346.7625 177.03667 346.325Q177.36479 345.8719 177.36479 345.34064Q177.36479 344.79376 177.05229 344.40314Q176.73979 343.9969 176.02104 343.71564Q175.56792 343.54376 173.98979 343.16876Q172.41167 342.77814 171.77104 342.45Q170.95854 342.0125 170.55229 341.3875Q170.14604 340.7469 170.14604 339.95Q170.14604 339.09064 170.63042 338.34064Q171.13042 337.575 172.06792 337.1844Q173.02104 336.79376 174.17729 336.79376Q175.45854 336.79376 176.42729 337.21564Q177.39604 337.6219 177.91167 338.41876Q178.44292 339.21564 178.48979 340.21564L177.03667 340.325Q176.91167 339.2469 176.23979 338.7Q175.56792 338.1375 174.23979 338.1375Q172.86479 338.1375 172.23979 338.6375Q171.61479 339.1375 171.61479 339.85626Q171.61479 340.46564 172.05229 340.8719Q172.48979 341.2625 174.33354 341.6844Q176.19292 342.10626 176.88042 342.41876Q177.88042 342.8719 178.34917 343.59064Q178.83354 344.29376 178.83354 345.21564Q178.83354 346.1219 178.30229 346.9344Q177.78667 347.7469 176.80229 348.2Q175.81792 348.65314 174.59917 348.65314Q173.03667 348.65314 171.98979 348.2Q170.94292 347.73126 170.33354 346.825Q169.73979 345.91876 169.70854 344.7625ZM184.11479 347.1844L184.31792 348.4344Q183.72417 348.5594 183.25542 348.5594Q182.48979 348.5594 182.06792 348.325Q181.64604 348.075 181.47417 347.6844Q181.30229 347.27814 181.30229 346.0125L181.30229 341.2469L180.27104 341.2469L180.27104 340.15314L181.30229 340.15314L181.30229 338.09064L182.70854 337.2469L182.70854 340.15314L184.11479 340.15314L184.11479 341.2469L182.70854 341.2469L182.70854 346.09064Q182.70854 346.7 182.77104 346.8719Q182.84917 347.04376 183.02104 347.15314Q183.19292 347.2469 183.50542 347.2469Q183.73979 347.2469 184.11479 347.1844ZM190.48979 348.45L190.48979 347.23126Q189.52104 348.6375 187.84917 348.6375Q187.11479 348.6375 186.47417 348.35626Q185.84917 348.075 185.53667 347.65314Q185.22417 347.21564 185.09917 346.60626Q185.02104 346.1844 185.02104 345.29376L185.02104 340.15314L186.42729 340.15314L186.42729 344.7469Q186.42729 345.85626 186.50542 346.23126Q186.64604 346.79376 187.06792 347.10626Q187.50542 347.41876 188.13042 347.41876Q188.77104 347.41876 189.31792 347.10626Q189.88042 346.77814 190.09917 346.21564Q190.33354 345.65314 190.33354 344.59064L190.33354 340.15314L191.73979 340.15314L191.73979 348.45L190.48979 348.45ZM198.42729 348.45L198.42729 347.40314Q197.64604 348.6375 196.11479 348.6375Q195.11479 348.6375 194.28667 348.09064Q193.45854 347.54376 192.98979 346.5594Q192.53667 345.575 192.53667 344.3094Q192.53667 343.0594 192.94292 342.0594Q193.36479 341.04376 194.19292 340.5125Q195.02104 339.96564 196.05229 339.96564Q196.80229 339.96564 197.38042 340.27814Q197.97417 340.59064 198.33354 341.10626L198.33354 336.9969L199.73979 336.9969L199.73979 348.45L198.42729 348.45ZM193.98979 344.3094Q193.98979 345.90314 194.66167 346.7Q195.33354 347.48126 196.23979 347.48126Q197.16167 347.48126 197.80229 346.73126Q198.45854 345.96564 198.45854 344.41876Q198.45854 342.71564 197.80229 341.91876Q197.14604 341.1219 196.17729 341.1219Q195.23979 341.1219 194.61479 341.8875Q193.98979 342.65314 193.98979 344.3094ZM207.72417 345.77814L209.17729 345.95Q208.83354 347.23126 207.89604 347.9344Q206.97417 348.6375 205.53667 348.6375Q203.70854 348.6375 202.64604 347.5125Q201.58354 346.3875 201.58354 344.3719Q201.58354 342.27814 202.66167 341.1219Q203.73979 339.96564 205.45854 339.96564Q207.11479 339.96564 208.16167 341.10626Q209.22417 342.23126 209.22417 344.27814Q209.22417 344.40314 209.22417 344.65314L203.03667 344.65314Q203.11479 346.02814 203.80229 346.7625Q204.50542 347.48126 205.53667 347.48126Q206.31792 347.48126 206.86479 347.075Q207.41167 346.66876 207.72417 345.77814ZM203.11479 343.4969L207.73979 343.4969Q207.64604 342.45 207.20854 341.9344Q206.53667 341.1219 205.47417 341.1219Q204.50542 341.1219 203.83354 341.77814Q203.17729 342.41876 203.11479 343.4969ZM211.05229 348.45L211.05229 340.15314L212.31792 340.15314L212.31792 341.325Q213.22417 339.96564 214.95854 339.96564Q215.70854 339.96564 216.33354 340.23126Q216.95854 340.4969 217.27104 340.9344Q217.58354 341.3719 217.70854 341.98126Q217.78667 342.3719 217.78667 343.34064L217.78667 348.45L216.38042 348.45L216.38042 343.40314Q216.38042 342.54376 216.20854 342.1219Q216.05229 341.6844 215.63042 341.4344Q215.22417 341.1844 214.66167 341.1844Q213.75542 341.1844 213.09917 341.7625Q212.45854 342.325 212.45854 343.91876L212.45854 348.45L211.05229 348.45ZM222.11479 347.1844L222.31792 348.4344Q221.72417 348.5594 221.25542 348.5594Q220.48979 348.5594 220.06792 348.325Q219.64604 348.075 219.47417 347.6844Q219.30229 347.27814 219.30229 346.0125L219.30229 341.2469L218.27104 341.2469L218.27104 340.15314L219.30229 340.15314L219.30229 338.09064L220.70854 337.2469L220.70854 340.15314L222.11479 340.15314L222.11479 341.2469L220.70854 341.2469L220.70854 346.09064Q220.70854 346.7 220.77104 346.8719Q220.84917 347.04376 221.02104 347.15314Q221.19292 347.2469 221.50542 347.2469Q221.73979 347.2469 222.11479 347.1844ZM222.48979 345.96564L223.88042 345.7469Q223.98979 346.59064 224.52104 347.04376Q225.06792 347.48126 226.02104 347.48126Q226.98979 347.48126 227.45854 347.09064Q227.92729 346.6844 227.92729 346.15314Q227.92729 345.6844 227.52104 345.40314Q227.22417 345.21564 226.08354 344.9344Q224.53667 344.54376 223.92729 344.2625Q223.33354 343.96564 223.02104 343.46564Q222.72417 342.96564 222.72417 342.35626Q222.72417 341.79376 222.97417 341.325Q223.22417 340.85626 223.66167 340.54376Q223.98979 340.29376 224.55229 340.1375Q225.13042 339.96564 225.77104 339.96564Q226.75542 339.96564 227.48979 340.2469Q228.22417 340.52814 228.56792 341.0125Q228.92729 341.48126 229.06792 342.29376L227.69292 342.48126Q227.59917 341.84064 227.14604 341.48126Q226.69292 341.1219 225.88042 341.1219Q224.91167 341.1219 224.48979 341.45Q224.08354 341.7625 224.08354 342.1844Q224.08354 342.46564 224.25542 342.6844Q224.42729 342.90314 224.78667 343.0594Q225.00542 343.1375 226.03667 343.41876Q227.52104 343.8094 228.11479 344.075Q228.70854 344.325 229.03667 344.8094Q229.38042 345.29376 229.38042 346.0125Q229.38042 346.71564 228.95854 347.34064Q228.55229 347.95 227.77104 348.29376Q227.00542 348.6375 226.03667 348.6375Q224.41167 348.6375 223.56792 347.96564Q222.72417 347.29376 222.48979 345.96564Z" fill-rule="nonzero"/><path fill="#000000" d="M270.90115 329.45L270.90115 319.34064L267.1199 319.34064L267.1199 317.9969L276.19803 317.9969L276.19803 319.34064L272.41678 319.34064L272.41678 329.45L270.90115 329.45ZM278.33865 329.45L275.79178 321.15314L277.2449 321.15314L278.57303 325.9344L279.0574 327.71564Q279.08865 327.59064 279.4949 326.0125L280.8074 321.15314L282.26053 321.15314L283.4949 325.96564L283.91678 327.54376L284.38553 325.95L285.8074 321.15314L287.1824 321.15314L284.58865 329.45L283.1199 329.45L281.8074 324.48126L281.47928 323.0594L279.8074 329.45L278.33865 329.45ZM287.27615 325.29376Q287.27615 322.9969 288.5574 321.8875Q289.63553 320.96564 291.16678 320.96564Q292.88553 320.96564 293.96365 322.09064Q295.0574 323.2 295.0574 325.1844Q295.0574 326.77814 294.57303 327.7Q294.08865 328.6219 293.16678 329.1375Q292.26053 329.6375 291.16678 329.6375Q289.4324 329.6375 288.35428 328.52814Q287.27615 327.40314 287.27615 325.29376ZM288.72928 325.29376Q288.72928 326.8875 289.41678 327.6844Q290.1199 328.48126 291.16678 328.48126Q292.21365 328.48126 292.90115 327.6844Q293.60428 326.8875 293.60428 325.2469Q293.60428 323.71564 292.90115 322.91876Q292.21365 322.1219 291.16678 322.1219Q290.1199 322.1219 289.41678 322.91876Q288.72928 323.7 288.72928 325.29376Z" fill-rule="nonzero"/><path fill="#000000" d="M251.46365 344.7625L252.90115 344.6375Q252.9949 345.4969 253.3699 346.0594Q253.7449 346.60626 254.52615 346.95Q255.3074 347.27814 256.27615 347.27814Q257.15115 347.27814 257.8074 347.02814Q258.47928 346.7625 258.79178 346.325Q259.1199 345.8719 259.1199 345.34064Q259.1199 344.79376 258.8074 344.40314Q258.4949 343.9969 257.77615 343.71564Q257.32303 343.54376 255.7449 343.16876Q254.16678 342.77814 253.52615 342.45Q252.71365 342.0125 252.3074 341.3875Q251.90115 340.7469 251.90115 339.95Q251.90115 339.09064 252.38553 338.34064Q252.88553 337.575 253.82303 337.1844Q254.77615 336.79376 255.9324 336.79376Q257.21365 336.79376 258.1824 337.21564Q259.15115 337.6219 259.66678 338.41876Q260.19803 339.21564 260.2449 340.21564L258.79178 340.325Q258.66678 339.2469 257.9949 338.7Q257.32303 338.1375 255.9949 338.1375Q254.6199 338.1375 253.9949 338.6375Q253.3699 339.1375 253.3699 339.85626Q253.3699 340.46564 253.8074 340.8719Q254.2449 341.2625 256.08865 341.6844Q257.94803 342.10626 258.63553 342.41876Q259.63553 342.8719 260.10428 343.59064Q260.58865 344.29376 260.58865 345.21564Q260.58865 346.1219 260.0574 346.9344Q259.54178 347.7469 258.5574 348.2Q257.57303 348.65314 256.35428 348.65314Q254.79178 348.65314 253.7449 348.2Q252.69803 347.73126 252.08865 346.825Q251.4949 345.91876 251.46365 344.7625ZM265.8699 347.1844L266.07303 348.4344Q265.47928 348.5594 265.01053 348.5594Q264.2449 348.5594 263.82303 348.325Q263.40115 348.075 263.22928 347.6844Q263.0574 347.27814 263.0574 346.0125L263.0574 341.2469L262.02615 341.2469L262.02615 340.15314L263.0574 340.15314L263.0574 338.09064L264.46365 337.2469L264.46365 340.15314L265.8699 340.15314L265.8699 341.2469L264.46365 341.2469L264.46365 346.09064Q264.46365 346.7 264.52615 346.8719Q264.60428 347.04376 264.77615 347.15314Q264.94803 347.2469 265.26053 347.2469Q265.4949 347.2469 265.8699 347.1844ZM272.2449 348.45L272.2449 347.23126Q271.27615 348.6375 269.60428 348.6375Q268.8699 348.6375 268.22928 348.35626Q267.60428 348.075 267.29178 347.65314Q266.97928 347.21564 266.85428 346.60626Q266.77615 346.1844 266.77615 345.29376L266.77615 340.15314L268.1824 340.15314L268.1824 344.7469Q268.1824 345.85626 268.26053 346.23126Q268.40115 346.79376 268.82303 347.10626Q269.26053 347.41876 269.88553 347.41876Q270.52615 347.41876 271.07303 347.10626Q271.63553 346.77814 271.85428 346.21564Q272.08865 345.65314 272.08865 344.59064L272.08865 340.15314L273.4949 340.15314L273.4949 348.45L272.2449 348.45ZM280.1824 348.45L280.1824 347.40314Q279.40115 348.6375 277.8699 348.6375Q276.8699 348.6375 276.04178 348.09064Q275.21365 347.54376 274.7449 346.5594Q274.29178 345.575 274.29178 344.3094Q274.29178 343.0594 274.69803 342.0594Q275.1199 341.04376 275.94803 340.5125Q276.77615 339.96564 277.8074 339.96564Q278.5574 339.96564 279.13553 340.27814Q279.72928 340.59064 280.08865 341.10626L280.08865 336.9969L281.4949 336.9969L281.4949 348.45L280.1824 348.45ZM275.7449 344.3094Q275.7449 345.90314 276.41678 346.7Q277.08865 347.48126 277.9949 347.48126Q278.91678 347.48126 279.5574 346.73126Q280.21365 345.96564 280.21365 344.41876Q280.21365 342.71564 279.5574 341.91876Q278.90115 341.1219 277.9324 341.1219Q276.9949 341.1219 276.3699 341.8875Q275.7449 342.65314 275.7449 344.3094ZM289.47928 345.77814L290.9324 345.95Q290.58865 347.23126 289.65115 347.9344Q288.72928 348.6375 287.29178 348.6375Q285.46365 348.6375 284.40115 347.5125Q283.33865 346.3875 283.33865 344.3719Q283.33865 342.27814 284.41678 341.1219Q285.4949 339.96564 287.21365 339.96564Q288.8699 339.96564 289.91678 341.10626Q290.97928 342.23126 290.97928 344.27814Q290.97928 344.40314 290.97928 344.65314L284.79178 344.65314Q284.8699 346.02814 285.5574 346.7625Q286.26053 347.48126 287.29178 347.48126Q288.07303 347.48126 288.6199 347.075Q289.16678 346.66876 289.47928 345.77814ZM284.8699 343.4969L289.4949 343.4969Q289.40115 342.45 288.96365 341.9344Q288.29178 341.1219 287.22928 341.1219Q286.26053 341.1219 285.58865 341.77814Q284.9324 342.41876 284.8699 343.4969ZM292.8074 348.45L292.8074 340.15314L294.07303 340.15314L294.07303 341.325Q294.97928 339.96564 296.71365 339.96564Q297.46365 339.96564 298.08865 340.23126Q298.71365 340.4969 299.02615 340.9344Q299.33865 341.3719 299.46365 341.98126Q299.54178 342.3719 299.54178 343.34064L299.54178 348.45L298.13553 348.45L298.13553 343.40314Q298.13553 342.54376 297.96365 342.1219Q297.8074 341.6844 297.38553 341.4344Q296.97928 341.1844 296.41678 341.1844Q295.51053 341.1844 294.85428 341.7625Q294.21365 342.325 294.21365 343.91876L294.21365 348.45L292.8074 348.45ZM303.8699 347.1844L304.07303 348.4344Q303.47928 348.5594 303.01053 348.5594Q302.2449 348.5594 301.82303 348.325Q301.40115 348.075 301.22928 347.6844Q301.0574 347.27814 301.0574 346.0125L301.0574 341.2469L300.02615 341.2469L300.02615 340.15314L301.0574 340.15314L301.0574 338.09064L302.46365 337.2469L302.46365 340.15314L303.8699 340.15314L303.8699 341.2469L302.46365 341.2469L302.46365 346.09064Q302.46365 346.7 302.52615 346.8719Q302.60428 347.04376 302.77615 347.15314Q302.94803 347.2469 303.26053 347.2469Q303.4949 347.2469 303.8699 347.1844ZM304.2449 345.96564L305.63553 345.7469Q305.7449 346.59064 306.27615 347.04376Q306.82303 347.48126 307.77615 347.48126Q308.7449 347.48126 309.21365 347.09064Q309.6824 346.6844 309.6824 346.15314Q309.6824 345.6844 309.27615 345.40314Q308.97928 345.21564 307.83865 344.9344Q306.29178 344.54376 305.6824 344.2625Q305.08865 343.96564 304.77615 343.46564Q304.47928 342.96564 304.47928 342.35626Q304.47928 341.79376 304.72928 341.325Q304.97928 340.85626 305.41678 340.54376Q305.7449 340.29376 306.3074 340.1375Q306.88553 339.96564 307.52615 339.96564Q308.51053 339.96564 309.2449 340.2469Q309.97928 340.52814 310.32303 341.0125Q310.6824 341.48126 310.82303 342.29376L309.44803 342.48126Q309.35428 341.84064 308.90115 341.48126Q308.44803 341.1219 307.63553 341.1219Q306.66678 341.1219 306.2449 341.45Q305.83865 341.7625 305.83865 342.1844Q305.83865 342.46564 306.01053 342.6844Q306.1824 342.90314 306.54178 343.0594Q306.76053 343.1375 307.79178 343.41876Q309.27615 343.8094 309.8699 344.075Q310.46365 344.325 310.79178 344.8094Q311.13553 345.29376 311.13553 346.0125Q311.13553 346.71564 310.71365 347.34064Q310.3074 347.95 309.52615 348.29376Q308.76053 348.6375 307.79178 348.6375Q306.16678 348.6375 305.32303 347.96564Q304.47928 347.29376 304.2449 345.96564Z" fill-rule="nonzero"/><path fill="#000000" d="M336.67188 329.45L336.67188 317.9969L338.1875 317.9969L338.1875 328.09064L343.82812 328.09064L343.82812 329.45L336.67188 329.45ZM350.96875 328.41876Q350.1875 329.09064 349.46875 329.3719Q348.75 329.6375 347.92188 329.6375Q346.54688 329.6375 345.8125 328.96564Q345.07812 328.29376 345.07812 327.2625Q345.07812 326.65314 345.35938 326.15314Q345.64062 325.6375 346.07812 325.34064Q346.53125 325.02814 347.09375 324.8719Q347.51562 324.7625 348.34375 324.66876Q350.04688 324.46564 350.85938 324.1844Q350.85938 323.8875 350.85938 323.8094Q350.85938 322.95 350.46875 322.60626Q349.92188 322.1219 348.85938 322.1219Q347.875 322.1219 347.39062 322.48126Q346.92188 322.825 346.70312 323.7L345.32812 323.5125Q345.51562 322.6375 345.9375 322.09064Q346.375 321.54376 347.1875 321.2625Q348.0 320.96564 349.0625 320.96564Q350.125 320.96564 350.78125 321.21564Q351.45312 321.46564 351.76562 321.84064Q352.07812 322.21564 352.20312 322.79376Q352.28125 323.15314 352.28125 324.09064L352.28125 325.96564Q352.28125 327.9344 352.35938 328.45Q352.45312 328.96564 352.71875 329.45L351.25 329.45Q351.03125 329.0125 350.96875 328.41876ZM350.85938 325.27814Q350.09375 325.59064 348.5625 325.8094Q347.6875 325.9344 347.32812 326.09064Q346.96875 326.2469 346.76562 326.5594Q346.57812 326.85626 346.57812 327.21564Q346.57812 327.77814 347.0 328.15314Q347.4375 328.52814 348.25 328.52814Q349.0625 328.52814 349.6875 328.1844Q350.32812 327.825 350.625 327.2Q350.85938 326.73126 350.85938 325.79376L350.85938 325.27814ZM354.5 332.65314L354.34375 331.325Q354.79688 331.45 355.14062 331.45Q355.60938 331.45 355.89062 331.29376Q356.17188 331.1375 356.35938 330.85626Q356.48438 330.65314 356.78125 329.8094Q356.82812 329.7 356.90625 329.46564L353.76562 321.15314L355.28125 321.15314L357.0 325.95Q357.34375 326.8719 357.60938 327.8719Q357.84375 326.90314 358.1875 325.98126L359.95312 321.15314L361.35938 321.15314L358.20312 329.59064Q357.70312 330.96564 357.42188 331.48126Q357.04688 332.16876 356.5625 332.4969Q356.07812 332.825 355.40625 332.825Q355.0 332.825 354.5 332.65314ZM361.5625 329.45L361.5625 321.15314L362.8125 321.15314L362.8125 322.3094Q363.20312 321.7 363.84375 321.34064Q364.5 320.96564 365.32812 320.96564Q366.25 320.96564 366.84375 321.35626Q367.4375 321.73126 367.67188 322.41876Q368.65625 320.96564 370.23438 320.96564Q371.46875 320.96564 372.125 321.65314Q372.79688 322.325 372.79688 323.7469L372.79688 329.45L371.40625 329.45L371.40625 324.21564Q371.40625 323.3719 371.26562 323.0125Q371.125 322.6375 370.76562 322.41876Q370.40625 322.1844 369.92188 322.1844Q369.04688 322.1844 368.46875 322.7625Q367.89062 323.34064 367.89062 324.6219L367.89062 329.45L366.48438 329.45L366.48438 324.0594Q366.48438 323.1219 366.14062 322.65314Q365.79688 322.1844 365.01562 322.1844Q364.42188 322.1844 363.92188 322.4969Q363.42188 322.8094 363.1875 323.41876Q362.96875 324.0125 362.96875 325.1375L362.96875 329.45L361.5625 329.45ZM379.96875 328.41876Q379.1875 329.09064 378.46875 329.3719Q377.75 329.6375 376.92188 329.6375Q375.54688 329.6375 374.8125 328.96564Q374.07812 328.29376 374.07812 327.2625Q374.07812 326.65314 374.35938 326.15314Q374.64062 325.6375 375.07812 325.34064Q375.53125 325.02814 376.09375 324.8719Q376.51562 324.7625 377.34375 324.66876Q379.04688 324.46564 379.85938 324.1844Q379.85938 323.8875 379.85938 323.8094Q379.85938 322.95 379.46875 322.60626Q378.92188 322.1219 377.85938 322.1219Q376.875 322.1219 376.39062 322.48126Q375.92188 322.825 375.70312 323.7L374.32812 323.5125Q374.51562 322.6375 374.9375 322.09064Q375.375 321.54376 376.1875 321.2625Q377.0 320.96564 378.0625 320.96564Q379.125 320.96564 379.78125 321.21564Q380.45312 321.46564 380.76562 321.84064Q381.07812 322.21564 381.20312 322.79376Q381.28125 323.15314 381.28125 324.09064L381.28125 325.96564Q381.28125 327.9344 381.35938 328.45Q381.45312 328.96564 381.71875 329.45L380.25 329.45Q380.03125 329.0125 379.96875 328.41876ZM379.85938 325.27814Q379.09375 325.59064 377.5625 325.8094Q376.6875 325.9344 376.32812 326.09064Q375.96875 326.2469 375.76562 326.5594Q375.57812 326.85626 375.57812 327.21564Q375.57812 327.77814 376.0 328.15314Q376.4375 328.52814 377.25 328.52814Q378.0625 328.52814 378.6875 328.1844Q379.32812 327.825 379.625 327.2Q379.85938 326.73126 379.85938 325.79376L379.85938 325.27814ZM383.5625 329.45L383.5625 321.15314L384.82812 321.15314L384.82812 322.325Q385.73438 320.96564 387.46875 320.96564Q388.21875 320.96564 388.84375 321.23126Q389.46875 321.4969 389.78125 321.9344Q390.09375 322.3719 390.21875 322.98126Q390.29688 323.3719 390.29688 324.34064L390.29688 329.45L388.89062 329.45L388.89062 324.40314Q388.89062 323.54376 388.71875 323.1219Q388.5625 322.6844 388.14062 322.4344Q387.73438 322.1844 387.17188 322.1844Q386.26562 322.1844 385.60938 322.7625Q384.96875 323.325 384.96875 324.91876L384.96875 329.45L383.5625 329.45Z" fill-rule="nonzero"/><path fill="#000000" d="M337.17188 348.45L337.17188 336.9969L338.6875 336.9969L338.6875 342.66876L344.375 336.9969L346.4375 336.9969L341.625 341.6375L346.64062 348.45L344.64062 348.45L340.5625 342.65314L338.6875 344.48126L338.6875 348.45L337.17188 348.45ZM348.0625 348.45L348.0625 340.15314L349.32812 340.15314L349.32812 341.325Q350.23438 339.96564 351.96875 339.96564Q352.71875 339.96564 353.34375 340.23126Q353.96875 340.4969 354.28125 340.9344Q354.59375 341.3719 354.71875 341.98126Q354.79688 342.3719 354.79688 343.34064L354.79688 348.45L353.39062 348.45L353.39062 343.40314Q353.39062 342.54376 353.21875 342.1219Q353.0625 341.6844 352.64062 341.4344Q352.23438 341.1844 351.67188 341.1844Q350.76562 341.1844 350.10938 341.7625Q349.46875 342.325 349.46875 343.91876L349.46875 348.45L348.0625 348.45ZM355.53125 344.29376Q355.53125 341.9969 356.8125 340.8875Q357.89062 339.96564 359.42188 339.96564Q361.14062 339.96564 362.21875 341.09064Q363.3125 342.2 363.3125 344.1844Q363.3125 345.77814 362.82812 346.7Q362.34375 347.6219 361.42188 348.1375Q360.51562 348.6375 359.42188 348.6375Q357.6875 348.6375 356.60938 347.52814Q355.53125 346.40314 355.53125 344.29376ZM356.98438 344.29376Q356.98438 345.8875 357.67188 346.6844Q358.375 347.48126 359.42188 347.48126Q360.46875 347.48126 361.15625 346.6844Q361.85938 345.8875 361.85938 344.2469Q361.85938 342.71564 361.15625 341.91876Q360.46875 341.1219 359.42188 341.1219Q358.375 341.1219 357.67188 341.91876Q356.98438 342.7 356.98438 344.29376ZM366.59375 348.45L364.04688 340.15314L365.5 340.15314L366.82812 344.9344L367.3125 346.71564Q367.34375 346.59064 367.75 345.0125L369.0625 340.15314L370.51562 340.15314L371.75 344.96564L372.17188 346.54376L372.64062 344.95L374.0625 340.15314L375.4375 340.15314L372.84375 348.45L371.375 348.45L370.0625 343.48126L369.73438 342.0594L368.0625 348.45L366.59375 348.45ZM381.46875 347.41876Q380.6875 348.09064 379.96875 348.3719Q379.25 348.6375 378.42188 348.6375Q377.04688 348.6375 376.3125 347.96564Q375.57812 347.29376 375.57812 346.2625Q375.57812 345.65314 375.85938 345.15314Q376.14062 344.6375 376.57812 344.34064Q377.03125 344.02814 377.59375 343.8719Q378.01562 343.7625 378.84375 343.66876Q380.54688 343.46564 381.35938 343.1844Q381.35938 342.8875 381.35938 342.8094Q381.35938 341.95 380.96875 341.60626Q380.42188 341.1219 379.35938 341.1219Q378.375 341.1219 377.89062 341.48126Q377.42188 341.825 377.20312 342.7L375.82812 342.5125Q376.01562 341.6375 376.4375 341.09064Q376.875 340.54376 377.6875 340.2625Q378.5 339.96564 379.5625 339.96564Q380.625 339.96564 381.28125 340.21564Q381.95312 340.46564 382.26562 340.84064Q382.57812 341.21564 382.70312 341.79376Q382.78125 342.15314 382.78125 343.09064L382.78125 344.96564Q382.78125 346.9344 382.85938 347.45Q382.95312 347.96564 383.21875 348.45L381.75 348.45Q381.53125 348.0125 381.46875 347.41876ZM381.35938 344.27814Q380.59375 344.59064 379.0625 344.8094Q378.1875 344.9344 377.82812 345.09064Q377.46875 345.2469 377.26562 345.5594Q377.07812 345.85626 377.07812 346.21564Q377.07812 346.77814 377.5 347.15314Q377.9375 347.52814 378.75 347.52814Q379.5625 347.52814 380.1875 347.1844Q380.82812 346.825 381.125 346.2Q381.35938 345.73126 381.35938 344.79376L381.35938 344.27814ZM385.03125 348.45L385.03125 336.9969L386.4375 336.9969L386.4375 348.45L385.03125 348.45ZM388.03125 348.45L388.03125 336.9969L389.4375 336.9969L389.4375 348.45L388.03125 348.45Z" fill-rule="nonzero"/><path fill="#000000" d="M419.98947 329.45L419.98947 317.9969L423.9426 317.9969Q425.27072 317.9969 425.97385 318.15314Q426.95822 318.3875 427.66135 318.98126Q428.5676 319.7469 429.0051 320.9344Q429.45822 322.1219 429.45822 323.65314Q429.45822 324.96564 429.14572 325.98126Q428.84885 326.98126 428.36447 327.6375Q427.89572 328.29376 427.33322 328.6844Q426.77072 329.0594 425.95822 329.2625Q425.16135 329.45 424.1301 329.45L419.98947 329.45ZM421.5051 328.09064L423.95822 328.09064Q425.08322 328.09064 425.72385 327.8875Q426.3801 327.66876 426.7551 327.29376Q427.30197 326.7469 427.59885 325.84064Q427.89572 324.9344 427.89572 323.6375Q427.89572 321.84064 427.30197 320.8719Q426.72385 319.90314 425.8801 319.575Q425.27072 319.34064 423.91135 319.34064L421.5051 319.34064L421.5051 328.09064ZM437.48947 326.77814L438.9426 326.95Q438.59885 328.23126 437.66135 328.9344Q436.73947 329.6375 435.30197 329.6375Q433.47385 329.6375 432.41135 328.5125Q431.34885 327.3875 431.34885 325.3719Q431.34885 323.27814 432.42697 322.1219Q433.5051 320.96564 435.22385 320.96564Q436.8801 320.96564 437.92697 322.10626Q438.98947 323.23126 438.98947 325.27814Q438.98947 325.40314 438.98947 325.65314L432.80197 325.65314Q432.8801 327.02814 433.5676 327.7625Q434.27072 328.48126 435.30197 328.48126Q436.08322 328.48126 436.6301 328.075Q437.17697 327.66876 437.48947 326.77814ZM432.8801 324.4969L437.5051 324.4969Q437.41135 323.45 436.97385 322.9344Q436.30197 322.1219 435.23947 322.1219Q434.27072 322.1219 433.59885 322.77814Q432.9426 323.41876 432.8801 324.4969ZM442.11447 329.45L440.80197 329.45L440.80197 317.9969L442.20822 317.9969L442.20822 322.075Q443.09885 320.96564 444.48947 320.96564Q445.2551 320.96564 445.92697 321.27814Q446.61447 321.575 447.05197 322.1375Q447.5051 322.7 447.7551 323.4969Q448.0051 324.27814 448.0051 325.16876Q448.0051 327.3094 446.9426 328.48126Q445.89572 329.6375 444.41135 329.6375Q442.9426 329.6375 442.11447 328.40314L442.11447 329.45ZM442.09885 325.23126Q442.09885 326.73126 442.5051 327.3875Q443.16135 328.48126 444.30197 328.48126Q445.22385 328.48126 445.89572 327.6844Q446.5676 326.8719 446.5676 325.29376Q446.5676 323.66876 445.91135 322.90314Q445.27072 322.1219 444.36447 322.1219Q443.4426 322.1219 442.77072 322.91876Q442.09885 323.71564 442.09885 325.23126ZM455.22385 328.41876Q454.4426 329.09064 453.72385 329.3719Q453.0051 329.6375 452.17697 329.6375Q450.80197 329.6375 450.0676 328.96564Q449.33322 328.29376 449.33322 327.2625Q449.33322 326.65314 449.61447 326.15314Q449.89572 325.6375 450.33322 325.34064Q450.78635 325.02814 451.34885 324.8719Q451.77072 324.7625 452.59885 324.66876Q454.30197 324.46564 455.11447 324.1844Q455.11447 323.8875 455.11447 323.8094Q455.11447 322.95 454.72385 322.60626Q454.17697 322.1219 453.11447 322.1219Q452.1301 322.1219 451.64572 322.48126Q451.17697 322.825 450.95822 323.7L449.58322 323.5125Q449.77072 322.6375 450.1926 322.09064Q450.6301 321.54376 451.4426 321.2625Q452.2551 320.96564 453.3176 320.96564Q454.3801 320.96564 455.03635 321.21564Q455.70822 321.46564 456.02072 321.84064Q456.33322 322.21564 456.45822 322.79376Q456.53635 323.15314 456.53635 324.09064L456.53635 325.96564Q456.53635 327.9344 456.61447 328.45Q456.70822 328.96564 456.97385 329.45L455.5051 329.45Q455.28635 329.0125 455.22385 328.41876ZM455.11447 325.27814Q454.34885 325.59064 452.8176 325.8094Q451.9426 325.9344 451.58322 326.09064Q451.22385 326.2469 451.02072 326.5594Q450.83322 326.85626 450.83322 327.21564Q450.83322 327.77814 451.2551 328.15314Q451.6926 328.52814 452.5051 328.52814Q453.3176 328.52814 453.9426 328.1844Q454.58322 327.825 454.8801 327.2Q455.11447 326.73126 455.11447 325.79376L455.11447 325.27814ZM461.8801 328.1844L462.08322 329.4344Q461.48947 329.5594 461.02072 329.5594Q460.2551 329.5594 459.83322 329.325Q459.41135 329.075 459.23947 328.6844Q459.0676 328.27814 459.0676 327.0125L459.0676 322.2469L458.03635 322.2469L458.03635 321.15314L459.0676 321.15314L459.0676 319.09064L460.47385 318.2469L460.47385 321.15314L461.8801 321.15314L461.8801 322.2469L460.47385 322.2469L460.47385 327.09064Q460.47385 327.7 460.53635 327.8719Q460.61447 328.04376 460.78635 328.15314Q460.95822 328.2469 461.27072 328.2469Q461.5051 328.2469 461.8801 328.1844ZM468.48947 326.77814L469.9426 326.95Q469.59885 328.23126 468.66135 328.9344Q467.73947 329.6375 466.30197 329.6375Q464.47385 329.6375 463.41135 328.5125Q462.34885 327.3875 462.34885 325.3719Q462.34885 323.27814 463.42697 322.1219Q464.5051 320.96564 466.22385 320.96564Q467.8801 320.96564 468.92697 322.10626Q469.98947 323.23126 469.98947 325.27814Q469.98947 325.40314 469.98947 325.65314L463.80197 325.65314Q463.8801 327.02814 464.5676 327.7625Q465.27072 328.48126 466.30197 328.48126Q467.08322 328.48126 467.6301 328.075Q468.17697 327.66876 468.48947 326.77814ZM463.8801 324.4969L468.5051 324.4969Q468.41135 323.45 467.97385 322.9344Q467.30197 322.1219 466.23947 322.1219Q465.27072 322.1219 464.59885 322.77814Q463.9426 323.41876 463.8801 324.4969Z" fill-rule="nonzero"/><path fill="#000000" d="M498.0102 329.45L498.0102 317.9969L499.52582 317.9969L499.52582 329.45L498.0102 329.45ZM500.5727 329.45L500.5727 321.15314L501.83832 321.15314L501.83832 322.325Q502.74457 320.96564 504.47894 320.96564Q505.22894 320.96564 505.85394 321.23126Q506.47894 321.4969 506.79144 321.9344Q507.10394 322.3719 507.22894 322.98126Q507.30707 323.3719 507.30707 324.34064L507.30707 329.45L505.90082 329.45L505.90082 324.40314Q505.90082 323.54376 505.72894 323.1219Q505.5727 322.6844 505.15082 322.4344Q504.74457 322.1844 504.18207 322.1844Q503.27582 322.1844 502.61957 322.7625Q501.97894 323.325 501.97894 324.91876L501.97894 329.45L500.5727 329.45ZM511.6352 328.1844L511.83832 329.4344Q511.24457 329.5594 510.77582 329.5594Q510.0102 329.5594 509.58832 329.325Q509.16644 329.075 508.99457 328.6844Q508.8227 328.27814 508.8227 327.0125L508.8227 322.2469L507.79144 322.2469L507.79144 321.15314L508.8227 321.15314L508.8227 319.09064L510.22894 318.2469L510.22894 321.15314L511.6352 321.15314L511.6352 322.2469L510.22894 322.2469L510.22894 327.09064Q510.22894 327.7 510.29144 327.8719Q510.36957 328.04376 510.54144 328.15314Q510.71332 328.2469 511.02582 328.2469Q511.2602 328.2469 511.6352 328.1844ZM518.24457 326.77814L519.6977 326.95Q519.35394 328.23126 518.41644 328.9344Q517.49457 329.6375 516.05707 329.6375Q514.22894 329.6375 513.16644 328.5125Q512.10394 327.3875 512.10394 325.3719Q512.10394 323.27814 513.18207 322.1219Q514.2602 320.96564 515.97894 320.96564Q517.6352 320.96564 518.68207 322.10626Q519.74457 323.23126 519.74457 325.27814Q519.74457 325.40314 519.74457 325.65314L513.55707 325.65314Q513.6352 327.02814 514.3227 327.7625Q515.0258 328.48126 516.05707 328.48126Q516.8383 328.48126 517.3852 328.075Q517.93207 327.66876 518.24457 326.77814ZM513.6352 324.4969L518.2602 324.4969Q518.16644 323.45 517.72894 322.9344Q517.05707 322.1219 515.99457 322.1219Q515.0258 322.1219 514.35394 322.77814Q513.6977 323.41876 513.6352 324.4969ZM521.55707 329.45L521.55707 321.15314L522.8227 321.15314L522.8227 322.40314Q523.30707 321.52814 523.7133 321.2469Q524.11957 320.96564 524.61957 320.96564Q525.3227 320.96564 526.05707 321.41876L525.5727 322.71564Q525.05707 322.41876 524.54144 322.41876Q524.0883 322.41876 523.7133 322.7Q523.35394 322.96564 523.1977 323.46564Q522.9633 324.21564 522.9633 325.10626L522.9633 329.45L521.55707 329.45ZM528.86957 329.45L525.7133 321.15314L527.1977 321.15314L528.97894 326.1219Q529.2758 326.91876 529.5102 327.79376Q529.6977 327.1375 530.04144 326.21564L531.8852 321.15314L533.3227 321.15314L530.18207 329.45L528.86957 329.45ZM533.5727 319.60626L533.5727 317.9969L534.97894 317.9969L534.97894 319.60626L533.5727 319.60626ZM533.5727 329.45L533.5727 321.15314L534.97894 321.15314L534.97894 329.45L533.5727 329.45ZM543.24457 326.77814L544.6977 326.95Q544.35394 328.23126 543.41644 328.9344Q542.49457 329.6375 541.05707 329.6375Q539.22894 329.6375 538.16644 328.5125Q537.10394 327.3875 537.10394 325.3719Q537.10394 323.27814 538.18207 322.1219Q539.2602 320.96564 540.97894 320.96564Q542.6352 320.96564 543.68207 322.10626Q544.74457 323.23126 544.74457 325.27814Q544.74457 325.40314 544.74457 325.65314L538.55707 325.65314Q538.6352 327.02814 539.3227 327.7625Q540.0258 328.48126 541.05707 328.48126Q541.8383 328.48126 542.3852 328.075Q542.93207 327.66876 543.24457 326.77814ZM538.6352 324.4969L543.2602 324.4969Q543.16644 323.45 542.72894 322.9344Q542.05707 322.1219 540.99457 322.1219Q540.0258 322.1219 539.35394 322.77814Q538.6977 323.41876 538.6352 324.4969ZM548.10394 329.45L545.55707 321.15314L547.0102 321.15314L548.3383 325.9344L548.8227 327.71564Q548.85394 327.59064 549.2602 326.0125L550.5727 321.15314L552.0258 321.15314L553.2602 325.96564L553.68207 327.54376L554.1508 325.95L555.5727 321.15314L556.9477 321.15314L554.35394 329.45L552.8852 329.45L551.5727 324.48126L551.24457 323.0594L549.5727 329.45L548.10394 329.45Z" fill-rule="nonzero"/><path fill="#000000" d="M579.9997 329.45L579.9997 317.9969L584.3278 317.9969Q585.46844 317.9969 586.0622 318.10626Q586.90594 318.2469 587.46844 318.6375Q588.0466 319.02814 588.3903 319.7469Q588.7497 320.45 588.7497 321.3094Q588.7497 322.7625 587.8122 323.77814Q586.8903 324.79376 584.4528 324.79376L581.5153 324.79376L581.5153 329.45L579.9997 329.45ZM581.5153 323.4344L584.4841 323.4344Q585.9528 323.4344 586.5622 322.8875Q587.1872 322.34064 587.1872 321.35626Q587.1872 320.6375 586.8122 320.1219Q586.4528 319.60626 585.8591 319.45Q585.4841 319.34064 584.4528 319.34064L581.5153 319.34064L581.5153 323.4344ZM590.8122 329.45L590.8122 321.15314L592.0778 321.15314L592.0778 322.40314Q592.5622 321.52814 592.96844 321.2469Q593.3747 320.96564 593.8747 320.96564Q594.5778 320.96564 595.3122 321.41876L594.8278 322.71564Q594.3122 322.41876 593.7966 322.41876Q593.34344 322.41876 592.96844 322.7Q592.6091 322.96564 592.4528 323.46564Q592.21844 324.21564 592.21844 325.10626L592.21844 329.45L590.8122 329.45ZM595.2966 325.29376Q595.2966 322.9969 596.5778 321.8875Q597.65594 320.96564 599.1872 320.96564Q600.90594 320.96564 601.9841 322.09064Q603.0778 323.2 603.0778 325.1844Q603.0778 326.77814 602.59344 327.7Q602.1091 328.6219 601.1872 329.1375Q600.28094 329.6375 599.1872 329.6375Q597.4528 329.6375 596.3747 328.52814Q595.2966 327.40314 595.2966 325.29376ZM596.7497 325.29376Q596.7497 326.8875 597.4372 327.6844Q598.1403 328.48126 599.1872 328.48126Q600.2341 328.48126 600.9216 327.6844Q601.6247 326.8875 601.6247 325.2469Q601.6247 323.71564 600.9216 322.91876Q600.2341 322.1219 599.1872 322.1219Q598.1403 322.1219 597.4372 322.91876Q596.7497 323.7 596.7497 325.29376ZM606.1247 329.45L604.8122 329.45L604.8122 317.9969L606.21844 317.9969L606.21844 322.075Q607.1091 320.96564 608.4997 320.96564Q609.2653 320.96564 609.9372 321.27814Q610.6247 321.575 611.0622 322.1375Q611.5153 322.7 611.7653 323.4969Q612.0153 324.27814 612.0153 325.16876Q612.0153 327.3094 610.9528 328.48126Q609.90594 329.6375 608.4216 329.6375Q606.9528 329.6375 606.1247 328.40314L606.1247 329.45ZM606.1091 325.23126Q606.1091 326.73126 606.5153 327.3875Q607.1716 328.48126 608.3122 328.48126Q609.2341 328.48126 609.90594 327.6844Q610.5778 326.8719 610.5778 325.29376Q610.5778 323.66876 609.9216 322.90314Q609.28094 322.1219 608.3747 322.1219Q607.4528 322.1219 606.78094 322.91876Q606.1091 323.71564 606.1091 325.23126ZM613.7966 329.45L613.7966 317.9969L615.2028 317.9969L615.2028 329.45L613.7966 329.45ZM622.4997 326.77814L623.9528 326.95Q623.6091 328.23126 622.6716 328.9344Q621.7497 329.6375 620.3122 329.6375Q618.4841 329.6375 617.4216 328.5125Q616.3591 327.3875 616.3591 325.3719Q616.3591 323.27814 617.4372 322.1219Q618.5153 320.96564 620.2341 320.96564Q621.8903 320.96564 622.9372 322.10626Q623.9997 323.23126 623.9997 325.27814Q623.9997 325.40314 623.9997 325.65314L617.8122 325.65314Q617.8903 327.02814 618.5778 327.7625Q619.28094 328.48126 620.3122 328.48126Q621.09344 328.48126 621.6403 328.075Q622.1872 327.66876 622.4997 326.77814ZM617.8903 324.4969L622.5153 324.4969Q622.4216 323.45 621.9841 322.9344Q621.3122 322.1219 620.2497 322.1219Q619.28094 322.1219 618.6091 322.77814Q617.9528 323.41876 617.8903 324.4969ZM625.8278 329.45L625.8278 321.15314L627.0778 321.15314L627.0778 322.3094Q627.46844 321.7 628.1091 321.34064Q628.7653 320.96564 629.59344 320.96564Q630.5153 320.96564 631.1091 321.35626Q631.7028 321.73126 631.9372 322.41876Q632.9216 320.96564 634.4997 320.96564Q635.7341 320.96564 636.3903 321.65314Q637.0622 322.325 637.0622 323.7469L637.0622 329.45L635.6716 329.45L635.6716 324.21564Q635.6716 323.3719 635.53094 323.0125Q635.3903 322.6375 635.03094 322.41876Q634.6716 322.1844 634.1872 322.1844Q633.3122 322.1844 632.7341 322.7625Q632.15594 323.34064 632.15594 324.6219L632.15594 329.45L630.7497 329.45L630.7497 324.0594Q630.7497 323.1219 630.40594 322.65314Q630.0622 322.1844 629.28094 322.1844Q628.6872 322.1844 628.1872 322.4969Q627.6872 322.8094 627.4528 323.41876Q627.2341 324.0125 627.2341 325.1375L627.2341 329.45L625.8278 329.45Z" fill-rule="nonzero"/><path fill="#000000" d="M583.4841 344.7625L584.9216 344.6375Q585.0153 345.4969 585.3903 346.0594Q585.7653 346.60626 586.5466 346.95Q587.3278 347.27814 588.2966 347.27814Q589.1716 347.27814 589.8278 347.02814Q590.4997 346.7625 590.8122 346.325Q591.1403 345.8719 591.1403 345.34064Q591.1403 344.79376 590.8278 344.40314Q590.5153 343.9969 589.7966 343.71564Q589.34344 343.54376 587.7653 343.16876Q586.1872 342.77814 585.5466 342.45Q584.7341 342.0125 584.3278 341.3875Q583.9216 340.7469 583.9216 339.95Q583.9216 339.09064 584.40594 338.34064Q584.90594 337.575 585.84344 337.1844Q586.7966 336.79376 587.9528 336.79376Q589.2341 336.79376 590.2028 337.21564Q591.1716 337.6219 591.6872 338.41876Q592.21844 339.21564 592.2653 340.21564L590.8122 340.325Q590.6872 339.2469 590.0153 338.7Q589.34344 338.1375 588.0153 338.1375Q586.6403 338.1375 586.0153 338.6375Q585.3903 339.1375 585.3903 339.85626Q585.3903 340.46564 585.8278 340.8719Q586.2653 341.2625 588.1091 341.6844Q589.96844 342.10626 590.65594 342.41876Q591.65594 342.8719 592.1247 343.59064Q592.6091 344.29376 592.6091 345.21564Q592.6091 346.1219 592.0778 346.9344Q591.5622 347.7469 590.5778 348.2Q589.59344 348.65314 588.3747 348.65314Q586.8122 348.65314 585.7653 348.2Q584.71844 347.73126 584.1091 346.825Q583.5153 345.91876 583.4841 344.7625ZM594.2966 344.29376Q594.2966 341.9969 595.5778 340.8875Q596.65594 339.96564 598.1872 339.96564Q599.90594 339.96564 600.9841 341.09064Q602.0778 342.2 602.0778 344.1844Q602.0778 345.77814 601.59344 346.7Q601.1091 347.6219 600.1872 348.1375Q599.28094 348.6375 598.1872 348.6375Q596.4528 348.6375 595.3747 347.52814Q594.2966 346.40314 594.2966 344.29376ZM595.7497 344.29376Q595.7497 345.8875 596.4372 346.6844Q597.1403 347.48126 598.1872 347.48126Q599.2341 347.48126 599.9216 346.6844Q600.6247 345.8875 600.6247 344.2469Q600.6247 342.71564 599.9216 341.91876Q599.2341 341.1219 598.1872 341.1219Q597.1403 341.1219 596.4372 341.91876Q595.7497 342.7 595.7497 344.29376ZM603.7966 348.45L603.7966 336.9969L605.2028 336.9969L605.2028 348.45L603.7966 348.45ZM609.1247 348.45L605.96844 340.15314L607.4528 340.15314L609.2341 345.1219Q609.53094 345.91876 609.7653 346.79376Q609.9528 346.1375 610.2966 345.21564L612.1403 340.15314L613.5778 340.15314L610.4372 348.45L609.1247 348.45ZM613.8278 338.60626L613.8278 336.9969L615.2341 336.9969L615.2341 338.60626L613.8278 338.60626ZM613.8278 348.45L613.8278 340.15314L615.2341 340.15314L615.2341 348.45L613.8278 348.45ZM617.8278 348.45L617.8278 340.15314L619.09344 340.15314L619.09344 341.325Q619.9997 339.96564 621.7341 339.96564Q622.4841 339.96564 623.1091 340.23126Q623.7341 340.4969 624.0466 340.9344Q624.3591 341.3719 624.4841 341.98126Q624.5622 342.3719 624.5622 343.34064L624.5622 348.45L623.15594 348.45L623.15594 343.40314Q623.15594 342.54376 622.9841 342.1219Q622.8278 341.6844 622.40594 341.4344Q621.9997 341.1844 621.4372 341.1844Q620.53094 341.1844 619.8747 341.7625Q619.2341 342.325 619.2341 343.91876L619.2341 348.45L617.8278 348.45ZM625.5622 349.1375L626.9372 349.34064Q627.0153 349.98126 627.40594 350.2625Q627.9372 350.65314 628.84344 350.65314Q629.8122 350.65314 630.34344 350.2625Q630.8747 349.8719 631.0622 349.16876Q631.1716 348.7469 631.1716 347.35626Q630.2497 348.45 628.8747 348.45Q627.15594 348.45 626.21844 347.21564Q625.28094 345.98126 625.28094 344.2469Q625.28094 343.0594 625.7028 342.0594Q626.1403 341.0594 626.9528 340.5125Q627.78094 339.96564 628.8747 339.96564Q630.34344 339.96564 631.2966 341.15314L631.2966 340.15314L632.59344 340.15314L632.59344 347.325Q632.59344 349.2625 632.2028 350.075Q631.8122 350.8875 630.9528 351.35626Q630.09344 351.825 628.84344 351.825Q627.3591 351.825 626.4372 351.15314Q625.53094 350.48126 625.5622 349.1375ZM626.7341 344.15314Q626.7341 345.77814 627.3747 346.52814Q628.03094 347.27814 628.9997 347.27814Q629.96844 347.27814 630.6247 346.54376Q631.28094 345.79376 631.28094 344.2Q631.28094 342.66876 630.6091 341.90314Q629.9372 341.1219 628.9841 341.1219Q628.0466 341.1219 627.3903 341.8875Q626.7341 342.65314 626.7341 344.15314Z" fill-rule="nonzero"/><path fill="#c27ba0" d="M241.5 24.05C241.5 23.497715 241.94771 23.05 242.5 23.05L252.5 23.05C253.05229 23.05 253.5 23.497715 253.5 24.05L253.5 34.05C253.5 34.602283 253.05229 35.05 252.5 35.05L242.5 35.05C241.94771 35.05 241.5 34.602283 241.5 34.05Z" fill-rule="nonzero"/><path fill="#1a1a1a" d="M262.92188 35.55L262.92188 22.659374L268.625 22.659374Q270.34375 22.659374 271.23438 23.01875Q272.14062 23.3625 272.67188 24.2375Q273.21875 25.1125 273.21875 26.175Q273.21875 27.55 272.32812 28.4875Q271.4375 29.425 269.59375 29.690624Q270.26562 30.01875 270.60938 30.33125Q271.35938 31.01875 272.03125 32.05L274.26562 35.55L272.125 35.55L270.42188 32.8625Q269.67188 31.70625 269.1875 31.096874Q268.70312 30.471874 268.3125 30.2375Q267.9375 29.9875 267.54688 29.89375Q267.25 29.83125 266.59375 29.83125L264.625 29.83125L264.625 35.55L262.92188 35.55ZM264.625 28.346874L268.28125 28.346874Q269.45312 28.346874 270.10938 28.1125Q270.76562 27.8625 271.10938 27.33125Q271.45312 26.8 271.45312 26.175Q271.45312 25.26875 270.78125 24.675Q270.125 24.08125 268.70312 24.08125L264.625 24.08125L264.625 28.346874ZM275.09375 30.878124Q275.09375 28.284374 276.54688 27.034374Q277.75 26.003124 279.46875 26.003124Q281.40625 26.003124 282.625 27.26875Q283.84375 28.534374 283.84375 30.753124Q283.84375 32.55 283.29688 33.58125Q282.76562 34.6125 281.73438 35.190624Q280.70312 35.76875 279.46875 35.76875Q277.51562 35.76875 276.29688 34.51875Q275.09375 33.253124 275.09375 30.878124ZM276.71875 30.878124Q276.71875 32.675 277.5 33.565624Q278.28125 34.45625 279.46875 34.45625Q280.65625 34.45625 281.4375 33.565624Q282.21875 32.659374 282.21875 30.83125Q282.21875 29.096874 281.42188 28.20625Q280.64062 27.315624 279.46875 27.315624Q278.28125 27.315624 277.5 28.20625Q276.71875 29.096874 276.71875 30.878124ZM291.79688 35.55L291.79688 34.175Q290.71875 35.76875 288.84375 35.76875Q288.01562 35.76875 287.29688 35.45625Q286.57812 35.128124 286.23438 34.659374Q285.89062 34.175 285.75 33.471874Q285.65625 33.003124 285.65625 32.003124L285.65625 26.221874L287.23438 26.221874L287.23438 31.39375Q287.23438 32.628124 287.32812 33.065624Q287.48438 33.690624 287.96875 34.05Q288.45312 34.39375 289.15625 34.39375Q289.875 34.39375 290.5 34.034374Q291.125 33.675 291.375 33.05Q291.64062 32.409374 291.64062 31.221874L291.64062 26.221874L293.21875 26.221874L293.21875 35.55L291.79688 35.55ZM295.39062 36.33125L296.9375 36.55Q297.03125 37.26875 297.46875 37.596874Q298.0625 38.034374 299.07812 38.034374Q300.17188 38.034374 300.76562 37.58125Q301.375 37.14375 301.57812 36.3625Q301.70312 35.878124 301.70312 34.33125Q300.65625 35.55 299.10938 35.55Q297.1875 35.55 296.125 34.159374Q295.07812 32.76875 295.07812 30.83125Q295.07812 29.4875 295.5625 28.3625Q296.04688 27.2375 296.96875 26.628124Q297.89062 26.003124 299.125 26.003124Q300.78125 26.003124 301.84375 27.346874L301.84375 26.221874L303.3125 26.221874L303.3125 34.284374Q303.3125 36.471874 302.85938 37.378124Q302.42188 38.284374 301.45312 38.8Q300.5 39.33125 299.09375 39.33125Q297.42188 39.33125 296.39062 38.58125Q295.35938 37.83125 295.39062 36.33125ZM296.70312 30.721874Q296.70312 32.55 297.4375 33.39375Q298.17188 34.2375 299.26562 34.2375Q300.35938 34.2375 301.09375 33.409374Q301.82812 32.565624 301.82812 30.76875Q301.82812 29.05 301.0625 28.190624Q300.3125 27.315624 299.23438 27.315624Q298.1875 27.315624 297.4375 28.175Q296.70312 29.034374 296.70312 30.721874ZM312.07812 32.55L313.71875 32.753124Q313.32812 34.175 312.28125 34.971874Q311.23438 35.76875 309.60938 35.76875Q307.5625 35.76875 306.35938 34.503124Q305.15625 33.2375 305.15625 30.95625Q305.15625 28.6125 306.35938 27.315624Q307.57812 26.003124 309.51562 26.003124Q311.39062 26.003124 312.57812 27.284374Q313.76562 28.55 313.76562 30.8625Q313.76562 31.003124 313.75 31.284374L306.79688 31.284374Q306.875 32.83125 307.65625 33.64375Q308.45312 34.45625 309.60938 34.45625Q310.48438 34.45625 311.09375 34.003124Q311.71875 33.55 312.07812 32.55ZM306.875 29.9875L312.09375 29.9875Q311.98438 28.815624 311.5 28.221874Q310.73438 27.3 309.53125 27.3Q308.45312 27.3 307.70312 28.034374Q306.96875 28.76875 306.875 29.9875ZM315.8125 35.55L315.8125 22.659374L317.53125 22.659374L317.53125 34.034374L323.875 34.034374L323.875 35.55L315.8125 35.55ZM325.04688 32.76875L326.625 32.51875Q326.75 33.45625 327.34375 33.95625Q327.95312 34.45625 329.03125 34.45625Q330.125 34.45625 330.65625 34.01875Q331.1875 33.565624 331.1875 32.971874Q331.1875 32.440624 330.71875 32.128124Q330.39062 31.925 329.09375 31.596874Q327.35938 31.159374 326.6875 30.846874Q326.01562 30.51875 325.65625 29.95625Q325.3125 29.378124 325.3125 28.690624Q325.3125 28.065624 325.59375 27.534374Q325.89062 27.003124 326.375 26.659374Q326.75 26.378124 327.39062 26.190624Q328.03125 26.003124 328.75 26.003124Q329.85938 26.003124 330.6875 26.33125Q331.51562 26.64375 331.90625 27.190624Q332.3125 27.721874 332.45312 28.628124L330.90625 28.83125Q330.79688 28.1125 330.29688 27.70625Q329.79688 27.3 328.875 27.3Q327.78125 27.3 327.3125 27.659374Q326.84375 28.01875 326.84375 28.503124Q326.84375 28.815624 327.04688 29.065624Q327.23438 29.315624 327.64062 29.4875Q327.89062 29.565624 329.04688 29.89375Q330.71875 30.33125 331.375 30.628124Q332.04688 30.909374 332.42188 31.45625Q332.8125 32.003124 332.8125 32.8Q332.8125 33.596874 332.34375 34.3Q331.89062 35.003124 331.01562 35.39375Q330.14062 35.76875 329.04688 35.76875Q327.21875 35.76875 326.26562 35.01875Q325.3125 34.253124 325.04688 32.76875ZM340.79688 35.55L340.79688 34.175Q339.71875 35.76875 337.84375 35.76875Q337.01562 35.76875 336.29688 35.45625Q335.57812 35.128124 335.23438 34.659374Q334.89062 34.175 334.75 33.471874Q334.65625 33.003124 334.65625 32.003124L334.65625 26.221874L336.23438 26.221874L336.23438 31.39375Q336.23438 32.628124 336.32812 33.065624Q336.48438 33.690624 336.96875 34.05Q337.45312 34.39375 338.15625 34.39375Q338.875 34.39375 339.5 34.034374Q340.125 33.675 340.375 33.05Q340.64062 32.409374 340.64062 31.221874L340.64062 26.221874L342.21875 26.221874L342.21875 35.55L340.79688 35.55ZM344.6875 35.55L344.6875 26.221874L346.10938 26.221874L346.10938 27.51875Q346.54688 26.846874 347.26562 26.425Q348.0 26.003124 348.9375 26.003124Q349.96875 26.003124 350.625 26.440624Q351.29688 26.8625 351.5625 27.64375Q352.67188 26.003124 354.45312 26.003124Q355.84375 26.003124 356.57812 26.784374Q357.32812 27.55 357.32812 29.14375L357.32812 35.55L355.76562 35.55L355.76562 29.675Q355.76562 28.721874 355.60938 28.3Q355.45312 27.878124 355.04688 27.628124Q354.64062 27.378124 354.09375 27.378124Q353.10938 27.378124 352.45312 28.034374Q351.8125 28.690624 351.8125 30.128124L351.8125 35.55L350.23438 35.55L350.23438 29.4875Q350.23438 28.425 349.84375 27.909374Q349.45312 27.378124 348.57812 27.378124Q347.90625 27.378124 347.34375 27.7375Q346.78125 28.08125 346.51562 28.753124Q346.26562 29.425 346.26562 30.70625L346.26562 35.55L344.6875 35.55Z" fill-rule="nonzero"/><path fill="#a4c2f4" d="M373.5 24.05C373.5 23.497715 373.94772 23.05 374.5 23.05L384.5 23.05C385.05228 23.05 385.5 23.497715 385.5 24.05L385.5 34.05C385.5 34.602283 385.05228 35.05 384.5 35.05L374.5 35.05C373.94772 35.05 373.5 34.602283 373.5 34.05Z" fill-rule="nonzero"/><path fill="#1a1a1a" d="M394.8125 35.55L394.8125 22.659374L399.65625 22.659374Q401.125 22.659374 402.01562 23.05Q402.90625 23.440624 403.40625 24.253124Q403.92188 25.065624 403.92188 25.95625Q403.92188 26.784374 403.46875 27.51875Q403.03125 28.253124 402.125 28.690624Q403.29688 29.034374 403.92188 29.8625Q404.54688 30.690624 404.54688 31.815624Q404.54688 32.721874 404.15625 33.503124Q403.78125 34.26875 403.21875 34.690624Q402.65625 35.1125 401.8125 35.33125Q400.96875 35.55 399.73438 35.55L394.8125 35.55ZM396.53125 28.08125L399.3125 28.08125Q400.4375 28.08125 400.9375 27.925Q401.59375 27.7375 401.92188 27.3Q402.25 26.846874 402.25 26.159374Q402.25 25.51875 401.9375 25.034374Q401.625 24.55 401.04688 24.378124Q400.48438 24.190624 399.09375 24.190624L396.53125 24.190624L396.53125 28.08125ZM396.53125 34.034374L399.73438 34.034374Q400.5625 34.034374 400.89062 33.971874Q401.48438 33.8625 401.875 33.6125Q402.26562 33.3625 402.51562 32.89375Q402.78125 32.425 402.78125 31.815624Q402.78125 31.096874 402.40625 30.565624Q402.04688 30.034374 401.39062 29.815624Q400.73438 29.596874 399.5 29.596874L396.53125 29.596874L396.53125 34.034374ZM406.8125 35.55L406.8125 22.659374L408.53125 22.659374L408.53125 34.034374L414.875 34.034374L414.875 35.55L406.8125 35.55ZM416.92188 35.55L416.92188 22.659374L426.23438 22.659374L426.23438 24.190624L418.625 24.190624L418.625 28.128124L425.75 28.128124L425.75 29.64375L418.625 29.64375L418.625 34.034374L426.54688 34.034374L426.54688 35.55L416.92188 35.55ZM437.34375 22.659374L439.04688 22.659374L439.04688 30.1125Q439.04688 32.05 438.60938 33.190624Q438.17188 34.33125 437.01562 35.05Q435.875 35.76875 434.01562 35.76875Q432.20312 35.76875 431.04688 35.14375Q429.90625 34.51875 429.40625 33.346874Q428.92188 32.159374 428.92188 30.1125L428.92188 22.659374L430.625 22.659374L430.625 30.096874Q430.625 31.784374 430.9375 32.58125Q431.25 33.3625 432.0 33.8Q432.76562 34.2375 433.85938 34.2375Q435.75 34.2375 436.54688 33.378124Q437.34375 32.51875 437.34375 30.096874L437.34375 22.659374Z" fill-rule="nonzero"/></svg>