<svg version="1.1" viewBox="0.0 0.0 686.0 371.0" fill="none" stroke="none" stroke-linecap="square" stroke-miterlimit="10" width="686" height="371" xmlns:xlink="http://www.w3.org/1999/xlink" xmlns="http://www.w3.org/2000/svg"><path fill="#ffffff" d="M0 0L686.0 0L686.0 371.0L0 371.0L0 0Z" fill-rule="nonzero"/><path stroke="#333333" stroke-width="1.0" stroke-linecap="butt" d="M86.5 329.5L667.5 329.5" fill-rule="nonzero"/><path stroke="#cccccc" stroke-width="1.0" stroke-linecap="butt" d="M86.5 237.5L667.5 237.5" fill-rule="nonzero"/><path stroke="#cccccc" stroke-width="1.0" stroke-linecap="butt" d="M86.5 146.5L667.5 146.5" fill-rule="nonzero"/><path stroke="#cccccc" stroke-width="1.0" stroke-linecap="butt" d="M86.5 54.5L667.5 54.5" fill-rule="nonzero"/><clipPath id="id_0"><path d="M86.55 54.916668L667.45 54.916668L667.45 329.45L86.55 329.45L86.55 54.916668Z" clip-rule="nonzero"/></clipPath><path stroke="#000000" stroke-width="2.0" stroke-linecap="butt" stroke-opacity="0.0" clip-path="url(#id_0)" d="M147.0 329.0L125.0 329.0L125.0 287.0C125.0 285.89542 125.89543 285.0 127.0 285.0L145.0 285.0C146.10457 285.0 147.0 285.89542 147.0 287.0Z" fill-rule="nonzero"/><path fill="#4285f4" clip-path="url(#id_0)" d="M147.0 329.0L125.0 329.0L125.0 287.0C125.0 285.89542 125.89543 285.0 127.0 285.0L145.0 285.0C146.10457 285.0 147.0 285.89542 147.0 287.0Z" fill-rule="nonzero"/><path stroke="#000000" stroke-width="2.0" stroke-linecap="butt" stroke-opacity="0.0" clip-path="url(#id_0)" d="M255.0 329.0L233.0 329.0L233.0 310.0C233.0 308.89542 233.89543 308.0 235.0 308.0L253.0 308.0C254.10457 308.0 255.0 308.89542 255.0 310.0Z" fill-rule="nonzero"/><path fill="#4285f4" clip-path="url(#id_0)" d="M255.0 329.0L233.0 329.0L233.0 310.0C233.0 308.89542 233.89543 308.0 235.0 308.0L253.0 308.0C254.10457 308.0 255.0 308.89542 255.0 310.0Z" fill-rule="nonzero"/><path stroke="#000000" stroke-width="2.0" stroke-linecap="butt" stroke-opacity="0.0" clip-path="url(#id_0)" d="M364.0 329.0L342.0 329.0L342.0 124.0C342.0 122.89543 342.89542 122.0 344.0 122.0L362.0 122.0C363.10458 122.0 364.0 122.89543 364.0 124.0Z" fill-rule="nonzero"/><path fill="#4285f4" clip-path="url(#id_0)" d="M364.0 329.0L342.0 329.0L342.0 124.0C342.0 122.89543 342.89542 122.0 344.0 122.0L362.0 122.0C363.10458 122.0 364.0 122.89543 364.0 124.0Z" fill-rule="nonzero"/><path stroke="#000000" stroke-width="2.0" stroke-linecap="butt" stroke-opacity="0.0" clip-path="url(#id_0)" d="M473.0 329.0L451.0 329.0L451.0 158.0C451.0 156.89543 451.89542 156.0 453.0 156.0L471.0 156.0C472.10458 156.0 473.0 156.89543 473.0 158.0Z" fill-rule="nonzero"/><path fill="#4285f4" clip-path="url(#id_0)" d="M473.0 329.0L451.0 329.0L451.0 158.0C451.0 156.89543 451.89542 156.0 453.0 156.0L471.0 156.0C472.10458 156.0 473.0 156.89543 473.0 158.0Z" fill-rule="nonzero"/><path stroke="#000000" stroke-width="2.0" stroke-linecap="butt" stroke-opacity="0.0" clip-path="url(#id_0)" d="M581.0 329.0L559.0 329.0L559.0 88.0C559.0 86.89543 559.89545 86.0 561.0 86.0L579.0 86.0C580.10455 86.0 581.0 86.89543 581.0 88.0Z" fill-rule="nonzero"/><path fill="#4285f4" clip-path="url(#id_0)" d="M581.0 329.0L559.0 329.0L559.0 88.0C559.0 86.89543 559.89545 86.0 561.0 86.0L579.0 86.0C580.10455 86.0 581.0 86.89543 581.0 88.0Z" fill-rule="nonzero"/><path stroke="#000000" stroke-width="2.0" stroke-linecap="butt" stroke-opacity="0.0" clip-path="url(#id_0)" d="M171.0 329.0L149.0 329.0L149.0 291.0C149.0 289.89542 149.89543 289.0 151.0 289.0L169.0 289.0C170.10457 289.0 171.0 289.89542 171.0 291.0Z" fill-rule="nonzero"/><path fill="#ea4335" clip-path="url(#id_0)" d="M171.0 329.0L149.0 329.0L149.0 291.0C149.0 289.89542 149.89543 289.0 151.0 289.0L169.0 289.0C170.10457 289.0 171.0 289.89542 171.0 291.0Z" fill-rule="nonzero"/><path stroke="#000000" stroke-width="2.0" stroke-linecap="butt" stroke-opacity="0.0" clip-path="url(#id_0)" d="M279.0 329.0L257.0 329.0L257.0 309.0C257.0 307.89542 257.89542 307.0 259.0 307.0L277.0 307.0C278.10458 307.0 279.0 307.89542 279.0 309.0Z" fill-rule="nonzero"/><path fill="#ea4335" clip-path="url(#id_0)" d="M279.0 329.0L257.0 329.0L257.0 309.0C257.0 307.89542 257.89542 307.0 259.0 307.0L277.0 307.0C278.10458 307.0 279.0 307.89542 279.0 309.0Z" fill-rule="nonzero"/><path stroke="#000000" stroke-width="2.0" stroke-linecap="butt" stroke-opacity="0.0" clip-path="url(#id_0)" d="M388.0 329.0L366.0 329.0L366.0 105.0C366.0 103.89543 366.89542 103.0 368.0 103.0L386.0 103.0C387.10458 103.0 388.0 103.89543 388.0 105.0Z" fill-rule="nonzero"/><path fill="#ea4335" clip-path="url(#id_0)" d="M388.0 329.0L366.0 329.0L366.0 105.0C366.0 103.89543 366.89542 103.0 368.0 103.0L386.0 103.0C387.10458 103.0 388.0 103.89543 388.0 105.0Z" fill-rule="nonzero"/><path stroke="#000000" stroke-width="2.0" stroke-linecap="butt" stroke-opacity="0.0" clip-path="url(#id_0)" d="M497.0 329.0L475.0 329.0L475.0 136.0C475.0 134.89543 475.89542 134.0 477.0 134.0L495.0 134.0C496.10458 134.0 497.0 134.89543 497.0 136.0Z" fill-rule="nonzero"/><path fill="#ea4335" clip-path="url(#id_0)" d="M497.0 329.0L475.0 329.0L475.0 136.0C475.0 134.89543 475.89542 134.0 477.0 134.0L495.0 134.0C496.10458 134.0 497.0 134.89543 497.0 136.0Z" fill-rule="nonzero"/><path stroke="#000000" stroke-width="2.0" stroke-linecap="butt" stroke-opacity="0.0" clip-path="url(#id_0)" d="M605.0 329.0L583.0 329.0L583.0 84.0C583.0 82.89543 583.89545 82.0 585.0 82.0L603.0 82.0C604.10455 82.0 605.0 82.89543 605.0 84.0Z" fill-rule="nonzero"/><path fill="#ea4335" clip-path="url(#id_0)" d="M605.0 329.0L583.0 329.0L583.0 84.0C583.0 82.89543 583.89545 82.0 585.0 82.0L603.0 82.0C604.10455 82.0 605.0 82.89543 605.0 84.0Z" fill-rule="nonzero"/><path stroke="#000000" stroke-width="2.0" stroke-linecap="butt" stroke-opacity="0.0" clip-path="url(#id_0)" d="M195.0 329.0L173.0 329.0L173.0 273.0C173.0 271.89542 173.89543 271.0 175.0 271.0L193.0 271.0C194.10457 271.0 195.0 271.89542 195.0 273.0Z" fill-rule="nonzero"/><path fill="#fbbc04" clip-path="url(#id_0)" d="M195.0 329.0L173.0 329.0L173.0 273.0C173.0 271.89542 173.89543 271.0 175.0 271.0L193.0 271.0C194.10457 271.0 195.0 271.89542 195.0 273.0Z" fill-rule="nonzero"/><path stroke="#000000" stroke-width="2.0" stroke-linecap="butt" stroke-opacity="0.0" clip-path="url(#id_0)" d="M303.0 329.0L281.0 329.0L281.0 305.0C281.0 303.89542 281.89542 303.0 283.0 303.0L301.0 303.0C302.10458 303.0 303.0 303.89542 303.0 305.0Z" fill-rule="nonzero"/><path fill="#fbbc04" clip-path="url(#id_0)" d="M303.0 329.0L281.0 329.0L281.0 305.0C281.0 303.89542 281.89542 303.0 283.0 303.0L301.0 303.0C302.10458 303.0 303.0 303.89542 303.0 305.0Z" fill-rule="nonzero"/><path stroke="#000000" stroke-width="2.0" stroke-linecap="butt" stroke-opacity="0.0" clip-path="url(#id_0)" d="M412.0 329.0L390.0 329.0L390.0 103.0C390.0 101.89543 390.89542 101.0 392.0 101.0L410.0 101.0C411.10458 101.0 412.0 101.89543 412.0 103.0Z" fill-rule="nonzero"/><path fill="#fbbc04" clip-path="url(#id_0)" d="M412.0 329.0L390.0 329.0L390.0 103.0C390.0 101.89543 390.89542 101.0 392.0 101.0L410.0 101.0C411.10458 101.0 412.0 101.89543 412.0 103.0Z" fill-rule="nonzero"/><path stroke="#000000" stroke-width="2.0" stroke-linecap="butt" stroke-opacity="0.0" clip-path="url(#id_0)" d="M521.0 329.0L499.0 329.0L499.0 132.0C499.0 130.89543 499.89542 130.0 501.0 130.0L519.0 130.0C520.10455 130.0 521.0 130.89543 521.0 132.0Z" fill-rule="nonzero"/><path fill="#fbbc04" clip-path="url(#id_0)" d="M521.0 329.0L499.0 329.0L499.0 132.0C499.0 130.89543 499.89542 130.0 501.0 130.0L519.0 130.0C520.10455 130.0 521.0 130.89543 521.0 132.0Z" fill-rule="nonzero"/><path stroke="#000000" stroke-width="2.0" stroke-linecap="butt" stroke-opacity="0.0" clip-path="url(#id_0)" d="M629.0 329.0L607.0 329.0L607.0 84.0C607.0 82.89543 607.89545 82.0 609.0 82.0L627.0 82.0C628.10455 82.0 629.0 82.89543 629.0 84.0Z" fill-rule="nonzero"/><path fill="#fbbc04" clip-path="url(#id_0)" d="M629.0 329.0L607.0 329.0L607.0 84.0C607.0 82.89543 607.89545 82.0 609.0 82.0L627.0 82.0C628.10455 82.0 629.0 82.89543 629.0 84.0Z" fill-rule="nonzero"/><path fill="#000000" d="M31.550013 241.69896L21.534388 237.85521L21.534388 236.43333L31.550013 232.32396L31.550013 233.83958L28.518763 235.01146L28.518763 239.19896L31.550013 240.29271L31.550013 241.69896ZM27.440638 238.80833L27.440638 235.41771L24.659388 236.46458Q23.393763 236.93333 22.581263 237.16771Q23.550013 237.35521 24.487513 237.71458L27.440638 238.80833ZM28.893763 227.02708L29.050013 225.80833Q30.300013 226.01146 31.018763 226.83958Q31.721888 227.65208 31.721888 228.83958Q31.721888 230.32396 30.753138 231.23021Q29.768763 232.13646 27.940638 232.13646Q26.768763 232.13646 25.893763 231.74583Q25.003138 231.35521 24.565638 230.55833Q24.128138 229.76146 24.128138 228.82396Q24.128138 227.65208 24.721888 226.90208Q25.315638 226.13646 26.425013 225.93333L26.612513 227.12083Q25.878138 227.29271 25.518763 227.73021Q25.143763 228.16771 25.143763 228.77708Q25.143763 229.71458 25.815638 230.29271Q26.471888 230.87083 27.909388 230.87083Q29.378138 230.87083 30.050013 230.30833Q30.706263 229.74583 30.706263 228.85521Q30.706263 228.12083 30.268763 227.63646Q29.815638 227.15208 28.893763 227.02708ZM28.893763 220.02708L29.050013 218.80833Q30.300013 219.01146 31.018763 219.83958Q31.721888 220.65208 31.721888 221.83958Q31.721888 223.32396 30.753138 224.23021Q29.768763 225.13646 27.940638 225.13646Q26.768763 225.13646 25.893763 224.74583Q25.003138 224.35521 24.565638 223.55833Q24.128138 222.76146 24.128138 221.82396Q24.128138 220.65208 24.721888 219.90208Q25.315638 219.13646 26.425013 218.93333L26.612513 220.12083Q25.878138 220.29271 25.518763 220.73021Q25.143763 221.16771 25.143763 221.77708Q25.143763 222.71458 25.815638 223.29271Q26.471888 223.87083 27.909388 223.87083Q29.378138 223.87083 30.050013 223.30833Q30.706263 222.74583 30.706263 221.85521Q30.706263 221.12083 30.268763 220.63646Q29.815638 220.15208 28.893763 220.02708ZM31.550013 212.99583L30.487513 212.99583Q31.721888 213.85521 31.721888 215.30833Q31.721888 215.94896 31.471888 216.51146Q31.221888 217.05833 30.846888 217.33958Q30.471888 217.60521 29.940638 217.71458Q29.581263 217.79271 28.784388 217.79271L24.284388 217.79271L24.284388 216.55833L28.315638 216.55833Q29.284388 216.55833 29.612513 216.48021Q30.096888 216.37083 30.378138 215.99583Q30.659388 215.62083 30.659388 215.05833Q30.659388 214.51146 30.378138 214.02708Q30.081263 213.54271 29.596888 213.33958Q29.112513 213.13646 28.175013 213.13646L24.284388 213.13646L24.284388 211.90208L31.550013 211.90208L31.550013 212.99583ZM31.550013 209.77708L24.284388 209.77708L24.284388 208.66771L25.393763 208.66771Q24.612513 208.24583 24.378138 207.88646Q24.128138 207.52708 24.128138 207.08958Q24.128138 206.46458 24.518763 205.82396L25.659388 206.24583Q25.393763 206.69896 25.393763 207.15208Q25.393763 207.55833 25.643763 207.88646Q25.878138 208.19896 26.315638 208.33958Q26.971888 208.54271 27.753138 208.54271L31.550013 208.54271L31.550013 209.77708ZM30.659388 200.02708Q31.237513 200.69896 31.487513 201.33958Q31.721888 201.96458 31.721888 202.69896Q31.721888 203.88646 31.143763 204.54271Q30.550013 205.18333 29.628138 205.18333Q29.096888 205.18333 28.659388 204.94896Q28.221888 204.69896 27.956263 204.30833Q27.690638 203.90208 27.550013 203.41771Q27.456263 203.05833 27.362513 202.32396Q27.190638 200.82396 26.940638 200.12083Q26.690638 200.12083 26.628138 200.12083Q25.862513 200.12083 25.565638 200.46458Q25.143763 200.93333 25.143763 201.87083Q25.143763 202.73021 25.456263 203.15208Q25.753138 203.55833 26.518763 203.76146L26.362513 204.96458Q25.581263 204.80833 25.112513 204.43333Q24.643763 204.04271 24.393763 203.33958Q24.128138 202.62083 24.128138 201.68333Q24.128138 200.76146 24.346888 200.18333Q24.565638 199.60521 24.893763 199.33958Q25.221888 199.05833 25.737513 198.94896Q26.050013 198.88646 26.862513 198.88646L28.503138 198.88646Q30.221888 198.88646 30.675013 198.80833Q31.128138 198.73021 31.550013 198.49583L31.550013 199.77708Q31.159388 199.96458 30.659388 200.02708ZM27.909388 200.12083Q28.175013 200.79271 28.378138 202.13646Q28.487513 202.88646 28.628138 203.21458Q28.753138 203.52708 29.018763 203.69896Q29.284388 203.87083 29.596888 203.87083Q30.096888 203.87083 30.425013 203.49583Q30.753138 203.12083 30.753138 202.40208Q30.753138 201.68333 30.440638 201.13646Q30.128138 200.58958 29.581263 200.32396Q29.175013 200.12083 28.362513 200.12083L27.909388 200.12083ZM28.893763 192.02708L29.050013 190.80833Q30.300013 191.01146 31.018763 191.83958Q31.721888 192.65208 31.721888 193.83958Q31.721888 195.32396 30.753138 196.23021Q29.768763 197.13646 27.940638 197.13646Q26.768763 197.13646 25.893763 196.74583Q25.003138 196.35521 24.565638 195.55833Q24.128138 194.76146 24.128138 193.82396Q24.128138 192.65208 24.721888 191.90208Q25.315638 191.13646 26.425013 190.93333L26.612513 192.12083Q25.878138 192.29271 25.518763 192.73021Q25.143763 193.16771 25.143763 193.77708Q25.143763 194.71458 25.815638 195.29271Q26.471888 195.87083 27.909388 195.87083Q29.378138 195.87083 30.050013 195.30833Q30.706263 194.74583 30.706263 193.85521Q30.706263 193.12083 30.268763 192.63646Q29.815638 192.15208 28.893763 192.02708ZM34.346886 189.80833L33.190636 189.94896Q33.30001 189.54271 33.30001 189.24583Q33.30001 188.83958 33.159386 188.58958Q33.034386 188.33958 32.784386 188.18333Q32.596886 188.07396 31.862513 187.80833Q31.768763 187.77708 31.565638 187.69896L24.284388 190.46458L24.284388 189.13646L28.487513 187.62083Q29.300013 187.32396 30.175013 187.08958Q29.331263 186.88646 28.518763 186.58958L24.284388 185.04271L24.284388 183.80833L31.675013 186.57396Q32.86251 187.01146 33.315636 187.26146Q33.92501 187.58958 34.20626 188.01146Q34.503136 188.43333 34.503136 189.02708Q34.503136 189.37083 34.346886 189.80833ZM34.503136 176.40208Q33.20626 177.43333 31.487513 178.13646Q29.768763 178.83958 27.925013 178.83958Q26.300013 178.83958 24.800013 178.30833Q23.065638 177.69896 21.362513 176.40208L21.362513 175.52708Q22.784388 176.35521 23.393763 176.62083Q24.331263 177.04271 25.362513 177.27708Q26.628138 177.57396 27.925013 177.57396Q31.221888 177.57396 34.503136 175.52708L34.503136 176.40208ZM23.940638 173.87083Q22.862513 173.87083 22.112513 173.33958Q21.362513 172.79271 21.362513 171.76146Q21.362513 170.82396 22.034388 170.21458Q22.706263 169.58958 24.003138 169.58958Q25.284388 169.58958 25.971888 170.21458Q26.659388 170.83958 26.659388 171.74583Q26.659388 172.65208 25.987513 173.26146Q25.300013 173.87083 23.940638 173.87083ZM22.206263 171.73021Q22.206263 172.18333 22.612513 172.49583Q23.003138 172.79271 24.050013 172.79271Q25.018763 172.79271 25.409388 172.49583Q25.800013 172.18333 25.800013 171.73021Q25.800013 171.26146 25.409388 170.96458Q25.018763 170.65208 23.956263 170.65208Q22.987513 170.65208 22.596888 170.96458Q22.206263 171.27708 22.206263 171.73021ZM31.925013 171.73021L21.362513 166.24583L21.362513 165.24583L31.925013 170.69896L31.925013 171.73021ZM29.190638 167.38646Q28.112513 167.38646 27.378138 166.85521Q26.628138 166.30833 26.628138 165.27708Q26.628138 164.33958 27.300013 163.71458Q27.971888 163.08958 29.268763 163.08958Q30.550013 163.08958 31.237513 163.71458Q31.925013 164.33958 31.925013 165.27708Q31.925013 166.18333 31.253138 166.79271Q30.565638 167.38646 29.190638 167.38646ZM27.471888 165.24583Q27.471888 165.71458 27.878138 166.01146Q28.268763 166.30833 29.315638 166.30833Q30.284388 166.30833 30.675013 166.01146Q31.065638 165.69896 31.065638 165.24583Q31.065638 164.77708 30.675013 164.48021Q30.284388 164.16771 29.221888 164.16771Q28.253138 164.16771 27.862513 164.48021Q27.471888 164.77708 27.471888 165.24583ZM34.503136 160.94896L34.503136 161.83958Q31.221888 159.79271 27.925013 159.79271Q26.643763 159.79271 25.378138 160.08958Q24.346888 160.32396 23.409388 160.73021Q22.800013 160.99583 21.362513 161.83958L21.362513 160.94896Q23.065638 159.66771 24.800013 159.05833Q26.300013 158.52708 27.925013 158.52708Q29.768763 158.52708 31.487513 159.24583Q33.20626 159.94896 34.503136 160.94896Z" fill-rule="nonzero"/><path fill="#000000" d="M72.12813 329.5125Q72.12813 327.73126 72.4875 326.65314Q72.8625 325.5594 73.58125 324.98126Q74.3 324.3875 75.39375 324.3875Q76.20625 324.3875 76.81563 324.71564Q77.425 325.04376 77.81563 325.65314Q78.22188 326.2625 78.44063 327.1375Q78.65938 328.0125 78.65938 329.5125Q78.65938 331.27814 78.3 332.35626Q77.94063 333.4344 77.22188 334.02814Q76.50313 334.6219 75.39375 334.6219Q73.95625 334.6219 73.12813 333.575Q72.12813 332.325 72.12813 329.5125ZM73.39375 329.5125Q73.39375 331.98126 73.97188 332.79376Q74.55 333.60626 75.39375 333.60626Q76.25313 333.60626 76.83125 332.79376Q77.40938 331.96564 77.40938 329.5125Q77.40938 327.02814 76.83125 326.21564Q76.25313 325.40314 75.37813 325.40314Q74.53438 325.40314 74.03438 326.1219Q73.39375 327.04376 73.39375 329.5125Z" fill-rule="nonzero"/><path fill="#000000" d="M70.59688 241.75139L70.59688 242.93889L63.971874 242.93889Q63.95625 242.50139 64.1125 242.07951Q64.37813 241.40764 64.925 240.75139Q65.4875 240.09514 66.53438 239.23576Q68.175 237.89201 68.7375 237.11076Q69.31563 236.32951 69.31563 235.62639Q69.31563 234.89201 68.78438 234.39201Q68.26875 233.89201 67.44063 233.89201Q66.55 233.89201 66.00313 234.42326Q65.47188 234.95451 65.47188 235.90764L64.20625 235.76701Q64.33125 234.36076 65.175 233.62639Q66.03438 232.87639 67.45625 232.87639Q68.90938 232.87639 69.7375 233.67326Q70.58125 234.47014 70.58125 235.65764Q70.58125 236.26701 70.33125 236.84514Q70.09688 237.42326 69.51875 238.06389Q68.95625 238.70451 67.62813 239.82951Q66.51875 240.75139 66.20625 241.09514Q65.89375 241.42326 65.69063 241.75139L70.59688 241.75139ZM72.12813 238.00139Q72.12813 236.22014 72.4875 235.14201Q72.8625 234.04826 73.58125 233.47014Q74.3 232.87639 75.39375 232.87639Q76.20625 232.87639 76.81563 233.20451Q77.425 233.53264 77.81563 234.14201Q78.22188 234.75139 78.44063 235.62639Q78.65938 236.50139 78.65938 238.00139Q78.65938 239.76701 78.3 240.84514Q77.94063 241.92326 77.22188 242.51701Q76.50313 243.11076 75.39375 243.11076Q73.95625 243.11076 73.12813 242.06389Q72.12813 240.81389 72.12813 238.00139ZM73.39375 238.00139Q73.39375 240.47014 73.97188 241.28264Q74.55 242.09514 75.39375 242.09514Q76.25313 242.09514 76.83125 241.28264Q77.40938 240.45451 77.40938 238.00139Q77.40938 235.51701 76.83125 234.70451Q76.25313 233.89201 75.37813 233.89201Q74.53438 233.89201 74.03438 234.61076Q73.39375 235.53264 73.39375 238.00139Z" fill-rule="nonzero"/><path fill="#000000" d="M68.08125 151.42778L68.08125 149.02153L63.721874 149.02153L63.721874 147.89653L68.3 141.41216L69.3 141.41216L69.3 147.89653L70.65938 147.89653L70.65938 149.02153L69.3 149.02153L69.3 151.42778L68.08125 151.42778ZM68.08125 147.89653L68.08125 143.3809L64.94063 147.89653L68.08125 147.89653ZM72.12813 146.49028Q72.12813 144.70903 72.4875 143.6309Q72.8625 142.53716 73.58125 141.95903Q74.3 141.36528 75.39375 141.36528Q76.20625 141.36528 76.81563 141.6934Q77.425 142.02153 77.81563 142.6309Q78.22188 143.24028 78.44063 144.11528Q78.65938 144.99028 78.65938 146.49028Q78.65938 148.2559 78.3 149.33403Q77.94063 150.41216 77.22188 151.0059Q76.50313 151.59966 75.39375 151.59966Q73.95625 151.59966 73.12813 150.55278Q72.12813 149.30278 72.12813 146.49028ZM73.39375 146.49028Q73.39375 148.95903 73.97188 149.77153Q74.55 150.58403 75.39375 150.58403Q76.25313 150.58403 76.83125 149.77153Q77.40938 148.9434 77.40938 146.49028Q77.40938 144.0059 76.83125 143.1934Q76.25313 142.3809 75.37813 142.3809Q74.53438 142.3809 74.03438 143.09966Q73.39375 144.02153 73.39375 146.49028Z" fill-rule="nonzero"/><path fill="#000000" d="M70.51875 52.354168L69.3 52.447918Q69.12813 51.713543 68.83125 51.385418Q68.33125 50.869793 67.59688 50.869793Q67.00313 50.869793 66.56563 51.197918Q65.9875 51.619793 65.64375 52.432293Q65.31563 53.244793 65.3 54.744793Q65.7375 54.072918 66.37813 53.744793Q67.03438 53.416668 67.7375 53.416668Q68.97188 53.416668 69.83125 54.322918Q70.69063 55.229168 70.69063 56.666668Q70.69063 57.604168 70.28438 58.416668Q69.87813 59.229168 69.15938 59.666668Q68.45625 60.088543 67.55 60.088543Q66.01875 60.088543 65.05 58.963543Q64.08125 57.822918 64.08125 55.229168Q64.08125 52.322918 65.14375 50.994793Q66.08125 49.854168 67.675 49.854168Q68.8625 49.854168 69.6125 50.526043Q70.3625 51.182293 70.51875 52.354168ZM65.4875 56.666668Q65.4875 57.307293 65.75313 57.885418Q66.03438 58.463543 66.51875 58.776043Q67.00313 59.072918 67.53438 59.072918Q68.31563 59.072918 68.87813 58.447918Q69.44063 57.822918 69.44063 56.744793Q69.44063 55.697918 68.87813 55.104168Q68.33125 54.494793 67.4875 54.494793Q66.65938 54.494793 66.06563 55.104168Q65.4875 55.697918 65.4875 56.666668ZM72.12813 54.979168Q72.12813 53.197918 72.4875 52.119793Q72.8625 51.026043 73.58125 50.447918Q74.3 49.854168 75.39375 49.854168Q76.20625 49.854168 76.81563 50.182293Q77.425 50.510418 77.81563 51.119793Q78.22188 51.729168 78.44063 52.604168Q78.65938 53.479168 78.65938 54.979168Q78.65938 56.744793 78.3 57.822918Q77.94063 58.901043 77.22188 59.494793Q76.50313 60.088543 75.39375 60.088543Q73.95625 60.088543 73.12813 59.041668Q72.12813 57.791668 72.12813 54.979168ZM73.39375 54.979168Q73.39375 57.447918 73.97188 58.260418Q74.55 59.072918 75.39375 59.072918Q76.25313 59.072918 76.83125 58.260418Q77.40938 57.432293 77.40938 54.979168Q77.40938 52.494793 76.83125 51.682293Q76.25313 50.869793 75.37813 50.869793Q74.53438 50.869793 74.03438 51.588543Q73.39375 52.510418 73.39375 54.979168Z" fill-rule="nonzero"/><path fill="#000000" d="M113.60674 345.5125L113.60674 344.34064L117.85674 344.34064L117.85674 348.0594Q116.87237 348.84064 115.82549 349.23126Q114.79424 349.6219 113.70049 349.6219Q112.23174 349.6219 111.01299 348.9969Q109.80987 348.35626 109.20049 347.16876Q108.59112 345.96564 108.59112 344.48126Q108.59112 343.02814 109.20049 341.7625Q109.80987 340.48126 110.95049 339.8719Q112.10674 339.2625 113.60674 339.2625Q114.68487 339.2625 115.55987 339.6219Q116.45049 339.96564 116.95049 340.59064Q117.45049 341.21564 117.70049 342.23126L116.51299 342.5594Q116.27862 341.79376 115.93487 341.35626Q115.60674 340.91876 114.98174 340.65314Q114.37237 340.3875 113.60674 340.3875Q112.70049 340.3875 112.02862 340.66876Q111.37237 340.95 110.96612 341.40314Q110.55987 341.84064 110.34112 342.3875Q109.95049 343.325 109.95049 344.40314Q109.95049 345.7469 110.40362 346.65314Q110.87237 347.54376 111.74737 347.98126Q112.63799 348.41876 113.63799 348.41876Q114.49737 348.41876 115.30987 348.09064Q116.13799 347.7625 116.55987 347.3875L116.55987 345.5125L113.60674 345.5125ZM119.46612 346.23126L120.71612 346.1219Q120.80987 346.8719 121.13799 347.35626Q121.46612 347.84064 122.13799 348.1375Q122.82549 348.4344 123.68487 348.4344Q124.43487 348.4344 125.01299 348.21564Q125.60674 347.98126 125.88799 347.59064Q126.16924 347.2 126.16924 346.73126Q126.16924 346.2625 125.88799 345.91876Q125.62237 345.5594 124.99737 345.3094Q124.59112 345.15314 123.20049 344.825Q121.82549 344.4969 121.27862 344.2Q120.55987 343.825 120.20049 343.27814Q119.85674 342.71564 119.85674 342.0125Q119.85674 341.2625 120.27862 340.60626Q120.71612 339.9344 121.54424 339.60626Q122.37237 339.2625 123.38799 339.2625Q124.49737 339.2625 125.34112 339.6219Q126.20049 339.98126 126.65362 340.6844Q127.10674 341.3719 127.15362 342.2469L125.87237 342.34064Q125.77862 341.40314 125.18487 340.91876Q124.59112 340.41876 123.43487 340.41876Q122.23174 340.41876 121.68487 340.8719Q121.13799 341.3094 121.13799 341.9344Q121.13799 342.46564 121.52862 342.825Q121.90362 343.16876 123.51299 343.54376Q125.13799 343.90314 125.73174 344.16876Q126.60674 344.575 127.02862 345.2Q127.45049 345.8094 127.45049 346.6219Q127.45049 347.41876 126.98174 348.1375Q126.52862 348.84064 125.66924 349.23126Q124.80987 349.6219 123.74737 349.6219Q122.38799 349.6219 121.46612 349.23126Q120.54424 348.825 120.01299 348.02814Q119.49737 347.23126 119.46612 346.23126ZM128.888 349.45L128.888 339.4344L130.87238 339.4344L133.24738 346.52814Q133.5755 347.5125 133.73175 348.0125Q133.90363 347.46564 134.263 346.40314L136.65363 339.4344L138.4505 339.4344L138.4505 349.45L137.16925 349.45L137.16925 341.0594L134.24738 349.45L133.05988 349.45L130.15363 340.91876L130.15363 349.45L128.888 349.45ZM141.30988 344.0125Q140.54425 343.73126 140.16925 343.21564Q139.80988 342.7 139.80988 341.96564Q139.80988 340.8719 140.59113 340.1375Q141.388 339.3875 142.68488 339.3875Q143.99738 339.3875 144.79425 340.15314Q145.60675 340.91876 145.60675 342.0125Q145.60675 342.7 145.23175 343.21564Q144.87238 343.73126 144.12238 344.0125Q145.04425 344.3094 145.52863 344.98126Q146.013 345.65314 146.013 346.59064Q146.013 347.8719 145.10675 348.7469Q144.2005 349.6219 142.71613 349.6219Q141.23175 349.6219 140.30988 348.7469Q139.40363 347.85626 139.40363 346.54376Q139.40363 345.575 139.90363 344.91876Q140.40363 344.2469 141.30988 344.0125ZM141.0755 341.9344Q141.0755 342.6375 141.52863 343.09064Q141.98175 343.54376 142.71613 343.54376Q143.43488 343.54376 143.888 343.10626Q144.34113 342.65314 144.34113 341.9969Q144.34113 341.325 143.87238 340.8719Q143.40363 340.40314 142.7005 340.40314Q141.99738 340.40314 141.52863 340.85626Q141.0755 341.29376 141.0755 341.9344ZM140.66925 346.5594Q140.66925 347.09064 140.91925 347.59064Q141.16925 348.075 141.65363 348.34064Q142.15363 348.60626 142.73175 348.60626Q143.60675 348.60626 144.16925 348.04376Q144.74738 347.48126 144.74738 346.60626Q144.74738 345.71564 144.15363 345.1375Q143.5755 344.54376 142.68488 344.54376Q141.80988 344.54376 141.23175 345.1219Q140.66925 345.7 140.66925 346.5594ZM147.87238 349.45L147.87238 339.4344L149.2005 339.4344L149.2005 344.40314L154.16925 339.4344L155.96613 339.4344L151.763 343.48126L156.15363 349.45L154.40363 349.45L150.84113 344.3719L149.2005 345.98126L149.2005 349.45L147.87238 349.45ZM160.79425 352.23126L160.79425 339.4344L163.513 339.4344L163.513 340.45L162.02863 340.45L162.02863 351.21564L163.513 351.21564L163.513 352.23126L160.79425 352.23126ZM164.763 349.45L164.763 342.1844L165.87238 342.1844L165.87238 343.21564Q166.2005 342.66876 166.763 342.35626Q167.34113 342.02814 168.05988 342.02814Q168.87238 342.02814 169.388 342.3719Q169.90363 342.7 170.12238 343.29376Q170.98175 342.02814 172.35675 342.02814Q173.43488 342.02814 174.013 342.6219Q174.60675 343.21564 174.60675 344.46564L174.60675 349.45L173.37238 349.45L173.37238 344.8719Q173.37238 344.1375 173.24738 343.8094Q173.138 343.48126 172.8255 343.29376Q172.513 343.09064 172.09113 343.09064Q171.3255 343.09064 170.80988 343.60626Q170.30988 344.10626 170.30988 345.23126L170.30988 349.45L169.0755 349.45L169.0755 344.73126Q169.0755 343.91876 168.77863 343.5125Q168.48175 343.09064 167.79425 343.09064Q167.27863 343.09064 166.8255 343.3719Q166.388 343.6375 166.18488 344.16876Q165.99738 344.6844 165.99738 345.6844L165.99738 349.45L164.763 349.45ZM180.49738 348.5594Q179.8255 349.1375 179.18488 349.3875Q178.55988 349.6219 177.8255 349.6219Q176.638 349.6219 175.98175 349.04376Q175.34113 348.45 175.34113 347.52814Q175.34113 346.9969 175.5755 346.5594Q175.8255 346.1219 176.21613 345.85626Q176.62238 345.59064 177.10675 345.45Q177.46613 345.35626 178.2005 345.2625Q179.7005 345.09064 180.40363 344.84064Q180.40363 344.59064 180.40363 344.52814Q180.40363 343.7625 180.05988 343.46564Q179.59113 343.04376 178.65363 343.04376Q177.79425 343.04376 177.37238 343.35626Q176.96613 343.65314 176.763 344.41876L175.55988 344.2625Q175.71613 343.48126 176.09113 343.0125Q176.48175 342.54376 177.18488 342.29376Q177.90363 342.02814 178.84113 342.02814Q179.763 342.02814 180.34113 342.2469Q180.91925 342.46564 181.18488 342.79376Q181.46613 343.1219 181.5755 343.6375Q181.638 343.95 181.638 344.7625L181.638 346.40314Q181.638 348.1219 181.71613 348.575Q181.79425 349.02814 182.02863 349.45L180.74738 349.45Q180.55988 349.0594 180.49738 348.5594ZM180.40363 345.8094Q179.73175 346.075 178.388 346.27814Q177.638 346.3875 177.30988 346.52814Q176.99738 346.65314 176.8255 346.91876Q176.65363 347.1844 176.65363 347.4969Q176.65363 347.9969 177.02863 348.325Q177.40363 348.65314 178.12238 348.65314Q178.84113 348.65314 179.388 348.34064Q179.93488 348.02814 180.2005 347.48126Q180.40363 347.075 180.40363 346.2625L180.40363 345.8094ZM183.763 340.85626L183.763 339.4344L184.98175 339.4344L184.98175 340.85626L183.763 340.85626ZM182.2005 352.2625L182.43488 351.21564Q182.79425 351.3094 183.013 351.3094Q183.388 351.3094 183.5755 351.0594Q183.763 350.825 183.763 349.825L183.763 342.1844L184.98175 342.1844L184.98175 349.84064Q184.98175 351.1844 184.638 351.71564Q184.2005 352.40314 183.16925 352.40314Q182.66925 352.40314 182.2005 352.2625ZM193.77863 348.34064Q193.34113 348.84064 192.77863 349.15314Q192.23175 349.46564 191.68488 349.46564Q191.0755 349.46564 190.49738 349.1219Q189.91925 348.7625 189.55988 348.02814Q189.2005 347.27814 189.2005 346.40314Q189.2005 345.3094 189.763 344.23126Q190.3255 343.1375 191.138 342.59064Q191.96613 342.04376 192.74738 342.04376Q193.34113 342.04376 193.888 342.35626Q194.43488 342.66876 194.80988 343.29376L195.04425 342.23126L196.27863 342.23126L195.29425 346.825Q195.09113 347.77814 195.09113 347.8875Q195.09113 348.075 195.21613 348.21564Q195.35675 348.34064 195.55988 348.34064Q195.91925 348.34064 196.513 347.91876Q197.29425 347.3719 197.74738 346.45Q198.2005 345.52814 198.2005 344.5594Q198.2005 343.41876 197.60675 342.4344Q197.02863 341.4344 195.87238 340.84064Q194.71613 340.2469 193.30988 340.2469Q191.71613 340.2469 190.388 340.9969Q189.0755 341.73126 188.34113 343.1375Q187.60675 344.52814 187.60675 346.1375Q187.60675 347.8094 188.34113 349.02814Q189.0755 350.23126 190.4505 350.8094Q191.8255 351.3875 193.49738 351.3875Q195.29425 351.3875 196.49738 350.77814Q197.71613 350.1844 198.30988 349.325L199.54425 349.325Q199.2005 350.04376 198.34113 350.77814Q197.49738 351.52814 196.3255 351.96564Q195.16925 352.40314 193.513 352.40314Q191.99738 352.40314 190.71613 352.0125Q189.43488 351.6219 188.52863 350.84064Q187.638 350.0594 187.16925 349.02814Q186.60675 347.7469 186.60675 346.2469Q186.60675 344.575 187.27863 343.0594Q188.12238 341.21564 189.65363 340.23126Q191.18488 339.2469 193.37238 339.2469Q195.0755 339.2469 196.41925 339.95Q197.763 340.6375 198.54425 342.0125Q199.21613 343.1844 199.21613 344.575Q199.21613 346.5594 197.8255 348.09064Q196.5755 349.48126 195.09113 349.48126Q194.62238 349.48126 194.3255 349.34064Q194.04425 349.1844 193.90363 348.91876Q193.8255 348.7469 193.77863 348.34064ZM190.46613 346.48126Q190.46613 347.41876 190.90363 347.95Q191.35675 348.46564 191.93488 348.46564Q192.30988 348.46564 192.73175 348.23126Q193.16925 347.9969 193.54425 347.54376Q193.93488 347.09064 194.18488 346.40314Q194.43488 345.71564 194.43488 345.0125Q194.43488 344.09064 193.96613 343.575Q193.49738 343.0594 192.84113 343.0594Q192.40363 343.0594 192.013 343.27814Q191.638 343.4969 191.263 343.9969Q190.90363 344.48126 190.68488 345.1844Q190.46613 345.8875 190.46613 346.48126ZM202.30988 344.0125Q201.54425 343.73126 201.16925 343.21564Q200.80988 342.7 200.80988 341.96564Q200.80988 340.8719 201.59113 340.1375Q202.388 339.3875 203.68488 339.3875Q204.99738 339.3875 205.79425 340.15314Q206.60675 340.91876 206.60675 342.0125Q206.60675 342.7 206.23175 343.21564Q205.87238 343.73126 205.12238 344.0125Q206.04425 344.3094 206.52863 344.98126Q207.013 345.65314 207.013 346.59064Q207.013 347.8719 206.10675 348.7469Q205.2005 349.6219 203.71613 349.6219Q202.23175 349.6219 201.30988 348.7469Q200.40363 347.85626 200.40363 346.54376Q200.40363 345.575 200.90363 344.91876Q201.40363 344.2469 202.30988 344.0125ZM202.0755 341.9344Q202.0755 342.6375 202.52863 343.09064Q202.98175 343.54376 203.71613 343.54376Q204.43488 343.54376 204.888 343.10626Q205.34113 342.65314 205.34113 341.9969Q205.34113 341.325 204.87238 340.8719Q204.40363 340.40314 203.7005 340.40314Q202.99738 340.40314 202.52863 340.85626Q202.0755 341.29376 202.0755 341.9344ZM201.66925 346.5594Q201.66925 347.09064 201.91925 347.59064Q202.16925 348.075 202.65363 348.34064Q203.15363 348.60626 203.73175 348.60626Q204.60675 348.60626 205.16925 348.04376Q205.74738 347.48126 205.74738 346.60626Q205.74738 345.71564 205.15363 345.1375Q204.5755 344.54376 203.68488 344.54376Q202.80988 344.54376 202.23175 345.1219Q201.66925 345.7 201.66925 346.5594ZM210.8255 352.23126L208.10675 352.23126L208.10675 351.21564L209.59113 351.21564L209.59113 340.45L208.10675 340.45L208.10675 339.4344L210.8255 339.4344L210.8255 352.23126Z" fill-rule="nonzero"/><path fill="#000000" d="M250.46744 349.45L250.46744 339.4344L252.45181 339.4344L254.82681 346.52814Q255.15494 347.5125 255.31119 348.0125Q255.48306 347.46564 255.84244 346.40314L258.23306 339.4344L260.02994 339.4344L260.02994 349.45L258.7487 349.45L258.7487 341.0594L255.82681 349.45L254.63931 349.45L251.73306 340.91876L251.73306 349.45L250.46744 349.45ZM260.40494 349.45L264.2487 339.4344L265.67056 339.4344L269.77994 349.45L268.2643 349.45L267.09244 346.41876L262.90494 346.41876L261.8112 349.45L260.40494 349.45ZM263.29556 345.34064L266.6862 345.34064L265.6393 342.5594Q265.17056 341.29376 264.9362 340.48126Q264.7487 341.45 264.3893 342.3875L263.29556 345.34064ZM273.04556 349.45L273.04556 340.60626L269.7487 340.60626L269.7487 339.4344L277.6862 339.4344L277.6862 340.60626L274.3737 340.60626L274.3737 349.45L273.04556 349.45ZM279.54556 349.45L279.54556 339.4344L280.8737 339.4344L280.8737 343.54376L286.0768 343.54376L286.0768 339.4344L287.40494 339.4344L287.40494 349.45L286.0768 349.45L286.0768 344.73126L280.8737 344.73126L280.8737 349.45L279.54556 349.45Z" fill-rule="nonzero"/><path fill="#000000" d="M358.54688 349.45L358.54688 339.4344L360.53125 339.4344L362.90625 346.52814Q363.23438 347.5125 363.39062 348.0125Q363.5625 347.46564 363.92188 346.40314L366.3125 339.4344L368.10938 339.4344L368.10938 349.45L366.82812 349.45L366.82812 341.0594L363.90625 349.45L362.71875 349.45L359.8125 340.91876L359.8125 349.45L358.54688 349.45ZM369.54688 349.45L369.54688 339.4344L371.53125 339.4344L373.90625 346.52814Q374.23438 347.5125 374.39062 348.0125Q374.5625 347.46564 374.92188 346.40314L377.3125 339.4344L379.10938 339.4344L379.10938 349.45L377.82812 349.45L377.82812 341.0594L374.90625 349.45L373.71875 349.45L370.8125 340.91876L370.8125 349.45L369.54688 349.45ZM380.53125 349.45L380.53125 339.4344L381.85938 339.4344L381.85938 348.2625L386.78125 348.2625L386.78125 349.45L380.53125 349.45ZM395.15625 339.4344L396.48438 339.4344L396.48438 345.21564Q396.48438 346.73126 396.14062 347.6219Q395.79688 348.5125 394.90625 349.075Q394.01562 349.6219 392.5625 349.6219Q391.15625 349.6219 390.25 349.1375Q389.35938 348.65314 388.96875 347.73126Q388.59375 346.8094 388.59375 345.21564L388.59375 339.4344L389.92188 339.4344L389.92188 345.21564Q389.92188 346.5125 390.15625 347.1375Q390.40625 347.7469 391.0 348.09064Q391.59375 348.41876 392.45312 348.41876Q393.90625 348.41876 394.53125 347.7625Q395.15625 347.09064 395.15625 345.21564L395.15625 339.4344Z" fill-rule="nonzero"/><path fill="#000000" d="M445.6263 349.45L445.6263 339.4344L447.6107 339.4344L449.9857 346.52814Q450.3138 347.5125 450.47006 348.0125Q450.64194 347.46564 451.0013 346.40314L453.39194 339.4344L455.1888 339.4344L455.1888 349.45L453.90756 349.45L453.90756 341.0594L450.9857 349.45L449.7982 349.45L446.89194 340.91876L446.89194 349.45L445.6263 349.45ZM456.6263 349.45L456.6263 339.4344L458.6107 339.4344L460.9857 346.52814Q461.3138 347.5125 461.47006 348.0125Q461.64194 347.46564 462.0013 346.40314L464.39194 339.4344L466.1888 339.4344L466.1888 349.45L464.90756 349.45L464.90756 341.0594L461.9857 349.45L460.7982 349.45L457.89194 340.91876L457.89194 349.45L456.6263 349.45ZM467.6107 349.45L467.6107 339.4344L468.9388 339.4344L468.9388 348.2625L473.8607 348.2625L473.8607 349.45L467.6107 349.45ZM482.2357 339.4344L483.5638 339.4344L483.5638 345.21564Q483.5638 346.73126 483.22006 347.6219Q482.8763 348.5125 481.9857 349.075Q481.09506 349.6219 479.64194 349.6219Q478.2357 349.6219 477.32944 349.1375Q476.4388 348.65314 476.0482 347.73126Q475.6732 346.8094 475.6732 345.21564L475.6732 339.4344L477.0013 339.4344L477.0013 345.21564Q477.0013 346.5125 477.2357 347.1375Q477.4857 347.7469 478.07944 348.09064Q478.6732 348.41876 479.53256 348.41876Q480.9857 348.41876 481.6107 347.7625Q482.2357 347.09064 482.2357 345.21564L482.2357 339.4344ZM484.01694 346.4344L484.01694 345.2L487.7982 345.2L487.7982 346.4344L484.01694 346.4344ZM489.20444 346.23126L490.45444 346.1219Q490.5482 346.8719 490.8763 347.35626Q491.20444 347.84064 491.8763 348.1375Q492.5638 348.4344 493.4232 348.4344Q494.1732 348.4344 494.7513 348.21564Q495.34506 347.98126 495.6263 347.59064Q495.90756 347.2 495.90756 346.73126Q495.90756 346.2625 495.6263 345.91876Q495.3607 345.5594 494.7357 345.3094Q494.32944 345.15314 492.9388 344.825Q491.5638 344.4969 491.01694 344.2Q490.2982 343.825 489.9388 343.27814Q489.59506 342.71564 489.59506 342.0125Q489.59506 341.2625 490.01694 340.60626Q490.45444 339.9344 491.28256 339.60626Q492.1107 339.2625 493.1263 339.2625Q494.2357 339.2625 495.07944 339.6219Q495.9388 339.98126 496.39194 340.6844Q496.84506 341.3719 496.89194 342.2469L495.6107 342.34064Q495.51694 341.40314 494.9232 340.91876Q494.32944 340.41876 493.1732 340.41876Q491.97006 340.41876 491.4232 340.8719Q490.8763 341.3094 490.8763 341.9344Q490.8763 342.46564 491.26694 342.825Q491.64194 343.16876 493.2513 343.54376Q494.8763 343.90314 495.47006 344.16876Q496.34506 344.575 496.76694 345.2Q497.1888 345.8094 497.1888 346.6219Q497.1888 347.41876 496.72006 348.1375Q496.26694 348.84064 495.40756 349.23126Q494.5482 349.6219 493.4857 349.6219Q492.1263 349.6219 491.20444 349.23126Q490.28256 348.825 489.7513 348.02814Q489.2357 347.23126 489.20444 346.23126ZM501.20444 349.45L501.20444 340.60626L497.90756 340.60626L497.90756 339.4344L505.84506 339.4344L505.84506 340.60626L502.53256 340.60626L502.53256 349.45L501.20444 349.45ZM507.6888 349.45L507.6888 339.4344L514.93884 339.4344L514.93884 340.60626L509.01694 340.60626L509.01694 343.6844L514.56384 343.6844L514.56384 344.85626L509.01694 344.85626L509.01694 348.2625L515.1732 348.2625L515.1732 349.45L507.6888 349.45ZM516.62634 349.45L516.62634 339.4344L518.6107 339.4344L520.9857 346.52814Q521.31384 347.5125 521.4701 348.0125Q521.64197 347.46564 522.00134 346.40314L524.39197 339.4344L526.18884 339.4344L526.18884 349.45L524.9076 349.45L524.9076 341.0594L521.9857 349.45L520.7982 349.45L517.89197 340.91876L517.89197 349.45L516.62634 349.45Z" fill-rule="nonzero"/><path fill="#000000" d="M538.4245 345.5125L538.4245 344.34064L542.6745 344.34064L542.6745 348.0594Q541.6901 348.84064 540.64325 349.23126Q539.612 349.6219 538.51825 349.6219Q537.0495 349.6219 535.83075 348.9969Q534.6276 348.35626 534.01825 347.16876Q533.4089 345.96564 533.4089 344.48126Q533.4089 343.02814 534.01825 341.7625Q534.6276 340.48126 535.76825 339.8719Q536.9245 339.2625 538.4245 339.2625Q539.5026 339.2625 540.3776 339.6219Q541.26825 339.96564 541.76825 340.59064Q542.26825 341.21564 542.51825 342.23126L541.33075 342.5594Q541.0964 341.79376 540.7526 341.35626Q540.4245 340.91876 539.7995 340.65314Q539.1901 340.3875 538.4245 340.3875Q537.51825 340.3875 536.8464 340.66876Q536.1901 340.95 535.7839 341.40314Q535.3776 341.84064 535.1589 342.3875Q534.76825 343.325 534.76825 344.40314Q534.76825 345.7469 535.2214 346.65314Q535.6901 347.54376 536.5651 347.98126Q537.45575 348.41876 538.45575 348.41876Q539.3151 348.41876 540.1276 348.09064Q540.95575 347.7625 541.3776 347.3875L541.3776 345.5125L538.4245 345.5125ZM549.5495 347.10626L550.83075 347.2625Q550.51825 348.3875 549.70575 349.0125Q548.89325 349.6219 547.6276 349.6219Q546.0339 349.6219 545.0964 348.6375Q544.1745 347.65314 544.1745 345.8875Q544.1745 344.04376 545.112 343.04376Q546.0651 342.02814 547.5651 342.02814Q549.01825 342.02814 549.9401 343.02814Q550.862 344.0125 550.862 345.8094Q550.862 345.91876 550.862 346.1375L545.4401 346.1375Q545.51825 347.325 546.112 347.96564Q546.7214 348.60626 547.64325 348.60626Q548.3151 348.60626 548.7839 348.2469Q549.26825 347.8875 549.5495 347.10626ZM545.51825 345.1219L549.5651 345.1219Q549.487 344.2 549.0964 343.7469Q548.51825 343.04376 547.58075 343.04376Q546.7214 343.04376 546.14325 343.60626Q545.58075 344.16876 545.51825 345.1219ZM552.58075 349.45L552.58075 342.1844L553.6901 342.1844L553.6901 343.21564Q554.487 342.02814 556.0026 342.02814Q556.6589 342.02814 557.20575 342.2625Q557.7526 342.4969 558.01825 342.8875Q558.2995 343.2625 558.4089 343.79376Q558.487 344.1375 558.487 344.98126L558.487 349.45L557.2526 349.45L557.2526 345.02814Q557.2526 344.27814 557.112 343.91876Q556.9714 343.54376 556.5964 343.325Q556.237 343.09064 555.737 343.09064Q554.95575 343.09064 554.3776 343.59064Q553.8151 344.09064 553.8151 345.48126L553.8151 349.45L552.58075 349.45ZM565.5495 347.10626L566.83075 347.2625Q566.51825 348.3875 565.70575 349.0125Q564.89325 349.6219 563.6276 349.6219Q562.0339 349.6219 561.0964 348.6375Q560.1745 347.65314 560.1745 345.8875Q560.1745 344.04376 561.112 343.04376Q562.0651 342.02814 563.5651 342.02814Q565.01825 342.02814 565.9401 343.02814Q566.862 344.0125 566.862 345.8094Q566.862 345.91876 566.862 346.1375L561.4401 346.1375Q561.51825 347.325 562.112 347.96564Q562.7214 348.60626 563.64325 348.60626Q564.3151 348.60626 564.7839 348.2469Q565.26825 347.8875 565.5495 347.10626ZM561.51825 345.1219L565.5651 345.1219Q565.487 344.2 565.0964 343.7469Q564.51825 343.04376 563.58075 343.04376Q562.7214 343.04376 562.14325 343.60626Q561.58075 344.16876 561.51825 345.1219ZM568.5651 349.45L568.5651 342.1844L569.6745 342.1844L569.6745 343.29376Q570.0964 342.5125 570.45575 342.27814Q570.8151 342.02814 571.2526 342.02814Q571.8776 342.02814 572.51825 342.41876L572.0964 343.5594Q571.64325 343.29376 571.1901 343.29376Q570.7839 343.29376 570.45575 343.54376Q570.14325 343.77814 570.0026 344.21564Q569.7995 344.8719 569.7995 345.65314L569.7995 349.45L568.5651 349.45ZM578.3151 348.5594Q577.64325 349.1375 577.0026 349.3875Q576.3776 349.6219 575.64325 349.6219Q574.45575 349.6219 573.7995 349.04376Q573.1589 348.45 573.1589 347.52814Q573.1589 346.9969 573.39325 346.5594Q573.64325 346.1219 574.0339 345.85626Q574.4401 345.59064 574.9245 345.45Q575.2839 345.35626 576.01825 345.2625Q577.51825 345.09064 578.2214 344.84064Q578.2214 344.59064 578.2214 344.52814Q578.2214 343.7625 577.8776 343.46564Q577.4089 343.04376 576.4714 343.04376Q575.612 343.04376 575.1901 343.35626Q574.7839 343.65314 574.58075 344.41876L573.3776 344.2625Q573.5339 343.48126 573.9089 343.0125Q574.2995 342.54376 575.0026 342.29376Q575.7214 342.02814 576.6589 342.02814Q577.58075 342.02814 578.1589 342.2469Q578.737 342.46564 579.0026 342.79376Q579.2839 343.1219 579.39325 343.6375Q579.45575 343.95 579.45575 344.7625L579.45575 346.40314Q579.45575 348.1219 579.5339 348.575Q579.612 349.02814 579.8464 349.45L578.5651 349.45Q578.3776 349.0594 578.3151 348.5594ZM578.2214 345.8094Q577.5495 346.075 576.20575 346.27814Q575.45575 346.3875 575.1276 346.52814Q574.8151 346.65314 574.64325 346.91876Q574.4714 347.1844 574.4714 347.4969Q574.4714 347.9969 574.8464 348.325Q575.2214 348.65314 575.9401 348.65314Q576.6589 348.65314 577.20575 348.34064Q577.7526 348.02814 578.01825 347.48126Q578.2214 347.075 578.2214 346.2625L578.2214 345.8094ZM581.5495 349.45L581.5495 339.4344L582.7839 339.4344L582.7839 349.45L581.5495 349.45ZM588.7526 349.45L588.7526 339.4344L593.20575 339.4344Q594.5495 339.4344 595.237 339.7Q595.9401 339.96564 596.3464 340.65314Q596.76825 341.34064 596.76825 342.16876Q596.76825 343.23126 596.08075 343.96564Q595.39325 344.6844 593.95575 344.8875Q594.4714 345.1375 594.7526 345.3875Q595.33075 345.91876 595.8464 346.71564L597.5964 349.45L595.9245 349.45L594.5964 347.3719Q594.01825 346.46564 593.64325 345.9969Q593.26825 345.5125 592.9714 345.325Q592.6745 345.1219 592.362 345.04376Q592.14325 344.9969 591.6276 344.9969L590.08075 344.9969L590.08075 349.45L588.7526 349.45ZM590.08075 343.85626L592.9401 343.85626Q593.8464 343.85626 594.362 343.66876Q594.8776 343.48126 595.14325 343.075Q595.4089 342.65314 595.4089 342.16876Q595.4089 341.45 594.89325 340.9969Q594.3776 340.52814 593.2526 340.52814L590.08075 340.52814L590.08075 343.85626ZM603.5495 347.10626L604.83075 347.2625Q604.51825 348.3875 603.70575 349.0125Q602.89325 349.6219 601.6276 349.6219Q600.0339 349.6219 599.0964 348.6375Q598.1745 347.65314 598.1745 345.8875Q598.1745 344.04376 599.112 343.04376Q600.0651 342.02814 601.5651 342.02814Q603.01825 342.02814 603.9401 343.02814Q604.862 344.0125 604.862 345.8094Q604.862 345.91876 604.862 346.1375L599.4401 346.1375Q599.51825 347.325 600.112 347.96564Q600.7214 348.60626 601.64325 348.60626Q602.3151 348.60626 602.7839 348.2469Q603.26825 347.8875 603.5495 347.10626ZM599.51825 345.1219L603.5651 345.1219Q603.487 344.2 603.0964 343.7469Q602.51825 343.04376 601.58075 343.04376Q600.7214 343.04376 600.14325 343.60626Q599.58075 344.16876 599.51825 345.1219ZM611.3151 348.5594Q610.64325 349.1375 610.0026 349.3875Q609.3776 349.6219 608.64325 349.6219Q607.45575 349.6219 606.7995 349.04376Q606.1589 348.45 606.1589 347.52814Q606.1589 346.9969 606.39325 346.5594Q606.64325 346.1219 607.0339 345.85626Q607.4401 345.59064 607.9245 345.45Q608.2839 345.35626 609.01825 345.2625Q610.51825 345.09064 611.2214 344.84064Q611.2214 344.59064 611.2214 344.52814Q611.2214 343.7625 610.8776 343.46564Q610.4089 343.04376 609.4714 343.04376Q608.612 343.04376 608.1901 343.35626Q607.7839 343.65314 607.58075 344.41876L606.3776 344.2625Q606.5339 343.48126 606.9089 343.0125Q607.2995 342.54376 608.0026 342.29376Q608.7214 342.02814 609.6589 342.02814Q610.58075 342.02814 611.1589 342.2469Q611.737 342.46564 612.0026 342.79376Q612.2839 343.1219 612.39325 343.6375Q612.45575 343.95 612.45575 344.7625L612.45575 346.40314Q612.45575 348.1219 612.5339 348.575Q612.612 349.02814 612.8464 349.45L611.5651 349.45Q611.3776 349.0594 611.3151 348.5594ZM611.2214 345.8094Q610.5495 346.075 609.20575 346.27814Q608.45575 346.3875 608.1276 346.52814Q607.8151 346.65314 607.64325 346.91876Q607.4714 347.1844 607.4714 347.4969Q607.4714 347.9969 607.8464 348.325Q608.2214 348.65314 608.9401 348.65314Q609.6589 348.65314 610.20575 348.34064Q610.7526 348.02814 611.01825 347.48126Q611.2214 347.075 611.2214 346.2625L611.2214 345.8094ZM614.0964 347.27814L615.2995 347.09064Q615.4089 347.825 615.8776 348.21564Q616.3464 348.60626 617.1901 348.60626Q618.0339 348.60626 618.4401 348.2625Q618.862 347.91876 618.862 347.45Q618.862 347.02814 618.487 346.79376Q618.237 346.6219 617.237 346.3719Q615.8776 346.02814 615.3464 345.77814Q614.83075 345.52814 614.5651 345.09064Q614.2995 344.65314 614.2995 344.1219Q614.2995 343.6375 614.51825 343.23126Q614.737 342.8094 615.1276 342.52814Q615.4089 342.325 615.89325 342.1844Q616.39325 342.02814 616.9714 342.02814Q617.8151 342.02814 618.45575 342.27814Q619.112 342.5125 619.4245 342.9344Q619.737 343.35626 619.8464 344.0594L618.64325 344.23126Q618.5651 343.66876 618.1589 343.35626Q617.76825 343.04376 617.0495 343.04376Q616.20575 343.04376 615.8464 343.325Q615.487 343.59064 615.487 343.98126Q615.487 344.21564 615.6276 344.40314Q615.7839 344.60626 616.112 344.73126Q616.2839 344.79376 617.1901 345.04376Q618.5026 345.40314 619.01825 345.6219Q619.5339 345.84064 619.8151 346.2625Q620.112 346.6844 620.112 347.3094Q620.112 347.9344 619.7526 348.48126Q619.4089 349.0125 618.7214 349.325Q618.0495 349.6219 617.1901 349.6219Q615.7839 349.6219 615.0339 349.02814Q614.2995 348.4344 614.0964 347.27814ZM621.1276 345.825Q621.1276 343.8094 622.2526 342.825Q623.1745 342.02814 624.5339 342.02814Q626.01825 342.02814 626.9714 343.0125Q627.9245 343.98126 627.9245 345.71564Q627.9245 347.1219 627.5026 347.9344Q627.08075 348.73126 626.26825 349.1844Q625.4714 349.6219 624.5339 349.6219Q623.0026 349.6219 622.0651 348.6375Q621.1276 347.65314 621.1276 345.825ZM622.39325 345.825Q622.39325 347.21564 623.0026 347.91876Q623.612 348.60626 624.5339 348.60626Q625.4401 348.60626 626.0495 347.90314Q626.6589 347.2 626.6589 345.77814Q626.6589 344.4344 626.0495 343.7469Q625.4401 343.04376 624.5339 343.04376Q623.612 343.04376 623.0026 343.73126Q622.39325 344.41876 622.39325 345.825ZM629.58075 349.45L629.58075 342.1844L630.6901 342.1844L630.6901 343.21564Q631.487 342.02814 633.0026 342.02814Q633.6589 342.02814 634.20575 342.2625Q634.7526 342.4969 635.01825 342.8875Q635.2995 343.2625 635.4089 343.79376Q635.487 344.1375 635.487 344.98126L635.487 349.45L634.2526 349.45L634.2526 345.02814Q634.2526 344.27814 634.112 343.91876Q633.9714 343.54376 633.5964 343.325Q633.237 343.09064 632.737 343.09064Q631.95575 343.09064 631.3776 343.59064Q630.8151 344.09064 630.8151 345.48126L630.8151 349.45L629.58075 349.45ZM637.5964 340.84064L637.5964 339.4344L638.8151 339.4344L638.8151 340.84064L637.5964 340.84064ZM637.5964 349.45L637.5964 342.1844L638.8151 342.1844L638.8151 349.45L637.5964 349.45ZM640.58075 349.45L640.58075 342.1844L641.6901 342.1844L641.6901 343.21564Q642.487 342.02814 644.0026 342.02814Q644.6589 342.02814 645.20575 342.2625Q645.7526 342.4969 646.01825 342.8875Q646.2995 343.2625 646.4089 343.79376Q646.487 344.1375 646.487 344.98126L646.487 349.45L645.2526 349.45L645.2526 345.02814Q645.2526 344.27814 645.112 343.91876Q644.9714 343.54376 644.5964 343.325Q644.237 343.09064 643.737 343.09064Q642.95575 343.09064 642.3776 343.59064Q641.8151 344.09064 641.8151 345.48126L641.8151 349.45L640.58075 349.45ZM648.362 350.0594L649.5495 350.23126Q649.6276 350.77814 649.9714 351.04376Q650.4245 351.3719 651.2214 351.3719Q652.08075 351.3719 652.5339 351.02814Q653.0026 350.7 653.1745 350.075Q653.26825 349.7 653.2526 348.4969Q652.45575 349.45 651.2526 349.45Q649.7526 349.45 648.9245 348.3719Q648.112 347.29376 648.112 345.77814Q648.112 344.7469 648.487 343.8719Q648.862 342.98126 649.5651 342.5125Q650.2839 342.02814 651.2526 342.02814Q652.5339 342.02814 653.3776 343.0594L653.3776 342.1844L654.5026 342.1844L654.5026 348.46564Q654.5026 350.16876 654.1589 350.8719Q653.8151 351.575 653.0651 351.98126Q652.3151 352.40314 651.2214 352.40314Q649.9245 352.40314 649.1276 351.8094Q648.33075 351.23126 648.362 350.0594ZM649.3776 345.6844Q649.3776 347.1219 649.9401 347.77814Q650.5026 348.4344 651.362 348.4344Q652.20575 348.4344 652.7839 347.77814Q653.362 347.1219 653.362 345.73126Q653.362 344.40314 652.76825 343.73126Q652.1745 343.04376 651.3464 343.04376Q650.51825 343.04376 649.9401 343.71564Q649.3776 344.3719 649.3776 345.6844Z" fill-rule="nonzero"/><path fill="#4285f4" d="M117.0 21.55C117.0 20.997715 117.447716 20.55 118.0 20.55L128.0 20.55C128.55229 20.55 129.0 20.997715 129.0 21.55L129.0 31.55C129.0 32.102283 128.55229 32.55 128.0 32.55L118.0 32.55C117.447716 32.55 117.0 32.102283 117.0 31.55Z" fill-rule="nonzero"/><path fill="#1a1a1a" d="M138.07812 31.55L138.07812 21.534374L141.85938 21.534374Q142.85938 21.534374 143.39062 21.628124Q144.125 21.753124 144.625 22.096874Q145.125 22.440624 145.42188 23.065624Q145.73438 23.675 145.73438 24.425Q145.73438 25.70625 144.92188 26.596874Q144.10938 27.471874 141.98438 27.471874L139.40625 27.471874L139.40625 31.55L138.07812 31.55ZM139.40625 26.3L142.0 26.3Q143.28125 26.3 143.8125 25.815624Q144.35938 25.33125 144.35938 24.471874Q144.35938 23.83125 144.04688 23.39375Q143.73438 22.940624 143.20312 22.8Q142.875 22.70625 141.96875 22.70625L139.40625 22.70625L139.40625 26.3ZM146.90625 31.55L146.90625 24.284374L148.01562 24.284374L148.01562 25.39375Q148.4375 24.6125 148.79688 24.378124Q149.15625 24.128124 149.59375 24.128124Q150.21875 24.128124 150.85938 24.51875L150.4375 25.659374Q149.98438 25.39375 149.53125 25.39375Q149.125 25.39375 148.79688 25.64375Q148.48438 25.878124 148.34375 26.315624Q148.14062 26.971874 148.14062 27.753124L148.14062 31.55L146.90625 31.55ZM156.89062 29.20625L158.17188 29.3625Q157.85938 30.4875 157.04688 31.1125Q156.23438 31.721874 154.96875 31.721874Q153.375 31.721874 152.4375 30.7375Q151.51562 29.753124 151.51562 27.9875Q151.51562 26.14375 152.45312 25.14375Q153.40625 24.128124 154.90625 24.128124Q156.35938 24.128124 157.28125 25.128124Q158.20312 26.1125 158.20312 27.909374Q158.20312 28.01875 158.20312 28.2375L152.78125 28.2375Q152.85938 29.425 153.45312 30.065624Q154.0625 30.70625 154.98438 30.70625Q155.65625 30.70625 156.125 30.346874Q156.60938 29.9875 156.89062 29.20625ZM152.85938 27.221874L156.90625 27.221874Q156.82812 26.3 156.4375 25.846874Q155.85938 25.14375 154.92188 25.14375Q154.0625 25.14375 153.48438 25.70625Q152.92188 26.26875 152.85938 27.221874ZM162.60938 30.45625L162.78125 31.534374Q162.26562 31.64375 161.85938 31.64375Q161.1875 31.64375 160.8125 31.440624Q160.45312 31.221874 160.29688 30.878124Q160.15625 30.534374 160.15625 29.425L160.15625 25.253124L159.25 25.253124L159.25 24.284374L160.15625 24.284374L160.15625 22.4875L161.375 21.753124L161.375 24.284374L162.60938 24.284374L162.60938 25.253124L161.375 25.253124L161.375 29.4875Q161.375 30.01875 161.4375 30.175Q161.5 30.315624 161.64062 30.409374Q161.79688 30.503124 162.0625 30.503124Q162.28125 30.503124 162.60938 30.45625ZM163.90625 31.55L163.90625 24.284374L165.01562 24.284374L165.01562 25.39375Q165.4375 24.6125 165.79688 24.378124Q166.15625 24.128124 166.59375 24.128124Q167.21875 24.128124 167.85938 24.51875L167.4375 25.659374Q166.98438 25.39375 166.53125 25.39375Q166.125 25.39375 165.79688 25.64375Q165.48438 25.878124 165.34375 26.315624Q165.14062 26.971874 165.14062 27.753124L165.14062 31.55L163.90625 31.55ZM173.65625 30.659374Q172.98438 31.2375 172.34375 31.4875Q171.71875 31.721874 170.98438 31.721874Q169.79688 31.721874 169.14062 31.14375Q168.5 30.55 168.5 29.628124Q168.5 29.096874 168.73438 28.659374Q168.98438 28.221874 169.375 27.95625Q169.78125 27.690624 170.26562 27.55Q170.625 27.45625 171.35938 27.3625Q172.85938 27.190624 173.5625 26.940624Q173.5625 26.690624 173.5625 26.628124Q173.5625 25.8625 173.21875 25.565624Q172.75 25.14375 171.8125 25.14375Q170.95312 25.14375 170.53125 25.45625Q170.125 25.753124 169.92188 26.51875L168.71875 26.3625Q168.875 25.58125 169.25 25.1125Q169.64062 24.64375 170.34375 24.39375Q171.0625 24.128124 172.0 24.128124Q172.92188 24.128124 173.5 24.346874Q174.07812 24.565624 174.34375 24.89375Q174.625 25.221874 174.73438 25.7375Q174.79688 26.05 174.79688 26.8625L174.79688 28.503124Q174.79688 30.221874 174.875 30.675Q174.95312 31.128124 175.1875 31.55L173.90625 31.55Q173.71875 31.159374 173.65625 30.659374ZM173.5625 27.909374Q172.89062 28.175 171.54688 28.378124Q170.79688 28.4875 170.46875 28.628124Q170.15625 28.753124 169.98438 29.01875Q169.8125 29.284374 169.8125 29.596874Q169.8125 30.096874 170.1875 30.425Q170.5625 30.753124 171.28125 30.753124Q172.0 30.753124 172.54688 30.440624Q173.09375 30.128124 173.35938 29.58125Q173.5625 29.175 173.5625 28.3625L173.5625 27.909374ZM176.9375 22.940624L176.9375 21.534374L178.15625 21.534374L178.15625 22.940624L176.9375 22.940624ZM176.9375 31.55L176.9375 24.284374L178.15625 24.284374L178.15625 31.55L176.9375 31.55ZM179.92188 31.55L179.92188 24.284374L181.03125 24.284374L181.03125 25.315624Q181.82812 24.128124 183.34375 24.128124Q184.0 24.128124 184.54688 24.3625Q185.09375 24.596874 185.35938 24.9875Q185.64062 25.3625 185.75 25.89375Q185.82812 26.2375 185.82812 27.08125L185.82812 31.55L184.59375 31.55L184.59375 27.128124Q184.59375 26.378124 184.45312 26.01875Q184.3125 25.64375 183.9375 25.425Q183.57812 25.190624 183.07812 25.190624Q182.29688 25.190624 181.71875 25.690624Q181.15625 26.190624 181.15625 27.58125L181.15625 31.55L179.92188 31.55ZM187.9375 22.940624L187.9375 21.534374L189.15625 21.534374L189.15625 22.940624L187.9375 22.940624ZM187.9375 31.55L187.9375 24.284374L189.15625 24.284374L189.15625 31.55L187.9375 31.55ZM190.92188 31.55L190.92188 24.284374L192.03125 24.284374L192.03125 25.315624Q192.82812 24.128124 194.34375 24.128124Q195.0 24.128124 195.54688 24.3625Q196.09375 24.596874 196.35938 24.9875Q196.64062 25.3625 196.75 25.89375Q196.82812 26.2375 196.82812 27.08125L196.82812 31.55L195.59375 31.55L195.59375 27.128124Q195.59375 26.378124 195.45312 26.01875Q195.3125 25.64375 194.9375 25.425Q194.57812 25.190624 194.07812 25.190624Q193.29688 25.190624 192.71875 25.690624Q192.15625 26.190624 192.15625 27.58125L192.15625 31.55L190.92188 31.55ZM198.70312 32.159374L199.89062 32.33125Q199.96875 32.878124 200.3125 33.14375Q200.76562 33.471874 201.5625 33.471874Q202.42188 33.471874 202.875 33.128124Q203.34375 32.8 203.51562 32.175Q203.60938 31.8 203.59375 30.596874Q202.79688 31.55 201.59375 31.55Q200.09375 31.55 199.26562 30.471874Q198.45312 29.39375 198.45312 27.878124Q198.45312 26.846874 198.82812 25.971874Q199.20312 25.08125 199.90625 24.6125Q200.625 24.128124 201.59375 24.128124Q202.875 24.128124 203.71875 25.159374L203.71875 24.284374L204.84375 24.284374L204.84375 30.565624Q204.84375 32.26875 204.5 32.971874Q204.15625 33.675 203.40625 34.08125Q202.65625 34.503124 201.5625 34.503124Q200.26562 34.503124 199.46875 33.909374Q198.67188 33.33125 198.70312 32.159374ZM199.71875 27.784374Q199.71875 29.221874 200.28125 29.878124Q200.84375 30.534374 201.70312 30.534374Q202.54688 30.534374 203.125 29.878124Q203.70312 29.221874 203.70312 27.83125Q203.70312 26.503124 203.10938 25.83125Q202.51562 25.14375 201.6875 25.14375Q200.85938 25.14375 200.28125 25.815624Q199.71875 26.471874 199.71875 27.784374ZM211.07812 31.55L211.07812 21.534374L214.53125 21.534374Q215.70312 21.534374 216.3125 21.675Q217.17188 21.8625 217.78125 22.39375Q218.57812 23.065624 218.96875 24.1125Q219.35938 25.14375 219.35938 26.4875Q219.35938 27.628124 219.09375 28.51875Q218.82812 29.39375 218.40625 29.971874Q218.0 30.55 217.5 30.878124Q217.0 31.20625 216.29688 31.378124Q215.60938 31.55 214.70312 31.55L211.07812 31.55ZM212.40625 30.3625L214.54688 30.3625Q215.53125 30.3625 216.09375 30.190624Q216.67188 30.003124 217.0 29.659374Q217.46875 29.190624 217.73438 28.39375Q218.0 27.596874 218.0 26.45625Q218.0 24.89375 217.48438 24.05Q216.96875 23.20625 216.23438 22.909374Q215.6875 22.70625 214.51562 22.70625L212.40625 22.70625L212.40625 30.3625ZM225.65625 30.659374Q224.98438 31.2375 224.34375 31.4875Q223.71875 31.721874 222.98438 31.721874Q221.79688 31.721874 221.14062 31.14375Q220.5 30.55 220.5 29.628124Q220.5 29.096874 220.73438 28.659374Q220.98438 28.221874 221.375 27.95625Q221.78125 27.690624 222.26562 27.55Q222.625 27.45625 223.35938 27.3625Q224.85938 27.190624 225.5625 26.940624Q225.5625 26.690624 225.5625 26.628124Q225.5625 25.8625 225.21875 25.565624Q224.75 25.14375 223.8125 25.14375Q222.95312 25.14375 222.53125 25.45625Q222.125 25.753124 221.92188 26.51875L220.71875 26.3625Q220.875 25.58125 221.25 25.1125Q221.64062 24.64375 222.34375 24.39375Q223.0625 24.128124 224.0 24.128124Q224.92188 24.128124 225.5 24.346874Q226.07812 24.565624 226.34375 24.89375Q226.625 25.221874 226.73438 25.7375Q226.79688 26.05 226.79688 26.8625L226.79688 28.503124Q226.79688 30.221874 226.875 30.675Q226.95312 31.128124 227.1875 31.55L225.90625 31.55Q225.71875 31.159374 225.65625 30.659374ZM225.5625 27.909374Q224.89062 28.175 223.54688 28.378124Q222.79688 28.4875 222.46875 28.628124Q222.15625 28.753124 221.98438 29.01875Q221.8125 29.284374 221.8125 29.596874Q221.8125 30.096874 222.1875 30.425Q222.5625 30.753124 223.28125 30.753124Q224.0 30.753124 224.54688 30.440624Q225.09375 30.128124 225.35938 29.58125Q225.5625 29.175 225.5625 28.3625L225.5625 27.909374ZM231.60938 30.45625L231.78125 31.534374Q231.26562 31.64375 230.85938 31.64375Q230.1875 31.64375 229.8125 31.440624Q229.45312 31.221874 229.29688 30.878124Q229.15625 30.534374 229.15625 29.425L229.15625 25.253124L228.25 25.253124L228.25 24.284374L229.15625 24.284374L229.15625 22.4875L230.375 21.753124L230.375 24.284374L231.60938 24.284374L231.60938 25.253124L230.375 25.253124L230.375 29.4875Q230.375 30.01875 230.4375 30.175Q230.5 30.315624 230.64062 30.409374Q230.79688 30.503124 231.0625 30.503124Q231.28125 30.503124 231.60938 30.45625ZM237.65625 30.659374Q236.98438 31.2375 236.34375 31.4875Q235.71875 31.721874 234.98438 31.721874Q233.79688 31.721874 233.14062 31.14375Q232.5 30.55 232.5 29.628124Q232.5 29.096874 232.73438 28.659374Q232.98438 28.221874 233.375 27.95625Q233.78125 27.690624 234.26562 27.55Q234.625 27.45625 235.35938 27.3625Q236.85938 27.190624 237.5625 26.940624Q237.5625 26.690624 237.5625 26.628124Q237.5625 25.8625 237.21875 25.565624Q236.75 25.14375 235.8125 25.14375Q234.95312 25.14375 234.53125 25.45625Q234.125 25.753124 233.92188 26.51875L232.71875 26.3625Q232.875 25.58125 233.25 25.1125Q233.64062 24.64375 234.34375 24.39375Q235.0625 24.128124 236.0 24.128124Q236.92188 24.128124 237.5 24.346874Q238.07812 24.565624 238.34375 24.89375Q238.625 25.221874 238.73438 25.7375Q238.79688 26.05 238.79688 26.8625L238.79688 28.503124Q238.79688 30.221874 238.875 30.675Q238.95312 31.128124 239.1875 31.55L237.90625 31.55Q237.71875 31.159374 237.65625 30.659374ZM237.5625 27.909374Q236.89062 28.175 235.54688 28.378124Q234.79688 28.4875 234.46875 28.628124Q234.15625 28.753124 233.98438 29.01875Q233.8125 29.284374 233.8125 29.596874Q233.8125 30.096874 234.1875 30.425Q234.5625 30.753124 235.28125 30.753124Q236.0 30.753124 236.54688 30.440624Q237.09375 30.128124 237.35938 29.58125Q237.5625 29.175 237.5625 28.3625L237.5625 27.909374Z" fill-rule="nonzero"/><path fill="#ea4335" d="M256.0 21.55C256.0 20.997715 256.44772 20.55 257.0 20.55L267.0 20.55C267.55228 20.55 268.0 20.997715 268.0 21.55L268.0 31.55C268.0 32.102283 267.55228 32.55 267.0 32.55L257.0 32.55C256.44772 32.55 256.0 32.102283 256.0 31.55Z" fill-rule="nonzero"/><path fill="#1a1a1a" d="M284.23438 28.034374L285.5625 28.378124Q285.14062 30.003124 284.04688 30.8625Q282.96875 31.721874 281.40625 31.721874Q279.78125 31.721874 278.76562 31.065624Q277.75 30.39375 277.21875 29.14375Q276.70312 27.89375 276.70312 26.45625Q276.70312 24.89375 277.29688 23.7375Q277.89062 22.565624 279.0 21.971874Q280.10938 21.3625 281.42188 21.3625Q282.9375 21.3625 283.95312 22.128124Q284.98438 22.89375 285.39062 24.26875L284.07812 24.58125Q283.73438 23.4875 283.0625 22.9875Q282.40625 22.4875 281.40625 22.4875Q280.25 22.4875 279.46875 23.05Q278.6875 23.596874 278.375 24.534374Q278.0625 25.471874 278.0625 26.45625Q278.0625 27.7375 278.4375 28.690624Q278.8125 29.64375 279.59375 30.1125Q280.375 30.58125 281.29688 30.58125Q282.40625 30.58125 283.17188 29.940624Q283.95312 29.3 284.23438 28.034374ZM294.23438 28.034374L295.5625 28.378124Q295.14062 30.003124 294.04688 30.8625Q292.96875 31.721874 291.40625 31.721874Q289.78125 31.721874 288.76562 31.065624Q287.75 30.39375 287.21875 29.14375Q286.70312 27.89375 286.70312 26.45625Q286.70312 24.89375 287.29688 23.7375Q287.89062 22.565624 289.0 21.971874Q290.10938 21.3625 291.42188 21.3625Q292.9375 21.3625 293.95312 22.128124Q294.98438 22.89375 295.39062 24.26875L294.07812 24.58125Q293.73438 23.4875 293.0625 22.9875Q292.40625 22.4875 291.40625 22.4875Q290.25 22.4875 289.46875 23.05Q288.6875 23.596874 288.375 24.534374Q288.0625 25.471874 288.0625 26.45625Q288.0625 27.7375 288.4375 28.690624Q288.8125 29.64375 289.59375 30.1125Q290.375 30.58125 291.29688 30.58125Q292.40625 30.58125 293.17188 29.940624Q293.95312 29.3 294.23438 28.034374ZM299.5 29.925L299.5 27.175L296.78125 27.175L296.78125 26.034374L299.5 26.034374L299.5 23.3L300.67188 23.3L300.67188 26.034374L303.39062 26.034374L303.39062 27.175L300.67188 27.175L300.67188 29.925L299.5 29.925ZM305.04688 31.55L305.04688 21.534374L307.03125 21.534374L309.40625 28.628124Q309.73438 29.6125 309.89062 30.1125Q310.0625 29.565624 310.42188 28.503124L312.8125 21.534374L314.60938 21.534374L314.60938 31.55L313.32812 31.55L313.32812 23.159374L310.40625 31.55L309.21875 31.55L306.3125 23.01875L306.3125 31.55L305.04688 31.55ZM320.65625 30.659374Q319.98438 31.2375 319.34375 31.4875Q318.71875 31.721874 317.98438 31.721874Q316.79688 31.721874 316.14062 31.14375Q315.5 30.55 315.5 29.628124Q315.5 29.096874 315.73438 28.659374Q315.98438 28.221874 316.375 27.95625Q316.78125 27.690624 317.26562 27.55Q317.625 27.45625 318.35938 27.3625Q319.85938 27.190624 320.5625 26.940624Q320.5625 26.690624 320.5625 26.628124Q320.5625 25.8625 320.21875 25.565624Q319.75 25.14375 318.8125 25.14375Q317.95312 25.14375 317.53125 25.45625Q317.125 25.753124 316.92188 26.51875L315.71875 26.3625Q315.875 25.58125 316.25 25.1125Q316.64062 24.64375 317.34375 24.39375Q318.0625 24.128124 319.0 24.128124Q319.92188 24.128124 320.5 24.346874Q321.07812 24.565624 321.34375 24.89375Q321.625 25.221874 321.73438 25.7375Q321.79688 26.05 321.79688 26.8625L321.79688 28.503124Q321.79688 30.221874 321.875 30.675Q321.95312 31.128124 322.1875 31.55L320.90625 31.55Q320.71875 31.159374 320.65625 30.659374ZM320.5625 27.909374Q319.89062 28.175 318.54688 28.378124Q317.79688 28.4875 317.46875 28.628124Q317.15625 28.753124 316.98438 29.01875Q316.8125 29.284374 316.8125 29.596874Q316.8125 30.096874 317.1875 30.425Q317.5625 30.753124 318.28125 30.753124Q319.0 30.753124 319.54688 30.440624Q320.09375 30.128124 320.35938 29.58125Q320.5625 29.175 320.5625 28.3625L320.5625 27.909374ZM326.60938 30.45625L326.78125 31.534374Q326.26562 31.64375 325.85938 31.64375Q325.1875 31.64375 324.8125 31.440624Q324.45312 31.221874 324.29688 30.878124Q324.15625 30.534374 324.15625 29.425L324.15625 25.253124L323.25 25.253124L323.25 24.284374L324.15625 24.284374L324.15625 22.4875L325.375 21.753124L325.375 24.284374L326.60938 24.284374L326.60938 25.253124L325.375 25.253124L325.375 29.4875Q325.375 30.01875 325.4375 30.175Q325.5 30.315624 325.64062 30.409374Q325.79688 30.503124 326.0625 30.503124Q326.28125 30.503124 326.60938 30.45625ZM327.92188 31.55L327.92188 21.534374L329.15625 21.534374L329.15625 25.128124Q330.01562 24.128124 331.32812 24.128124Q332.14062 24.128124 332.73438 24.45625Q333.32812 24.76875 333.57812 25.33125Q333.84375 25.878124 333.84375 26.95625L333.84375 31.55L332.60938 31.55L332.60938 26.95625Q332.60938 26.01875 332.20312 25.6125Q331.8125 25.190624 331.07812 25.190624Q330.53125 25.190624 330.04688 25.471874Q329.5625 25.753124 329.35938 26.2375Q329.15625 26.721874 329.15625 27.58125L329.15625 31.55L327.92188 31.55ZM336.07812 31.55L336.07812 21.534374L339.85938 21.534374Q340.85938 21.534374 341.39062 21.628124Q342.125 21.753124 342.625 22.096874Q343.125 22.440624 343.42188 23.065624Q343.73438 23.675 343.73438 24.425Q343.73438 25.70625 342.92188 26.596874Q342.10938 27.471874 339.98438 27.471874L337.40625 27.471874L337.40625 31.55L336.07812 31.55ZM337.40625 26.3L340.0 26.3Q341.28125 26.3 341.8125 25.815624Q342.35938 25.33125 342.35938 24.471874Q342.35938 23.83125 342.04688 23.39375Q341.73438 22.940624 341.20312 22.8Q340.875 22.70625 339.96875 22.70625L337.40625 22.70625L337.40625 26.3ZM344.9375 22.940624L344.9375 21.534374L346.15625 21.534374L346.15625 22.940624L344.9375 22.940624ZM344.9375 31.55L344.9375 24.284374L346.15625 24.284374L346.15625 31.55L344.9375 31.55ZM347.89062 31.55L347.89062 21.534374L349.125 21.534374L349.125 31.55L347.89062 31.55ZM355.89062 29.20625L357.17188 29.3625Q356.85938 30.4875 356.04688 31.1125Q355.23438 31.721874 353.96875 31.721874Q352.375 31.721874 351.4375 30.7375Q350.51562 29.753124 350.51562 27.9875Q350.51562 26.14375 351.45312 25.14375Q352.40625 24.128124 353.90625 24.128124Q355.35938 24.128124 356.28125 25.128124Q357.20312 26.1125 357.20312 27.909374Q357.20312 28.01875 357.20312 28.2375L351.78125 28.2375Q351.85938 29.425 352.45312 30.065624Q353.0625 30.70625 353.98438 30.70625Q354.65625 30.70625 355.125 30.346874Q355.60938 29.9875 355.89062 29.20625ZM351.85938 27.221874L355.90625 27.221874Q355.82812 26.3 355.4375 25.846874Q354.85938 25.14375 353.92188 25.14375Q353.0625 25.14375 352.48438 25.70625Q351.92188 26.26875 351.85938 27.221874ZM362.95312 34.33125L362.95312 21.534374L365.67188 21.534374L365.67188 22.55L364.1875 22.55L364.1875 33.315624L365.67188 33.315624L365.67188 34.33125L362.95312 34.33125ZM371.21875 31.55L369.98438 31.55L369.98438 23.70625Q369.54688 24.128124 368.8125 24.565624Q368.09375 24.9875 367.53125 25.190624L367.53125 24.003124Q368.5625 23.51875 369.32812 22.83125Q370.10938 22.14375 370.42188 21.4875L371.21875 21.4875L371.21875 31.55ZM375.26562 25.690624L375.26562 24.284374L376.67188 24.284374L376.67188 25.690624L375.26562 25.690624ZM375.26562 31.55L375.26562 30.14375L376.67188 30.14375L376.67188 31.55L375.26562 31.55ZM385.04688 30.3625L385.04688 31.55L378.42188 31.55Q378.40625 31.1125 378.5625 30.690624Q378.82812 30.01875 379.375 29.3625Q379.9375 28.70625 380.98438 27.846874Q382.625 26.503124 383.1875 25.721874Q383.76562 24.940624 383.76562 24.2375Q383.76562 23.503124 383.23438 23.003124Q382.71875 22.503124 381.89062 22.503124Q381.0 22.503124 380.45312 23.034374Q379.92188 23.565624 379.92188 24.51875L378.65625 24.378124Q378.78125 22.971874 379.625 22.2375Q380.48438 21.4875 381.90625 21.4875Q383.35938 21.4875 384.1875 22.284374Q385.03125 23.08125 385.03125 24.26875Q385.03125 24.878124 384.78125 25.45625Q384.54688 26.034374 383.96875 26.675Q383.40625 27.315624 382.07812 28.440624Q380.96875 29.3625 380.65625 29.70625Q380.34375 30.034374 380.14062 30.3625L385.04688 30.3625ZM388.98438 34.33125L386.26562 34.33125L386.26562 33.315624L387.75 33.315624L387.75 22.55L386.26562 22.55L386.26562 21.534374L388.98438 21.534374L388.98438 34.33125Z" fill-rule="nonzero"/><path fill="#fbbc04" d="M406.0 21.55C406.0 20.997715 406.44772 20.55 407.0 20.55L417.0 20.55C417.55228 20.55 418.0 20.997715 418.0 21.55L418.0 31.55C418.0 32.102283 417.55228 32.55 417.0 32.55L407.0 32.55C406.44772 32.55 406.0 32.102283 406.0 31.55Z" fill-rule="nonzero"/><path fill="#1a1a1a" d="M434.23438 28.034374L435.5625 28.378124Q435.14062 30.003124 434.04688 30.8625Q432.96875 31.721874 431.40625 31.721874Q429.78125 31.721874 428.76562 31.065624Q427.75 30.39375 427.21875 29.14375Q426.70312 27.89375 426.70312 26.45625Q426.70312 24.89375 427.29688 23.7375Q427.89062 22.565624 429.0 21.971874Q430.10938 21.3625 431.42188 21.3625Q432.9375 21.3625 433.95312 22.128124Q434.98438 22.89375 435.39062 24.26875L434.07812 24.58125Q433.73438 23.4875 433.0625 22.9875Q432.40625 22.4875 431.40625 22.4875Q430.25 22.4875 429.46875 23.05Q428.6875 23.596874 428.375 24.534374Q428.0625 25.471874 428.0625 26.45625Q428.0625 27.7375 428.4375 28.690624Q428.8125 29.64375 429.59375 30.1125Q430.375 30.58125 431.29688 30.58125Q432.40625 30.58125 433.17188 29.940624Q433.95312 29.3 434.23438 28.034374ZM444.23438 28.034374L445.5625 28.378124Q445.14062 30.003124 444.04688 30.8625Q442.96875 31.721874 441.40625 31.721874Q439.78125 31.721874 438.76562 31.065624Q437.75 30.39375 437.21875 29.14375Q436.70312 27.89375 436.70312 26.45625Q436.70312 24.89375 437.29688 23.7375Q437.89062 22.565624 439.0 21.971874Q440.10938 21.3625 441.42188 21.3625Q442.9375 21.3625 443.95312 22.128124Q444.98438 22.89375 445.39062 24.26875L444.07812 24.58125Q443.73438 23.4875 443.0625 22.9875Q442.40625 22.4875 441.40625 22.4875Q440.25 22.4875 439.46875 23.05Q438.6875 23.596874 438.375 24.534374Q438.0625 25.471874 438.0625 26.45625Q438.0625 27.7375 438.4375 28.690624Q438.8125 29.64375 439.59375 30.1125Q440.375 30.58125 441.29688 30.58125Q442.40625 30.58125 443.17188 29.940624Q443.95312 29.3 444.23438 28.034374ZM449.5 29.925L449.5 27.175L446.78125 27.175L446.78125 26.034374L449.5 26.034374L449.5 23.3L450.67188 23.3L450.67188 26.034374L453.39062 26.034374L453.39062 27.175L450.67188 27.175L450.67188 29.925L449.5 29.925ZM454.625 28.33125L455.875 28.221874Q455.96875 28.971874 456.29688 29.45625Q456.625 29.940624 457.29688 30.2375Q457.98438 30.534374 458.84375 30.534374Q459.59375 30.534374 460.17188 30.315624Q460.76562 30.08125 461.04688 29.690624Q461.32812 29.3 461.32812 28.83125Q461.32812 28.3625 461.04688 28.01875Q460.78125 27.659374 460.15625 27.409374Q459.75 27.253124 458.35938 26.925Q456.98438 26.596874 456.4375 26.3Q455.71875 25.925 455.35938 25.378124Q455.01562 24.815624 455.01562 24.1125Q455.01562 23.3625 455.4375 22.70625Q455.875 22.034374 456.70312 21.70625Q457.53125 21.3625 458.54688 21.3625Q459.65625 21.3625 460.5 21.721874Q461.35938 22.08125 461.8125 22.784374Q462.26562 23.471874 462.3125 24.346874L461.03125 24.440624Q460.9375 23.503124 460.34375 23.01875Q459.75 22.51875 458.59375 22.51875Q457.39062 22.51875 456.84375 22.971874Q456.29688 23.409374 456.29688 24.034374Q456.29688 24.565624 456.6875 24.925Q457.0625 25.26875 458.67188 25.64375Q460.29688 26.003124 460.89062 26.26875Q461.76562 26.675 462.1875 27.3Q462.60938 27.909374 462.60938 28.721874Q462.60938 29.51875 462.14062 30.2375Q461.6875 30.940624 460.82812 31.33125Q459.96875 31.721874 458.90625 31.721874Q457.54688 31.721874 456.625 31.33125Q455.70312 30.925 455.17188 30.128124Q454.65625 29.33125 454.625 28.33125ZM463.875 34.346874L463.73438 33.190624Q464.14062 33.3 464.4375 33.3Q464.84375 33.3 465.09375 33.159374Q465.34375 33.034374 465.5 32.784374Q465.60938 32.596874 465.875 31.8625Q465.90625 31.76875 465.98438 31.565624L463.21875 24.284374L464.54688 24.284374L466.0625 28.4875Q466.35938 29.3 466.59375 30.175Q466.79688 29.33125 467.09375 28.51875L468.64062 24.284374L469.875 24.284374L467.10938 31.675Q466.67188 32.8625 466.42188 33.315624Q466.09375 33.925 465.67188 34.20625Q465.25 34.503124 464.65625 34.503124Q464.3125 34.503124 463.875 34.346874ZM470.92188 31.55L470.92188 24.284374L472.03125 24.284374L472.03125 25.315624Q472.82812 24.128124 474.34375 24.128124Q475.0 24.128124 475.54688 24.3625Q476.09375 24.596874 476.35938 24.9875Q476.64062 25.3625 476.75 25.89375Q476.82812 26.2375 476.82812 27.08125L476.82812 31.55L475.59375 31.55L475.59375 27.128124Q475.59375 26.378124 475.45312 26.01875Q475.3125 25.64375 474.9375 25.425Q474.57812 25.190624 474.07812 25.190624Q473.29688 25.190624 472.71875 25.690624Q472.15625 26.190624 472.15625 27.58125L472.15625 31.55L470.92188 31.55ZM478.4375 28.534374L478.4375 27.3L482.21875 27.3L482.21875 28.534374L478.4375 28.534374ZM484.04688 31.55L484.04688 21.534374L486.03125 21.534374L488.40625 28.628124Q488.73438 29.6125 488.89062 30.1125Q489.0625 29.565624 489.42188 28.503124L491.8125 21.534374L493.60938 21.534374L493.60938 31.55L492.32812 31.55L492.32812 23.159374L489.40625 31.55L488.21875 31.55L485.3125 23.01875L485.3125 31.55L484.04688 31.55ZM499.65625 30.659374Q498.98438 31.2375 498.34375 31.4875Q497.71875 31.721874 496.98438 31.721874Q495.79688 31.721874 495.14062 31.14375Q494.5 30.55 494.5 29.628124Q494.5 29.096874 494.73438 28.659374Q494.98438 28.221874 495.375 27.95625Q495.78125 27.690624 496.26562 27.55Q496.625 27.45625 497.35938 27.3625Q498.85938 27.190624 499.5625 26.940624Q499.5625 26.690624 499.5625 26.628124Q499.5625 25.8625 499.21875 25.565624Q498.75 25.14375 497.8125 25.14375Q496.95312 25.14375 496.53125 25.45625Q496.125 25.753124 495.92188 26.51875L494.71875 26.3625Q494.875 25.58125 495.25 25.1125Q495.64062 24.64375 496.34375 24.39375Q497.0625 24.128124 498.0 24.128124Q498.92188 24.128124 499.5 24.346874Q500.07812 24.565624 500.34375 24.89375Q500.625 25.221874 500.73438 25.7375Q500.79688 26.05 500.79688 26.8625L500.79688 28.503124Q500.79688 30.221874 500.875 30.675Q500.95312 31.128124 501.1875 31.55L499.90625 31.55Q499.71875 31.159374 499.65625 30.659374ZM499.5625 27.909374Q498.89062 28.175 497.54688 28.378124Q496.79688 28.4875 496.46875 28.628124Q496.15625 28.753124 495.98438 29.01875Q495.8125 29.284374 495.8125 29.596874Q495.8125 30.096874 496.1875 30.425Q496.5625 30.753124 497.28125 30.753124Q498.0 30.753124 498.54688 30.440624Q499.09375 30.128124 499.35938 29.58125Q499.5625 29.175 499.5625 28.3625L499.5625 27.909374ZM505.60938 30.45625L505.78125 31.534374Q505.26562 31.64375 504.85938 31.64375Q504.1875 31.64375 503.8125 31.440624Q503.45312 31.221874 503.29688 30.878124Q503.15625 30.534374 503.15625 29.425L503.15625 25.253124L502.25 25.253124L502.25 24.284374L503.15625 24.284374L503.15625 22.4875L504.375 21.753124L504.375 24.284374L505.60938 24.284374L505.60938 25.253124L504.375 25.253124L504.375 29.4875Q504.375 30.01875 504.4375 30.175Q504.5 30.315624 504.64062 30.409374Q504.79688 30.503124 505.0625 30.503124Q505.28125 30.503124 505.60938 30.45625ZM506.92188 31.55L506.92188 21.534374L508.15625 21.534374L508.15625 25.128124Q509.01562 24.128124 510.32812 24.128124Q511.14062 24.128124 511.73438 24.45625Q512.3281 24.76875 512.5781 25.33125Q512.84375 25.878124 512.84375 26.95625L512.84375 31.55L511.60938 31.55L511.60938 26.95625Q511.60938 26.01875 511.20312 25.6125Q510.8125 25.190624 510.07812 25.190624Q509.53125 25.190624 509.04688 25.471874Q508.5625 25.753124 508.35938 26.2375Q508.15625 26.721874 508.15625 27.58125L508.15625 31.55L506.92188 31.55ZM515.0781 31.55L515.0781 21.534374L518.8594 21.534374Q519.8594 21.534374 520.3906 21.628124Q521.125 21.753124 521.625 22.096874Q522.125 22.440624 522.4219 23.065624Q522.7344 23.675 522.7344 24.425Q522.7344 25.70625 521.9219 26.596874Q521.1094 27.471874 518.9844 27.471874L516.40625 27.471874L516.40625 31.55L515.0781 31.55ZM516.40625 26.3L519.0 26.3Q520.28125 26.3 520.8125 25.815624Q521.3594 25.33125 521.3594 24.471874Q521.3594 23.83125 521.0469 23.39375Q520.7344 22.940624 520.2031 22.8Q519.875 22.70625 518.96875 22.70625L516.40625 22.70625L516.40625 26.3ZM523.9375 22.940624L523.9375 21.534374L525.15625 21.534374L525.15625 22.940624L523.9375 22.940624ZM523.9375 31.55L523.9375 24.284374L525.15625 24.284374L525.15625 31.55L523.9375 31.55ZM526.8906 31.55L526.8906 21.534374L528.125 21.534374L528.125 31.55L526.8906 31.55ZM534.8906 29.20625L536.1719 29.3625Q535.8594 30.4875 535.0469 31.1125Q534.2344 31.721874 532.96875 31.721874Q531.375 31.721874 530.4375 30.7375Q529.5156 29.753124 529.5156 27.9875Q529.5156 26.14375 530.4531 25.14375Q531.40625 24.128124 532.90625 24.128124Q534.3594 24.128124 535.28125 25.128124Q536.2031 26.1125 536.2031 27.909374Q536.2031 28.01875 536.2031 28.2375L530.78125 28.2375Q530.8594 29.425 531.4531 30.065624Q532.0625 30.70625 532.9844 30.70625Q533.65625 30.70625 534.125 30.346874Q534.6094 29.9875 534.8906 29.20625ZM530.8594 27.221874L534.90625 27.221874Q534.8281 26.3 534.4375 25.846874Q533.8594 25.14375 532.9219 25.14375Q532.0625 25.14375 531.4844 25.70625Q530.9219 26.26875 530.8594 27.221874ZM541.9531 34.33125L541.9531 21.534374L544.6719 21.534374L544.6719 22.55L543.1875 22.55L543.1875 33.315624L544.6719 33.315624L544.6719 34.33125L541.9531 34.33125ZM550.21875 31.55L548.9844 31.55L548.9844 23.70625Q548.5469 24.128124 547.8125 24.565624Q547.09375 24.9875 546.53125 25.190624L546.53125 24.003124Q547.5625 23.51875 548.3281 22.83125Q549.1094 22.14375 549.4219 21.4875L550.21875 21.4875L550.21875 31.55ZM554.2656 25.690624L554.2656 24.284374L555.6719 24.284374L555.6719 25.690624L554.2656 25.690624ZM554.2656 31.55L554.2656 30.14375L555.6719 30.14375L555.6719 31.55L554.2656 31.55ZM564.0469 30.3625L564.0469 31.55L557.4219 31.55Q557.40625 31.1125 557.5625 30.690624Q557.8281 30.01875 558.375 29.3625Q558.9375 28.70625 559.9844 27.846874Q561.625 26.503124 562.1875 25.721874Q562.7656 24.940624 562.7656 24.2375Q562.7656 23.503124 562.2344 23.003124Q561.71875 22.503124 560.8906 22.503124Q560.0 22.503124 559.4531 23.034374Q558.9219 23.565624 558.9219 24.51875L557.65625 24.378124Q557.78125 22.971874 558.625 22.2375Q559.4844 21.4875 560.90625 21.4875Q562.3594 21.4875 563.1875 22.284374Q564.03125 23.08125 564.03125 24.26875Q564.03125 24.878124 563.78125 25.45625Q563.5469 26.034374 562.96875 26.675Q562.40625 27.315624 561.0781 28.440624Q559.96875 29.3625 559.65625 29.70625Q559.34375 30.034374 559.1406 30.3625L564.0469 30.3625ZM567.9844 34.33125L565.2656 34.33125L565.2656 33.315624L566.75 33.315624L566.75 22.55L565.2656 22.55L565.2656 21.534374L567.9844 21.534374L567.9844 34.33125Z" fill-rule="nonzero"/></svg>