<svg version="1.1" viewBox="0.0 0.0 600.0 371.0" fill="none" stroke="none" stroke-linecap="square" stroke-miterlimit="10" width="600" height="371" xmlns:xlink="http://www.w3.org/1999/xlink" xmlns="http://www.w3.org/2000/svg"><path fill="#ffffff" d="M0 0L600.0 0L600.0 371.0L0 371.0L0 0Z" fill-rule="nonzero"/><path stroke="#cccccc" stroke-width="1.0" stroke-linecap="butt" d="M55.5 332.5L581.5 332.5" fill-rule="nonzero"/><path stroke="#cccccc" stroke-width="1.0" stroke-linecap="butt" d="M55.5 276.5L581.5 276.5" fill-rule="nonzero"/><path stroke="#cccccc" stroke-width="1.0" stroke-linecap="butt" d="M55.5 220.5L581.5 220.5" fill-rule="nonzero"/><path stroke="#cccccc" stroke-width="1.0" stroke-linecap="butt" d="M55.5 164.5L581.5 164.5" fill-rule="nonzero"/><path stroke="#cccccc" stroke-width="1.0" stroke-linecap="butt" d="M55.5 108.5L581.5 108.5" fill-rule="nonzero"/><path stroke="#cccccc" stroke-width="1.0" stroke-linecap="butt" d="M55.5 51.5L581.5 51.5" fill-rule="nonzero"/><clipPath id="id_0"><path d="M55.55 51.916668L581.45 51.916668L581.45 332.45L55.55 332.45L55.55 51.916668Z" clip-rule="nonzero"/></clipPath><path stroke="#000000" stroke-width="2.0" stroke-linecap="butt" stroke-opacity="0.0" clip-path="url(#id_0)" d="M135.0 332.0L111.0 332.0L111.0 99.0C111.0 97.89543 111.89543 97.0 113.0 97.0L133.0 97.0C134.10457 97.0 135.0 97.89543 135.0 99.0Z" fill-rule="nonzero"/><path fill="#4285f4" clip-path="url(#id_0)" d="M135.0 332.0L111.0 332.0L111.0 99.0C111.0 97.89543 111.89543 97.0 113.0 97.0L133.0 97.0C134.10457 97.0 135.0 97.89543 135.0 99.0Z" fill-rule="nonzero"/><path stroke="#000000" stroke-width="2.0" stroke-linecap="butt" stroke-opacity="0.0" clip-path="url(#id_0)" d="M292.0 332.0L268.0 332.0L268.0 244.0C268.0 242.89543 268.89542 242.0 270.0 242.0L290.0 242.0C291.10458 242.0 292.0 242.89543 292.0 244.0Z" fill-rule="nonzero"/><path fill="#4285f4" clip-path="url(#id_0)" d="M292.0 332.0L268.0 332.0L268.0 244.0C268.0 242.89543 268.89542 242.0 270.0 242.0L290.0 242.0C291.10458 242.0 292.0 242.89543 292.0 244.0Z" fill-rule="nonzero"/><path stroke="#000000" stroke-width="2.0" stroke-linecap="butt" stroke-opacity="0.0" clip-path="url(#id_0)" d="M448.0 332.0L424.0 332.0L424.0 296.0C424.0 294.89542 424.89542 294.0 426.0 294.0L446.0 294.0C447.10458 294.0 448.0 294.89542 448.0 296.0Z" fill-rule="nonzero"/><path fill="#4285f4" clip-path="url(#id_0)" d="M448.0 332.0L424.0 332.0L424.0 296.0C424.0 294.89542 424.89542 294.0 426.0 294.0L446.0 294.0C447.10458 294.0 448.0 294.89542 448.0 296.0Z" fill-rule="nonzero"/><path stroke="#000000" stroke-width="2.0" stroke-linecap="butt" stroke-opacity="0.0" clip-path="url(#id_0)" d="M161.0 332.0L137.0 332.0L137.0 92.0C137.0 90.89543 137.89543 90.0 139.0 90.0L159.0 90.0C160.10457 90.0 161.0 90.89543 161.0 92.0Z" fill-rule="nonzero"/><path fill="#ea4335" clip-path="url(#id_0)" d="M161.0 332.0L137.0 332.0L137.0 92.0C137.0 90.89543 137.89543 90.0 139.0 90.0L159.0 90.0C160.10457 90.0 161.0 90.89543 161.0 92.0Z" fill-rule="nonzero"/><path stroke="#000000" stroke-width="2.0" stroke-linecap="butt" stroke-opacity="0.0" clip-path="url(#id_0)" d="M318.0 332.0L294.0 332.0L294.0 233.0C294.0 231.89543 294.89542 231.0 296.0 231.0L316.0 231.0C317.10458 231.0 318.0 231.89543 318.0 233.0Z" fill-rule="nonzero"/><path fill="#ea4335" clip-path="url(#id_0)" d="M318.0 332.0L294.0 332.0L294.0 233.0C294.0 231.89543 294.89542 231.0 296.0 231.0L316.0 231.0C317.10458 231.0 318.0 231.89543 318.0 233.0Z" fill-rule="nonzero"/><path stroke="#000000" stroke-width="2.0" stroke-linecap="butt" stroke-opacity="0.0" clip-path="url(#id_0)" d="M474.0 332.0L450.0 332.0L450.0 272.0C450.0 270.89542 450.89542 270.0 452.0 270.0L472.0 270.0C473.10458 270.0 474.0 270.89542 474.0 272.0Z" fill-rule="nonzero"/><path fill="#ea4335" clip-path="url(#id_0)" d="M474.0 332.0L450.0 332.0L450.0 272.0C450.0 270.89542 450.89542 270.0 452.0 270.0L472.0 270.0C473.10458 270.0 474.0 270.89542 474.0 272.0Z" fill-rule="nonzero"/><path stroke="#000000" stroke-width="2.0" stroke-linecap="butt" stroke-opacity="0.0" clip-path="url(#id_0)" d="M187.0 332.0L163.0 332.0L163.0 87.0C163.0 85.89543 163.89543 85.0 165.0 85.0L185.0 85.0C186.10457 85.0 187.0 85.89543 187.0 87.0Z" fill-rule="nonzero"/><path fill="#fbbc04" clip-path="url(#id_0)" d="M187.0 332.0L163.0 332.0L163.0 87.0C163.0 85.89543 163.89543 85.0 165.0 85.0L185.0 85.0C186.10457 85.0 187.0 85.89543 187.0 87.0Z" fill-rule="nonzero"/><path stroke="#000000" stroke-width="2.0" stroke-linecap="butt" stroke-opacity="0.0" clip-path="url(#id_0)" d="M344.0 332.0L320.0 332.0L320.0 234.0C320.0 232.89543 320.89542 232.0 322.0 232.0L342.0 232.0C343.10458 232.0 344.0 232.89543 344.0 234.0Z" fill-rule="nonzero"/><path fill="#fbbc04" clip-path="url(#id_0)" d="M344.0 332.0L320.0 332.0L320.0 234.0C320.0 232.89543 320.89542 232.0 322.0 232.0L342.0 232.0C343.10458 232.0 344.0 232.89543 344.0 234.0Z" fill-rule="nonzero"/><path stroke="#000000" stroke-width="2.0" stroke-linecap="butt" stroke-opacity="0.0" clip-path="url(#id_0)" d="M500.0 332.0L476.0 332.0L476.0 277.0C476.0 275.89542 476.89542 275.0 478.0 275.0L498.0 275.0C499.10458 275.0 500.0 275.89542 500.0 277.0Z" fill-rule="nonzero"/><path fill="#fbbc04" clip-path="url(#id_0)" d="M500.0 332.0L476.0 332.0L476.0 277.0C476.0 275.89542 476.89542 275.0 478.0 275.0L498.0 275.0C499.10458 275.0 500.0 275.89542 500.0 277.0Z" fill-rule="nonzero"/><path stroke="#000000" stroke-width="2.0" stroke-linecap="butt" stroke-opacity="0.0" clip-path="url(#id_0)" d="M213.0 332.0L189.0 332.0L189.0 92.0C189.0 90.89543 189.89543 90.0 191.0 90.0L211.0 90.0C212.10457 90.0 213.0 90.89543 213.0 92.0Z" fill-rule="nonzero"/><path fill="#34a853" clip-path="url(#id_0)" d="M213.0 332.0L189.0 332.0L189.0 92.0C189.0 90.89543 189.89543 90.0 191.0 90.0L211.0 90.0C212.10457 90.0 213.0 90.89543 213.0 92.0Z" fill-rule="nonzero"/><path stroke="#000000" stroke-width="2.0" stroke-linecap="butt" stroke-opacity="0.0" clip-path="url(#id_0)" d="M370.0 332.0L346.0 332.0L346.0 230.0C346.0 228.89543 346.89542 228.0 348.0 228.0L368.0 228.0C369.10458 228.0 370.0 228.89543 370.0 230.0Z" fill-rule="nonzero"/><path fill="#34a853" clip-path="url(#id_0)" d="M370.0 332.0L346.0 332.0L346.0 230.0C346.0 228.89543 346.89542 228.0 348.0 228.0L368.0 228.0C369.10458 228.0 370.0 228.89543 370.0 230.0Z" fill-rule="nonzero"/><path stroke="#000000" stroke-width="2.0" stroke-linecap="butt" stroke-opacity="0.0" clip-path="url(#id_0)" d="M526.0 332.0L502.0 332.0L502.0 267.0C502.0 265.89542 502.89542 265.0 504.0 265.0L524.0 265.0C525.10455 265.0 526.0 265.89542 526.0 267.0Z" fill-rule="nonzero"/><path fill="#34a853" clip-path="url(#id_0)" d="M526.0 332.0L502.0 332.0L502.0 267.0C502.0 265.89542 502.89542 265.0 504.0 265.0L524.0 265.0C525.10455 265.0 526.0 265.89542 526.0 267.0Z" fill-rule="nonzero"/><path fill="#000000" d="M19.05 334.1844L20.1125 334.04376Q20.284374 334.9344 20.721874 335.34064Q21.159374 335.73126 21.784374 335.73126Q22.534374 335.73126 23.05 335.21564Q23.565624 334.7 23.565624 333.9344Q23.565624 333.21564 23.08125 332.7469Q22.6125 332.2625 21.878124 332.2625Q21.58125 332.2625 21.128124 332.3875L21.253124 331.45Q21.3625 331.46564 21.425 331.46564Q22.096874 331.46564 22.628124 331.1219Q23.175 330.7625 23.175 330.02814Q23.175 329.45 22.784374 329.075Q22.39375 328.6844 21.76875 328.6844Q21.159374 328.6844 20.7375 329.075Q20.33125 329.46564 20.221874 330.23126L19.159374 330.04376Q19.346874 328.9969 20.034374 328.41876Q20.721874 327.825 21.7375 327.825Q22.440624 327.825 23.034374 328.1375Q23.628124 328.4344 23.940624 328.95Q24.253124 329.46564 24.253124 330.0594Q24.253124 330.60626 23.95625 331.075Q23.659374 331.52814 23.08125 331.79376Q23.83125 331.96564 24.253124 332.52814Q24.675 333.075 24.675 333.91876Q24.675 335.04376 23.846874 335.825Q23.034374 336.60626 21.784374 336.60626Q20.659374 336.60626 19.909374 335.9344Q19.159374 335.2469 19.05 334.1844ZM26.05 332.21564Q26.05 330.6844 26.3625 329.7625Q26.675 328.825 27.284374 328.325Q27.909374 327.825 28.846874 327.825Q29.534374 327.825 30.05 328.10626Q30.58125 328.3875 30.925 328.91876Q31.26875 329.4344 31.45625 330.1844Q31.64375 330.9344 31.64375 332.21564Q31.64375 333.73126 31.33125 334.65314Q31.034374 335.575 30.409374 336.09064Q29.8 336.59064 28.846874 336.59064Q27.6125 336.59064 26.89375 335.7Q26.05 334.6375 26.05 332.21564ZM27.128124 332.21564Q27.128124 334.325 27.628124 335.02814Q28.128124 335.73126 28.846874 335.73126Q29.58125 335.73126 30.065624 335.02814Q30.565624 334.325 30.565624 332.21564Q30.565624 330.09064 30.065624 329.40314Q29.58125 328.7 28.83125 328.7Q28.1125 328.7 27.675 329.3094Q27.128124 330.09064 27.128124 332.21564ZM33.64375 336.45L33.64375 335.2469L34.846874 335.2469L34.846874 336.45L33.64375 336.45ZM36.05 332.21564Q36.05 330.6844 36.3625 329.7625Q36.675 328.825 37.284374 328.325Q37.909374 327.825 38.846874 327.825Q39.534374 327.825 40.05 328.10626Q40.58125 328.3875 40.925 328.91876Q41.26875 329.4344 41.45625 330.1844Q41.64375 330.9344 41.64375 332.21564Q41.64375 333.73126 41.33125 334.65314Q41.034374 335.575 40.409374 336.09064Q39.8 336.59064 38.846874 336.59064Q37.6125 336.59064 36.89375 335.7Q36.05 334.6375 36.05 332.21564ZM37.128124 332.21564Q37.128124 334.325 37.628124 335.02814Q38.128124 335.73126 38.846874 335.73126Q39.58125 335.73126 40.065624 335.02814Q40.565624 334.325 40.565624 332.21564Q40.565624 330.09064 40.065624 329.40314Q39.58125 328.7 38.83125 328.7Q38.1125 328.7 37.675 329.3094Q37.128124 330.09064 37.128124 332.21564ZM43.05 332.21564Q43.05 330.6844 43.3625 329.7625Q43.675 328.825 44.284374 328.325Q44.909374 327.825 45.846874 327.825Q46.534374 327.825 47.05 328.10626Q47.58125 328.3875 47.925 328.91876Q48.26875 329.4344 48.45625 330.1844Q48.64375 330.9344 48.64375 332.21564Q48.64375 333.73126 48.33125 334.65314Q48.034374 335.575 47.409374 336.09064Q46.8 336.59064 45.846874 336.59064Q44.6125 336.59064 43.89375 335.7Q43.05 334.6375 43.05 332.21564ZM44.128124 332.21564Q44.128124 334.325 44.628124 335.02814Q45.128124 335.73126 45.846874 335.73126Q46.58125 335.73126 47.065624 335.02814Q47.565624 334.325 47.565624 332.21564Q47.565624 330.09064 47.065624 329.40314Q46.58125 328.7 45.83125 328.7Q45.1125 328.7 44.675 329.3094Q44.128124 330.09064 44.128124 332.21564Z" fill-rule="nonzero"/><path fill="#000000" d="M19.05 278.0777L20.1125 277.93707Q20.284374 278.8277 20.721874 279.23395Q21.159374 279.62457 21.784374 279.62457Q22.534374 279.62457 23.05 279.10895Q23.565624 278.59332 23.565624 277.8277Q23.565624 277.10895 23.08125 276.6402Q22.6125 276.15582 21.878124 276.15582Q21.58125 276.15582 21.128124 276.28082L21.253124 275.34332Q21.3625 275.35895 21.425 275.35895Q22.096874 275.35895 22.628124 275.0152Q23.175 274.65582 23.175 273.92145Q23.175 273.34332 22.784374 272.96832Q22.39375 272.5777 21.76875 272.5777Q21.159374 272.5777 20.7375 272.96832Q20.33125 273.35895 20.221874 274.12457L19.159374 273.93707Q19.346874 272.8902 20.034374 272.31207Q20.721874 271.71832 21.7375 271.71832Q22.440624 271.71832 23.034374 272.03082Q23.628124 272.3277 23.940624 272.84332Q24.253124 273.35895 24.253124 273.9527Q24.253124 274.49957 23.95625 274.96832Q23.659374 275.42145 23.08125 275.68707Q23.83125 275.85895 24.253124 276.42145Q24.675 276.96832 24.675 277.81207Q24.675 278.93707 23.846874 279.71832Q23.034374 280.49957 21.784374 280.49957Q20.659374 280.49957 19.909374 279.8277Q19.159374 279.1402 19.05 278.0777ZM26.05 278.09332L27.159374 277.99957Q27.284374 278.81207 27.721874 279.21832Q28.175 279.62457 28.815624 279.62457Q29.565624 279.62457 30.096874 279.04645Q30.628124 278.46832 30.628124 277.53082Q30.628124 276.62457 30.1125 276.10895Q29.6125 275.5777 28.784374 275.5777Q28.284374 275.5777 27.8625 275.81207Q27.45625 276.04645 27.221874 276.40582L26.2375 276.28082L27.065624 271.87457L31.346874 271.87457L31.346874 272.87457L27.909374 272.87457L27.45625 275.18707Q28.221874 274.6402 29.065624 274.6402Q30.190624 274.6402 30.95625 275.42145Q31.7375 276.2027 31.7375 277.43707Q31.7375 278.59332 31.065624 279.4527Q30.2375 280.48395 28.815624 280.48395Q27.64375 280.48395 26.89375 279.8277Q26.159374 279.17145 26.05 278.09332ZM33.64375 280.34332L33.64375 279.1402L34.846874 279.1402L34.846874 280.34332L33.64375 280.34332ZM36.05 276.10895Q36.05 274.5777 36.3625 273.65582Q36.675 272.71832 37.284374 272.21832Q37.909374 271.71832 38.846874 271.71832Q39.534374 271.71832 40.05 271.99957Q40.58125 272.28082 40.925 272.81207Q41.26875 273.3277 41.45625 274.0777Q41.64375 274.8277 41.64375 276.10895Q41.64375 277.62457 41.33125 278.54645Q41.034374 279.46832 40.409374 279.98395Q39.8 280.48395 38.846874 280.48395Q37.6125 280.48395 36.89375 279.59332Q36.05 278.53082 36.05 276.10895ZM37.128124 276.10895Q37.128124 278.21832 37.628124 278.92145Q38.128124 279.62457 38.846874 279.62457Q39.58125 279.62457 40.065624 278.92145Q40.565624 278.21832 40.565624 276.10895Q40.565624 273.98395 40.065624 273.29645Q39.58125 272.59332 38.83125 272.59332Q38.1125 272.59332 37.675 273.2027Q37.128124 273.98395 37.128124 276.10895ZM43.05 276.10895Q43.05 274.5777 43.3625 273.65582Q43.675 272.71832 44.284374 272.21832Q44.909374 271.71832 45.846874 271.71832Q46.534374 271.71832 47.05 271.99957Q47.58125 272.28082 47.925 272.81207Q48.26875 273.3277 48.45625 274.0777Q48.64375 274.8277 48.64375 276.10895Q48.64375 277.62457 48.33125 278.54645Q48.034374 279.46832 47.409374 279.98395Q46.8 280.48395 45.846874 280.48395Q44.6125 280.48395 43.89375 279.59332Q43.05 278.53082 43.05 276.10895ZM44.128124 276.10895Q44.128124 278.21832 44.628124 278.92145Q45.128124 279.62457 45.846874 279.62457Q46.58125 279.62457 47.065624 278.92145Q47.565624 278.21832 47.565624 276.10895Q47.565624 273.98395 47.065624 273.29645Q46.58125 272.59332 45.83125 272.59332Q45.1125 272.59332 44.675 273.2027Q44.128124 273.98395 44.128124 276.10895Z" fill-rule="nonzero"/><path fill="#000000" d="M22.425 224.23666L22.425 222.17416L18.70625 222.17416L18.70625 221.20541L22.628124 215.64291L23.4875 215.64291L23.4875 221.20541L24.64375 221.20541L24.64375 222.17416L23.4875 222.17416L23.4875 224.23666L22.425 224.23666ZM22.425 221.20541L22.425 217.34604L19.7375 221.20541L22.425 221.20541ZM26.05 220.00229Q26.05 218.47104 26.3625 217.54916Q26.675 216.61166 27.284374 216.11166Q27.909374 215.61166 28.846874 215.61166Q29.534374 215.61166 30.05 215.89291Q30.58125 216.17416 30.925 216.70541Q31.26875 217.22104 31.45625 217.97104Q31.64375 218.72104 31.64375 220.00229Q31.64375 221.51791 31.33125 222.43979Q31.034374 223.36166 30.409374 223.87729Q29.8 224.37729 28.846874 224.37729Q27.6125 224.37729 26.89375 223.48666Q26.05 222.42416 26.05 220.00229ZM27.128124 220.00229Q27.128124 222.11166 27.628124 222.81479Q28.128124 223.51791 28.846874 223.51791Q29.58125 223.51791 30.065624 222.81479Q30.565624 222.11166 30.565624 220.00229Q30.565624 217.87729 30.065624 217.18979Q29.58125 216.48666 28.83125 216.48666Q28.1125 216.48666 27.675 217.09604Q27.128124 217.87729 27.128124 220.00229ZM33.64375 224.23666L33.64375 223.03354L34.846874 223.03354L34.846874 224.23666L33.64375 224.23666ZM36.05 220.00229Q36.05 218.47104 36.3625 217.54916Q36.675 216.61166 37.284374 216.11166Q37.909374 215.61166 38.846874 215.61166Q39.534374 215.61166 40.05 215.89291Q40.58125 216.17416 40.925 216.70541Q41.26875 217.22104 41.45625 217.97104Q41.64375 218.72104 41.64375 220.00229Q41.64375 221.51791 41.33125 222.43979Q41.034374 223.36166 40.409374 223.87729Q39.8 224.37729 38.846874 224.37729Q37.6125 224.37729 36.89375 223.48666Q36.05 222.42416 36.05 220.00229ZM37.128124 220.00229Q37.128124 222.11166 37.628124 222.81479Q38.128124 223.51791 38.846874 223.51791Q39.58125 223.51791 40.065624 222.81479Q40.565624 222.11166 40.565624 220.00229Q40.565624 217.87729 40.065624 217.18979Q39.58125 216.48666 38.83125 216.48666Q38.1125 216.48666 37.675 217.09604Q37.128124 217.87729 37.128124 220.00229ZM43.05 220.00229Q43.05 218.47104 43.3625 217.54916Q43.675 216.61166 44.284374 216.11166Q44.909374 215.61166 45.846874 215.61166Q46.534374 215.61166 47.05 215.89291Q47.58125 216.17416 47.925 216.70541Q48.26875 217.22104 48.45625 217.97104Q48.64375 218.72104 48.64375 220.00229Q48.64375 221.51791 48.33125 222.43979Q48.034374 223.36166 47.409374 223.87729Q46.8 224.37729 45.846874 224.37729Q44.6125 224.37729 43.89375 223.48666Q43.05 222.42416 43.05 220.00229ZM44.128124 220.00229Q44.128124 222.11166 44.628124 222.81479Q45.128124 223.51791 45.846874 223.51791Q46.58125 223.51791 47.065624 222.81479Q47.565624 222.11166 47.565624 220.00229Q47.565624 217.87729 47.065624 217.18979Q46.58125 216.48666 45.83125 216.48666Q45.1125 216.48666 44.675 217.09604Q44.128124 217.87729 44.128124 220.00229Z" fill-rule="nonzero"/><path fill="#000000" d="M22.425 168.13L22.425 166.0675L18.70625 166.0675L18.70625 165.09875L22.628124 159.53625L23.4875 159.53625L23.4875 165.09875L24.64375 165.09875L24.64375 166.0675L23.4875 166.0675L23.4875 168.13L22.425 168.13ZM22.425 165.09875L22.425 161.23938L19.7375 165.09875L22.425 165.09875ZM26.05 165.88L27.159374 165.78625Q27.284374 166.59875 27.721874 167.005Q28.175 167.41125 28.815624 167.41125Q29.565624 167.41125 30.096874 166.83313Q30.628124 166.255 30.628124 165.3175Q30.628124 164.41125 30.1125 163.89563Q29.6125 163.36438 28.784374 163.36438Q28.284374 163.36438 27.8625 163.59875Q27.45625 163.83313 27.221874 164.1925L26.2375 164.0675L27.065624 159.66125L31.346874 159.66125L31.346874 160.66125L27.909374 160.66125L27.45625 162.97375Q28.221874 162.42688 29.065624 162.42688Q30.190624 162.42688 30.95625 163.20813Q31.7375 163.98938 31.7375 165.22375Q31.7375 166.38 31.065624 167.23938Q30.2375 168.27063 28.815624 168.27063Q27.64375 168.27063 26.89375 167.61438Q26.159374 166.95813 26.05 165.88ZM33.64375 168.13L33.64375 166.92688L34.846874 166.92688L34.846874 168.13L33.64375 168.13ZM36.05 163.89563Q36.05 162.36438 36.3625 161.4425Q36.675 160.505 37.284374 160.005Q37.909374 159.505 38.846874 159.505Q39.534374 159.505 40.05 159.78625Q40.58125 160.0675 40.925 160.59875Q41.26875 161.11438 41.45625 161.86438Q41.64375 162.61438 41.64375 163.89563Q41.64375 165.41125 41.33125 166.33313Q41.034374 167.255 40.409374 167.77063Q39.8 168.27063 38.846874 168.27063Q37.6125 168.27063 36.89375 167.38Q36.05 166.3175 36.05 163.89563ZM37.128124 163.89563Q37.128124 166.005 37.628124 166.70813Q38.128124 167.41125 38.846874 167.41125Q39.58125 167.41125 40.065624 166.70813Q40.565624 166.005 40.565624 163.89563Q40.565624 161.77063 40.065624 161.08313Q39.58125 160.38 38.83125 160.38Q38.1125 160.38 37.675 160.98938Q37.128124 161.77063 37.128124 163.89563ZM43.05 163.89563Q43.05 162.36438 43.3625 161.4425Q43.675 160.505 44.284374 160.005Q44.909374 159.505 45.846874 159.505Q46.534374 159.505 47.05 159.78625Q47.58125 160.0675 47.925 160.59875Q48.26875 161.11438 48.45625 161.86438Q48.64375 162.61438 48.64375 163.89563Q48.64375 165.41125 48.33125 166.33313Q48.034374 167.255 47.409374 167.77063Q46.8 168.27063 45.846874 168.27063Q44.6125 168.27063 43.89375 167.38Q43.05 166.3175 43.05 163.89563ZM44.128124 163.89563Q44.128124 166.005 44.628124 166.70813Q45.128124 167.41125 45.846874 167.41125Q46.58125 167.41125 47.065624 166.70813Q47.565624 166.005 47.565624 163.89563Q47.565624 161.77063 47.065624 161.08313Q46.58125 160.38 45.83125 160.38Q45.1125 160.38 44.675 160.98938Q44.128124 161.77063 44.128124 163.89563Z" fill-rule="nonzero"/><path fill="#000000" d="M19.05 109.77333L20.159374 109.67958Q20.284374 110.49208 20.721874 110.89833Q21.175 111.30458 21.815624 111.30458Q22.565624 111.30458 23.096874 110.726456Q23.628124 110.14833 23.628124 109.21083Q23.628124 108.30458 23.1125 107.788956Q22.6125 107.257706 21.784374 107.257706Q21.284374 107.257706 20.8625 107.49208Q20.45625 107.726456 20.221874 108.08583L19.2375 107.96083L20.065624 103.55458L24.346874 103.55458L24.346874 104.55458L20.909374 104.55458L20.45625 106.86708Q21.221874 106.320206 22.065624 106.320206Q23.190624 106.320206 23.95625 107.101456Q24.7375 107.882706 24.7375 109.11708Q24.7375 110.27333 24.065624 111.132706Q23.2375 112.163956 21.815624 112.163956Q20.64375 112.163956 19.89375 111.507706Q19.159374 110.851456 19.05 109.77333ZM26.05 107.788956Q26.05 106.257706 26.3625 105.33583Q26.675 104.39833 27.284374 103.89833Q27.909374 103.39833 28.846874 103.39833Q29.534374 103.39833 30.05 103.67958Q30.58125 103.96083 30.925 104.49208Q31.26875 105.007706 31.45625 105.757706Q31.64375 106.507706 31.64375 107.788956Q31.64375 109.30458 31.33125 110.226456Q31.034374 111.14833 30.409374 111.663956Q29.8 112.163956 28.846874 112.163956Q27.6125 112.163956 26.89375 111.27333Q26.05 110.21083 26.05 107.788956ZM27.128124 107.788956Q27.128124 109.89833 27.628124 110.601456Q28.128124 111.30458 28.846874 111.30458Q29.58125 111.30458 30.065624 110.601456Q30.565624 109.89833 30.565624 107.788956Q30.565624 105.663956 30.065624 104.976456Q29.58125 104.27333 28.83125 104.27333Q28.1125 104.27333 27.675 104.882706Q27.128124 105.663956 27.128124 107.788956ZM33.64375 112.02333L33.64375 110.820206L34.846874 110.820206L34.846874 112.02333L33.64375 112.02333ZM36.05 107.788956Q36.05 106.257706 36.3625 105.33583Q36.675 104.39833 37.284374 103.89833Q37.909374 103.39833 38.846874 103.39833Q39.534374 103.39833 40.05 103.67958Q40.58125 103.96083 40.925 104.49208Q41.26875 105.007706 41.45625 105.757706Q41.64375 106.507706 41.64375 107.788956Q41.64375 109.30458 41.33125 110.226456Q41.034374 111.14833 40.409374 111.663956Q39.8 112.163956 38.846874 112.163956Q37.6125 112.163956 36.89375 111.27333Q36.05 110.21083 36.05 107.788956ZM37.128124 107.788956Q37.128124 109.89833 37.628124 110.601456Q38.128124 111.30458 38.846874 111.30458Q39.58125 111.30458 40.065624 110.601456Q40.565624 109.89833 40.565624 107.788956Q40.565624 105.663956 40.065624 104.976456Q39.58125 104.27333 38.83125 104.27333Q38.1125 104.27333 37.675 104.882706Q37.128124 105.663956 37.128124 107.788956ZM43.05 107.788956Q43.05 106.257706 43.3625 105.33583Q43.675 104.39833 44.284374 103.89833Q44.909374 103.39833 45.846874 103.39833Q46.534374 103.39833 47.05 103.67958Q47.58125 103.96083 47.925 104.49208Q48.26875 105.007706 48.45625 105.757706Q48.64375 106.507706 48.64375 107.788956Q48.64375 109.30458 48.33125 110.226456Q48.034374 111.14833 47.409374 111.663956Q46.8 112.163956 45.846874 112.163956Q44.6125 112.163956 43.89375 111.27333Q43.05 110.21083 43.05 107.788956ZM44.128124 107.788956Q44.128124 109.89833 44.628124 110.601456Q45.128124 111.30458 45.846874 111.30458Q46.58125 111.30458 47.065624 110.601456Q47.565624 109.89833 47.565624 107.788956Q47.565624 105.663956 47.065624 104.976456Q46.58125 104.27333 45.83125 104.27333Q45.1125 104.27333 44.675 104.882706Q44.128124 105.663956 44.128124 107.788956Z" fill-rule="nonzero"/><path fill="#000000" d="M19.05 53.666668L20.159374 53.572918Q20.284374 54.385418 20.721874 54.791668Q21.175 55.197918 21.815624 55.197918Q22.565624 55.197918 23.096874 54.619793Q23.628124 54.041668 23.628124 53.104168Q23.628124 52.197918 23.1125 51.682293Q22.6125 51.151043 21.784374 51.151043Q21.284374 51.151043 20.8625 51.385418Q20.45625 51.619793 20.221874 51.979168L19.2375 51.854168L20.065624 47.447918L24.346874 47.447918L24.346874 48.447918L20.909374 48.447918L20.45625 50.760418Q21.221874 50.213543 22.065624 50.213543Q23.190624 50.213543 23.95625 50.994793Q24.7375 51.776043 24.7375 53.010418Q24.7375 54.166668 24.065624 55.026043Q23.2375 56.057293 21.815624 56.057293Q20.64375 56.057293 19.89375 55.401043Q19.159374 54.744793 19.05 53.666668ZM26.05 53.666668L27.159374 53.572918Q27.284374 54.385418 27.721874 54.791668Q28.175 55.197918 28.815624 55.197918Q29.565624 55.197918 30.096874 54.619793Q30.628124 54.041668 30.628124 53.104168Q30.628124 52.197918 30.1125 51.682293Q29.6125 51.151043 28.784374 51.151043Q28.284374 51.151043 27.8625 51.385418Q27.45625 51.619793 27.221874 51.979168L26.2375 51.854168L27.065624 47.447918L31.346874 47.447918L31.346874 48.447918L27.909374 48.447918L27.45625 50.760418Q28.221874 50.213543 29.065624 50.213543Q30.190624 50.213543 30.95625 50.994793Q31.7375 51.776043 31.7375 53.010418Q31.7375 54.166668 31.065624 55.026043Q30.2375 56.057293 28.815624 56.057293Q27.64375 56.057293 26.89375 55.401043Q26.159374 54.744793 26.05 53.666668ZM33.64375 55.916668L33.64375 54.713543L34.846874 54.713543L34.846874 55.916668L33.64375 55.916668ZM36.05 51.682293Q36.05 50.151043 36.3625 49.229168Q36.675 48.291668 37.284374 47.791668Q37.909374 47.291668 38.846874 47.291668Q39.534374 47.291668 40.05 47.572918Q40.58125 47.854168 40.925 48.385418Q41.26875 48.901043 41.45625 49.651043Q41.64375 50.401043 41.64375 51.682293Q41.64375 53.197918 41.33125 54.119793Q41.034374 55.041668 40.409374 55.557293Q39.8 56.057293 38.846874 56.057293Q37.6125 56.057293 36.89375 55.166668Q36.05 54.104168 36.05 51.682293ZM37.128124 51.682293Q37.128124 53.791668 37.628124 54.494793Q38.128124 55.197918 38.846874 55.197918Q39.58125 55.197918 40.065624 54.494793Q40.565624 53.791668 40.565624 51.682293Q40.565624 49.557293 40.065624 48.869793Q39.58125 48.166668 38.83125 48.166668Q38.1125 48.166668 37.675 48.776043Q37.128124 49.557293 37.128124 51.682293ZM43.05 51.682293Q43.05 50.151043 43.3625 49.229168Q43.675 48.291668 44.284374 47.791668Q44.909374 47.291668 45.846874 47.291668Q46.534374 47.291668 47.05 47.572918Q47.58125 47.854168 47.925 48.385418Q48.26875 48.901043 48.45625 49.651043Q48.64375 50.401043 48.64375 51.682293Q48.64375 53.197918 48.33125 54.119793Q48.034374 55.041668 47.409374 55.557293Q46.8 56.057293 45.846874 56.057293Q44.6125 56.057293 43.89375 55.166668Q43.05 54.104168 43.05 51.682293ZM44.128124 51.682293Q44.128124 53.791668 44.628124 54.494793Q45.128124 55.197918 45.846874 55.197918Q46.58125 55.197918 47.065624 54.494793Q47.565624 53.791668 47.565624 51.682293Q47.565624 49.557293 47.065624 48.869793Q46.58125 48.166668 45.83125 48.166668Q45.1125 48.166668 44.675 48.776043Q44.128124 49.557293 44.128124 51.682293Z" fill-rule="nonzero"/><path fill="#000000" d="M131.9368 349.45L131.9368 340.85626L133.09305 340.85626L137.60867 347.60626L137.60867 340.85626L138.70242 340.85626L138.70242 349.45L137.53055 349.45L133.01492 342.7L133.01492 349.45L131.9368 349.45ZM140.42117 346.34064Q140.42117 344.60626 141.3743 343.77814Q142.17117 343.09064 143.32742 343.09064Q144.60867 343.09064 145.42117 343.9344Q146.2493 344.7625 146.2493 346.2469Q146.2493 347.45 145.88992 348.1375Q145.53055 348.825 144.82742 349.21564Q144.13992 349.59064 143.32742 349.59064Q142.03055 349.59064 141.21805 348.7625Q140.42117 347.91876 140.42117 346.34064ZM141.4993 346.34064Q141.4993 347.52814 142.01492 348.1219Q142.54617 348.71564 143.32742 348.71564Q144.1243 348.71564 144.63992 348.1219Q145.15555 347.52814 145.15555 346.3094Q145.15555 345.15314 144.6243 344.5594Q144.10867 343.96564 143.32742 343.96564Q142.54617 343.96564 142.01492 344.5594Q141.4993 345.1375 141.4993 346.34064ZM147.8118 349.45L147.8118 343.23126L148.7493 343.23126L148.7493 344.10626Q149.4368 343.09064 150.73367 343.09064Q151.29617 343.09064 151.76492 343.29376Q152.2493 343.4969 152.48367 343.825Q152.71805 344.15314 152.8118 344.59064Q152.85867 344.8875 152.85867 345.6219L152.85867 349.45L151.8118 349.45L151.8118 345.66876Q151.8118 345.0125 151.6868 344.7Q151.5618 344.3875 151.2493 344.2Q150.9368 343.9969 150.51492 343.9969Q149.84305 343.9969 149.34305 344.4344Q148.85867 344.85626 148.85867 346.04376L148.85867 349.45L147.8118 349.45ZM154.38992 346.8719L154.38992 345.8094L157.63992 345.8094L157.63992 346.8719L154.38992 346.8719ZM158.90555 349.45L158.90555 340.85626L160.6243 340.85626L162.65555 346.9344Q162.9368 347.79376 163.0618 348.21564Q163.20242 347.7469 163.51492 346.84064L165.57742 340.85626L167.10867 340.85626L167.10867 349.45L166.01492 349.45L166.01492 342.2625L163.51492 349.45L162.48367 349.45L159.9993 342.1375L159.9993 349.45L158.90555 349.45ZM167.90555 349.45L167.90555 340.85626L169.6243 340.85626L171.65555 346.9344Q171.9368 347.79376 172.0618 348.21564Q172.20242 347.7469 172.51492 346.84064L174.57742 340.85626L176.10867 340.85626L176.10867 349.45L175.01492 349.45L175.01492 342.2625L172.51492 349.45L171.48367 349.45L168.9993 342.1375L168.9993 349.45L167.90555 349.45ZM176.88992 349.45L176.88992 340.85626L178.03055 340.85626L178.03055 348.4344L182.26492 348.4344L182.26492 349.45L176.88992 349.45ZM189.57742 340.85626L190.71805 340.85626L190.71805 345.825Q190.71805 347.1219 190.42117 347.8875Q190.1243 348.6375 189.35867 349.1219Q188.59305 349.59064 187.35867 349.59064Q186.15555 349.59064 185.3743 349.1844Q184.60867 348.7625 184.28055 347.98126Q183.95242 347.1844 183.95242 345.825L183.95242 340.85626L185.09305 340.85626L185.09305 345.8094Q185.09305 346.9344 185.29617 347.46564Q185.51492 347.9969 186.01492 348.29376Q186.53055 348.575 187.26492 348.575Q188.51492 348.575 189.04617 348.0125Q189.57742 347.4344 189.57742 345.8094L189.57742 340.85626Z" fill-rule="nonzero"/><path fill="#000000" d="M275.89062 349.45L275.89062 340.85626L277.60938 340.85626L279.64062 346.9344Q279.92188 347.79376 280.04688 348.21564Q280.1875 347.7469 280.5 346.84064L282.5625 340.85626L284.09375 340.85626L284.09375 349.45L283.0 349.45L283.0 342.2625L280.5 349.45L279.46875 349.45L276.98438 342.1375L276.98438 349.45L275.89062 349.45ZM284.89062 349.45L284.89062 340.85626L286.60938 340.85626L288.64062 346.9344Q288.92188 347.79376 289.04688 348.21564Q289.1875 347.7469 289.5 346.84064L291.5625 340.85626L293.09375 340.85626L293.09375 349.45L292.0 349.45L292.0 342.2625L289.5 349.45L288.46875 349.45L285.98438 342.1375L285.98438 349.45L284.89062 349.45ZM293.875 349.45L293.875 340.85626L295.01562 340.85626L295.01562 348.4344L299.25 348.4344L299.25 349.45L293.875 349.45ZM306.5625 340.85626L307.70312 340.85626L307.70312 345.825Q307.70312 347.1219 307.40625 347.8875Q307.10938 348.6375 306.34375 349.1219Q305.57812 349.59064 304.34375 349.59064Q303.14062 349.59064 302.35938 349.1844Q301.59375 348.7625 301.26562 347.98126Q300.9375 347.1844 300.9375 345.825L300.9375 340.85626L302.07812 340.85626L302.07812 345.8094Q302.07812 346.9344 302.28125 347.46564Q302.5 347.9969 303.0 348.29376Q303.51562 348.575 304.25 348.575Q305.5 348.575 306.03125 348.0125Q306.5625 347.4344 306.5625 345.8094L306.5625 340.85626ZM309.375 346.8719L309.375 345.8094L312.625 345.8094L312.625 346.8719L309.375 346.8719ZM320.0625 346.4344L321.1875 346.73126Q320.82812 348.1219 319.90625 348.85626Q318.98438 349.59064 317.64062 349.59064Q316.25 349.59064 315.375 349.02814Q314.5 348.46564 314.04688 347.40314Q313.59375 346.325 313.59375 345.09064Q313.59375 343.7469 314.10938 342.7469Q314.625 341.7469 315.5625 341.23126Q316.51562 340.71564 317.65625 340.71564Q318.9375 340.71564 319.8125 341.3719Q320.70312 342.02814 321.04688 343.21564L319.92188 343.48126Q319.625 342.54376 319.04688 342.1219Q318.48438 341.6844 317.625 341.6844Q316.64062 341.6844 315.96875 342.16876Q315.3125 342.6375 315.03125 343.4344Q314.76562 344.23126 314.76562 345.09064Q314.76562 346.1844 315.07812 346.9969Q315.40625 347.8094 316.07812 348.21564Q316.75 348.6219 317.54688 348.6219Q318.5 348.6219 319.15625 348.075Q319.82812 347.52814 320.0625 346.4344ZM322.40625 346.34064Q322.40625 344.60626 323.35938 343.77814Q324.15625 343.09064 325.3125 343.09064Q326.59375 343.09064 327.40625 343.9344Q328.23438 344.7625 328.23438 346.2469Q328.23438 347.45 327.875 348.1375Q327.51562 348.825 326.8125 349.21564Q326.125 349.59064 325.3125 349.59064Q324.01562 349.59064 323.20312 348.7625Q322.40625 347.91876 322.40625 346.34064ZM323.48438 346.34064Q323.48438 347.52814 324.0 348.1219Q324.53125 348.71564 325.3125 348.71564Q326.10938 348.71564 326.625 348.1219Q327.14062 347.52814 327.14062 346.3094Q327.14062 345.15314 326.60938 344.5594Q326.09375 343.96564 325.3125 343.96564Q324.53125 343.96564 324.0 344.5594Q323.48438 345.1375 323.48438 346.34064ZM329.79688 349.45L329.79688 343.23126L330.73438 343.23126L330.73438 344.10626Q331.42188 343.09064 332.71875 343.09064Q333.28125 343.09064 333.75 343.29376Q334.23438 343.4969 334.46875 343.825Q334.70312 344.15314 334.79688 344.59064Q334.84375 344.8875 334.84375 345.6219L334.84375 349.45L333.79688 349.45L333.79688 345.66876Q333.79688 345.0125 333.67188 344.7Q333.54688 344.3875 333.23438 344.2Q332.92188 343.9969 332.5 343.9969Q331.82812 343.9969 331.32812 344.4344Q330.84375 344.85626 330.84375 346.04376L330.84375 349.45L329.79688 349.45ZM339.09375 348.5125L339.25 349.4344Q338.79688 349.52814 338.45312 349.52814Q337.875 349.52814 337.5625 349.35626Q337.25 349.16876 337.10938 348.8719Q336.98438 348.575 336.98438 347.6219L336.98438 344.04376L336.21875 344.04376L336.21875 343.23126L336.98438 343.23126L336.98438 341.6844L338.03125 341.0594L338.03125 343.23126L339.09375 343.23126L339.09375 344.04376L338.03125 344.04376L338.03125 347.6844Q338.03125 348.1375 338.07812 348.2625Q338.14062 348.3875 338.26562 348.46564Q338.39062 348.54376 338.625 348.54376Q338.8125 348.54376 339.09375 348.5125ZM339.375 346.8719L339.375 345.8094L342.625 345.8094L342.625 346.8719L339.375 346.8719ZM342.98438 349.45L346.28125 340.85626L347.5 340.85626L351.01562 349.45L349.73438 349.45L348.71875 346.84064L345.14062 346.84064L344.1875 349.45L342.98438 349.45ZM345.46875 345.91876L348.375 345.91876L347.48438 343.54376Q347.0625 342.46564 346.875 341.7625Q346.70312 342.59064 346.40625 343.40314L345.46875 345.91876ZM352.51562 349.45L350.15625 343.23126L351.26562 343.23126L352.60938 346.95Q352.8125 347.5594 353.0 348.2Q353.14062 347.71564 353.39062 347.02814L354.78125 343.23126L355.85938 343.23126L353.5 349.45L352.51562 349.45ZM355.59375 349.96564L356.625 350.1219Q356.6875 350.59064 356.98438 350.8094Q357.375 351.10626 358.04688 351.10626Q358.78125 351.10626 359.17188 350.8094Q359.57812 350.5125 359.71875 349.9969Q359.8125 349.66876 359.79688 348.6375Q359.10938 349.45 358.07812 349.45Q356.79688 349.45 356.09375 348.52814Q355.39062 347.59064 355.39062 346.3094Q355.39062 345.41876 355.70312 344.66876Q356.03125 343.90314 356.64062 343.4969Q357.25 343.09064 358.07812 343.09064Q359.1875 343.09064 359.90625 343.98126L359.90625 343.23126L360.875 343.23126L360.875 348.60626Q360.875 350.0594 360.57812 350.66876Q360.28125 351.27814 359.64062 351.6219Q359.0 351.98126 358.0625 351.98126Q356.95312 351.98126 356.26562 351.48126Q355.57812 350.98126 355.59375 349.96564ZM356.46875 346.23126Q356.46875 347.45 356.95312 348.0125Q357.4375 348.575 358.17188 348.575Q358.90625 348.575 359.39062 348.0125Q359.89062 347.45 359.89062 346.2625Q359.89062 345.1219 359.375 344.54376Q358.875 343.96564 358.15625 343.96564Q357.45312 343.96564 356.95312 344.54376Q356.46875 345.10626 356.46875 346.23126Z" fill-rule="nonzero"/><path fill="#000000" d="M426.3757 349.45L426.3757 340.85626L428.09445 340.85626L430.1257 346.9344Q430.40695 347.79376 430.53195 348.21564Q430.67258 347.7469 430.98508 346.84064L433.04758 340.85626L434.57883 340.85626L434.57883 349.45L433.48508 349.45L433.48508 342.2625L430.98508 349.45L429.95383 349.45L427.46945 342.1375L427.46945 349.45L426.3757 349.45ZM435.3757 349.45L435.3757 340.85626L437.09445 340.85626L439.1257 346.9344Q439.40695 347.79376 439.53195 348.21564Q439.67258 347.7469 439.98508 346.84064L442.04758 340.85626L443.57883 340.85626L443.57883 349.45L442.48508 349.45L442.48508 342.2625L439.98508 349.45L438.95383 349.45L436.46945 342.1375L436.46945 349.45L435.3757 349.45ZM444.36008 349.45L444.36008 340.85626L445.5007 340.85626L445.5007 348.4344L449.73508 348.4344L449.73508 349.45L444.36008 349.45ZM457.04758 340.85626L458.1882 340.85626L458.1882 345.825Q458.1882 347.1219 457.89133 347.8875Q457.59445 348.6375 456.82883 349.1219Q456.0632 349.59064 454.82883 349.59064Q453.6257 349.59064 452.84445 349.1844Q452.07883 348.7625 451.7507 347.98126Q451.42258 347.1844 451.42258 345.825L451.42258 340.85626L452.5632 340.85626L452.5632 345.8094Q452.5632 346.9344 452.76633 347.46564Q452.98508 347.9969 453.48508 348.29376Q454.0007 348.575 454.73508 348.575Q455.98508 348.575 456.51633 348.0125Q457.04758 347.4344 457.04758 345.8094L457.04758 340.85626ZM459.86008 346.8719L459.86008 345.8094L463.11008 345.8094L463.11008 346.8719L459.86008 346.8719ZM470.54758 346.4344L471.67258 346.73126Q471.3132 348.1219 470.39133 348.85626Q469.46945 349.59064 468.1257 349.59064Q466.73508 349.59064 465.86008 349.02814Q464.98508 348.46564 464.53195 347.40314Q464.07883 346.325 464.07883 345.09064Q464.07883 343.7469 464.59445 342.7469Q465.11008 341.7469 466.04758 341.23126Q467.0007 340.71564 468.14133 340.71564Q469.42258 340.71564 470.29758 341.3719Q471.1882 342.02814 471.53195 343.21564L470.40695 343.48126Q470.11008 342.54376 469.53195 342.1219Q468.96945 341.6844 468.11008 341.6844Q467.1257 341.6844 466.45383 342.16876Q465.79758 342.6375 465.51633 343.4344Q465.2507 344.23126 465.2507 345.09064Q465.2507 346.1844 465.5632 346.9969Q465.89133 347.8094 466.5632 348.21564Q467.23508 348.6219 468.03195 348.6219Q468.98508 348.6219 469.64133 348.075Q470.3132 347.52814 470.54758 346.4344ZM472.89133 346.34064Q472.89133 344.60626 473.84445 343.77814Q474.64133 343.09064 475.79758 343.09064Q477.07883 343.09064 477.89133 343.9344Q478.71945 344.7625 478.71945 346.2469Q478.71945 347.45 478.36008 348.1375Q478.0007 348.825 477.29758 349.21564Q476.61008 349.59064 475.79758 349.59064Q474.5007 349.59064 473.6882 348.7625Q472.89133 347.91876 472.89133 346.34064ZM473.96945 346.34064Q473.96945 347.52814 474.48508 348.1219Q475.01633 348.71564 475.79758 348.71564Q476.59445 348.71564 477.11008 348.1219Q477.6257 347.52814 477.6257 346.3094Q477.6257 345.15314 477.09445 344.5594Q476.57883 343.96564 475.79758 343.96564Q475.01633 343.96564 474.48508 344.5594Q473.96945 345.1375 473.96945 346.34064ZM480.28195 349.45L480.28195 343.23126L481.21945 343.23126L481.21945 344.10626Q481.90695 343.09064 483.20383 343.09064Q483.76633 343.09064 484.23508 343.29376Q484.71945 343.4969 484.95383 343.825Q485.1882 344.15314 485.28195 344.59064Q485.32883 344.8875 485.32883 345.6219L485.32883 349.45L484.28195 349.45L484.28195 345.66876Q484.28195 345.0125 484.15695 344.7Q484.03195 344.3875 483.71945 344.2Q483.40695 343.9969 482.98508 343.9969Q482.3132 343.9969 481.8132 344.4344Q481.32883 344.85626 481.32883 346.04376L481.32883 349.45L480.28195 349.45ZM489.57883 348.5125L489.73508 349.4344Q489.28195 349.52814 488.9382 349.52814Q488.36008 349.52814 488.04758 349.35626Q487.73508 349.16876 487.59445 348.8719Q487.46945 348.575 487.46945 347.6219L487.46945 344.04376L486.70383 344.04376L486.70383 343.23126L487.46945 343.23126L487.46945 341.6844L488.51633 341.0594L488.51633 343.23126L489.57883 343.23126L489.57883 344.04376L488.51633 344.04376L488.51633 347.6844Q488.51633 348.1375 488.5632 348.2625Q488.6257 348.3875 488.7507 348.46564Q488.8757 348.54376 489.11008 348.54376Q489.29758 348.54376 489.57883 348.5125ZM489.86008 346.8719L489.86008 345.8094L493.11008 345.8094L493.11008 346.8719L489.86008 346.8719ZM494.03195 346.6844L495.09445 346.59064Q495.17258 347.2469 495.45383 347.65314Q495.73508 348.0594 496.3132 348.325Q496.90695 348.575 497.64133 348.575Q498.28195 348.575 498.78195 348.3875Q499.28195 348.1844 499.51633 347.85626Q499.76633 347.5125 499.76633 347.1219Q499.76633 346.71564 499.53195 346.41876Q499.29758 346.10626 498.76633 345.90314Q498.40695 345.7625 497.21945 345.48126Q496.04758 345.2 495.57883 344.95Q494.95383 344.6219 494.65695 344.15314Q494.36008 343.66876 494.36008 343.075Q494.36008 342.4344 494.71945 341.8719Q495.09445 341.29376 495.79758 341.0125Q496.51633 340.71564 497.3757 340.71564Q498.32883 340.71564 499.0632 341.02814Q499.79758 341.325 500.1882 341.9344Q500.57883 342.52814 500.61008 343.27814L499.51633 343.35626Q499.42258 342.54376 498.90695 342.1375Q498.40695 341.71564 497.42258 341.71564Q496.39133 341.71564 495.92258 342.09064Q495.45383 342.46564 495.45383 342.9969Q495.45383 343.46564 495.78195 343.7625Q496.11008 344.0594 497.48508 344.3719Q498.8757 344.6844 499.39133 344.91876Q500.14133 345.27814 500.5007 345.8094Q500.86008 346.325 500.86008 347.02814Q500.86008 347.71564 500.46945 348.325Q500.07883 348.91876 499.34445 349.2625Q498.61008 349.59064 497.6882 349.59064Q496.51633 349.59064 495.71945 349.2625Q494.9382 348.91876 494.48508 348.23126Q494.04758 347.54376 494.03195 346.6844ZM504.59445 349.45L504.59445 341.8719L501.76633 341.8719L501.76633 340.85626L508.57883 340.85626L508.57883 341.8719L505.73508 341.8719L505.73508 349.45L504.59445 349.45ZM509.4382 349.45L509.4382 340.85626L515.64136 340.85626L515.64136 341.8719L510.57883 341.8719L510.57883 344.4969L515.32886 344.4969L515.32886 345.5125L510.57883 345.5125L510.57883 348.4344L515.8445 348.4344L515.8445 349.45L509.4382 349.45ZM517.37573 349.45L517.37573 340.85626L519.0945 340.85626L521.12573 346.9344Q521.407 347.79376 521.532 348.21564Q521.6726 347.7469 521.9851 346.84064L524.0476 340.85626L525.57886 340.85626L525.57886 349.45L524.4851 349.45L524.4851 342.2625L521.9851 349.45L520.95386 349.45L518.4695 342.1375L518.4695 349.45L517.37573 349.45Z" fill-rule="nonzero"/><path fill="#4285f4" d="M69.0 20.55C69.0 19.997715 69.447716 19.55 70.0 19.55L80.0 19.55C80.552284 19.55 81.0 19.997715 81.0 20.55L81.0 30.55C81.0 31.102285 80.552284 31.55 80.0 31.55L70.0 31.55C69.447716 31.55 69.0 31.102285 69.0 30.55Z" fill-rule="nonzero"/><path fill="#1a1a1a" d="M89.578125 25.3625Q89.578125 23.221874 90.71875 22.01875Q91.875 20.8 93.6875 20.8Q94.890625 20.8 95.84375 21.378124Q96.796875 21.940624 97.296875 22.95625Q97.796875 23.971874 97.796875 25.26875Q97.796875 26.565624 97.265625 27.596874Q96.734375 28.628124 95.765625 29.159374Q94.8125 29.690624 93.6875 29.690624Q92.46875 29.690624 91.515625 29.1125Q90.5625 28.51875 90.0625 27.51875Q89.578125 26.503124 89.578125 25.3625ZM90.75 25.378124Q90.75 26.940624 91.578125 27.83125Q92.421875 28.721874 93.6875 28.721874Q94.96875 28.721874 95.796875 27.83125Q96.625 26.925 96.625 25.253124Q96.625 24.20625 96.265625 23.425Q95.921875 22.64375 95.234375 22.221874Q94.546875 21.784374 93.703125 21.784374Q92.5 21.784374 91.625 22.6125Q90.75 23.440624 90.75 25.378124ZM100.421875 29.55L98.140625 20.95625L99.3125 20.95625L100.625 26.596874Q100.828125 27.471874 100.984375 28.346874Q101.3125 26.971874 101.375 26.753124L103.0 20.95625L104.375 20.95625L105.609375 25.3Q106.0625 26.925 106.28125 28.346874Q106.4375 27.534374 106.703125 26.471874L108.046875 20.95625L109.1875 20.95625L106.84375 29.55L105.734375 29.55L103.9375 23.003124Q103.703125 22.190624 103.65625 22.003124Q103.53125 22.58125 103.40625 23.003124L101.59375 29.55L100.421875 29.55ZM109.890625 29.55L109.890625 20.95625L111.609375 20.95625L113.640625 27.034374Q113.921875 27.89375 114.046875 28.315624Q114.1875 27.846874 114.5 26.940624L116.5625 20.95625L118.09375 20.95625L118.09375 29.55L117.0 29.55L117.0 22.3625L114.5 29.55L113.46875 29.55L110.984375 22.2375L110.984375 29.55L109.890625 29.55Z" fill-rule="nonzero"/><path fill="#ea4335" d="M134.0 20.55C134.0 19.997715 134.44771 19.55 135.0 19.55L145.0 19.55C145.55229 19.55 146.0 19.997715 146.0 20.55L146.0 30.55C146.0 31.102285 145.55229 31.55 145.0 31.55L135.0 31.55C134.44771 31.55 134.0 31.102285 134.0 30.55Z" fill-rule="nonzero"/><path fill="#1a1a1a" d="M154.57812 25.3625Q154.57812 23.221874 155.71875 22.01875Q156.875 20.8 158.6875 20.8Q159.89062 20.8 160.84375 21.378124Q161.79688 21.940624 162.29688 22.95625Q162.79688 23.971874 162.79688 25.26875Q162.79688 26.565624 162.26562 27.596874Q161.73438 28.628124 160.76562 29.159374Q159.8125 29.690624 158.6875 29.690624Q157.46875 29.690624 156.51562 29.1125Q155.5625 28.51875 155.0625 27.51875Q154.57812 26.503124 154.57812 25.3625ZM155.75 25.378124Q155.75 26.940624 156.57812 27.83125Q157.42188 28.721874 158.6875 28.721874Q159.96875 28.721874 160.79688 27.83125Q161.625 26.925 161.625 25.253124Q161.625 24.20625 161.26562 23.425Q160.92188 22.64375 160.23438 22.221874Q159.54688 21.784374 158.70312 21.784374Q157.5 21.784374 156.625 22.6125Q155.75 23.440624 155.75 25.378124ZM165.42188 29.55L163.14062 20.95625L164.3125 20.95625L165.625 26.596874Q165.82812 27.471874 165.98438 28.346874Q166.3125 26.971874 166.375 26.753124L168.0 20.95625L169.375 20.95625L170.60938 25.3Q171.0625 26.925 171.28125 28.346874Q171.4375 27.534374 171.70312 26.471874L173.04688 20.95625L174.1875 20.95625L171.84375 29.55L170.73438 29.55L168.9375 23.003124Q168.70312 22.190624 168.65625 22.003124Q168.53125 22.58125 168.40625 23.003124L166.59375 29.55L165.42188 29.55ZM174.89062 29.55L174.89062 20.95625L176.60938 20.95625L178.64062 27.034374Q178.92188 27.89375 179.04688 28.315624Q179.1875 27.846874 179.5 26.940624L181.5625 20.95625L183.09375 20.95625L183.09375 29.55L182.0 29.55L182.0 22.3625L179.5 29.55L178.46875 29.55L175.98438 22.2375L175.98438 29.55L174.89062 29.55ZM186.0 28.159374L186.0 25.8L183.67188 25.8L183.67188 24.815624L186.0 24.815624L186.0 22.4875L187.0 22.4875L187.0 24.815624L189.34375 24.815624L189.34375 25.8L187.0 25.8L187.0 28.159374L186.0 28.159374ZM190.54688 26.784374L191.60938 26.690624Q191.6875 27.346874 191.96875 27.753124Q192.25 28.159374 192.82812 28.425Q193.42188 28.675 194.15625 28.675Q194.79688 28.675 195.29688 28.4875Q195.79688 28.284374 196.03125 27.95625Q196.28125 27.6125 196.28125 27.221874Q196.28125 26.815624 196.04688 26.51875Q195.8125 26.20625 195.28125 26.003124Q194.92188 25.8625 193.73438 25.58125Q192.5625 25.3 192.09375 25.05Q191.46875 24.721874 191.17188 24.253124Q190.875 23.76875 190.875 23.175Q190.875 22.534374 191.23438 21.971874Q191.60938 21.39375 192.3125 21.1125Q193.03125 20.815624 193.89062 20.815624Q194.84375 20.815624 195.57812 21.128124Q196.3125 21.425 196.70312 22.034374Q197.09375 22.628124 197.125 23.378124L196.03125 23.45625Q195.9375 22.64375 195.42188 22.2375Q194.92188 21.815624 193.9375 21.815624Q192.90625 21.815624 192.4375 22.190624Q191.96875 22.565624 191.96875 23.096874Q191.96875 23.565624 192.29688 23.8625Q192.625 24.159374 194.0 24.471874Q195.39062 24.784374 195.90625 25.01875Q196.65625 25.378124 197.01562 25.909374Q197.375 26.425 197.375 27.128124Q197.375 27.815624 196.98438 28.425Q196.59375 29.01875 195.85938 29.3625Q195.125 29.690624 194.20312 29.690624Q193.03125 29.690624 192.23438 29.3625Q191.45312 29.01875 191.0 28.33125Q190.5625 27.64375 190.54688 26.784374ZM198.75 31.940624L198.625 30.95625Q198.96875 31.05 199.23438 31.05Q199.57812 31.05 199.78125 30.925Q200.0 30.815624 200.14062 30.6125Q200.23438 30.440624 200.46875 29.815624Q200.48438 29.7375 200.5625 29.565624L198.1875 23.33125L199.32812 23.33125L200.625 26.925Q200.875 27.6125 201.07812 28.378124Q201.26562 27.64375 201.51562 26.95625L202.84375 23.33125L203.89062 23.33125L201.53125 29.659374Q201.14062 30.675 200.9375 31.065624Q200.65625 31.596874 200.28125 31.83125Q199.92188 32.08125 199.42188 32.08125Q199.125 32.08125 198.75 31.940624ZM203.79688 29.55L203.79688 23.33125L204.73438 23.33125L204.73438 24.20625Q205.42188 23.190624 206.71875 23.190624Q207.28125 23.190624 207.75 23.39375Q208.23438 23.596874 208.46875 23.925Q208.70312 24.253124 208.79688 24.690624Q208.84375 24.9875 208.84375 25.721874L208.84375 29.55L207.79688 29.55L207.79688 25.76875Q207.79688 25.1125 207.67188 24.8Q207.54688 24.4875 207.23438 24.3Q206.92188 24.096874 206.5 24.096874Q205.82812 24.096874 205.32812 24.534374Q204.84375 24.95625 204.84375 26.14375L204.84375 29.55L203.79688 29.55ZM210.375 26.971874L210.375 25.909374L213.625 25.909374L213.625 26.971874L210.375 26.971874ZM214.57812 25.3625Q214.57812 23.221874 215.71875 22.01875Q216.875 20.8 218.6875 20.8Q219.89062 20.8 220.84375 21.378124Q221.79688 21.940624 222.29688 22.95625Q222.79688 23.971874 222.79688 25.26875Q222.79688 26.565624 222.26562 27.596874Q221.73438 28.628124 220.76562 29.159374Q219.8125 29.690624 218.6875 29.690624Q217.46875 29.690624 216.51562 29.1125Q215.5625 28.51875 215.0625 27.51875Q214.57812 26.503124 214.57812 25.3625ZM215.75 25.378124Q215.75 26.940624 216.57812 27.83125Q217.42188 28.721874 218.6875 28.721874Q219.96875 28.721874 220.79688 27.83125Q221.625 26.925 221.625 25.253124Q221.625 24.20625 221.26562 23.425Q220.92188 22.64375 220.23438 22.221874Q219.54688 21.784374 218.70312 21.784374Q217.5 21.784374 216.625 22.6125Q215.75 23.440624 215.75 25.378124ZM225.42188 29.55L223.14062 20.95625L224.3125 20.95625L225.625 26.596874Q225.82812 27.471874 225.98438 28.346874Q226.3125 26.971874 226.375 26.753124L228.0 20.95625L229.375 20.95625L230.60938 25.3Q231.0625 26.925 231.28125 28.346874Q231.4375 27.534374 231.70312 26.471874L233.04688 20.95625L234.1875 20.95625L231.84375 29.55L230.73438 29.55L228.9375 23.003124Q228.70312 22.190624 228.65625 22.003124Q228.53125 22.58125 228.40625 23.003124L226.59375 29.55L225.42188 29.55ZM234.89062 29.55L234.89062 20.95625L236.60938 20.95625L238.64062 27.034374Q238.92188 27.89375 239.04688 28.315624Q239.1875 27.846874 239.5 26.940624L241.5625 20.95625L243.09375 20.95625L243.09375 29.55L242.0 29.55L242.0 22.3625L239.5 29.55L238.46875 29.55L235.98438 22.2375L235.98438 29.55L234.89062 29.55ZM246.8125 31.940624L246.8125 20.95625L249.14062 20.95625L249.14062 21.83125L247.875 21.83125L247.875 31.065624L249.14062 31.065624L249.14062 31.940624L246.8125 31.940624ZM253.46875 29.55L252.42188 29.55L252.42188 22.83125Q252.03125 23.190624 251.40625 23.565624Q250.79688 23.925 250.3125 24.096874L250.3125 23.08125Q251.1875 22.659374 251.84375 22.08125Q252.51562 21.4875 252.79688 20.925L253.46875 20.925L253.46875 29.55ZM257.07812 24.534374L257.07812 23.33125L258.28125 23.33125L258.28125 24.534374L257.07812 24.534374ZM257.07812 29.55L257.07812 28.346874L258.28125 28.346874L258.28125 29.55L257.07812 29.55ZM263.46875 29.55L262.42188 29.55L262.42188 22.83125Q262.03125 23.190624 261.40625 23.565624Q260.79688 23.925 260.3125 24.096874L260.3125 23.08125Q261.1875 22.659374 261.84375 22.08125Q262.51562 21.4875 262.79688 20.925L263.46875 20.925L263.46875 29.55ZM268.5625 31.940624L266.23438 31.940624L266.23438 31.065624L267.5 31.065624L267.5 21.83125L266.23438 21.83125L266.23438 20.95625L268.5625 20.95625L268.5625 31.940624Z" fill-rule="nonzero"/><path fill="#fbbc04" d="M285.0 20.55C285.0 19.997715 285.44772 19.55 286.0 19.55L296.0 19.55C296.55228 19.55 297.0 19.997715 297.0 20.55L297.0 30.55C297.0 31.102285 296.55228 31.55 296.0 31.55L286.0 31.55C285.44772 31.55 285.0 31.102285 285.0 30.55Z" fill-rule="nonzero"/><path fill="#1a1a1a" d="M305.57812 25.3625Q305.57812 23.221874 306.71875 22.01875Q307.875 20.8 309.6875 20.8Q310.89062 20.8 311.84375 21.378124Q312.79688 21.940624 313.29688 22.95625Q313.79688 23.971874 313.79688 25.26875Q313.79688 26.565624 313.26562 27.596874Q312.73438 28.628124 311.76562 29.159374Q310.8125 29.690624 309.6875 29.690624Q308.46875 29.690624 307.51562 29.1125Q306.5625 28.51875 306.0625 27.51875Q305.57812 26.503124 305.57812 25.3625ZM306.75 25.378124Q306.75 26.940624 307.57812 27.83125Q308.42188 28.721874 309.6875 28.721874Q310.96875 28.721874 311.79688 27.83125Q312.625 26.925 312.625 25.253124Q312.625 24.20625 312.26562 23.425Q311.92188 22.64375 311.23438 22.221874Q310.54688 21.784374 309.70312 21.784374Q308.5 21.784374 307.625 22.6125Q306.75 23.440624 306.75 25.378124ZM316.42188 29.55L314.14062 20.95625L315.3125 20.95625L316.625 26.596874Q316.82812 27.471874 316.98438 28.346874Q317.3125 26.971874 317.375 26.753124L319.0 20.95625L320.375 20.95625L321.60938 25.3Q322.0625 26.925 322.28125 28.346874Q322.4375 27.534374 322.70312 26.471874L324.04688 20.95625L325.1875 20.95625L322.84375 29.55L321.73438 29.55L319.9375 23.003124Q319.70312 22.190624 319.65625 22.003124Q319.53125 22.58125 319.40625 23.003124L317.59375 29.55L316.42188 29.55ZM325.89062 29.55L325.89062 20.95625L327.60938 20.95625L329.64062 27.034374Q329.92188 27.89375 330.04688 28.315624Q330.1875 27.846874 330.5 26.940624L332.5625 20.95625L334.09375 20.95625L334.09375 29.55L333.0 29.55L333.0 22.3625L330.5 29.55L329.46875 29.55L326.98438 22.2375L326.98438 29.55L325.89062 29.55ZM337.0 28.159374L337.0 25.8L334.67188 25.8L334.67188 24.815624L337.0 24.815624L337.0 22.4875L338.0 22.4875L338.0 24.815624L340.34375 24.815624L340.34375 25.8L338.0 25.8L338.0 28.159374L337.0 28.159374ZM341.54688 26.784374L342.60938 26.690624Q342.6875 27.346874 342.96875 27.753124Q343.25 28.159374 343.82812 28.425Q344.42188 28.675 345.15625 28.675Q345.79688 28.675 346.29688 28.4875Q346.79688 28.284374 347.03125 27.95625Q347.28125 27.6125 347.28125 27.221874Q347.28125 26.815624 347.04688 26.51875Q346.8125 26.20625 346.28125 26.003124Q345.92188 25.8625 344.73438 25.58125Q343.5625 25.3 343.09375 25.05Q342.46875 24.721874 342.17188 24.253124Q341.875 23.76875 341.875 23.175Q341.875 22.534374 342.23438 21.971874Q342.60938 21.39375 343.3125 21.1125Q344.03125 20.815624 344.89062 20.815624Q345.84375 20.815624 346.57812 21.128124Q347.3125 21.425 347.70312 22.034374Q348.09375 22.628124 348.125 23.378124L347.03125 23.45625Q346.9375 22.64375 346.42188 22.2375Q345.92188 21.815624 344.9375 21.815624Q343.90625 21.815624 343.4375 22.190624Q342.96875 22.565624 342.96875 23.096874Q342.96875 23.565624 343.29688 23.8625Q343.625 24.159374 345.0 24.471874Q346.39062 24.784374 346.90625 25.01875Q347.65625 25.378124 348.01562 25.909374Q348.375 26.425 348.375 27.128124Q348.375 27.815624 347.98438 28.425Q347.59375 29.01875 346.85938 29.3625Q346.125 29.690624 345.20312 29.690624Q344.03125 29.690624 343.23438 29.3625Q342.45312 29.01875 342.0 28.33125Q341.5625 27.64375 341.54688 26.784374ZM349.75 31.940624L349.625 30.95625Q349.96875 31.05 350.23438 31.05Q350.57812 31.05 350.78125 30.925Q351.0 30.815624 351.14062 30.6125Q351.23438 30.440624 351.46875 29.815624Q351.48438 29.7375 351.5625 29.565624L349.1875 23.33125L350.32812 23.33125L351.625 26.925Q351.875 27.6125 352.07812 28.378124Q352.26562 27.64375 352.51562 26.95625L353.84375 23.33125L354.89062 23.33125L352.53125 29.659374Q352.14062 30.675 351.9375 31.065624Q351.65625 31.596874 351.28125 31.83125Q350.92188 32.08125 350.42188 32.08125Q350.125 32.08125 349.75 31.940624ZM354.79688 29.55L354.79688 23.33125L355.73438 23.33125L355.73438 24.20625Q356.42188 23.190624 357.71875 23.190624Q358.28125 23.190624 358.75 23.39375Q359.23438 23.596874 359.46875 23.925Q359.70312 24.253124 359.79688 24.690624Q359.84375 24.9875 359.84375 25.721874L359.84375 29.55L358.79688 29.55L358.79688 25.76875Q358.79688 25.1125 358.67188 24.8Q358.54688 24.4875 358.23438 24.3Q357.92188 24.096874 357.5 24.096874Q356.82812 24.096874 356.32812 24.534374Q355.84375 24.95625 355.84375 26.14375L355.84375 29.55L354.79688 29.55ZM361.375 26.971874L361.375 25.909374L364.625 25.909374L364.625 26.971874L361.375 26.971874ZM365.57812 25.3625Q365.57812 23.221874 366.71875 22.01875Q367.875 20.8 369.6875 20.8Q370.89062 20.8 371.84375 21.378124Q372.79688 21.940624 373.29688 22.95625Q373.79688 23.971874 373.79688 25.26875Q373.79688 26.565624 373.26562 27.596874Q372.73438 28.628124 371.76562 29.159374Q370.8125 29.690624 369.6875 29.690624Q368.46875 29.690624 367.51562 29.1125Q366.5625 28.51875 366.0625 27.51875Q365.57812 26.503124 365.57812 25.3625ZM366.75 25.378124Q366.75 26.940624 367.57812 27.83125Q368.42188 28.721874 369.6875 28.721874Q370.96875 28.721874 371.79688 27.83125Q372.625 26.925 372.625 25.253124Q372.625 24.20625 372.26562 23.425Q371.92188 22.64375 371.23438 22.221874Q370.54688 21.784374 369.70312 21.784374Q368.5 21.784374 367.625 22.6125Q366.75 23.440624 366.75 25.378124ZM376.42188 29.55L374.14062 20.95625L375.3125 20.95625L376.625 26.596874Q376.82812 27.471874 376.98438 28.346874Q377.3125 26.971874 377.375 26.753124L379.0 20.95625L380.375 20.95625L381.60938 25.3Q382.0625 26.925 382.28125 28.346874Q382.4375 27.534374 382.70312 26.471874L384.04688 20.95625L385.1875 20.95625L382.84375 29.55L381.73438 29.55L379.9375 23.003124Q379.70312 22.190624 379.65625 22.003124Q379.53125 22.58125 379.40625 23.003124L377.59375 29.55L376.42188 29.55ZM385.89062 29.55L385.89062 20.95625L387.60938 20.95625L389.64062 27.034374Q389.92188 27.89375 390.04688 28.315624Q390.1875 27.846874 390.5 26.940624L392.5625 20.95625L394.09375 20.95625L394.09375 29.55L393.0 29.55L393.0 22.3625L390.5 29.55L389.46875 29.55L386.98438 22.2375L386.98438 29.55L385.89062 29.55ZM397.8125 31.940624L397.8125 20.95625L400.14062 20.95625L400.14062 21.83125L398.875 21.83125L398.875 31.065624L400.14062 31.065624L400.14062 31.940624L397.8125 31.940624ZM407.0625 26.534374L408.1875 26.83125Q407.82812 28.221874 406.90625 28.95625Q405.98438 29.690624 404.64062 29.690624Q403.25 29.690624 402.375 29.128124Q401.5 28.565624 401.04688 27.503124Q400.59375 26.425 400.59375 25.190624Q400.59375 23.846874 401.10938 22.846874Q401.625 21.846874 402.5625 21.33125Q403.51562 20.815624 404.65625 20.815624Q405.9375 20.815624 406.8125 21.471874Q407.70312 22.128124 408.04688 23.315624L406.92188 23.58125Q406.625 22.64375 406.04688 22.221874Q405.48438 21.784374 404.625 21.784374Q403.64062 21.784374 402.96875 22.26875Q402.3125 22.7375 402.03125 23.534374Q401.76562 24.33125 401.76562 25.190624Q401.76562 26.284374 402.07812 27.096874Q402.40625 27.909374 403.07812 28.315624Q403.75 28.721874 404.54688 28.721874Q405.5 28.721874 406.15625 28.175Q406.82812 27.628124 407.0625 26.534374ZM409.40625 26.440624Q409.40625 24.70625 410.35938 23.878124Q411.15625 23.190624 412.3125 23.190624Q413.59375 23.190624 414.40625 24.034374Q415.23438 24.8625 415.23438 26.346874Q415.23438 27.55 414.875 28.2375Q414.51562 28.925 413.8125 29.315624Q413.125 29.690624 412.3125 29.690624Q411.01562 29.690624 410.20312 28.8625Q409.40625 28.01875 409.40625 26.440624ZM410.48438 26.440624Q410.48438 27.628124 411.0 28.221874Q411.53125 28.815624 412.3125 28.815624Q413.10938 28.815624 413.625 28.221874Q414.14062 27.628124 414.14062 26.409374Q414.14062 25.253124 413.60938 24.659374Q413.09375 24.065624 412.3125 24.065624Q411.53125 24.065624 411.0 24.659374Q410.48438 25.2375 410.48438 26.440624ZM416.79688 29.55L416.79688 23.33125L417.73438 23.33125L417.73438 24.20625Q418.42188 23.190624 419.71875 23.190624Q420.28125 23.190624 420.75 23.39375Q421.23438 23.596874 421.46875 23.925Q421.70312 24.253124 421.79688 24.690624Q421.84375 24.9875 421.84375 25.721874L421.84375 29.55L420.79688 29.55L420.79688 25.76875Q420.79688 25.1125 420.67188 24.8Q420.54688 24.4875 420.23438 24.3Q419.92188 24.096874 419.5 24.096874Q418.82812 24.096874 418.32812 24.534374Q417.84375 24.95625 417.84375 26.14375L417.84375 29.55L416.79688 29.55ZM427.85938 27.26875L428.89062 27.409374Q428.71875 28.471874 428.01562 29.08125Q427.3125 29.690624 426.29688 29.690624Q425.01562 29.690624 424.23438 28.8625Q423.46875 28.01875 423.46875 26.45625Q423.46875 25.45625 423.79688 24.70625Q424.14062 23.940624 424.8125 23.565624Q425.5 23.190624 426.3125 23.190624Q427.3125 23.190624 427.95312 23.70625Q428.60938 24.20625 428.79688 25.159374L427.76562 25.315624Q427.625 24.690624 427.25 24.378124Q426.875 24.05 426.34375 24.05Q425.54688 24.05 425.04688 24.628124Q424.54688 25.190624 424.54688 26.425Q424.54688 27.690624 425.03125 28.253124Q425.51562 28.815624 426.28125 28.815624Q426.90625 28.815624 427.3125 28.440624Q427.73438 28.065624 427.85938 27.26875ZM433.85938 28.784374Q433.26562 29.284374 432.71875 29.4875Q432.1875 29.690624 431.5625 29.690624Q430.53125 29.690624 429.98438 29.190624Q429.4375 28.690624 429.4375 27.909374Q429.4375 27.45625 429.64062 27.08125Q429.84375 26.690624 430.1875 26.471874Q430.53125 26.2375 430.95312 26.128124Q431.25 26.034374 431.89062 25.95625Q433.15625 25.815624 433.76562 25.596874Q433.76562 25.378124 433.76562 25.33125Q433.76562 24.675 433.46875 24.409374Q433.0625 24.065624 432.26562 24.065624Q431.53125 24.065624 431.17188 24.33125Q430.8125 24.58125 430.64062 25.2375L429.60938 25.096874Q429.75 24.440624 430.07812 24.034374Q430.40625 23.628124 431.01562 23.409374Q431.625 23.190624 432.42188 23.190624Q433.21875 23.190624 433.71875 23.378124Q434.21875 23.565624 434.45312 23.846874Q434.6875 24.128124 434.78125 24.565624Q434.82812 24.83125 434.82812 25.534374L434.82812 26.940624Q434.82812 28.409374 434.89062 28.8Q434.96875 29.190624 435.17188 29.55L434.0625 29.55Q433.90625 29.221874 433.85938 28.784374ZM433.76562 26.425Q433.1875 26.659374 432.04688 26.83125Q431.39062 26.925 431.125 27.05Q430.85938 27.159374 430.70312 27.378124Q430.5625 27.596874 430.5625 27.878124Q430.5625 28.3 430.875 28.58125Q431.20312 28.8625 431.8125 28.8625Q432.42188 28.8625 432.89062 28.596874Q433.375 28.33125 433.59375 27.8625Q433.76562 27.503124 433.76562 26.815624L433.76562 26.425ZM439.09375 28.6125L439.25 29.534374Q438.79688 29.628124 438.45312 29.628124Q437.875 29.628124 437.5625 29.45625Q437.25 29.26875 437.10938 28.971874Q436.98438 28.675 436.98438 27.721874L436.98438 24.14375L436.21875 24.14375L436.21875 23.33125L436.98438 23.33125L436.98438 21.784374L438.03125 21.159374L438.03125 23.33125L439.09375 23.33125L439.09375 24.14375L438.03125 24.14375L438.03125 27.784374Q438.03125 28.2375 438.07812 28.3625Q438.14062 28.4875 438.26562 28.565624Q438.39062 28.64375 438.625 28.64375Q438.8125 28.64375 439.09375 28.6125ZM441.5625 31.940624L439.23438 31.940624L439.23438 31.065624L440.5 31.065624L440.5 21.83125L439.23438 21.83125L439.23438 20.95625L441.5625 20.95625L441.5625 31.940624Z" fill-rule="nonzero"/><path fill="#34a853" d="M458.0 20.55C458.0 19.997715 458.44772 19.55 459.0 19.55L469.0 19.55C469.55228 19.55 470.0 19.997715 470.0 20.55L470.0 30.55C470.0 31.102285 469.55228 31.55 469.0 31.55L459.0 31.55C458.44772 31.55 458.0 31.102285 458.0 30.55Z" fill-rule="nonzero"/><path fill="#1a1a1a" d="M478.54688 26.784374L479.60938 26.690624Q479.6875 27.346874 479.96875 27.753124Q480.25 28.159374 480.82812 28.425Q481.42188 28.675 482.15625 28.675Q482.79688 28.675 483.29688 28.4875Q483.79688 28.284374 484.03125 27.95625Q484.28125 27.6125 484.28125 27.221874Q484.28125 26.815624 484.04688 26.51875Q483.8125 26.20625 483.28125 26.003124Q482.92188 25.8625 481.73438 25.58125Q480.5625 25.3 480.09375 25.05Q479.46875 24.721874 479.17188 24.253124Q478.875 23.76875 478.875 23.175Q478.875 22.534374 479.23438 21.971874Q479.60938 21.39375 480.3125 21.1125Q481.03125 20.815624 481.89062 20.815624Q482.84375 20.815624 483.57812 21.128124Q484.3125 21.425 484.70312 22.034374Q485.09375 22.628124 485.125 23.378124L484.03125 23.45625Q483.9375 22.64375 483.42188 22.2375Q482.92188 21.815624 481.9375 21.815624Q480.90625 21.815624 480.4375 22.190624Q479.96875 22.565624 479.96875 23.096874Q479.96875 23.565624 480.29688 23.8625Q480.625 24.159374 482.0 24.471874Q483.39062 24.784374 483.90625 25.01875Q484.65625 25.378124 485.01562 25.909374Q485.375 26.425 485.375 27.128124Q485.375 27.815624 484.98438 28.425Q484.59375 29.01875 483.85938 29.3625Q483.125 29.690624 482.20312 29.690624Q481.03125 29.690624 480.23438 29.3625Q479.45312 29.01875 479.0 28.33125Q478.5625 27.64375 478.54688 26.784374ZM486.75 31.940624L486.625 30.95625Q486.96875 31.05 487.23438 31.05Q487.57812 31.05 487.78125 30.925Q488.0 30.815624 488.14062 30.6125Q488.23438 30.440624 488.46875 29.815624Q488.48438 29.7375 488.5625 29.565624L486.1875 23.33125L487.32812 23.33125L488.625 26.925Q488.875 27.6125 489.07812 28.378124Q489.26562 27.64375 489.51562 26.95625L490.84375 23.33125L491.89062 23.33125L489.53125 29.659374Q489.14062 30.675 488.9375 31.065624Q488.65625 31.596874 488.28125 31.83125Q487.92188 32.08125 487.42188 32.08125Q487.125 32.08125 486.75 31.940624ZM491.79688 29.55L491.79688 23.33125L492.73438 23.33125L492.73438 24.20625Q493.42188 23.190624 494.71875 23.190624Q495.28125 23.190624 495.75 23.39375Q496.23438 23.596874 496.46875 23.925Q496.70312 24.253124 496.79688 24.690624Q496.84375 24.9875 496.84375 25.721874L496.84375 29.55L495.79688 29.55L495.79688 25.76875Q495.79688 25.1125 495.67188 24.8Q495.54688 24.4875 495.23438 24.3Q494.92188 24.096874 494.5 24.096874Q493.82812 24.096874 493.32812 24.534374Q492.84375 24.95625 492.84375 26.14375L492.84375 29.55L491.79688 29.55ZM498.375 26.971874L498.375 25.909374L501.625 25.909374L501.625 26.971874L498.375 26.971874ZM502.57812 25.3625Q502.57812 23.221874 503.71875 22.01875Q504.875 20.8 506.6875 20.8Q507.89062 20.8 508.84375 21.378124Q509.79688 21.940624 510.29688 22.95625Q510.79688 23.971874 510.79688 25.26875Q510.79688 26.565624 510.26562 27.596874Q509.73438 28.628124 508.76562 29.159374Q507.8125 29.690624 506.6875 29.690624Q505.46875 29.690624 504.51562 29.1125Q503.5625 28.51875 503.0625 27.51875Q502.57812 26.503124 502.57812 25.3625ZM503.75 25.378124Q503.75 26.940624 504.57812 27.83125Q505.42188 28.721874 506.6875 28.721874Q507.96875 28.721874 508.79688 27.83125Q509.625 26.925 509.625 25.253124Q509.625 24.20625 509.26562 23.425Q508.92188 22.64375 508.23438 22.221874Q507.54688 21.784374 506.70312 21.784374Q505.5 21.784374 504.625 22.6125Q503.75 23.440624 503.75 25.378124ZM513.4219 29.55L511.14062 20.95625L512.3125 20.95625L513.625 26.596874Q513.8281 27.471874 513.9844 28.346874Q514.3125 26.971874 514.375 26.753124L516.0 20.95625L517.375 20.95625L518.6094 25.3Q519.0625 26.925 519.28125 28.346874Q519.4375 27.534374 519.7031 26.471874L521.0469 20.95625L522.1875 20.95625L519.84375 29.55L518.7344 29.55L516.9375 23.003124Q516.7031 22.190624 516.65625 22.003124Q516.53125 22.58125 516.40625 23.003124L514.59375 29.55L513.4219 29.55ZM522.8906 29.55L522.8906 20.95625L524.6094 20.95625L526.6406 27.034374Q526.9219 27.89375 527.0469 28.315624Q527.1875 27.846874 527.5 26.940624L529.5625 20.95625L531.09375 20.95625L531.09375 29.55L530.0 29.55L530.0 22.3625L527.5 29.55L526.46875 29.55L523.9844 22.2375L523.9844 29.55L522.8906 29.55Z" fill-rule="nonzero"/></svg>