<svg version="1.1" viewBox="0.0 0.0 694.0 429.0" fill="none" stroke="none" stroke-linecap="square" stroke-miterlimit="10" width="694" height="429" xmlns:xlink="http://www.w3.org/1999/xlink" xmlns="http://www.w3.org/2000/svg"><path fill="#ffffff" d="M0 0L694.0 0L694.0 429.0L0 429.0L0 0Z" fill-rule="nonzero"/><path stroke="#333333" stroke-width="1.0" stroke-linecap="butt" d="M93.5 347.5L672.5 347.5" fill-rule="nonzero"/><path stroke="#cccccc" stroke-width="1.0" stroke-linecap="butt" d="M93.5 275.5L672.5 275.5" fill-rule="nonzero"/><path stroke="#cccccc" stroke-width="1.0" stroke-linecap="butt" d="M93.5 203.5L672.5 203.5" fill-rule="nonzero"/><path stroke="#cccccc" stroke-width="1.0" stroke-linecap="butt" d="M93.5 131.5L672.5 131.5" fill-rule="nonzero"/><path stroke="#cccccc" stroke-width="1.0" stroke-linecap="butt" d="M93.5 59.5L672.5 59.5" fill-rule="nonzero"/><clipPath id="id_0"><path d="M93.45 59.75L672.55 59.75L672.55 347.55L93.45 347.55L93.45 59.75Z" clip-rule="nonzero"/></clipPath><path stroke="#000000" stroke-width="2.0" stroke-linecap="butt" stroke-opacity="0.0" clip-path="url(#id_0)" d="M166.0 348.0L133.0 348.0L133.0 347.0C133.0 346.44772 133.44771 346.0 134.0 346.0L165.0 346.0C165.55229 346.0 166.0 346.44772 166.0 347.0Z" fill-rule="nonzero"/><path fill="#4285f4" clip-path="url(#id_0)" d="M166.0 348.0L133.0 348.0L133.0 347.0C133.0 346.44772 133.44771 346.0 134.0 346.0L165.0 346.0C165.55229 346.0 166.0 346.44772 166.0 347.0Z" fill-rule="nonzero"/><path stroke="#000000" stroke-width="2.0" stroke-linecap="butt" stroke-opacity="0.0" clip-path="url(#id_0)" d="M274.0 348.0L241.0 348.0L241.0 346.5C241.0 345.67157 241.67157 345.0 242.5 345.0L272.5 345.0C273.32843 345.0 274.0 345.67157 274.0 346.5Z" fill-rule="nonzero"/><path fill="#4285f4" clip-path="url(#id_0)" d="M274.0 348.0L241.0 348.0L241.0 346.5C241.0 345.67157 241.67157 345.0 242.5 345.0L272.5 345.0C273.32843 345.0 274.0 345.67157 274.0 346.5Z" fill-rule="nonzero"/><path stroke="#000000" stroke-width="2.0" stroke-linecap="butt" stroke-opacity="0.0" clip-path="url(#id_0)" d="M382.0 348.0L349.0 348.0L349.0 346.0C349.0 344.89542 349.89542 344.0 351.0 344.0L380.0 344.0C381.10458 344.0 382.0 344.89542 382.0 346.0Z" fill-rule="nonzero"/><path fill="#4285f4" clip-path="url(#id_0)" d="M382.0 348.0L349.0 348.0L349.0 346.0C349.0 344.89542 349.89542 344.0 351.0 344.0L380.0 344.0C381.10458 344.0 382.0 344.89542 382.0 346.0Z" fill-rule="nonzero"/><path stroke="#000000" stroke-width="2.0" stroke-linecap="butt" stroke-opacity="0.0" clip-path="url(#id_0)" d="M490.0 348.0L457.0 348.0L457.0 321.0C457.0 319.89542 457.89542 319.0 459.0 319.0L488.0 319.0C489.10458 319.0 490.0 319.89542 490.0 321.0Z" fill-rule="nonzero"/><path fill="#4285f4" clip-path="url(#id_0)" d="M490.0 348.0L457.0 348.0L457.0 321.0C457.0 319.89542 457.89542 319.0 459.0 319.0L488.0 319.0C489.10458 319.0 490.0 319.89542 490.0 321.0Z" fill-rule="nonzero"/><path stroke="#000000" stroke-width="2.0" stroke-linecap="butt" stroke-opacity="0.0" clip-path="url(#id_0)" d="M598.0 348.0L565.0 348.0L565.0 109.0C565.0 107.89543 565.89545 107.0 567.0 107.0L596.0 107.0C597.10455 107.0 598.0 107.89543 598.0 109.0Z" fill-rule="nonzero"/><path fill="#4285f4" clip-path="url(#id_0)" d="M598.0 348.0L565.0 348.0L565.0 109.0C565.0 107.89543 565.89545 107.0 567.0 107.0L596.0 107.0C597.10455 107.0 598.0 107.89543 598.0 109.0Z" fill-rule="nonzero"/><path stroke="#000000" stroke-width="2.0" stroke-linecap="butt" stroke-opacity="0.0" clip-path="url(#id_0)" d="M201.0 348.0L168.0 348.0L168.0 345.0C168.0 343.89542 168.89543 343.0 170.0 343.0L199.0 343.0C200.10457 343.0 201.0 343.89542 201.0 345.0Z" fill-rule="nonzero"/><path fill="#ea4335" clip-path="url(#id_0)" d="M201.0 348.0L168.0 348.0L168.0 345.0C168.0 343.89542 168.89543 343.0 170.0 343.0L199.0 343.0C200.10457 343.0 201.0 343.89542 201.0 345.0Z" fill-rule="nonzero"/><path stroke="#000000" stroke-width="2.0" stroke-linecap="butt" stroke-opacity="0.0" clip-path="url(#id_0)" d="M309.0 348.0L276.0 348.0L276.0 345.0C276.0 343.89542 276.89542 343.0 278.0 343.0L307.0 343.0C308.10458 343.0 309.0 343.89542 309.0 345.0Z" fill-rule="nonzero"/><path fill="#ea4335" clip-path="url(#id_0)" d="M309.0 348.0L276.0 348.0L276.0 345.0C276.0 343.89542 276.89542 343.0 278.0 343.0L307.0 343.0C308.10458 343.0 309.0 343.89542 309.0 345.0Z" fill-rule="nonzero"/><path stroke="#000000" stroke-width="2.0" stroke-linecap="butt" stroke-opacity="0.0" clip-path="url(#id_0)" d="M417.0 348.0L384.0 348.0L384.0 348.0L417.0 348.0Z" fill-rule="nonzero"/><path fill="#ea4335" clip-path="url(#id_0)" d="M417.0 348.0L384.0 348.0L384.0 348.0L417.0 348.0Z" fill-rule="nonzero"/><path stroke="#000000" stroke-width="2.0" stroke-linecap="butt" stroke-opacity="0.0" clip-path="url(#id_0)" d="M525.0 348.0L492.0 348.0L492.0 278.0C492.0 276.89542 492.89542 276.0 494.0 276.0L523.0 276.0C524.10455 276.0 525.0 276.89542 525.0 278.0Z" fill-rule="nonzero"/><path fill="#ea4335" clip-path="url(#id_0)" d="M525.0 348.0L492.0 348.0L492.0 278.0C492.0 276.89542 492.89542 276.0 494.0 276.0L523.0 276.0C524.10455 276.0 525.0 276.89542 525.0 278.0Z" fill-rule="nonzero"/><path stroke="#000000" stroke-width="2.0" stroke-linecap="butt" stroke-opacity="0.0" clip-path="url(#id_0)" d="M633.0 348.0L600.0 348.0L600.0 143.0C600.0 141.89543 600.89545 141.0 602.0 141.0L631.0 141.0C632.10455 141.0 633.0 141.89543 633.0 143.0Z" fill-rule="nonzero"/><path fill="#ea4335" clip-path="url(#id_0)" d="M633.0 348.0L600.0 348.0L600.0 143.0C600.0 141.89543 600.89545 141.0 602.0 141.0L631.0 141.0C632.10455 141.0 633.0 141.89543 633.0 143.0Z" fill-rule="nonzero"/><path fill="#000000" d="M365.125 401.33124L366.375 401.22186Q366.46875 401.97186 366.79688 402.45624Q367.125 402.9406 367.79688 403.2375Q368.48438 403.53436 369.34375 403.53436Q370.09375 403.53436 370.67188 403.3156Q371.26562 403.08124 371.54688 402.6906Q371.82812 402.3 371.82812 401.83124Q371.82812 401.3625 371.54688 401.01874Q371.28125 400.65936 370.65625 400.40936Q370.25 400.2531 368.85938 399.925Q367.48438 399.59686 366.9375 399.3Q366.21875 398.925 365.85938 398.3781Q365.51562 397.8156 365.51562 397.1125Q365.51562 396.3625 365.9375 395.70624Q366.375 395.03436 367.20312 394.70624Q368.03125 394.3625 369.04688 394.3625Q370.15625 394.3625 371.0 394.72186Q371.85938 395.08124 372.3125 395.78436Q372.76562 396.47186 372.8125 397.34686L371.53125 397.4406Q371.4375 396.5031 370.84375 396.01874Q370.25 395.51874 369.09375 395.51874Q367.89062 395.51874 367.34375 395.97186Q366.79688 396.40936 366.79688 397.03436Q366.79688 397.5656 367.1875 397.925Q367.5625 398.26874 369.17188 398.64374Q370.79688 399.0031 371.39062 399.26874Q372.26562 399.675 372.6875 400.3Q373.10938 400.90936 373.10938 401.72186Q373.10938 402.51874 372.64062 403.2375Q372.1875 403.9406 371.32812 404.33124Q370.46875 404.72186 369.40625 404.72186Q368.04688 404.72186 367.125 404.33124Q366.20312 403.925 365.67188 403.1281Q365.15625 402.33124 365.125 401.33124ZM379.15625 401.89374L380.375 402.05Q380.17188 403.3 379.34375 404.01874Q378.53125 404.72186 377.34375 404.72186Q375.85938 404.72186 374.95312 403.7531Q374.04688 402.76874 374.04688 400.9406Q374.04688 399.76874 374.4375 398.89374Q374.82812 398.0031 375.625 397.5656Q376.42188 397.1281 377.35938 397.1281Q378.53125 397.1281 379.28125 397.72186Q380.04688 398.3156 380.25 399.425L379.0625 399.6125Q378.89062 398.8781 378.45312 398.51874Q378.01562 398.14374 377.40625 398.14374Q376.46875 398.14374 375.89062 398.8156Q375.3125 399.47186 375.3125 400.90936Q375.3125 402.3781 375.875 403.05Q376.4375 403.70624 377.32812 403.70624Q378.0625 403.70624 378.54688 403.26874Q379.03125 402.8156 379.15625 401.89374ZM380.96875 400.925Q380.96875 398.90936 382.09375 397.925Q383.01562 397.1281 384.375 397.1281Q385.85938 397.1281 386.8125 398.1125Q387.76562 399.08124 387.76562 400.8156Q387.76562 402.22186 387.34375 403.03436Q386.92188 403.83124 386.10938 404.28436Q385.3125 404.72186 384.375 404.72186Q382.84375 404.72186 381.90625 403.7375Q380.96875 402.7531 380.96875 400.925ZM382.23438 400.925Q382.23438 402.3156 382.84375 403.01874Q383.45312 403.70624 384.375 403.70624Q385.28125 403.70624 385.89062 403.0031Q386.5 402.3 386.5 400.8781Q386.5 399.53436 385.89062 398.84686Q385.28125 398.14374 384.375 398.14374Q383.45312 398.14374 382.84375 398.83124Q382.23438 399.51874 382.23438 400.925ZM389.40625 404.55L389.40625 397.28436L390.51562 397.28436L390.51562 398.39374Q390.9375 397.6125 391.29688 397.3781Q391.65625 397.1281 392.09375 397.1281Q392.71875 397.1281 393.35938 397.51874L392.9375 398.65936Q392.48438 398.39374 392.03125 398.39374Q391.625 398.39374 391.29688 398.64374Q390.98438 398.8781 390.84375 399.3156Q390.64062 399.97186 390.64062 400.7531L390.64062 404.55L389.40625 404.55ZM399.39062 402.20624L400.67188 402.3625Q400.35938 403.4875 399.54688 404.1125Q398.73438 404.72186 397.46875 404.72186Q395.875 404.72186 394.9375 403.7375Q394.01562 402.7531 394.01562 400.9875Q394.01562 399.14374 394.95312 398.14374Q395.90625 397.1281 397.40625 397.1281Q398.85938 397.1281 399.78125 398.1281Q400.70312 399.1125 400.70312 400.90936Q400.70312 401.01874 400.70312 401.2375L395.28125 401.2375Q395.35938 402.425 395.95312 403.0656Q396.5625 403.70624 397.48438 403.70624Q398.15625 403.70624 398.625 403.34686Q399.10938 402.9875 399.39062 402.20624ZM395.35938 400.22186L399.40625 400.22186Q399.32812 399.3 398.9375 398.84686Q398.35938 398.14374 397.42188 398.14374Q396.5625 398.14374 395.98438 398.70624Q395.42188 399.26874 395.35938 400.22186Z" fill-rule="nonzero"/><path fill="#000000" d="M34.44999 225.07187L24.434362 225.07187L24.434362 221.61874Q24.434362 220.44687 24.574987 219.8375Q24.762487 218.97812 25.293737 218.36874Q25.965612 217.57187 27.012487 217.18124Q28.043737 216.79062 29.387487 216.79062Q30.528112 216.79062 31.418737 217.05624Q32.29374 217.32187 32.871864 217.74374Q33.44999 218.15 33.778114 218.65Q34.10624 219.15 34.278114 219.85312Q34.44999 220.54062 34.44999 221.44687L34.44999 225.07187ZM33.26249 223.74374L33.26249 221.60312Q33.26249 220.61874 33.090614 220.05624Q32.903114 219.47812 32.559364 219.15Q32.090614 218.68124 31.293737 218.41562Q30.496862 218.15 29.356237 218.15Q27.793737 218.15 26.949987 218.66562Q26.106237 219.18124 25.809362 219.91562Q25.606237 220.4625 25.606237 221.63437L25.606237 223.74374L33.26249 223.74374ZM33.559364 210.49374Q34.13749 211.16562 34.38749 211.80624Q34.621864 212.43124 34.621864 213.16562Q34.621864 214.35312 34.04374 215.00937Q33.44999 215.65 32.528114 215.65Q31.996862 215.65 31.559362 215.41562Q31.121862 215.16562 30.856237 214.775Q30.590612 214.36874 30.449987 213.88437Q30.356237 213.525 30.262487 212.79062Q30.090612 211.29062 29.840612 210.5875Q29.590612 210.5875 29.528112 210.5875Q28.762487 210.5875 28.465612 210.93124Q28.043737 211.4 28.043737 212.3375Q28.043737 213.19687 28.356237 213.61874Q28.653112 214.025 29.418737 214.22812L29.262487 215.43124Q28.481237 215.275 28.012487 214.9Q27.543737 214.50937 27.293737 213.80624Q27.028112 213.0875 27.028112 212.15Q27.028112 211.22812 27.246862 210.65Q27.465612 210.07187 27.793737 209.80624Q28.121862 209.525 28.637487 209.41562Q28.949987 209.35312 29.762487 209.35312L31.403112 209.35312Q33.121864 209.35312 33.57499 209.275Q34.028114 209.19687 34.44999 208.9625L34.44999 210.24374Q34.059364 210.43124 33.559364 210.49374ZM30.809362 210.5875Q31.074987 211.25937 31.278112 212.60312Q31.387487 213.35312 31.528112 213.68124Q31.653112 213.99374 31.918737 214.16562Q32.184364 214.3375 32.496864 214.3375Q32.996864 214.3375 33.32499 213.9625Q33.653114 213.5875 33.653114 212.86874Q33.653114 212.15 33.340614 211.60312Q33.028114 211.05624 32.48124 210.79062Q32.07499 210.5875 31.262487 210.5875L30.809362 210.5875ZM33.35624 204.54062L34.434364 204.36874Q34.54374 204.88437 34.54374 205.29062Q34.54374 205.9625 34.340614 206.3375Q34.121864 206.69687 33.778114 206.85312Q33.434364 206.99374 32.32499 206.99374L28.153112 206.99374L28.153112 207.9L27.184362 207.9L27.184362 206.99374L25.387487 206.99374L24.653112 205.775L27.184362 205.775L27.184362 204.54062L28.153112 204.54062L28.153112 205.775L32.38749 205.775Q32.91874 205.775 33.07499 205.7125Q33.215614 205.65 33.309364 205.50937Q33.403114 205.35312 33.403114 205.0875Q33.403114 204.86874 33.35624 204.54062ZM33.559364 198.49374Q34.13749 199.16562 34.38749 199.80624Q34.621864 200.43124 34.621864 201.16562Q34.621864 202.35312 34.04374 203.00937Q33.44999 203.65 32.528114 203.65Q31.996862 203.65 31.559362 203.41562Q31.121862 203.16562 30.856237 202.775Q30.590612 202.36874 30.449987 201.88437Q30.356237 201.525 30.262487 200.79062Q30.090612 199.29062 29.840612 198.5875Q29.590612 198.5875 29.528112 198.5875Q28.762487 198.5875 28.465612 198.93124Q28.043737 199.4 28.043737 200.3375Q28.043737 201.19687 28.356237 201.61874Q28.653112 202.025 29.418737 202.22812L29.262487 203.43124Q28.481237 203.275 28.012487 202.9Q27.543737 202.50937 27.293737 201.80624Q27.028112 201.0875 27.028112 200.15Q27.028112 199.22812 27.246862 198.65Q27.465612 198.07187 27.793737 197.80624Q28.121862 197.525 28.637487 197.41562Q28.949987 197.35312 29.762487 197.35312L31.403112 197.35312Q33.121864 197.35312 33.57499 197.275Q34.028114 197.19687 34.44999 196.9625L34.44999 198.24374Q34.059364 198.43124 33.559364 198.49374ZM30.809362 198.5875Q31.074987 199.25937 31.278112 200.60312Q31.387487 201.35312 31.528112 201.68124Q31.653112 201.99374 31.918737 202.16562Q32.184364 202.3375 32.496864 202.3375Q32.996864 202.3375 33.32499 201.9625Q33.653114 201.5875 33.653114 200.86874Q33.653114 200.15 33.340614 199.60312Q33.028114 199.05624 32.48124 198.79062Q32.07499 198.5875 31.262487 198.5875L30.809362 198.5875Z" fill-rule="nonzero"/><path fill="#000000" d="M59.028126 347.6125Q59.028126 345.83124 59.3875 344.7531Q59.7625 343.65936 60.48125 343.08124Q61.2 342.4875 62.29375 342.4875Q63.10625 342.4875 63.715626 342.8156Q64.325 343.14374 64.71562 343.7531Q65.12187 344.3625 65.34062 345.2375Q65.55937 346.1125 65.55937 347.6125Q65.55937 349.3781 65.2 350.45624Q64.84062 351.53436 64.12187 352.1281Q63.403126 352.72186 62.29375 352.72186Q60.85625 352.72186 60.028126 351.675Q59.028126 350.425 59.028126 347.6125ZM60.29375 347.6125Q60.29375 350.08124 60.871876 350.89374Q61.45 351.70624 62.29375 351.70624Q63.153126 351.70624 63.73125 350.89374Q64.30937 350.0656 64.30937 347.6125Q64.30937 345.1281 63.73125 344.3156Q63.153126 343.5031 62.278126 343.5031Q61.434376 343.5031 60.934376 344.22186Q60.29375 345.14374 60.29375 347.6125ZM67.71562 352.55L67.71562 351.14374L69.12187 351.14374L69.12187 352.55L67.71562 352.55ZM71.02812 347.6125Q71.02812 345.83124 71.3875 344.7531Q71.7625 343.65936 72.48125 343.08124Q73.2 342.4875 74.29375 342.4875Q75.10625 342.4875 75.71562 342.8156Q76.325 343.14374 76.71562 343.7531Q77.12187 344.3625 77.34062 345.2375Q77.55937 346.1125 77.55937 347.6125Q77.55937 349.3781 77.2 350.45624Q76.84062 351.53436 76.12187 352.1281Q75.40312 352.72186 74.29375 352.72186Q72.85625 352.72186 72.02812 351.675Q71.02812 350.425 71.02812 347.6125ZM72.29375 347.6125Q72.29375 350.08124 72.87187 350.89374Q73.45 351.70624 74.29375 351.70624Q75.15312 351.70624 75.73125 350.89374Q76.30937 350.0656 76.30937 347.6125Q76.30937 345.1281 75.73125 344.3156Q75.15312 343.5031 74.27812 343.5031Q73.43437 343.5031 72.93437 344.22186Q72.29375 345.14374 72.29375 347.6125ZM79.02812 347.6125Q79.02812 345.83124 79.3875 344.7531Q79.7625 343.65936 80.48125 343.08124Q81.2 342.4875 82.29375 342.4875Q83.10625 342.4875 83.71562 342.8156Q84.325 343.14374 84.71562 343.7531Q85.12187 344.3625 85.34062 345.2375Q85.55937 346.1125 85.55937 347.6125Q85.55937 349.3781 85.2 350.45624Q84.84062 351.53436 84.12187 352.1281Q83.40312 352.72186 82.29375 352.72186Q80.85625 352.72186 80.02812 351.675Q79.02812 350.425 79.02812 347.6125ZM80.29375 347.6125Q80.29375 350.08124 80.87187 350.89374Q81.45 351.70624 82.29375 351.70624Q83.15312 351.70624 83.73125 350.89374Q84.30937 350.0656 84.30937 347.6125Q84.30937 345.1281 83.73125 344.3156Q83.15312 343.5031 82.27812 343.5031Q81.43437 343.5031 80.93437 344.22186Q80.29375 345.14374 80.29375 347.6125Z" fill-rule="nonzero"/><path fill="#000000" d="M59.028126 275.6625Q59.028126 273.88126 59.3875 272.80313Q59.7625 271.70938 60.48125 271.13126Q61.2 270.5375 62.29375 270.5375Q63.10625 270.5375 63.715626 270.86563Q64.325 271.19376 64.71562 271.80313Q65.12187 272.4125 65.34062 273.2875Q65.55937 274.1625 65.55937 275.6625Q65.55937 277.42813 65.2 278.50626Q64.84062 279.58438 64.12187 280.17813Q63.403126 280.77188 62.29375 280.77188Q60.85625 280.77188 60.028126 279.725Q59.028126 278.475 59.028126 275.6625ZM60.29375 275.6625Q60.29375 278.13126 60.871876 278.94376Q61.45 279.75626 62.29375 279.75626Q63.153126 279.75626 63.73125 278.94376Q64.30937 278.11563 64.30937 275.6625Q64.30937 273.17813 63.73125 272.36563Q63.153126 271.55313 62.278126 271.55313Q61.434376 271.55313 60.934376 272.27188Q60.29375 273.19376 60.29375 275.6625ZM67.71562 280.6L67.71562 279.19376L69.12187 279.19376L69.12187 280.6L67.71562 280.6ZM77.49687 279.4125L77.49687 280.6L70.87187 280.6Q70.85625 280.1625 71.0125 279.74063Q71.27812 279.06876 71.825 278.4125Q72.3875 277.75626 73.43437 276.89688Q75.075 275.55313 75.6375 274.77188Q76.21562 273.99063 76.21562 273.2875Q76.21562 272.55313 75.68437 272.05313Q75.16875 271.55313 74.34062 271.55313Q73.45 271.55313 72.90312 272.08438Q72.37187 272.61563 72.37187 273.56876L71.10625 273.42813Q71.23125 272.02188 72.075 271.2875Q72.93437 270.5375 74.35625 270.5375Q75.80937 270.5375 76.6375 271.33438Q77.48125 272.13126 77.48125 273.31876Q77.48125 273.92813 77.23125 274.50626Q76.99687 275.08438 76.41875 275.725Q75.85625 276.36563 74.52812 277.49063Q73.41875 278.4125 73.10625 278.75626Q72.79375 279.08438 72.59062 279.4125L77.49687 279.4125ZM79.02812 277.975L80.325 277.86563Q80.46562 278.80313 80.98125 279.2875Q81.5125 279.75626 82.24687 279.75626Q83.1375 279.75626 83.74687 279.08438Q84.37187 278.4125 84.37187 277.31876Q84.37187 276.25626 83.77812 275.64688Q83.18437 275.0375 82.23125 275.0375Q81.6375 275.0375 81.15312 275.31876Q80.68437 275.58438 80.40312 276.00626L79.24687 275.86563L80.21562 270.70938L85.2 270.70938L85.2 271.89688L81.2 271.89688L80.66875 274.58438Q81.575 273.95938 82.55937 273.95938Q83.87187 273.95938 84.7625 274.86563Q85.66875 275.77188 85.66875 277.20938Q85.66875 278.56876 84.8875 279.55313Q83.91875 280.77188 82.24687 280.77188Q80.8875 280.77188 80.0125 280.00626Q79.15312 279.24063 79.02812 277.975Z" fill-rule="nonzero"/><path fill="#000000" d="M59.028126 203.7125Q59.028126 201.93124 59.3875 200.85312Q59.7625 199.75937 60.48125 199.18124Q61.2 198.5875 62.29375 198.5875Q63.10625 198.5875 63.715626 198.91562Q64.325 199.24374 64.71562 199.85312Q65.12187 200.4625 65.34062 201.3375Q65.55937 202.2125 65.55937 203.7125Q65.55937 205.47812 65.2 206.55624Q64.84062 207.63437 64.12187 208.22812Q63.403126 208.82187 62.29375 208.82187Q60.85625 208.82187 60.028126 207.775Q59.028126 206.525 59.028126 203.7125ZM60.29375 203.7125Q60.29375 206.18124 60.871876 206.99374Q61.45 207.80624 62.29375 207.80624Q63.153126 207.80624 63.73125 206.99374Q64.30937 206.16562 64.30937 203.7125Q64.30937 201.22812 63.73125 200.41562Q63.153126 199.60312 62.278126 199.60312Q61.434376 199.60312 60.934376 200.32187Q60.29375 201.24374 60.29375 203.7125ZM67.71562 208.65L67.71562 207.24374L69.12187 207.24374L69.12187 208.65L67.71562 208.65ZM71.02812 206.025L72.325 205.91562Q72.46562 206.85312 72.98125 207.3375Q73.5125 207.80624 74.24687 207.80624Q75.1375 207.80624 75.74687 207.13437Q76.37187 206.4625 76.37187 205.36874Q76.37187 204.30624 75.77812 203.69687Q75.18437 203.0875 74.23125 203.0875Q73.6375 203.0875 73.15312 203.36874Q72.68437 203.63437 72.40312 204.05624L71.24687 203.91562L72.21562 198.75937L77.2 198.75937L77.2 199.94687L73.2 199.94687L72.66875 202.63437Q73.575 202.00937 74.55937 202.00937Q75.87187 202.00937 76.7625 202.91562Q77.66875 203.82187 77.66875 205.25937Q77.66875 206.61874 76.8875 207.60312Q75.91875 208.82187 74.24687 208.82187Q72.8875 208.82187 72.0125 208.05624Q71.15312 207.29062 71.02812 206.025ZM79.02812 203.7125Q79.02812 201.93124 79.3875 200.85312Q79.7625 199.75937 80.48125 199.18124Q81.2 198.5875 82.29375 198.5875Q83.10625 198.5875 83.71562 198.91562Q84.325 199.24374 84.71562 199.85312Q85.12187 200.4625 85.34062 201.3375Q85.55937 202.2125 85.55937 203.7125Q85.55937 205.47812 85.2 206.55624Q84.84062 207.63437 84.12187 208.22812Q83.40312 208.82187 82.29375 208.82187Q80.85625 208.82187 80.02812 207.775Q79.02812 206.525 79.02812 203.7125ZM80.29375 203.7125Q80.29375 206.18124 80.87187 206.99374Q81.45 207.80624 82.29375 207.80624Q83.15312 207.80624 83.73125 206.99374Q84.30937 206.16562 84.30937 203.7125Q84.30937 201.22812 83.73125 200.41562Q83.15312 199.60312 82.27812 199.60312Q81.43437 199.60312 80.93437 200.32187Q80.29375 201.24374 80.29375 203.7125Z" fill-rule="nonzero"/><path fill="#000000" d="M59.028126 131.7625Q59.028126 129.98125 59.3875 128.90312Q59.7625 127.80937 60.48125 127.23125Q61.2 126.6375 62.29375 126.6375Q63.10625 126.6375 63.715626 126.96562Q64.325 127.29375 64.71562 127.90312Q65.12187 128.5125 65.34062 129.3875Q65.55937 130.2625 65.55937 131.7625Q65.55937 133.52812 65.2 134.60625Q64.84062 135.68437 64.12187 136.27812Q63.403126 136.87187 62.29375 136.87187Q60.85625 136.87187 60.028126 135.825Q59.028126 134.575 59.028126 131.7625ZM60.29375 131.7625Q60.29375 134.23125 60.871876 135.04375Q61.45 135.85625 62.29375 135.85625Q63.153126 135.85625 63.73125 135.04375Q64.30937 134.21562 64.30937 131.7625Q64.30937 129.27812 63.73125 128.46562Q63.153126 127.65312 62.278126 127.65312Q61.434376 127.65312 60.934376 128.37187Q60.29375 129.29375 60.29375 131.7625ZM67.71562 136.7L67.71562 135.29375L69.12187 135.29375L69.12187 136.7L67.71562 136.7ZM71.10625 127.99687L71.10625 126.80937L77.60625 126.80937L77.60625 127.7625Q76.6375 128.77812 75.7 130.46562Q74.7625 132.15312 74.24687 133.95Q73.8875 135.2 73.77812 136.7L72.5125 136.7Q72.52812 135.5125 72.96562 133.84062Q73.41875 132.16875 74.24687 130.62187Q75.09062 129.05937 76.02812 127.99687L71.10625 127.99687ZM79.02812 134.075L80.325 133.96562Q80.46562 134.90312 80.98125 135.3875Q81.5125 135.85625 82.24687 135.85625Q83.1375 135.85625 83.74687 135.18437Q84.37187 134.5125 84.37187 133.41875Q84.37187 132.35625 83.77812 131.74687Q83.18437 131.1375 82.23125 131.1375Q81.6375 131.1375 81.15312 131.41875Q80.68437 131.68437 80.40312 132.10625L79.24687 131.96562L80.21562 126.80937L85.2 126.80937L85.2 127.99687L81.2 127.99687L80.66875 130.68437Q81.575 130.05937 82.55937 130.05937Q83.87187 130.05937 84.7625 130.96562Q85.66875 131.87187 85.66875 133.30937Q85.66875 134.66875 84.8875 135.65312Q83.91875 136.87187 82.24687 136.87187Q80.8875 136.87187 80.0125 136.10625Q79.15312 135.34062 79.02812 134.075Z" fill-rule="nonzero"/><path fill="#000000" d="M63.66875 64.75L62.434376 64.75L62.434376 56.90625Q61.996876 57.328125 61.2625 57.765625Q60.54375 58.1875 59.98125 58.390625L59.98125 57.203125Q61.0125 56.71875 61.778126 56.03125Q62.559376 55.34375 62.871876 54.6875L63.66875 54.6875L63.66875 64.75ZM67.71562 64.75L67.71562 63.34375L69.12187 63.34375L69.12187 64.75L67.71562 64.75ZM71.02812 59.8125Q71.02812 58.03125 71.3875 56.953125Q71.7625 55.859375 72.48125 55.28125Q73.2 54.6875 74.29375 54.6875Q75.10625 54.6875 75.71562 55.015625Q76.325 55.34375 76.71562 55.953125Q77.12187 56.5625 77.34062 57.4375Q77.55937 58.3125 77.55937 59.8125Q77.55937 61.578125 77.2 62.65625Q76.84062 63.734375 76.12187 64.328125Q75.40312 64.921875 74.29375 64.921875Q72.85625 64.921875 72.02812 63.875Q71.02812 62.625 71.02812 59.8125ZM72.29375 59.8125Q72.29375 62.28125 72.87187 63.09375Q73.45 63.90625 74.29375 63.90625Q75.15312 63.90625 75.73125 63.09375Q76.30937 62.265625 76.30937 59.8125Q76.30937 57.328125 75.73125 56.515625Q75.15312 55.703125 74.27812 55.703125Q73.43437 55.703125 72.93437 56.421875Q72.29375 57.34375 72.29375 59.8125ZM79.02812 59.8125Q79.02812 58.03125 79.3875 56.953125Q79.7625 55.859375 80.48125 55.28125Q81.2 54.6875 82.29375 54.6875Q83.10625 54.6875 83.71562 55.015625Q84.325 55.34375 84.71562 55.953125Q85.12187 56.5625 85.34062 57.4375Q85.55937 58.3125 85.55937 59.8125Q85.55937 61.578125 85.2 62.65625Q84.84062 63.734375 84.12187 64.328125Q83.40312 64.921875 82.29375 64.921875Q80.85625 64.921875 80.02812 63.875Q79.02812 62.625 79.02812 59.8125ZM80.29375 59.8125Q80.29375 62.28125 80.87187 63.09375Q81.45 63.90625 82.29375 63.90625Q83.15312 63.90625 83.73125 63.09375Q84.30937 62.265625 84.30937 59.8125Q84.30937 57.328125 83.73125 56.515625Q83.15312 55.703125 82.27812 55.703125Q81.43437 55.703125 80.93437 56.421875Q80.29375 57.34375 80.29375 59.8125Z" fill-rule="nonzero"/><path fill="#000000" d="M167.73277 367.55L166.4984 367.55L166.4984 359.70624Q166.0609 360.1281 165.32652 360.5656Q164.60777 360.9875 164.04527 361.1906L164.04527 360.0031Q165.07652 359.51874 165.84215 358.83124Q166.6234 358.14374 166.9359 357.4875L167.73277 357.4875L167.73277 367.55Z" fill-rule="nonzero"/><path fill="#000000" d="M277.8039 366.3625L277.8039 367.55L271.1789 367.55Q271.16327 367.1125 271.31952 366.6906Q271.58514 366.01874 272.13202 365.3625Q272.69452 364.70624 273.7414 363.84686Q275.38202 362.5031 275.94452 361.72186Q276.52264 360.9406 276.52264 360.2375Q276.52264 359.5031 275.9914 359.0031Q275.47577 358.5031 274.64764 358.5031Q273.75702 358.5031 273.21014 359.03436Q272.6789 359.5656 272.6789 360.51874L271.41327 360.3781Q271.53827 358.97186 272.38202 358.2375Q273.2414 357.4875 274.66327 357.4875Q276.1164 357.4875 276.94452 358.28436Q277.78827 359.08124 277.78827 360.26874Q277.78827 360.8781 277.53827 361.45624Q277.3039 362.03436 276.72577 362.675Q276.16327 363.3156 274.83514 364.4406Q273.72577 365.3625 273.41327 365.70624Q273.10077 366.03436 272.89764 366.3625L277.8039 366.3625Z" fill-rule="nonzero"/><path fill="#000000" d="M379.59375 364.90936L380.8125 364.7375Q381.03125 365.78436 381.53125 366.2531Q382.04688 366.70624 382.78125 366.70624Q383.65625 366.70624 384.25 366.1125Q384.84375 365.5031 384.84375 364.6125Q384.84375 363.76874 384.28125 363.22186Q383.73438 362.675 382.89062 362.675Q382.53125 362.675 382.01562 362.8L382.15625 361.72186Q382.28125 361.7375 382.34375 361.7375Q383.14062 361.7375 383.76562 361.33124Q384.39062 360.925 384.39062 360.0656Q384.39062 359.39374 383.9375 358.95624Q383.48438 358.5031 382.75 358.5031Q382.03125 358.5031 381.54688 358.95624Q381.07812 359.39374 380.9375 360.3L379.71875 360.08124Q379.9375 358.84686 380.73438 358.175Q381.53125 357.4875 382.71875 357.4875Q383.54688 357.4875 384.23438 357.84686Q384.92188 358.1906 385.28125 358.8Q385.65625 359.40936 385.65625 360.09686Q385.65625 360.7375 385.3125 361.26874Q384.96875 361.8 384.28125 362.1281Q385.17188 362.33124 385.65625 362.97186Q386.15625 363.6125 386.15625 364.59686Q386.15625 365.90936 385.1875 366.8156Q384.23438 367.72186 382.78125 367.72186Q381.45312 367.72186 380.57812 366.9406Q379.71875 366.15936 379.59375 364.90936Z" fill-rule="nonzero"/><path fill="#000000" d="M491.77423 367.55L491.77423 365.14374L487.41486 365.14374L487.41486 364.01874L491.99298 357.53436L492.99298 357.53436L492.99298 364.01874L494.35236 364.01874L494.35236 365.14374L492.99298 365.14374L492.99298 367.55L491.77423 367.55ZM491.77423 364.01874L491.77423 359.5031L488.6336 364.01874L491.77423 364.01874Z" fill-rule="nonzero"/><path fill="#000000" d="M596.0641 364.925L597.36096 364.8156Q597.5016 365.7531 598.0172 366.2375Q598.54846 366.70624 599.28284 366.70624Q600.17346 366.70624 600.78284 366.03436Q601.40784 365.3625 601.40784 364.26874Q601.40784 363.20624 600.8141 362.59686Q600.22034 361.9875 599.2672 361.9875Q598.67346 361.9875 598.1891 362.26874Q597.72034 362.53436 597.4391 362.95624L596.28284 362.8156L597.2516 357.65936L602.23596 357.65936L602.23596 358.84686L598.23596 358.84686L597.7047 361.53436Q598.61096 360.90936 599.59534 360.90936Q600.90784 360.90936 601.79846 361.8156Q602.7047 362.72186 602.7047 364.15936Q602.7047 365.51874 601.92346 366.5031Q600.9547 367.72186 599.28284 367.72186Q597.92346 367.72186 597.04846 366.95624Q596.1891 366.1906 596.0641 364.925Z" fill-rule="nonzero"/><path fill="#4285f4" d="M229.5 24.45C229.5 23.897715 229.94771 23.45 230.5 23.45L240.5 23.45C241.05229 23.45 241.5 23.897715 241.5 24.45L241.5 34.45C241.5 35.002285 241.05229 35.45 240.5 35.45L230.5 35.45C229.94771 35.45 229.5 35.002285 229.5 34.45Z" fill-rule="nonzero"/><path fill="#1a1a1a" d="M250.65625 34.45L250.65625 24.434376L257.40625 24.434376L257.40625 25.60625L251.96875 25.60625L251.96875 28.715626L256.67188 28.715626L256.67188 29.903126L251.96875 29.903126L251.96875 34.45L250.65625 34.45ZM259.4375 25.840626L259.4375 24.434376L260.65625 24.434376L260.65625 25.840626L259.4375 25.840626ZM259.4375 34.45L259.4375 27.184376L260.65625 27.184376L260.65625 34.45L259.4375 34.45ZM262.42188 34.45L262.42188 27.184376L263.53125 27.184376L263.53125 28.215626Q264.32812 27.028126 265.84375 27.028126Q266.5 27.028126 267.04688 27.2625Q267.59375 27.496876 267.85938 27.8875Q268.14062 28.2625 268.25 28.79375Q268.32812 29.1375 268.32812 29.98125L268.32812 34.45L267.09375 34.45L267.09375 30.028126Q267.09375 29.278126 266.95312 28.91875Q266.8125 28.54375 266.4375 28.325Q266.07812 28.090626 265.57812 28.090626Q264.79688 28.090626 264.21875 28.590626Q263.65625 29.090626 263.65625 30.48125L263.65625 34.45L262.42188 34.45ZM275.39062 32.10625L276.67188 32.2625Q276.35938 33.3875 275.54688 34.0125Q274.73438 34.621876 273.46875 34.621876Q271.875 34.621876 270.9375 33.6375Q270.01562 32.653126 270.01562 30.8875Q270.01562 29.04375 270.95312 28.04375Q271.90625 27.028126 273.40625 27.028126Q274.85938 27.028126 275.78125 28.028126Q276.70312 29.0125 276.70312 30.809376Q276.70312 30.91875 276.70312 31.1375L271.28125 31.1375Q271.35938 32.325 271.95312 32.965626Q272.5625 33.60625 273.48438 33.60625Q274.15625 33.60625 274.625 33.246876Q275.10938 32.8875 275.39062 32.10625ZM271.35938 30.121876L275.40625 30.121876Q275.32812 29.2 274.9375 28.746876Q274.35938 28.04375 273.42188 28.04375Q272.5625 28.04375 271.98438 28.60625Q271.42188 29.16875 271.35938 30.121876ZM280.32812 34.45L277.67188 24.434376L279.03125 24.434376L280.5625 30.996876Q280.79688 32.028126 280.98438 33.04375Q281.35938 31.434376 281.4375 31.2L283.34375 24.434376L284.9375 24.434376L286.375 29.496876Q286.90625 31.3875 287.15625 33.04375Q287.34375 32.090626 287.65625 30.871876L289.21875 24.434376L290.5625 24.434376L287.8125 34.45L286.53125 34.45L284.42188 26.809376Q284.15625 25.85625 284.10938 25.6375Q283.95312 26.325 283.8125 26.809376L281.6875 34.45L280.32812 34.45ZM296.39062 32.10625L297.67188 32.2625Q297.35938 33.3875 296.54688 34.0125Q295.73438 34.621876 294.46875 34.621876Q292.875 34.621876 291.9375 33.6375Q291.01562 32.653126 291.01562 30.8875Q291.01562 29.04375 291.95312 28.04375Q292.90625 27.028126 294.40625 27.028126Q295.85938 27.028126 296.78125 28.028126Q297.70312 29.0125 297.70312 30.809376Q297.70312 30.91875 297.70312 31.1375L292.28125 31.1375Q292.35938 32.325 292.95312 32.965626Q293.5625 33.60625 294.48438 33.60625Q295.15625 33.60625 295.625 33.246876Q296.10938 32.8875 296.39062 32.10625ZM292.35938 30.121876L296.40625 30.121876Q296.32812 29.2 295.9375 28.746876Q295.35938 28.04375 294.42188 28.04375Q293.5625 28.04375 292.98438 28.60625Q292.42188 29.16875 292.35938 30.121876ZM300.5625 34.45L299.42188 34.45L299.42188 24.434376L300.64062 24.434376L300.64062 27.996876Q301.42188 27.028126 302.64062 27.028126Q303.3125 27.028126 303.90625 27.29375Q304.5 27.559376 304.89062 28.059376Q305.28125 28.54375 305.5 29.23125Q305.71875 29.91875 305.71875 30.715626Q305.71875 32.575 304.78125 33.60625Q303.85938 34.621876 302.57812 34.621876Q301.29688 34.621876 300.5625 33.54375L300.5625 34.45ZM300.54688 30.7625Q300.54688 32.075 300.90625 32.653126Q301.48438 33.60625 302.46875 33.60625Q303.28125 33.60625 303.85938 32.903126Q304.45312 32.2 304.45312 30.809376Q304.45312 29.3875 303.89062 28.715626Q303.32812 28.04375 302.53125 28.04375Q301.71875 28.04375 301.125 28.746876Q300.54688 29.434376 300.54688 30.7625ZM311.54688 34.45L311.54688 24.434376L313.53125 24.434376L315.90625 31.528126Q316.23438 32.5125 316.39062 33.0125Q316.5625 32.465626 316.92188 31.403126L319.3125 24.434376L321.10938 24.434376L321.10938 34.45L319.82812 34.45L319.82812 26.059376L316.90625 34.45L315.71875 34.45L312.8125 25.91875L312.8125 34.45L311.54688 34.45ZM327.39062 32.10625L328.67188 32.2625Q328.35938 33.3875 327.54688 34.0125Q326.73438 34.621876 325.46875 34.621876Q323.875 34.621876 322.9375 33.6375Q322.01562 32.653126 322.01562 30.8875Q322.01562 29.04375 322.95312 28.04375Q323.90625 27.028126 325.40625 27.028126Q326.85938 27.028126 327.78125 28.028126Q328.70312 29.0125 328.70312 30.809376Q328.70312 30.91875 328.70312 31.1375L323.28125 31.1375Q323.35938 32.325 323.95312 32.965626Q324.5625 33.60625 325.48438 33.60625Q326.15625 33.60625 326.625 33.246876Q327.10938 32.8875 327.39062 32.10625ZM323.35938 30.121876L327.40625 30.121876Q327.32812 29.2 326.9375 28.746876Q326.35938 28.04375 325.42188 28.04375Q324.5625 28.04375 323.98438 28.60625Q323.42188 29.16875 323.35938 30.121876ZM333.10938 33.35625L333.28125 34.434376Q332.76562 34.54375 332.35938 34.54375Q331.6875 34.54375 331.3125 34.340626Q330.95312 34.121876 330.79688 33.778126Q330.65625 33.434376 330.65625 32.325L330.65625 28.153126L329.75 28.153126L329.75 27.184376L330.65625 27.184376L330.65625 25.3875L331.875 24.653126L331.875 27.184376L333.10938 27.184376L333.10938 28.153126L331.875 28.153126L331.875 32.3875Q331.875 32.91875 331.9375 33.075Q332.0 33.215626 332.14062 33.309376Q332.29688 33.403126 332.5625 33.403126Q332.78125 33.403126 333.10938 33.35625ZM334.40625 34.45L334.40625 27.184376L335.51562 27.184376L335.51562 28.29375Q335.9375 27.5125 336.29688 27.278126Q336.65625 27.028126 337.09375 27.028126Q337.71875 27.028126 338.35938 27.41875L337.9375 28.559376Q337.48438 28.29375 337.03125 28.29375Q336.625 28.29375 336.29688 28.54375Q335.98438 28.778126 335.84375 29.215626Q335.64062 29.871876 335.64062 30.653126L335.64062 34.45L334.40625 34.45ZM339.4375 25.840626L339.4375 24.434376L340.65625 24.434376L340.65625 25.840626L339.4375 25.840626ZM339.4375 34.45L339.4375 27.184376L340.65625 27.184376L340.65625 34.45L339.4375 34.45ZM347.15625 31.79375L348.375 31.95Q348.17188 33.2 347.34375 33.91875Q346.53125 34.621876 345.34375 34.621876Q343.85938 34.621876 342.95312 33.653126Q342.04688 32.66875 342.04688 30.840626Q342.04688 29.66875 342.4375 28.79375Q342.82812 27.903126 343.625 27.465626Q344.42188 27.028126 345.35938 27.028126Q346.53125 27.028126 347.28125 27.621876Q348.04688 28.215626 348.25 29.325L347.0625 29.5125Q346.89062 28.778126 346.45312 28.41875Q346.01562 28.04375 345.40625 28.04375Q344.46875 28.04375 343.89062 28.715626Q343.3125 29.371876 343.3125 30.809376Q343.3125 32.278126 343.875 32.95Q344.4375 33.60625 345.32812 33.60625Q346.0625 33.60625 346.54688 33.16875Q347.03125 32.715626 347.15625 31.79375ZM348.9375 32.278126L350.14062 32.090626Q350.25 32.825 350.71875 33.215626Q351.1875 33.60625 352.03125 33.60625Q352.875 33.60625 353.28125 33.2625Q353.70312 32.91875 353.70312 32.45Q353.70312 32.028126 353.32812 31.79375Q353.07812 31.621876 352.07812 31.371876Q350.71875 31.028126 350.1875 30.778126Q349.67188 30.528126 349.40625 30.090626Q349.14062 29.653126 349.14062 29.121876Q349.14062 28.6375 349.35938 28.23125Q349.57812 27.809376 349.96875 27.528126Q350.25 27.325 350.73438 27.184376Q351.23438 27.028126 351.8125 27.028126Q352.65625 27.028126 353.29688 27.278126Q353.95312 27.5125 354.26562 27.934376Q354.57812 28.35625 354.6875 29.059376L353.48438 29.23125Q353.40625 28.66875 353.0 28.35625Q352.60938 28.04375 351.89062 28.04375Q351.04688 28.04375 350.6875 28.325Q350.32812 28.590626 350.32812 28.98125Q350.32812 29.215626 350.46875 29.403126Q350.625 29.60625 350.95312 29.73125Q351.125 29.79375 352.03125 30.04375Q353.34375 30.403126 353.85938 30.621876Q354.375 30.840626 354.65625 31.2625Q354.95312 31.684376 354.95312 32.309376Q354.95312 32.934376 354.59375 33.48125Q354.25 34.0125 353.5625 34.325Q352.89062 34.621876 352.03125 34.621876Q350.625 34.621876 349.875 34.028126Q349.14062 33.434376 348.9375 32.278126Z" fill-rule="nonzero"/><path fill="#ea4335" d="M371.5 24.45C371.5 23.897715 371.94772 23.45 372.5 23.45L382.5 23.45C383.05228 23.45 383.5 23.897715 383.5 24.45L383.5 34.45C383.5 35.002285 383.05228 35.45 382.5 35.45L372.5 35.45C371.94772 35.45 371.5 35.002285 371.5 34.45Z" fill-rule="nonzero"/><path fill="#1a1a1a" d="M392.17188 29.575Q392.17188 27.075 393.51562 25.66875Q394.85938 24.246876 396.96875 24.246876Q398.35938 24.246876 399.46875 24.91875Q400.59375 25.575 401.17188 26.7625Q401.76562 27.95 401.76562 29.45Q401.76562 30.98125 401.14062 32.184376Q400.53125 33.3875 399.40625 34.0125Q398.28125 34.621876 396.96875 34.621876Q395.54688 34.621876 394.4375 33.934376Q393.32812 33.246876 392.75 32.075Q392.17188 30.8875 392.17188 29.575ZM393.54688 29.590626Q393.54688 31.403126 394.51562 32.45Q395.5 33.48125 396.96875 33.48125Q398.45312 33.48125 399.42188 32.434376Q400.39062 31.3875 400.39062 29.45Q400.39062 28.215626 399.96875 27.309376Q399.5625 26.403126 398.76562 25.903126Q397.96875 25.3875 396.98438 25.3875Q395.57812 25.3875 394.5625 26.35625Q393.54688 27.325 393.54688 29.590626ZM408.1875 34.45L408.1875 33.3875Q407.32812 34.621876 405.875 34.621876Q405.23438 34.621876 404.67188 34.371876Q404.125 34.121876 403.84375 33.746876Q403.57812 33.371876 403.46875 32.840626Q403.39062 32.48125 403.39062 31.684376L403.39062 27.184376L404.625 27.184376L404.625 31.215626Q404.625 32.184376 404.70312 32.5125Q404.8125 32.996876 405.1875 33.278126Q405.5625 33.559376 406.125 33.559376Q406.67188 33.559376 407.15625 33.278126Q407.64062 32.98125 407.84375 32.496876Q408.04688 32.0125 408.04688 31.075L408.04688 27.184376L409.28125 27.184376L409.28125 34.45L408.1875 34.45ZM411.40625 34.45L411.40625 27.184376L412.51562 27.184376L412.51562 28.29375Q412.9375 27.5125 413.29688 27.278126Q413.65625 27.028126 414.09375 27.028126Q414.71875 27.028126 415.35938 27.41875L414.9375 28.559376Q414.48438 28.29375 414.03125 28.29375Q413.625 28.29375 413.29688 28.54375Q412.98438 28.778126 412.84375 29.215626Q412.64062 29.871876 412.64062 30.653126L412.64062 34.45L411.40625 34.45ZM420.54688 34.45L420.54688 24.434376L422.53125 24.434376L424.90625 31.528126Q425.23438 32.5125 425.39062 33.0125Q425.5625 32.465626 425.92188 31.403126L428.3125 24.434376L430.10938 24.434376L430.10938 34.45L428.82812 34.45L428.82812 26.059376L425.90625 34.45L424.71875 34.45L421.8125 25.91875L421.8125 34.45L420.54688 34.45ZM436.39062 32.10625L437.67188 32.2625Q437.35938 33.3875 436.54688 34.0125Q435.73438 34.621876 434.46875 34.621876Q432.875 34.621876 431.9375 33.6375Q431.01562 32.653126 431.01562 30.8875Q431.01562 29.04375 431.95312 28.04375Q432.90625 27.028126 434.40625 27.028126Q435.85938 27.028126 436.78125 28.028126Q437.70312 29.0125 437.70312 30.809376Q437.70312 30.91875 437.70312 31.1375L432.28125 31.1375Q432.35938 32.325 432.95312 32.965626Q433.5625 33.60625 434.48438 33.60625Q435.15625 33.60625 435.625 33.246876Q436.10938 32.8875 436.39062 32.10625ZM432.35938 30.121876L436.40625 30.121876Q436.32812 29.2 435.9375 28.746876Q435.35938 28.04375 434.42188 28.04375Q433.5625 28.04375 432.98438 28.60625Q432.42188 29.16875 432.35938 30.121876ZM442.10938 33.35625L442.28125 34.434376Q441.76562 34.54375 441.35938 34.54375Q440.6875 34.54375 440.3125 34.340626Q439.95312 34.121876 439.79688 33.778126Q439.65625 33.434376 439.65625 32.325L439.65625 28.153126L438.75 28.153126L438.75 27.184376L439.65625 27.184376L439.65625 25.3875L440.875 24.653126L440.875 27.184376L442.10938 27.184376L442.10938 28.153126L440.875 28.153126L440.875 32.3875Q440.875 32.91875 440.9375 33.075Q441.0 33.215626 441.14062 33.309376Q441.29688 33.403126 441.5625 33.403126Q441.78125 33.403126 442.10938 33.35625ZM443.40625 34.45L443.40625 27.184376L444.51562 27.184376L444.51562 28.29375Q444.9375 27.5125 445.29688 27.278126Q445.65625 27.028126 446.09375 27.028126Q446.71875 27.028126 447.35938 27.41875L446.9375 28.559376Q446.48438 28.29375 446.03125 28.29375Q445.625 28.29375 445.29688 28.54375Q444.98438 28.778126 444.84375 29.215626Q444.64062 29.871876 444.64062 30.653126L444.64062 34.45L443.40625 34.45ZM448.4375 25.840626L448.4375 24.434376L449.65625 24.434376L449.65625 25.840626L448.4375 25.840626ZM448.4375 34.45L448.4375 27.184376L449.65625 27.184376L449.65625 34.45L448.4375 34.45ZM456.15625 31.79375L457.375 31.95Q457.17188 33.2 456.34375 33.91875Q455.53125 34.621876 454.34375 34.621876Q452.85938 34.621876 451.95312 33.653126Q451.04688 32.66875 451.04688 30.840626Q451.04688 29.66875 451.4375 28.79375Q451.82812 27.903126 452.625 27.465626Q453.42188 27.028126 454.35938 27.028126Q455.53125 27.028126 456.28125 27.621876Q457.04688 28.215626 457.25 29.325L456.0625 29.5125Q455.89062 28.778126 455.45312 28.41875Q455.01562 28.04375 454.40625 28.04375Q453.46875 28.04375 452.89062 28.715626Q452.3125 29.371876 452.3125 30.809376Q452.3125 32.278126 452.875 32.95Q453.4375 33.60625 454.32812 33.60625Q455.0625 33.60625 455.54688 33.16875Q456.03125 32.715626 456.15625 31.79375ZM457.9375 32.278126L459.14062 32.090626Q459.25 32.825 459.71875 33.215626Q460.1875 33.60625 461.03125 33.60625Q461.875 33.60625 462.28125 33.2625Q462.70312 32.91875 462.70312 32.45Q462.70312 32.028126 462.32812 31.79375Q462.07812 31.621876 461.07812 31.371876Q459.71875 31.028126 459.1875 30.778126Q458.67188 30.528126 458.40625 30.090626Q458.14062 29.653126 458.14062 29.121876Q458.14062 28.6375 458.35938 28.23125Q458.57812 27.809376 458.96875 27.528126Q459.25 27.325 459.73438 27.184376Q460.23438 27.028126 460.8125 27.028126Q461.65625 27.028126 462.29688 27.278126Q462.95312 27.5125 463.26562 27.934376Q463.57812 28.35625 463.6875 29.059376L462.48438 29.23125Q462.40625 28.66875 462.0 28.35625Q461.60938 28.04375 460.89062 28.04375Q460.04688 28.04375 459.6875 28.325Q459.32812 28.590626 459.32812 28.98125Q459.32812 29.215626 459.46875 29.403126Q459.625 29.60625 459.95312 29.73125Q460.125 29.79375 461.03125 30.04375Q462.34375 30.403126 462.85938 30.621876Q463.375 30.840626 463.65625 31.2625Q463.95312 31.684376 463.95312 32.309376Q463.95312 32.934376 463.59375 33.48125Q463.25 34.0125 462.5625 34.325Q461.89062 34.621876 461.03125 34.621876Q459.625 34.621876 458.875 34.028126Q458.14062 33.434376 457.9375 32.278126Z" fill-rule="nonzero"/></svg>