<svg version="1.1" viewBox="0.0 0.0 738.0 371.0" fill="none" stroke="none" stroke-linecap="square" stroke-miterlimit="10" width="738" height="371" xmlns:xlink="http://www.w3.org/1999/xlink" xmlns="http://www.w3.org/2000/svg"><path fill="#ffffff" d="M0 0L738.0 0L738.0 371.0L0 371.0L0 0Z" fill-rule="nonzero"/><path stroke="#333333" stroke-width="1.0" stroke-linecap="butt" d="M98.5 329.5L719.5 329.5" fill-rule="nonzero"/><path stroke="#cccccc" stroke-width="1.0" stroke-linecap="butt" d="M98.5 237.5L719.5 237.5" fill-rule="nonzero"/><path stroke="#cccccc" stroke-width="1.0" stroke-linecap="butt" d="M98.5 146.5L719.5 146.5" fill-rule="nonzero"/><path stroke="#cccccc" stroke-width="1.0" stroke-linecap="butt" d="M98.5 54.5L719.5 54.5" fill-rule="nonzero"/><clipPath id="id_0"><path d="M98.55 54.916668L719.45 54.916668L719.45 329.45L98.55 329.45L98.55 54.916668Z" clip-rule="nonzero"/></clipPath><path stroke="#000000" stroke-width="2.0" stroke-linecap="butt" stroke-opacity="0.0" clip-path="url(#id_0)" d="M164.0 329.0L141.0 329.0L141.0 272.0C141.0 270.89542 141.89543 270.0 143.0 270.0L162.0 270.0C163.10457 270.0 164.0 270.89542 164.0 272.0Z" fill-rule="nonzero"/><path fill="#4285f4" clip-path="url(#id_0)" d="M164.0 329.0L141.0 329.0L141.0 272.0C141.0 270.89542 141.89543 270.0 143.0 270.0L162.0 270.0C163.10457 270.0 164.0 270.89542 164.0 272.0Z" fill-rule="nonzero"/><path stroke="#000000" stroke-width="2.0" stroke-linecap="butt" stroke-opacity="0.0" clip-path="url(#id_0)" d="M280.0 329.0L257.0 329.0L257.0 309.0C257.0 307.89542 257.89542 307.0 259.0 307.0L278.0 307.0C279.10458 307.0 280.0 307.89542 280.0 309.0Z" fill-rule="nonzero"/><path fill="#4285f4" clip-path="url(#id_0)" d="M280.0 329.0L257.0 329.0L257.0 309.0C257.0 307.89542 257.89542 307.0 259.0 307.0L278.0 307.0C279.10458 307.0 280.0 307.89542 280.0 309.0Z" fill-rule="nonzero"/><path stroke="#000000" stroke-width="2.0" stroke-linecap="butt" stroke-opacity="0.0" clip-path="url(#id_0)" d="M396.0 329.0L373.0 329.0L373.0 121.0C373.0 119.89543 373.89542 119.0 375.0 119.0L394.0 119.0C395.10458 119.0 396.0 119.89543 396.0 121.0Z" fill-rule="nonzero"/><path fill="#4285f4" clip-path="url(#id_0)" d="M396.0 329.0L373.0 329.0L373.0 121.0C373.0 119.89543 373.89542 119.0 375.0 119.0L394.0 119.0C395.10458 119.0 396.0 119.89543 396.0 121.0Z" fill-rule="nonzero"/><path stroke="#000000" stroke-width="2.0" stroke-linecap="butt" stroke-opacity="0.0" clip-path="url(#id_0)" d="M512.0 329.0L489.0 329.0L489.0 151.0C489.0 149.89543 489.89542 149.0 491.0 149.0L510.0 149.0C511.10458 149.0 512.0 149.89543 512.0 151.0Z" fill-rule="nonzero"/><path fill="#4285f4" clip-path="url(#id_0)" d="M512.0 329.0L489.0 329.0L489.0 151.0C489.0 149.89543 489.89542 149.0 491.0 149.0L510.0 149.0C511.10458 149.0 512.0 149.89543 512.0 151.0Z" fill-rule="nonzero"/><path stroke="#000000" stroke-width="2.0" stroke-linecap="butt" stroke-opacity="0.0" clip-path="url(#id_0)" d="M628.0 329.0L605.0 329.0L605.0 89.0C605.0 87.89543 605.89545 87.0 607.0 87.0L626.0 87.0C627.10455 87.0 628.0 87.89543 628.0 89.0Z" fill-rule="nonzero"/><path fill="#4285f4" clip-path="url(#id_0)" d="M628.0 329.0L605.0 329.0L605.0 89.0C605.0 87.89543 605.89545 87.0 607.0 87.0L626.0 87.0C627.10455 87.0 628.0 87.89543 628.0 89.0Z" fill-rule="nonzero"/><path stroke="#000000" stroke-width="2.0" stroke-linecap="butt" stroke-opacity="0.0" clip-path="url(#id_0)" d="M189.0 329.0L166.0 329.0L166.0 278.0C166.0 276.89542 166.89543 276.0 168.0 276.0L187.0 276.0C188.10457 276.0 189.0 276.89542 189.0 278.0Z" fill-rule="nonzero"/><path fill="#ea4335" clip-path="url(#id_0)" d="M189.0 329.0L166.0 329.0L166.0 278.0C166.0 276.89542 166.89543 276.0 168.0 276.0L187.0 276.0C188.10457 276.0 189.0 276.89542 189.0 278.0Z" fill-rule="nonzero"/><path stroke="#000000" stroke-width="2.0" stroke-linecap="butt" stroke-opacity="0.0" clip-path="url(#id_0)" d="M305.0 329.0L282.0 329.0L282.0 306.0C282.0 304.89542 282.89542 304.0 284.0 304.0L303.0 304.0C304.10458 304.0 305.0 304.89542 305.0 306.0Z" fill-rule="nonzero"/><path fill="#ea4335" clip-path="url(#id_0)" d="M305.0 329.0L282.0 329.0L282.0 306.0C282.0 304.89542 282.89542 304.0 284.0 304.0L303.0 304.0C304.10458 304.0 305.0 304.89542 305.0 306.0Z" fill-rule="nonzero"/><path stroke="#000000" stroke-width="2.0" stroke-linecap="butt" stroke-opacity="0.0" clip-path="url(#id_0)" d="M421.0 329.0L398.0 329.0L398.0 120.0C398.0 118.89543 398.89542 118.0 400.0 118.0L419.0 118.0C420.10458 118.0 421.0 118.89543 421.0 120.0Z" fill-rule="nonzero"/><path fill="#ea4335" clip-path="url(#id_0)" d="M421.0 329.0L398.0 329.0L398.0 120.0C398.0 118.89543 398.89542 118.0 400.0 118.0L419.0 118.0C420.10458 118.0 421.0 118.89543 421.0 120.0Z" fill-rule="nonzero"/><path stroke="#000000" stroke-width="2.0" stroke-linecap="butt" stroke-opacity="0.0" clip-path="url(#id_0)" d="M537.0 329.0L514.0 329.0L514.0 150.0C514.0 148.89543 514.89545 148.0 516.0 148.0L535.0 148.0C536.10455 148.0 537.0 148.89543 537.0 150.0Z" fill-rule="nonzero"/><path fill="#ea4335" clip-path="url(#id_0)" d="M537.0 329.0L514.0 329.0L514.0 150.0C514.0 148.89543 514.89545 148.0 516.0 148.0L535.0 148.0C536.10455 148.0 537.0 148.89543 537.0 150.0Z" fill-rule="nonzero"/><path stroke="#000000" stroke-width="2.0" stroke-linecap="butt" stroke-opacity="0.0" clip-path="url(#id_0)" d="M653.0 329.0L630.0 329.0L630.0 86.0C630.0 84.89543 630.89545 84.0 632.0 84.0L651.0 84.0C652.10455 84.0 653.0 84.89543 653.0 86.0Z" fill-rule="nonzero"/><path fill="#ea4335" clip-path="url(#id_0)" d="M653.0 329.0L630.0 329.0L630.0 86.0C630.0 84.89543 630.89545 84.0 632.0 84.0L651.0 84.0C652.10455 84.0 653.0 84.89543 653.0 86.0Z" fill-rule="nonzero"/><path stroke="#000000" stroke-width="2.0" stroke-linecap="butt" stroke-opacity="0.0" clip-path="url(#id_0)" d="M214.0 329.0L191.0 329.0L191.0 213.0C191.0 211.89543 191.89543 211.0 193.0 211.0L212.0 211.0C213.10457 211.0 214.0 211.89543 214.0 213.0Z" fill-rule="nonzero"/><path fill="#fbbc04" clip-path="url(#id_0)" d="M214.0 329.0L191.0 329.0L191.0 213.0C191.0 211.89543 191.89543 211.0 193.0 211.0L212.0 211.0C213.10457 211.0 214.0 211.89543 214.0 213.0Z" fill-rule="nonzero"/><path stroke="#000000" stroke-width="2.0" stroke-linecap="butt" stroke-opacity="0.0" clip-path="url(#id_0)" d="M330.0 329.0L307.0 329.0L307.0 303.0C307.0 301.89542 307.89542 301.0 309.0 301.0L328.0 301.0C329.10458 301.0 330.0 301.89542 330.0 303.0Z" fill-rule="nonzero"/><path fill="#fbbc04" clip-path="url(#id_0)" d="M330.0 329.0L307.0 329.0L307.0 303.0C307.0 301.89542 307.89542 301.0 309.0 301.0L328.0 301.0C329.10458 301.0 330.0 301.89542 330.0 303.0Z" fill-rule="nonzero"/><path stroke="#000000" stroke-width="2.0" stroke-linecap="butt" stroke-opacity="0.0" clip-path="url(#id_0)" d="M446.0 329.0L423.0 329.0L423.0 106.0C423.0 104.89543 423.89542 104.0 425.0 104.0L444.0 104.0C445.10458 104.0 446.0 104.89543 446.0 106.0Z" fill-rule="nonzero"/><path fill="#fbbc04" clip-path="url(#id_0)" d="M446.0 329.0L423.0 329.0L423.0 106.0C423.0 104.89543 423.89542 104.0 425.0 104.0L444.0 104.0C445.10458 104.0 446.0 104.89543 446.0 106.0Z" fill-rule="nonzero"/><path stroke="#000000" stroke-width="2.0" stroke-linecap="butt" stroke-opacity="0.0" clip-path="url(#id_0)" d="M562.0 329.0L539.0 329.0L539.0 136.0C539.0 134.89543 539.89545 134.0 541.0 134.0L560.0 134.0C561.10455 134.0 562.0 134.89543 562.0 136.0Z" fill-rule="nonzero"/><path fill="#fbbc04" clip-path="url(#id_0)" d="M562.0 329.0L539.0 329.0L539.0 136.0C539.0 134.89543 539.89545 134.0 541.0 134.0L560.0 134.0C561.10455 134.0 562.0 134.89543 562.0 136.0Z" fill-rule="nonzero"/><path stroke="#000000" stroke-width="2.0" stroke-linecap="butt" stroke-opacity="0.0" clip-path="url(#id_0)" d="M678.0 329.0L655.0 329.0L655.0 80.0C655.0 78.89543 655.89545 78.0 657.0 78.0L676.0 78.0C677.10455 78.0 678.0 78.89543 678.0 80.0Z" fill-rule="nonzero"/><path fill="#fbbc04" clip-path="url(#id_0)" d="M678.0 329.0L655.0 329.0L655.0 80.0C655.0 78.89543 655.89545 78.0 657.0 78.0L676.0 78.0C677.10455 78.0 678.0 78.89543 678.0 80.0Z" fill-rule="nonzero"/><path fill="#000000" d="M31.550013 241.69896L21.534388 237.85521L21.534388 236.43333L31.550013 232.32396L31.550013 233.83958L28.518763 235.01146L28.518763 239.19896L31.550013 240.29271L31.550013 241.69896ZM27.440638 238.80833L27.440638 235.41771L24.659388 236.46458Q23.393763 236.93333 22.581263 237.16771Q23.550013 237.35521 24.487513 237.71458L27.440638 238.80833ZM28.893763 227.02708L29.050013 225.80833Q30.300013 226.01146 31.018763 226.83958Q31.721888 227.65208 31.721888 228.83958Q31.721888 230.32396 30.753138 231.23021Q29.768763 232.13646 27.940638 232.13646Q26.768763 232.13646 25.893763 231.74583Q25.003138 231.35521 24.565638 230.55833Q24.128138 229.76146 24.128138 228.82396Q24.128138 227.65208 24.721888 226.90208Q25.315638 226.13646 26.425013 225.93333L26.612513 227.12083Q25.878138 227.29271 25.518763 227.73021Q25.143763 228.16771 25.143763 228.77708Q25.143763 229.71458 25.815638 230.29271Q26.471888 230.87083 27.909388 230.87083Q29.378138 230.87083 30.050013 230.30833Q30.706263 229.74583 30.706263 228.85521Q30.706263 228.12083 30.268763 227.63646Q29.815638 227.15208 28.893763 227.02708ZM28.893763 220.02708L29.050013 218.80833Q30.300013 219.01146 31.018763 219.83958Q31.721888 220.65208 31.721888 221.83958Q31.721888 223.32396 30.753138 224.23021Q29.768763 225.13646 27.940638 225.13646Q26.768763 225.13646 25.893763 224.74583Q25.003138 224.35521 24.565638 223.55833Q24.128138 222.76146 24.128138 221.82396Q24.128138 220.65208 24.721888 219.90208Q25.315638 219.13646 26.425013 218.93333L26.612513 220.12083Q25.878138 220.29271 25.518763 220.73021Q25.143763 221.16771 25.143763 221.77708Q25.143763 222.71458 25.815638 223.29271Q26.471888 223.87083 27.909388 223.87083Q29.378138 223.87083 30.050013 223.30833Q30.706263 222.74583 30.706263 221.85521Q30.706263 221.12083 30.268763 220.63646Q29.815638 220.15208 28.893763 220.02708ZM31.550013 212.99583L30.487513 212.99583Q31.721888 213.85521 31.721888 215.30833Q31.721888 215.94896 31.471888 216.51146Q31.221888 217.05833 30.846888 217.33958Q30.471888 217.60521 29.940638 217.71458Q29.581263 217.79271 28.784388 217.79271L24.284388 217.79271L24.284388 216.55833L28.315638 216.55833Q29.284388 216.55833 29.612513 216.48021Q30.096888 216.37083 30.378138 215.99583Q30.659388 215.62083 30.659388 215.05833Q30.659388 214.51146 30.378138 214.02708Q30.081263 213.54271 29.596888 213.33958Q29.112513 213.13646 28.175013 213.13646L24.284388 213.13646L24.284388 211.90208L31.550013 211.90208L31.550013 212.99583ZM31.550013 209.77708L24.284388 209.77708L24.284388 208.66771L25.393763 208.66771Q24.612513 208.24583 24.378138 207.88646Q24.128138 207.52708 24.128138 207.08958Q24.128138 206.46458 24.518763 205.82396L25.659388 206.24583Q25.393763 206.69896 25.393763 207.15208Q25.393763 207.55833 25.643763 207.88646Q25.878138 208.19896 26.315638 208.33958Q26.971888 208.54271 27.753138 208.54271L31.550013 208.54271L31.550013 209.77708ZM30.659388 200.02708Q31.237513 200.69896 31.487513 201.33958Q31.721888 201.96458 31.721888 202.69896Q31.721888 203.88646 31.143763 204.54271Q30.550013 205.18333 29.628138 205.18333Q29.096888 205.18333 28.659388 204.94896Q28.221888 204.69896 27.956263 204.30833Q27.690638 203.90208 27.550013 203.41771Q27.456263 203.05833 27.362513 202.32396Q27.190638 200.82396 26.940638 200.12083Q26.690638 200.12083 26.628138 200.12083Q25.862513 200.12083 25.565638 200.46458Q25.143763 200.93333 25.143763 201.87083Q25.143763 202.73021 25.456263 203.15208Q25.753138 203.55833 26.518763 203.76146L26.362513 204.96458Q25.581263 204.80833 25.112513 204.43333Q24.643763 204.04271 24.393763 203.33958Q24.128138 202.62083 24.128138 201.68333Q24.128138 200.76146 24.346888 200.18333Q24.565638 199.60521 24.893763 199.33958Q25.221888 199.05833 25.737513 198.94896Q26.050013 198.88646 26.862513 198.88646L28.503138 198.88646Q30.221888 198.88646 30.675013 198.80833Q31.128138 198.73021 31.550013 198.49583L31.550013 199.77708Q31.159388 199.96458 30.659388 200.02708ZM27.909388 200.12083Q28.175013 200.79271 28.378138 202.13646Q28.487513 202.88646 28.628138 203.21458Q28.753138 203.52708 29.018763 203.69896Q29.284388 203.87083 29.596888 203.87083Q30.096888 203.87083 30.425013 203.49583Q30.753138 203.12083 30.753138 202.40208Q30.753138 201.68333 30.440638 201.13646Q30.128138 200.58958 29.581263 200.32396Q29.175013 200.12083 28.362513 200.12083L27.909388 200.12083ZM28.893763 192.02708L29.050013 190.80833Q30.300013 191.01146 31.018763 191.83958Q31.721888 192.65208 31.721888 193.83958Q31.721888 195.32396 30.753138 196.23021Q29.768763 197.13646 27.940638 197.13646Q26.768763 197.13646 25.893763 196.74583Q25.003138 196.35521 24.565638 195.55833Q24.128138 194.76146 24.128138 193.82396Q24.128138 192.65208 24.721888 191.90208Q25.315638 191.13646 26.425013 190.93333L26.612513 192.12083Q25.878138 192.29271 25.518763 192.73021Q25.143763 193.16771 25.143763 193.77708Q25.143763 194.71458 25.815638 195.29271Q26.471888 195.87083 27.909388 195.87083Q29.378138 195.87083 30.050013 195.30833Q30.706263 194.74583 30.706263 193.85521Q30.706263 193.12083 30.268763 192.63646Q29.815638 192.15208 28.893763 192.02708ZM34.346886 189.80833L33.190636 189.94896Q33.30001 189.54271 33.30001 189.24583Q33.30001 188.83958 33.159386 188.58958Q33.034386 188.33958 32.784386 188.18333Q32.596886 188.07396 31.862513 187.80833Q31.768763 187.77708 31.565638 187.69896L24.284388 190.46458L24.284388 189.13646L28.487513 187.62083Q29.300013 187.32396 30.175013 187.08958Q29.331263 186.88646 28.518763 186.58958L24.284388 185.04271L24.284388 183.80833L31.675013 186.57396Q32.86251 187.01146 33.315636 187.26146Q33.92501 187.58958 34.20626 188.01146Q34.503136 188.43333 34.503136 189.02708Q34.503136 189.37083 34.346886 189.80833ZM34.503136 176.40208Q33.20626 177.43333 31.487513 178.13646Q29.768763 178.83958 27.925013 178.83958Q26.300013 178.83958 24.800013 178.30833Q23.065638 177.69896 21.362513 176.40208L21.362513 175.52708Q22.784388 176.35521 23.393763 176.62083Q24.331263 177.04271 25.362513 177.27708Q26.628138 177.57396 27.925013 177.57396Q31.221888 177.57396 34.503136 175.52708L34.503136 176.40208ZM23.940638 173.87083Q22.862513 173.87083 22.112513 173.33958Q21.362513 172.79271 21.362513 171.76146Q21.362513 170.82396 22.034388 170.21458Q22.706263 169.58958 24.003138 169.58958Q25.284388 169.58958 25.971888 170.21458Q26.659388 170.83958 26.659388 171.74583Q26.659388 172.65208 25.987513 173.26146Q25.300013 173.87083 23.940638 173.87083ZM22.206263 171.73021Q22.206263 172.18333 22.612513 172.49583Q23.003138 172.79271 24.050013 172.79271Q25.018763 172.79271 25.409388 172.49583Q25.800013 172.18333 25.800013 171.73021Q25.800013 171.26146 25.409388 170.96458Q25.018763 170.65208 23.956263 170.65208Q22.987513 170.65208 22.596888 170.96458Q22.206263 171.27708 22.206263 171.73021ZM31.925013 171.73021L21.362513 166.24583L21.362513 165.24583L31.925013 170.69896L31.925013 171.73021ZM29.190638 167.38646Q28.112513 167.38646 27.378138 166.85521Q26.628138 166.30833 26.628138 165.27708Q26.628138 164.33958 27.300013 163.71458Q27.971888 163.08958 29.268763 163.08958Q30.550013 163.08958 31.237513 163.71458Q31.925013 164.33958 31.925013 165.27708Q31.925013 166.18333 31.253138 166.79271Q30.565638 167.38646 29.190638 167.38646ZM27.471888 165.24583Q27.471888 165.71458 27.878138 166.01146Q28.268763 166.30833 29.315638 166.30833Q30.284388 166.30833 30.675013 166.01146Q31.065638 165.69896 31.065638 165.24583Q31.065638 164.77708 30.675013 164.48021Q30.284388 164.16771 29.221888 164.16771Q28.253138 164.16771 27.862513 164.48021Q27.471888 164.77708 27.471888 165.24583ZM34.503136 160.94896L34.503136 161.83958Q31.221888 159.79271 27.925013 159.79271Q26.643763 159.79271 25.378138 160.08958Q24.346888 160.32396 23.409388 160.73021Q22.800013 160.99583 21.362513 161.83958L21.362513 160.94896Q23.065638 159.66771 24.800013 159.05833Q26.300013 158.52708 27.925013 158.52708Q29.768763 158.52708 31.487513 159.24583Q33.20626 159.94896 34.503136 160.94896Z" fill-rule="nonzero"/><path fill="#000000" d="M64.12813 329.5125Q64.12813 327.73126 64.4875 326.65314Q64.8625 325.5594 65.58125 324.98126Q66.3 324.3875 67.39375 324.3875Q68.20625 324.3875 68.81563 324.71564Q69.425 325.04376 69.81563 325.65314Q70.22188 326.2625 70.44063 327.1375Q70.65938 328.0125 70.65938 329.5125Q70.65938 331.27814 70.3 332.35626Q69.94063 333.4344 69.22188 334.02814Q68.50313 334.6219 67.39375 334.6219Q65.95625 334.6219 65.12813 333.575Q64.12813 332.325 64.12813 329.5125ZM65.39375 329.5125Q65.39375 331.98126 65.97188 332.79376Q66.55 333.60626 67.39375 333.60626Q68.25313 333.60626 68.83125 332.79376Q69.40938 331.96564 69.40938 329.5125Q69.40938 327.02814 68.83125 326.21564Q68.25313 325.40314 67.37813 325.40314Q66.53438 325.40314 66.03438 326.1219Q65.39375 327.04376 65.39375 329.5125ZM72.81563 334.45L72.81563 333.04376L74.22188 333.04376L74.22188 334.45L72.81563 334.45ZM76.12813 329.5125Q76.12813 327.73126 76.4875 326.65314Q76.8625 325.5594 77.58125 324.98126Q78.3 324.3875 79.39375 324.3875Q80.20625 324.3875 80.81563 324.71564Q81.425 325.04376 81.81563 325.65314Q82.22188 326.2625 82.44063 327.1375Q82.65938 328.0125 82.65938 329.5125Q82.65938 331.27814 82.3 332.35626Q81.94063 333.4344 81.22188 334.02814Q80.50313 334.6219 79.39375 334.6219Q77.95625 334.6219 77.12813 333.575Q76.12813 332.325 76.12813 329.5125ZM77.39375 329.5125Q77.39375 331.98126 77.97188 332.79376Q78.55 333.60626 79.39375 333.60626Q80.25313 333.60626 80.83125 332.79376Q81.40938 331.96564 81.40938 329.5125Q81.40938 327.02814 80.83125 326.21564Q80.25313 325.40314 79.37813 325.40314Q78.53438 325.40314 78.03438 326.1219Q77.39375 327.04376 77.39375 329.5125ZM84.12813 329.5125Q84.12813 327.73126 84.4875 326.65314Q84.8625 325.5594 85.58125 324.98126Q86.3 324.3875 87.39375 324.3875Q88.20625 324.3875 88.81563 324.71564Q89.425 325.04376 89.81563 325.65314Q90.22188 326.2625 90.44063 327.1375Q90.65938 328.0125 90.65938 329.5125Q90.65938 331.27814 90.3 332.35626Q89.94063 333.4344 89.22188 334.02814Q88.50313 334.6219 87.39375 334.6219Q85.95625 334.6219 85.12813 333.575Q84.12813 332.325 84.12813 329.5125ZM85.39375 329.5125Q85.39375 331.98126 85.97188 332.79376Q86.55 333.60626 87.39375 333.60626Q88.25313 333.60626 88.83125 332.79376Q89.40938 331.96564 89.40938 329.5125Q89.40938 327.02814 88.83125 326.21564Q88.25313 325.40314 87.37813 325.40314Q86.53438 325.40314 86.03438 326.1219Q85.39375 327.04376 85.39375 329.5125Z" fill-rule="nonzero"/><path fill="#000000" d="M62.596874 241.75139L62.596874 242.93889L55.971874 242.93889Q55.95625 242.50139 56.1125 242.07951Q56.378124 241.40764 56.925 240.75139Q57.4875 240.09514 58.534374 239.23576Q60.175 237.89201 60.7375 237.11076Q61.315624 236.32951 61.315624 235.62639Q61.315624 234.89201 60.784374 234.39201Q60.26875 233.89201 59.440624 233.89201Q58.55 233.89201 58.003124 234.42326Q57.471874 234.95451 57.471874 235.90764L56.20625 235.76701Q56.33125 234.36076 57.175 233.62639Q58.034374 232.87639 59.45625 232.87639Q60.909374 232.87639 61.7375 233.67326Q62.58125 234.47014 62.58125 235.65764Q62.58125 236.26701 62.33125 236.84514Q62.096874 237.42326 61.51875 238.06389Q60.95625 238.70451 59.628124 239.82951Q58.51875 240.75139 58.20625 241.09514Q57.89375 241.42326 57.690624 241.75139L62.596874 241.75139ZM64.12813 238.00139Q64.12813 236.22014 64.4875 235.14201Q64.8625 234.04826 65.58125 233.47014Q66.3 232.87639 67.39375 232.87639Q68.20625 232.87639 68.81563 233.20451Q69.425 233.53264 69.81563 234.14201Q70.22188 234.75139 70.44063 235.62639Q70.65938 236.50139 70.65938 238.00139Q70.65938 239.76701 70.3 240.84514Q69.94063 241.92326 69.22188 242.51701Q68.50313 243.11076 67.39375 243.11076Q65.95625 243.11076 65.12813 242.06389Q64.12813 240.81389 64.12813 238.00139ZM65.39375 238.00139Q65.39375 240.47014 65.97188 241.28264Q66.55 242.09514 67.39375 242.09514Q68.25313 242.09514 68.83125 241.28264Q69.40938 240.45451 69.40938 238.00139Q69.40938 235.51701 68.83125 234.70451Q68.25313 233.89201 67.37813 233.89201Q66.53438 233.89201 66.03438 234.61076Q65.39375 235.53264 65.39375 238.00139ZM72.81563 242.93889L72.81563 241.53264L74.22188 241.53264L74.22188 242.93889L72.81563 242.93889ZM76.12813 238.00139Q76.12813 236.22014 76.4875 235.14201Q76.8625 234.04826 77.58125 233.47014Q78.3 232.87639 79.39375 232.87639Q80.20625 232.87639 80.81563 233.20451Q81.425 233.53264 81.81563 234.14201Q82.22188 234.75139 82.44063 235.62639Q82.65938 236.50139 82.65938 238.00139Q82.65938 239.76701 82.3 240.84514Q81.94063 241.92326 81.22188 242.51701Q80.50313 243.11076 79.39375 243.11076Q77.95625 243.11076 77.12813 242.06389Q76.12813 240.81389 76.12813 238.00139ZM77.39375 238.00139Q77.39375 240.47014 77.97188 241.28264Q78.55 242.09514 79.39375 242.09514Q80.25313 242.09514 80.83125 241.28264Q81.40938 240.45451 81.40938 238.00139Q81.40938 235.51701 80.83125 234.70451Q80.25313 233.89201 79.37813 233.89201Q78.53438 233.89201 78.03438 234.61076Q77.39375 235.53264 77.39375 238.00139ZM84.12813 238.00139Q84.12813 236.22014 84.4875 235.14201Q84.8625 234.04826 85.58125 233.47014Q86.3 232.87639 87.39375 232.87639Q88.20625 232.87639 88.81563 233.20451Q89.425 233.53264 89.81563 234.14201Q90.22188 234.75139 90.44063 235.62639Q90.65938 236.50139 90.65938 238.00139Q90.65938 239.76701 90.3 240.84514Q89.94063 241.92326 89.22188 242.51701Q88.50313 243.11076 87.39375 243.11076Q85.95625 243.11076 85.12813 242.06389Q84.12813 240.81389 84.12813 238.00139ZM85.39375 238.00139Q85.39375 240.47014 85.97188 241.28264Q86.55 242.09514 87.39375 242.09514Q88.25313 242.09514 88.83125 241.28264Q89.40938 240.45451 89.40938 238.00139Q89.40938 235.51701 88.83125 234.70451Q88.25313 233.89201 87.37813 233.89201Q86.53438 233.89201 86.03438 234.61076Q85.39375 235.53264 85.39375 238.00139Z" fill-rule="nonzero"/><path fill="#000000" d="M60.08125 151.42778L60.08125 149.02153L55.721874 149.02153L55.721874 147.89653L60.3 141.41216L61.3 141.41216L61.3 147.89653L62.659374 147.89653L62.659374 149.02153L61.3 149.02153L61.3 151.42778L60.08125 151.42778ZM60.08125 147.89653L60.08125 143.3809L56.940624 147.89653L60.08125 147.89653ZM64.12813 146.49028Q64.12813 144.70903 64.4875 143.6309Q64.8625 142.53716 65.58125 141.95903Q66.3 141.36528 67.39375 141.36528Q68.20625 141.36528 68.81563 141.6934Q69.425 142.02153 69.81563 142.6309Q70.22188 143.24028 70.44063 144.11528Q70.65938 144.99028 70.65938 146.49028Q70.65938 148.2559 70.3 149.33403Q69.94063 150.41216 69.22188 151.0059Q68.50313 151.59966 67.39375 151.59966Q65.95625 151.59966 65.12813 150.55278Q64.12813 149.30278 64.12813 146.49028ZM65.39375 146.49028Q65.39375 148.95903 65.97188 149.77153Q66.55 150.58403 67.39375 150.58403Q68.25313 150.58403 68.83125 149.77153Q69.40938 148.9434 69.40938 146.49028Q69.40938 144.0059 68.83125 143.1934Q68.25313 142.3809 67.37813 142.3809Q66.53438 142.3809 66.03438 143.09966Q65.39375 144.02153 65.39375 146.49028ZM72.81563 151.42778L72.81563 150.02153L74.22188 150.02153L74.22188 151.42778L72.81563 151.42778ZM76.12813 146.49028Q76.12813 144.70903 76.4875 143.6309Q76.8625 142.53716 77.58125 141.95903Q78.3 141.36528 79.39375 141.36528Q80.20625 141.36528 80.81563 141.6934Q81.425 142.02153 81.81563 142.6309Q82.22188 143.24028 82.44063 144.11528Q82.65938 144.99028 82.65938 146.49028Q82.65938 148.2559 82.3 149.33403Q81.94063 150.41216 81.22188 151.0059Q80.50313 151.59966 79.39375 151.59966Q77.95625 151.59966 77.12813 150.55278Q76.12813 149.30278 76.12813 146.49028ZM77.39375 146.49028Q77.39375 148.95903 77.97188 149.77153Q78.55 150.58403 79.39375 150.58403Q80.25313 150.58403 80.83125 149.77153Q81.40938 148.9434 81.40938 146.49028Q81.40938 144.0059 80.83125 143.1934Q80.25313 142.3809 79.37813 142.3809Q78.53438 142.3809 78.03438 143.09966Q77.39375 144.02153 77.39375 146.49028ZM84.12813 146.49028Q84.12813 144.70903 84.4875 143.6309Q84.8625 142.53716 85.58125 141.95903Q86.3 141.36528 87.39375 141.36528Q88.20625 141.36528 88.81563 141.6934Q89.425 142.02153 89.81563 142.6309Q90.22188 143.24028 90.44063 144.11528Q90.65938 144.99028 90.65938 146.49028Q90.65938 148.2559 90.3 149.33403Q89.94063 150.41216 89.22188 151.0059Q88.50313 151.59966 87.39375 151.59966Q85.95625 151.59966 85.12813 150.55278Q84.12813 149.30278 84.12813 146.49028ZM85.39375 146.49028Q85.39375 148.95903 85.97188 149.77153Q86.55 150.58403 87.39375 150.58403Q88.25313 150.58403 88.83125 149.77153Q89.40938 148.9434 89.40938 146.49028Q89.40938 144.0059 88.83125 143.1934Q88.25313 142.3809 87.37813 142.3809Q86.53438 142.3809 86.03438 143.09966Q85.39375 144.02153 85.39375 146.49028Z" fill-rule="nonzero"/><path fill="#000000" d="M62.51875 52.354168L61.3 52.447918Q61.128124 51.713543 60.83125 51.385418Q60.33125 50.869793 59.596874 50.869793Q59.003124 50.869793 58.565624 51.197918Q57.9875 51.619793 57.64375 52.432293Q57.315624 53.244793 57.3 54.744793Q57.7375 54.072918 58.378124 53.744793Q59.034374 53.416668 59.7375 53.416668Q60.971874 53.416668 61.83125 54.322918Q62.690624 55.229168 62.690624 56.666668Q62.690624 57.604168 62.284374 58.416668Q61.878124 59.229168 61.159374 59.666668Q60.45625 60.088543 59.55 60.088543Q58.01875 60.088543 57.05 58.963543Q56.08125 57.822918 56.08125 55.229168Q56.08125 52.322918 57.14375 50.994793Q58.08125 49.854168 59.675 49.854168Q60.8625 49.854168 61.6125 50.526043Q62.3625 51.182293 62.51875 52.354168ZM57.4875 56.666668Q57.4875 57.307293 57.753124 57.885418Q58.034374 58.463543 58.51875 58.776043Q59.003124 59.072918 59.534374 59.072918Q60.315624 59.072918 60.878124 58.447918Q61.440624 57.822918 61.440624 56.744793Q61.440624 55.697918 60.878124 55.104168Q60.33125 54.494793 59.4875 54.494793Q58.659374 54.494793 58.065624 55.104168Q57.4875 55.697918 57.4875 56.666668ZM64.12813 54.979168Q64.12813 53.197918 64.4875 52.119793Q64.8625 51.026043 65.58125 50.447918Q66.3 49.854168 67.39375 49.854168Q68.20625 49.854168 68.81563 50.182293Q69.425 50.510418 69.81563 51.119793Q70.22188 51.729168 70.44063 52.604168Q70.65938 53.479168 70.65938 54.979168Q70.65938 56.744793 70.3 57.822918Q69.94063 58.901043 69.22188 59.494793Q68.50313 60.088543 67.39375 60.088543Q65.95625 60.088543 65.12813 59.041668Q64.12813 57.791668 64.12813 54.979168ZM65.39375 54.979168Q65.39375 57.447918 65.97188 58.260418Q66.55 59.072918 67.39375 59.072918Q68.25313 59.072918 68.83125 58.260418Q69.40938 57.432293 69.40938 54.979168Q69.40938 52.494793 68.83125 51.682293Q68.25313 50.869793 67.37813 50.869793Q66.53438 50.869793 66.03438 51.588543Q65.39375 52.510418 65.39375 54.979168ZM72.81563 59.916668L72.81563 58.510418L74.22188 58.510418L74.22188 59.916668L72.81563 59.916668ZM76.12813 54.979168Q76.12813 53.197918 76.4875 52.119793Q76.8625 51.026043 77.58125 50.447918Q78.3 49.854168 79.39375 49.854168Q80.20625 49.854168 80.81563 50.182293Q81.425 50.510418 81.81563 51.119793Q82.22188 51.729168 82.44063 52.604168Q82.65938 53.479168 82.65938 54.979168Q82.65938 56.744793 82.3 57.822918Q81.94063 58.901043 81.22188 59.494793Q80.50313 60.088543 79.39375 60.088543Q77.95625 60.088543 77.12813 59.041668Q76.12813 57.791668 76.12813 54.979168ZM77.39375 54.979168Q77.39375 57.447918 77.97188 58.260418Q78.55 59.072918 79.39375 59.072918Q80.25313 59.072918 80.83125 58.260418Q81.40938 57.432293 81.40938 54.979168Q81.40938 52.494793 80.83125 51.682293Q80.25313 50.869793 79.37813 50.869793Q78.53438 50.869793 78.03438 51.588543Q77.39375 52.510418 77.39375 54.979168ZM84.12813 54.979168Q84.12813 53.197918 84.4875 52.119793Q84.8625 51.026043 85.58125 50.447918Q86.3 49.854168 87.39375 49.854168Q88.20625 49.854168 88.81563 50.182293Q89.425 50.510418 89.81563 51.119793Q90.22188 51.729168 90.44063 52.604168Q90.65938 53.479168 90.65938 54.979168Q90.65938 56.744793 90.3 57.822918Q89.94063 58.901043 89.22188 59.494793Q88.50313 60.088543 87.39375 60.088543Q85.95625 60.088543 85.12813 59.041668Q84.12813 57.791668 84.12813 54.979168ZM85.39375 54.979168Q85.39375 57.447918 85.97188 58.260418Q86.55 59.072918 87.39375 59.072918Q88.25313 59.072918 88.83125 58.260418Q89.40938 57.432293 89.40938 54.979168Q89.40938 52.494793 88.83125 51.682293Q88.25313 50.869793 87.37813 50.869793Q86.53438 50.869793 86.03438 51.588543Q85.39375 52.510418 85.39375 54.979168Z" fill-rule="nonzero"/><path fill="#000000" d="M130.65347 345.5125L130.65347 344.34064L134.90347 344.34064L134.90347 348.0594Q133.9191 348.84064 132.87222 349.23126Q131.84097 349.6219 130.74722 349.6219Q129.27847 349.6219 128.05972 348.9969Q126.8566 348.35626 126.24722 347.16876Q125.63785 345.96564 125.63785 344.48126Q125.63785 343.02814 126.24722 341.7625Q126.8566 340.48126 127.99722 339.8719Q129.15347 339.2625 130.65347 339.2625Q131.7316 339.2625 132.6066 339.6219Q133.49722 339.96564 133.99722 340.59064Q134.49722 341.21564 134.74722 342.23126L133.55972 342.5594Q133.32535 341.79376 132.9816 341.35626Q132.65347 340.91876 132.02847 340.65314Q131.4191 340.3875 130.65347 340.3875Q129.74722 340.3875 129.07535 340.66876Q128.4191 340.95 128.01285 341.40314Q127.6066 341.84064 127.38785 342.3875Q126.99722 343.325 126.99722 344.40314Q126.99722 345.7469 127.45035 346.65314Q127.9191 347.54376 128.7941 347.98126Q129.68472 348.41876 130.68472 348.41876Q131.5441 348.41876 132.3566 348.09064Q133.18472 347.7625 133.6066 347.3875L133.6066 345.5125L130.65347 345.5125ZM136.51285 346.23126L137.76285 346.1219Q137.8566 346.8719 138.18472 347.35626Q138.51285 347.84064 139.18472 348.1375Q139.87222 348.4344 140.7316 348.4344Q141.4816 348.4344 142.05972 348.21564Q142.65347 347.98126 142.93472 347.59064Q143.21597 347.2 143.21597 346.73126Q143.21597 346.2625 142.93472 345.91876Q142.6691 345.5594 142.0441 345.3094Q141.63785 345.15314 140.24722 344.825Q138.87222 344.4969 138.32535 344.2Q137.6066 343.825 137.24722 343.27814Q136.90347 342.71564 136.90347 342.0125Q136.90347 341.2625 137.32535 340.60626Q137.76285 339.9344 138.59097 339.60626Q139.4191 339.2625 140.43472 339.2625Q141.5441 339.2625 142.38785 339.6219Q143.24722 339.98126 143.70035 340.6844Q144.15347 341.3719 144.20035 342.2469L142.9191 342.34064Q142.82535 341.40314 142.2316 340.91876Q141.63785 340.41876 140.4816 340.41876Q139.27847 340.41876 138.7316 340.8719Q138.18472 341.3094 138.18472 341.9344Q138.18472 342.46564 138.57535 342.825Q138.95035 343.16876 140.55972 343.54376Q142.18472 343.90314 142.77847 344.16876Q143.65347 344.575 144.07535 345.2Q144.49722 345.8094 144.49722 346.6219Q144.49722 347.41876 144.02847 348.1375Q143.57535 348.84064 142.71597 349.23126Q141.8566 349.6219 140.7941 349.6219Q139.43472 349.6219 138.51285 349.23126Q137.59097 348.825 137.05972 348.02814Q136.5441 347.23126 136.51285 346.23126ZM145.93472 349.45L145.93472 339.4344L147.9191 339.4344L150.2941 346.52814Q150.62222 347.5125 150.77847 348.0125Q150.95035 347.46564 151.30972 346.40314L153.70035 339.4344L155.49722 339.4344L155.49722 349.45L154.21597 349.45L154.21597 341.0594L151.2941 349.45L150.1066 349.45L147.20035 340.91876L147.20035 349.45L145.93472 349.45ZM158.3566 344.0125Q157.59097 343.73126 157.21597 343.21564Q156.8566 342.7 156.8566 341.96564Q156.8566 340.8719 157.63785 340.1375Q158.43472 339.3875 159.7316 339.3875Q161.0441 339.3875 161.84097 340.15314Q162.65347 340.91876 162.65347 342.0125Q162.65347 342.7 162.27847 343.21564Q161.9191 343.73126 161.1691 344.0125Q162.09097 344.3094 162.57535 344.98126Q163.05972 345.65314 163.05972 346.59064Q163.05972 347.8719 162.15347 348.7469Q161.24722 349.6219 159.76285 349.6219Q158.27847 349.6219 157.3566 348.7469Q156.45035 347.85626 156.45035 346.54376Q156.45035 345.575 156.95035 344.91876Q157.45035 344.2469 158.3566 344.0125ZM158.12222 341.9344Q158.12222 342.6375 158.57535 343.09064Q159.02847 343.54376 159.76285 343.54376Q160.4816 343.54376 160.93472 343.10626Q161.38785 342.65314 161.38785 341.9969Q161.38785 341.325 160.9191 340.8719Q160.45035 340.40314 159.74722 340.40314Q159.0441 340.40314 158.57535 340.85626Q158.12222 341.29376 158.12222 341.9344ZM157.71597 346.5594Q157.71597 347.09064 157.96597 347.59064Q158.21597 348.075 158.70035 348.34064Q159.20035 348.60626 159.77847 348.60626Q160.65347 348.60626 161.21597 348.04376Q161.7941 347.48126 161.7941 346.60626Q161.7941 345.71564 161.20035 345.1375Q160.62222 344.54376 159.7316 344.54376Q158.8566 344.54376 158.27847 345.1219Q157.71597 345.7 157.71597 346.5594ZM164.9191 349.45L164.9191 339.4344L166.24722 339.4344L166.24722 344.40314L171.21597 339.4344L173.01285 339.4344L168.80972 343.48126L173.20035 349.45L171.45035 349.45L167.88785 344.3719L166.24722 345.98126L166.24722 349.45L164.9191 349.45ZM177.84097 352.23126L177.84097 339.4344L180.55972 339.4344L180.55972 340.45L179.07535 340.45L179.07535 351.21564L180.55972 351.21564L180.55972 352.23126L177.84097 352.23126ZM181.80972 349.45L181.80972 342.1844L182.9191 342.1844L182.9191 343.21564Q183.24722 342.66876 183.80972 342.35626Q184.38785 342.02814 185.1066 342.02814Q185.9191 342.02814 186.43472 342.3719Q186.95035 342.7 187.1691 343.29376Q188.02847 342.02814 189.40347 342.02814Q190.4816 342.02814 191.05972 342.6219Q191.65347 343.21564 191.65347 344.46564L191.65347 349.45L190.4191 349.45L190.4191 344.8719Q190.4191 344.1375 190.2941 343.8094Q190.18472 343.48126 189.87222 343.29376Q189.55972 343.09064 189.13785 343.09064Q188.37222 343.09064 187.8566 343.60626Q187.3566 344.10626 187.3566 345.23126L187.3566 349.45L186.12222 349.45L186.12222 344.73126Q186.12222 343.91876 185.82535 343.5125Q185.52847 343.09064 184.84097 343.09064Q184.32535 343.09064 183.87222 343.3719Q183.43472 343.6375 183.2316 344.16876Q183.0441 344.6844 183.0441 345.6844L183.0441 349.45L181.80972 349.45ZM197.5441 348.5594Q196.87222 349.1375 196.2316 349.3875Q195.6066 349.6219 194.87222 349.6219Q193.68472 349.6219 193.02847 349.04376Q192.38785 348.45 192.38785 347.52814Q192.38785 346.9969 192.62222 346.5594Q192.87222 346.1219 193.26285 345.85626Q193.6691 345.59064 194.15347 345.45Q194.51285 345.35626 195.24722 345.2625Q196.74722 345.09064 197.45035 344.84064Q197.45035 344.59064 197.45035 344.52814Q197.45035 343.7625 197.1066 343.46564Q196.63785 343.04376 195.70035 343.04376Q194.84097 343.04376 194.4191 343.35626Q194.01285 343.65314 193.80972 344.41876L192.6066 344.2625Q192.76285 343.48126 193.13785 343.0125Q193.52847 342.54376 194.2316 342.29376Q194.95035 342.02814 195.88785 342.02814Q196.80972 342.02814 197.38785 342.2469Q197.96597 342.46564 198.2316 342.79376Q198.51285 343.1219 198.62222 343.6375Q198.68472 343.95 198.68472 344.7625L198.68472 346.40314Q198.68472 348.1219 198.76285 348.575Q198.84097 349.02814 199.07535 349.45L197.7941 349.45Q197.6066 349.0594 197.5441 348.5594ZM197.45035 345.8094Q196.77847 346.075 195.43472 346.27814Q194.68472 346.3875 194.3566 346.52814Q194.0441 346.65314 193.87222 346.91876Q193.70035 347.1844 193.70035 347.4969Q193.70035 347.9969 194.07535 348.325Q194.45035 348.65314 195.1691 348.65314Q195.88785 348.65314 196.43472 348.34064Q196.9816 348.02814 197.24722 347.48126Q197.45035 347.075 197.45035 346.2625L197.45035 345.8094ZM200.80972 340.85626L200.80972 339.4344L202.02847 339.4344L202.02847 340.85626L200.80972 340.85626ZM199.24722 352.2625L199.4816 351.21564Q199.84097 351.3094 200.05972 351.3094Q200.43472 351.3094 200.62222 351.0594Q200.80972 350.825 200.80972 349.825L200.80972 342.1844L202.02847 342.1844L202.02847 349.84064Q202.02847 351.1844 201.68472 351.71564Q201.24722 352.40314 200.21597 352.40314Q199.71597 352.40314 199.24722 352.2625ZM210.82535 348.34064Q210.38785 348.84064 209.82535 349.15314Q209.27847 349.46564 208.7316 349.46564Q208.12222 349.46564 207.5441 349.1219Q206.96597 348.7625 206.6066 348.02814Q206.24722 347.27814 206.24722 346.40314Q206.24722 345.3094 206.80972 344.23126Q207.37222 343.1375 208.18472 342.59064Q209.01285 342.04376 209.7941 342.04376Q210.38785 342.04376 210.93472 342.35626Q211.4816 342.66876 211.8566 343.29376L212.09097 342.23126L213.32535 342.23126L212.34097 346.825Q212.13785 347.77814 212.13785 347.8875Q212.13785 348.075 212.26285 348.21564Q212.40347 348.34064 212.6066 348.34064Q212.96597 348.34064 213.55972 347.91876Q214.34097 347.3719 214.7941 346.45Q215.24722 345.52814 215.24722 344.5594Q215.24722 343.41876 214.65347 342.4344Q214.07535 341.4344 212.9191 340.84064Q211.76285 340.2469 210.3566 340.2469Q208.76285 340.2469 207.43472 340.9969Q206.12222 341.73126 205.38785 343.1375Q204.65347 344.52814 204.65347 346.1375Q204.65347 347.8094 205.38785 349.02814Q206.12222 350.23126 207.49722 350.8094Q208.87222 351.3875 210.5441 351.3875Q212.34097 351.3875 213.5441 350.77814Q214.76285 350.1844 215.3566 349.325L216.59097 349.325Q216.24722 350.04376 215.38785 350.77814Q214.5441 351.52814 213.37222 351.96564Q212.21597 352.40314 210.55972 352.40314Q209.0441 352.40314 207.76285 352.0125Q206.4816 351.6219 205.57535 350.84064Q204.68472 350.0594 204.21597 349.02814Q203.65347 347.7469 203.65347 346.2469Q203.65347 344.575 204.32535 343.0594Q205.1691 341.21564 206.70035 340.23126Q208.2316 339.2469 210.4191 339.2469Q212.12222 339.2469 213.46597 339.95Q214.80972 340.6375 215.59097 342.0125Q216.26285 343.1844 216.26285 344.575Q216.26285 346.5594 214.87222 348.09064Q213.62222 349.48126 212.13785 349.48126Q211.6691 349.48126 211.37222 349.34064Q211.09097 349.1844 210.95035 348.91876Q210.87222 348.7469 210.82535 348.34064ZM207.51285 346.48126Q207.51285 347.41876 207.95035 347.95Q208.40347 348.46564 208.9816 348.46564Q209.3566 348.46564 209.77847 348.23126Q210.21597 347.9969 210.59097 347.54376Q210.9816 347.09064 211.2316 346.40314Q211.4816 345.71564 211.4816 345.0125Q211.4816 344.09064 211.01285 343.575Q210.5441 343.0594 209.88785 343.0594Q209.45035 343.0594 209.05972 343.27814Q208.68472 343.4969 208.30972 343.9969Q207.95035 344.48126 207.7316 345.1844Q207.51285 345.8875 207.51285 346.48126ZM219.3566 344.0125Q218.59097 343.73126 218.21597 343.21564Q217.8566 342.7 217.8566 341.96564Q217.8566 340.8719 218.63785 340.1375Q219.43472 339.3875 220.7316 339.3875Q222.0441 339.3875 222.84097 340.15314Q223.65347 340.91876 223.65347 342.0125Q223.65347 342.7 223.27847 343.21564Q222.9191 343.73126 222.1691 344.0125Q223.09097 344.3094 223.57535 344.98126Q224.05972 345.65314 224.05972 346.59064Q224.05972 347.8719 223.15347 348.7469Q222.24722 349.6219 220.76285 349.6219Q219.27847 349.6219 218.3566 348.7469Q217.45035 347.85626 217.45035 346.54376Q217.45035 345.575 217.95035 344.91876Q218.45035 344.2469 219.3566 344.0125ZM219.12222 341.9344Q219.12222 342.6375 219.57535 343.09064Q220.02847 343.54376 220.76285 343.54376Q221.4816 343.54376 221.93472 343.10626Q222.38785 342.65314 222.38785 341.9969Q222.38785 341.325 221.9191 340.8719Q221.45035 340.40314 220.74722 340.40314Q220.0441 340.40314 219.57535 340.85626Q219.12222 341.29376 219.12222 341.9344ZM218.71597 346.5594Q218.71597 347.09064 218.96597 347.59064Q219.21597 348.075 219.70035 348.34064Q220.20035 348.60626 220.77847 348.60626Q221.65347 348.60626 222.21597 348.04376Q222.7941 347.48126 222.7941 346.60626Q222.7941 345.71564 222.20035 345.1375Q221.62222 344.54376 220.7316 344.54376Q219.8566 344.54376 219.27847 345.1219Q218.71597 345.7 218.71597 346.5594ZM227.87222 352.23126L225.15347 352.23126L225.15347 351.21564L226.63785 351.21564L226.63785 340.45L225.15347 340.45L225.15347 339.4344L227.87222 339.4344L227.87222 352.23126Z" fill-rule="nonzero"/><path fill="#000000" d="M274.9908 349.45L274.9908 339.4344L276.9752 339.4344L279.3502 346.52814Q279.6783 347.5125 279.83456 348.0125Q280.00644 347.46564 280.3658 346.40314L282.75644 339.4344L284.5533 339.4344L284.5533 349.45L283.27206 349.45L283.27206 341.0594L280.3502 349.45L279.1627 349.45L276.25644 340.91876L276.25644 349.45L274.9908 349.45ZM284.9283 349.45L288.77206 339.4344L290.19394 339.4344L294.3033 349.45L292.7877 349.45L291.6158 346.41876L287.4283 346.41876L286.33456 349.45L284.9283 349.45ZM287.81894 345.34064L291.20956 345.34064L290.1627 342.5594Q289.69394 341.29376 289.45956 340.48126Q289.27206 341.45 288.9127 342.3875L287.81894 345.34064ZM297.56894 349.45L297.56894 340.60626L294.27206 340.60626L294.27206 339.4344L302.20956 339.4344L302.20956 340.60626L298.89706 340.60626L298.89706 349.45L297.56894 349.45ZM304.06894 349.45L304.06894 339.4344L305.39706 339.4344L305.39706 343.54376L310.6002 343.54376L310.6002 339.4344L311.9283 339.4344L311.9283 349.45L310.6002 349.45L310.6002 344.73126L305.39706 344.73126L305.39706 349.45L304.06894 349.45Z" fill-rule="nonzero"/><path fill="#000000" d="M390.54688 349.45L390.54688 339.4344L392.53125 339.4344L394.90625 346.52814Q395.23438 347.5125 395.39062 348.0125Q395.5625 347.46564 395.92188 346.40314L398.3125 339.4344L400.10938 339.4344L400.10938 349.45L398.82812 349.45L398.82812 341.0594L395.90625 349.45L394.71875 349.45L391.8125 340.91876L391.8125 349.45L390.54688 349.45ZM401.54688 349.45L401.54688 339.4344L403.53125 339.4344L405.90625 346.52814Q406.23438 347.5125 406.39062 348.0125Q406.5625 347.46564 406.92188 346.40314L409.3125 339.4344L411.10938 339.4344L411.10938 349.45L409.82812 349.45L409.82812 341.0594L406.90625 349.45L405.71875 349.45L402.8125 340.91876L402.8125 349.45L401.54688 349.45ZM412.53125 349.45L412.53125 339.4344L413.85938 339.4344L413.85938 348.2625L418.78125 348.2625L418.78125 349.45L412.53125 349.45ZM427.15625 339.4344L428.48438 339.4344L428.48438 345.21564Q428.48438 346.73126 428.14062 347.6219Q427.79688 348.5125 426.90625 349.075Q426.01562 349.6219 424.5625 349.6219Q423.15625 349.6219 422.25 349.1375Q421.35938 348.65314 420.96875 347.73126Q420.59375 346.8094 420.59375 345.21564L420.59375 339.4344L421.92188 339.4344L421.92188 345.21564Q421.92188 346.5125 422.15625 347.1375Q422.40625 347.7469 423.0 348.09064Q423.59375 348.41876 424.45312 348.41876Q425.90625 348.41876 426.53125 347.7625Q427.15625 347.09064 427.15625 345.21564L427.15625 339.4344Z" fill-rule="nonzero"/><path fill="#000000" d="M485.10294 349.45L485.10294 339.4344L487.0873 339.4344L489.4623 346.52814Q489.79044 347.5125 489.9467 348.0125Q490.11856 347.46564 490.47794 346.40314L492.86856 339.4344L494.66544 339.4344L494.66544 349.45L493.3842 349.45L493.3842 341.0594L490.4623 349.45L489.2748 349.45L486.36856 340.91876L486.36856 349.45L485.10294 349.45ZM496.10294 349.45L496.10294 339.4344L498.0873 339.4344L500.4623 346.52814Q500.79044 347.5125 500.9467 348.0125Q501.11856 347.46564 501.47794 346.40314L503.86856 339.4344L505.66544 339.4344L505.66544 349.45L504.3842 349.45L504.3842 341.0594L501.4623 349.45L500.2748 349.45L497.36856 340.91876L497.36856 349.45L496.10294 349.45ZM507.0873 349.45L507.0873 339.4344L508.41544 339.4344L508.41544 348.2625L513.3373 348.2625L513.3373 349.45L507.0873 349.45ZM521.7123 339.4344L523.0404 339.4344L523.0404 345.21564Q523.0404 346.73126 522.69666 347.6219Q522.3529 348.5125 521.4623 349.075Q520.57166 349.6219 519.1185 349.6219Q517.7123 349.6219 516.806 349.1375Q515.9154 348.65314 515.5248 347.73126Q515.1498 346.8094 515.1498 345.21564L515.1498 339.4344L516.4779 339.4344L516.4779 345.21564Q516.4779 346.5125 516.7123 347.1375Q516.9623 347.7469 517.556 348.09064Q518.1498 348.41876 519.00916 348.41876Q520.4623 348.41876 521.0873 347.7625Q521.7123 347.09064 521.7123 345.21564L521.7123 339.4344ZM523.4935 346.4344L523.4935 345.2L527.2748 345.2L527.2748 346.4344L523.4935 346.4344ZM528.681 346.23126L529.931 346.1219Q530.0248 346.8719 530.3529 347.35626Q530.681 347.84064 531.3529 348.1375Q532.0404 348.4344 532.8998 348.4344Q533.6498 348.4344 534.2279 348.21564Q534.82166 347.98126 535.1029 347.59064Q535.38416 347.2 535.38416 346.73126Q535.38416 346.2625 535.1029 345.91876Q534.8373 345.5594 534.2123 345.3094Q533.806 345.15314 532.4154 344.825Q531.0404 344.4969 530.4935 344.2Q529.7748 343.825 529.4154 343.27814Q529.07166 342.71564 529.07166 342.0125Q529.07166 341.2625 529.4935 340.60626Q529.931 339.9344 530.75916 339.60626Q531.5873 339.2625 532.6029 339.2625Q533.7123 339.2625 534.556 339.6219Q535.4154 339.98126 535.8685 340.6844Q536.32166 341.3719 536.3685 342.2469L535.0873 342.34064Q534.9935 341.40314 534.3998 340.91876Q533.806 340.41876 532.6498 340.41876Q531.44666 340.41876 530.8998 340.8719Q530.3529 341.3094 530.3529 341.9344Q530.3529 342.46564 530.7435 342.825Q531.1185 343.16876 532.7279 343.54376Q534.3529 343.90314 534.94666 344.16876Q535.82166 344.575 536.2435 345.2Q536.6654 345.8094 536.6654 346.6219Q536.6654 347.41876 536.19666 348.1375Q535.7435 348.84064 534.88416 349.23126Q534.0248 349.6219 532.9623 349.6219Q531.6029 349.6219 530.681 349.23126Q529.75916 348.825 529.2279 348.02814Q528.7123 347.23126 528.681 346.23126ZM540.681 349.45L540.681 340.60626L537.38416 340.60626L537.38416 339.4344L545.32166 339.4344L545.32166 340.60626L542.00916 340.60626L542.00916 349.45L540.681 349.45ZM547.1654 349.45L547.1654 339.4344L554.4154 339.4344L554.4154 340.60626L548.4935 340.60626L548.4935 343.6844L554.0404 343.6844L554.0404 344.85626L548.4935 344.85626L548.4935 348.2625L554.6498 348.2625L554.6498 349.45L547.1654 349.45ZM556.1029 349.45L556.1029 339.4344L558.0873 339.4344L560.4623 346.52814Q560.7904 347.5125 560.94666 348.0125Q561.1185 347.46564 561.4779 346.40314L563.8685 339.4344L565.6654 339.4344L565.6654 349.45L564.38416 349.45L564.38416 341.0594L561.4623 349.45L560.2748 349.45L557.3685 340.91876L557.3685 349.45L556.1029 349.45Z" fill-rule="nonzero"/><path fill="#000000" d="M585.37775 345.5125L585.37775 344.34064L589.62775 344.34064L589.62775 348.0594Q588.6434 348.84064 587.5965 349.23126Q586.56525 349.6219 585.4715 349.6219Q584.00275 349.6219 582.784 348.9969Q581.5809 348.35626 580.9715 347.16876Q580.3621 345.96564 580.3621 344.48126Q580.3621 343.02814 580.9715 341.7625Q581.5809 340.48126 582.7215 339.8719Q583.87775 339.2625 585.37775 339.2625Q586.4559 339.2625 587.3309 339.6219Q588.2215 339.96564 588.7215 340.59064Q589.2215 341.21564 589.4715 342.23126L588.284 342.5594Q588.0496 341.79376 587.7059 341.35626Q587.37775 340.91876 586.75275 340.65314Q586.1434 340.3875 585.37775 340.3875Q584.4715 340.3875 583.7996 340.66876Q583.1434 340.95 582.7371 341.40314Q582.3309 341.84064 582.1121 342.3875Q581.7215 343.325 581.7215 344.40314Q581.7215 345.7469 582.1746 346.65314Q582.6434 347.54376 583.5184 347.98126Q584.409 348.41876 585.409 348.41876Q586.2684 348.41876 587.0809 348.09064Q587.909 347.7625 588.3309 347.3875L588.3309 345.5125L585.37775 345.5125ZM596.50275 347.10626L597.784 347.2625Q597.4715 348.3875 596.659 349.0125Q595.8465 349.6219 594.5809 349.6219Q592.9871 349.6219 592.0496 348.6375Q591.12775 347.65314 591.12775 345.8875Q591.12775 344.04376 592.06525 343.04376Q593.0184 342.02814 594.5184 342.02814Q595.9715 342.02814 596.8934 343.02814Q597.81525 344.0125 597.81525 345.8094Q597.81525 345.91876 597.81525 346.1375L592.3934 346.1375Q592.4715 347.325 593.06525 347.96564Q593.6746 348.60626 594.5965 348.60626Q595.2684 348.60626 595.7371 348.2469Q596.2215 347.8875 596.50275 347.10626ZM592.4715 345.1219L596.5184 345.1219Q596.44025 344.2 596.0496 343.7469Q595.4715 343.04376 594.534 343.04376Q593.6746 343.04376 593.0965 343.60626Q592.534 344.16876 592.4715 345.1219ZM599.534 349.45L599.534 342.1844L600.6434 342.1844L600.6434 343.21564Q601.44025 342.02814 602.9559 342.02814Q603.6121 342.02814 604.159 342.2625Q604.7059 342.4969 604.9715 342.8875Q605.25275 343.2625 605.3621 343.79376Q605.44025 344.1375 605.44025 344.98126L605.44025 349.45L604.2059 349.45L604.2059 345.02814Q604.2059 344.27814 604.06525 343.91876Q603.9246 343.54376 603.5496 343.325Q603.19025 343.09064 602.69025 343.09064Q601.909 343.09064 601.3309 343.59064Q600.7684 344.09064 600.7684 345.48126L600.7684 349.45L599.534 349.45ZM612.50275 347.10626L613.784 347.2625Q613.4715 348.3875 612.659 349.0125Q611.8465 349.6219 610.5809 349.6219Q608.9871 349.6219 608.0496 348.6375Q607.12775 347.65314 607.12775 345.8875Q607.12775 344.04376 608.06525 343.04376Q609.0184 342.02814 610.5184 342.02814Q611.9715 342.02814 612.8934 343.02814Q613.81525 344.0125 613.81525 345.8094Q613.81525 345.91876 613.81525 346.1375L608.3934 346.1375Q608.4715 347.325 609.06525 347.96564Q609.6746 348.60626 610.5965 348.60626Q611.2684 348.60626 611.7371 348.2469Q612.2215 347.8875 612.50275 347.10626ZM608.4715 345.1219L612.5184 345.1219Q612.44025 344.2 612.0496 343.7469Q611.4715 343.04376 610.534 343.04376Q609.6746 343.04376 609.0965 343.60626Q608.534 344.16876 608.4715 345.1219ZM615.5184 349.45L615.5184 342.1844L616.62775 342.1844L616.62775 343.29376Q617.0496 342.5125 617.409 342.27814Q617.7684 342.02814 618.2059 342.02814Q618.8309 342.02814 619.4715 342.41876L619.0496 343.5594Q618.5965 343.29376 618.1434 343.29376Q617.7371 343.29376 617.409 343.54376Q617.0965 343.77814 616.9559 344.21564Q616.75275 344.8719 616.75275 345.65314L616.75275 349.45L615.5184 349.45ZM625.2684 348.5594Q624.5965 349.1375 623.9559 349.3875Q623.3309 349.6219 622.5965 349.6219Q621.409 349.6219 620.75275 349.04376Q620.1121 348.45 620.1121 347.52814Q620.1121 346.9969 620.3465 346.5594Q620.5965 346.1219 620.9871 345.85626Q621.3934 345.59064 621.87775 345.45Q622.2371 345.35626 622.9715 345.2625Q624.4715 345.09064 625.1746 344.84064Q625.1746 344.59064 625.1746 344.52814Q625.1746 343.7625 624.8309 343.46564Q624.3621 343.04376 623.4246 343.04376Q622.56525 343.04376 622.1434 343.35626Q621.7371 343.65314 621.534 344.41876L620.3309 344.2625Q620.4871 343.48126 620.8621 343.0125Q621.25275 342.54376 621.9559 342.29376Q622.6746 342.02814 623.6121 342.02814Q624.534 342.02814 625.1121 342.2469Q625.69025 342.46564 625.9559 342.79376Q626.2371 343.1219 626.3465 343.6375Q626.409 343.95 626.409 344.7625L626.409 346.40314Q626.409 348.1219 626.4871 348.575Q626.56525 349.02814 626.7996 349.45L625.5184 349.45Q625.3309 349.0594 625.2684 348.5594ZM625.1746 345.8094Q624.50275 346.075 623.159 346.27814Q622.409 346.3875 622.0809 346.52814Q621.7684 346.65314 621.5965 346.91876Q621.4246 347.1844 621.4246 347.4969Q621.4246 347.9969 621.7996 348.325Q622.1746 348.65314 622.8934 348.65314Q623.6121 348.65314 624.159 348.34064Q624.7059 348.02814 624.9715 347.48126Q625.1746 347.075 625.1746 346.2625L625.1746 345.8094ZM628.50275 349.45L628.50275 339.4344L629.7371 339.4344L629.7371 349.45L628.50275 349.45ZM635.7059 349.45L635.7059 339.4344L640.159 339.4344Q641.50275 339.4344 642.19025 339.7Q642.8934 339.96564 643.2996 340.65314Q643.7215 341.34064 643.7215 342.16876Q643.7215 343.23126 643.034 343.96564Q642.3465 344.6844 640.909 344.8875Q641.4246 345.1375 641.7059 345.3875Q642.284 345.91876 642.7996 346.71564L644.5496 349.45L642.87775 349.45L641.5496 347.3719Q640.9715 346.46564 640.5965 345.9969Q640.2215 345.5125 639.9246 345.325Q639.62775 345.1219 639.31525 345.04376Q639.0965 344.9969 638.5809 344.9969L637.034 344.9969L637.034 349.45L635.7059 349.45ZM637.034 343.85626L639.8934 343.85626Q640.7996 343.85626 641.31525 343.66876Q641.8309 343.48126 642.0965 343.075Q642.3621 342.65314 642.3621 342.16876Q642.3621 341.45 641.8465 340.9969Q641.3309 340.52814 640.2059 340.52814L637.034 340.52814L637.034 343.85626ZM650.50275 347.10626L651.784 347.2625Q651.4715 348.3875 650.659 349.0125Q649.8465 349.6219 648.5809 349.6219Q646.9871 349.6219 646.0496 348.6375Q645.12775 347.65314 645.12775 345.8875Q645.12775 344.04376 646.06525 343.04376Q647.0184 342.02814 648.5184 342.02814Q649.9715 342.02814 650.8934 343.02814Q651.81525 344.0125 651.81525 345.8094Q651.81525 345.91876 651.81525 346.1375L646.3934 346.1375Q646.4715 347.325 647.06525 347.96564Q647.6746 348.60626 648.5965 348.60626Q649.2684 348.60626 649.7371 348.2469Q650.2215 347.8875 650.50275 347.10626ZM646.4715 345.1219L650.5184 345.1219Q650.44025 344.2 650.0496 343.7469Q649.4715 343.04376 648.534 343.04376Q647.6746 343.04376 647.0965 343.60626Q646.534 344.16876 646.4715 345.1219ZM658.2684 348.5594Q657.5965 349.1375 656.9559 349.3875Q656.3309 349.6219 655.5965 349.6219Q654.409 349.6219 653.75275 349.04376Q653.1121 348.45 653.1121 347.52814Q653.1121 346.9969 653.3465 346.5594Q653.5965 346.1219 653.9871 345.85626Q654.3934 345.59064 654.87775 345.45Q655.2371 345.35626 655.9715 345.2625Q657.4715 345.09064 658.1746 344.84064Q658.1746 344.59064 658.1746 344.52814Q658.1746 343.7625 657.8309 343.46564Q657.3621 343.04376 656.4246 343.04376Q655.56525 343.04376 655.1434 343.35626Q654.7371 343.65314 654.534 344.41876L653.3309 344.2625Q653.4871 343.48126 653.8621 343.0125Q654.25275 342.54376 654.9559 342.29376Q655.6746 342.02814 656.6121 342.02814Q657.534 342.02814 658.1121 342.2469Q658.69025 342.46564 658.9559 342.79376Q659.2371 343.1219 659.3465 343.6375Q659.409 343.95 659.409 344.7625L659.409 346.40314Q659.409 348.1219 659.4871 348.575Q659.56525 349.02814 659.7996 349.45L658.5184 349.45Q658.3309 349.0594 658.2684 348.5594ZM658.1746 345.8094Q657.50275 346.075 656.159 346.27814Q655.409 346.3875 655.0809 346.52814Q654.7684 346.65314 654.5965 346.91876Q654.4246 347.1844 654.4246 347.4969Q654.4246 347.9969 654.7996 348.325Q655.1746 348.65314 655.8934 348.65314Q656.6121 348.65314 657.159 348.34064Q657.7059 348.02814 657.9715 347.48126Q658.1746 347.075 658.1746 346.2625L658.1746 345.8094ZM661.0496 347.27814L662.25275 347.09064Q662.3621 347.825 662.8309 348.21564Q663.2996 348.60626 664.1434 348.60626Q664.9871 348.60626 665.3934 348.2625Q665.81525 347.91876 665.81525 347.45Q665.81525 347.02814 665.44025 346.79376Q665.19025 346.6219 664.19025 346.3719Q662.8309 346.02814 662.2996 345.77814Q661.784 345.52814 661.5184 345.09064Q661.25275 344.65314 661.25275 344.1219Q661.25275 343.6375 661.4715 343.23126Q661.69025 342.8094 662.0809 342.52814Q662.3621 342.325 662.8465 342.1844Q663.3465 342.02814 663.9246 342.02814Q664.7684 342.02814 665.409 342.27814Q666.06525 342.5125 666.37775 342.9344Q666.69025 343.35626 666.7996 344.0594L665.5965 344.23126Q665.5184 343.66876 665.1121 343.35626Q664.7215 343.04376 664.00275 343.04376Q663.159 343.04376 662.7996 343.325Q662.44025 343.59064 662.44025 343.98126Q662.44025 344.21564 662.5809 344.40314Q662.7371 344.60626 663.06525 344.73126Q663.2371 344.79376 664.1434 345.04376Q665.4559 345.40314 665.9715 345.6219Q666.4871 345.84064 666.7684 346.2625Q667.06525 346.6844 667.06525 347.3094Q667.06525 347.9344 666.7059 348.48126Q666.3621 349.0125 665.6746 349.325Q665.00275 349.6219 664.1434 349.6219Q662.7371 349.6219 661.9871 349.02814Q661.25275 348.4344 661.0496 347.27814ZM668.0809 345.825Q668.0809 343.8094 669.2059 342.825Q670.12775 342.02814 671.4871 342.02814Q672.9715 342.02814 673.9246 343.0125Q674.87775 343.98126 674.87775 345.71564Q674.87775 347.1219 674.4559 347.9344Q674.034 348.73126 673.2215 349.1844Q672.4246 349.6219 671.4871 349.6219Q669.9559 349.6219 669.0184 348.6375Q668.0809 347.65314 668.0809 345.825ZM669.3465 345.825Q669.3465 347.21564 669.9559 347.91876Q670.56525 348.60626 671.4871 348.60626Q672.3934 348.60626 673.00275 347.90314Q673.6121 347.2 673.6121 345.77814Q673.6121 344.4344 673.00275 343.7469Q672.3934 343.04376 671.4871 343.04376Q670.56525 343.04376 669.9559 343.73126Q669.3465 344.41876 669.3465 345.825ZM676.534 349.45L676.534 342.1844L677.6434 342.1844L677.6434 343.21564Q678.44025 342.02814 679.9559 342.02814Q680.6121 342.02814 681.159 342.2625Q681.7059 342.4969 681.9715 342.8875Q682.25275 343.2625 682.3621 343.79376Q682.44025 344.1375 682.44025 344.98126L682.44025 349.45L681.2059 349.45L681.2059 345.02814Q681.2059 344.27814 681.06525 343.91876Q680.9246 343.54376 680.5496 343.325Q680.19025 343.09064 679.69025 343.09064Q678.909 343.09064 678.3309 343.59064Q677.7684 344.09064 677.7684 345.48126L677.7684 349.45L676.534 349.45ZM684.5496 340.84064L684.5496 339.4344L685.7684 339.4344L685.7684 340.84064L684.5496 340.84064ZM684.5496 349.45L684.5496 342.1844L685.7684 342.1844L685.7684 349.45L684.5496 349.45ZM687.534 349.45L687.534 342.1844L688.6434 342.1844L688.6434 343.21564Q689.44025 342.02814 690.9559 342.02814Q691.6121 342.02814 692.159 342.2625Q692.7059 342.4969 692.9715 342.8875Q693.25275 343.2625 693.3621 343.79376Q693.44025 344.1375 693.44025 344.98126L693.44025 349.45L692.2059 349.45L692.2059 345.02814Q692.2059 344.27814 692.06525 343.91876Q691.9246 343.54376 691.5496 343.325Q691.19025 343.09064 690.69025 343.09064Q689.909 343.09064 689.3309 343.59064Q688.7684 344.09064 688.7684 345.48126L688.7684 349.45L687.534 349.45ZM695.31525 350.0594L696.50275 350.23126Q696.5809 350.77814 696.9246 351.04376Q697.37775 351.3719 698.1746 351.3719Q699.034 351.3719 699.4871 351.02814Q699.9559 350.7 700.12775 350.075Q700.2215 349.7 700.2059 348.4969Q699.409 349.45 698.2059 349.45Q696.7059 349.45 695.87775 348.3719Q695.06525 347.29376 695.06525 345.77814Q695.06525 344.7469 695.44025 343.8719Q695.81525 342.98126 696.5184 342.5125Q697.2371 342.02814 698.2059 342.02814Q699.4871 342.02814 700.3309 343.0594L700.3309 342.1844L701.4559 342.1844L701.4559 348.46564Q701.4559 350.16876 701.1121 350.8719Q700.7684 351.575 700.0184 351.98126Q699.2684 352.40314 698.1746 352.40314Q696.87775 352.40314 696.0809 351.8094Q695.284 351.23126 695.31525 350.0594ZM696.3309 345.6844Q696.3309 347.1219 696.8934 347.77814Q697.4559 348.4344 698.31525 348.4344Q699.159 348.4344 699.7371 347.77814Q700.31525 347.1219 700.31525 345.73126Q700.31525 344.40314 699.7215 343.73126Q699.12775 343.04376 698.2996 343.04376Q697.4715 343.04376 696.8934 343.71564Q696.3309 344.3719 696.3309 345.6844Z" fill-rule="nonzero"/><path fill="#4285f4" d="M185.0 21.55C185.0 20.997715 185.44771 20.55 186.0 20.55L196.0 20.55C196.55229 20.55 197.0 20.997715 197.0 21.55L197.0 31.55C197.0 32.102283 196.55229 32.55 196.0 32.55L186.0 32.55C185.44771 32.55 185.0 32.102283 185.0 31.55Z" fill-rule="nonzero"/><path fill="#1a1a1a" d="M205.67188 26.675Q205.67188 24.175 207.01562 22.76875Q208.35938 21.346874 210.46875 21.346874Q211.85938 21.346874 212.96875 22.01875Q214.09375 22.675 214.67188 23.8625Q215.26562 25.05 215.26562 26.55Q215.26562 28.08125 214.64062 29.284374Q214.03125 30.4875 212.90625 31.1125Q211.78125 31.721874 210.46875 31.721874Q209.04688 31.721874 207.9375 31.034374Q206.82812 30.346874 206.25 29.175Q205.67188 27.9875 205.67188 26.675ZM207.04688 26.690624Q207.04688 28.503124 208.01562 29.55Q209.0 30.58125 210.46875 30.58125Q211.95312 30.58125 212.92188 29.534374Q213.89062 28.4875 213.89062 26.55Q213.89062 25.315624 213.46875 24.409374Q213.0625 23.503124 212.26562 23.003124Q211.46875 22.4875 210.48438 22.4875Q209.07812 22.4875 208.0625 23.45625Q207.04688 24.425 207.04688 26.690624ZM218.82812 31.55L216.17188 21.534374L217.53125 21.534374L219.0625 28.096874Q219.29688 29.128124 219.48438 30.14375Q219.85938 28.534374 219.9375 28.3L221.84375 21.534374L223.4375 21.534374L224.875 26.596874Q225.40625 28.4875 225.65625 30.14375Q225.84375 29.190624 226.15625 27.971874L227.71875 21.534374L229.0625 21.534374L226.3125 31.55L225.03125 31.55L222.92188 23.909374Q222.65625 22.95625 222.60938 22.7375Q222.45312 23.425 222.3125 23.909374L220.1875 31.55L218.82812 31.55ZM230.04688 31.55L230.04688 21.534374L232.03125 21.534374L234.40625 28.628124Q234.73438 29.6125 234.89062 30.1125Q235.0625 29.565624 235.42188 28.503124L237.8125 21.534374L239.60938 21.534374L239.60938 31.55L238.32812 31.55L238.32812 23.159374L235.40625 31.55L234.21875 31.55L231.3125 23.01875L231.3125 31.55L230.04688 31.55Z" fill-rule="nonzero"/><path fill="#ea4335" d="M256.0 21.55C256.0 20.997715 256.44772 20.55 257.0 20.55L267.0 20.55C267.55228 20.55 268.0 20.997715 268.0 21.55L268.0 31.55C268.0 32.102283 267.55228 32.55 267.0 32.55L257.0 32.55C256.44772 32.55 256.0 32.102283 256.0 31.55Z" fill-rule="nonzero"/><path fill="#1a1a1a" d="M277.09375 31.55L277.09375 21.534374L281.54688 21.534374Q282.89062 21.534374 283.57812 21.8Q284.28125 22.065624 284.6875 22.753124Q285.10938 23.440624 285.10938 24.26875Q285.10938 25.33125 284.42188 26.065624Q283.73438 26.784374 282.29688 26.9875Q282.8125 27.2375 283.09375 27.4875Q283.67188 28.01875 284.1875 28.815624L285.9375 31.55L284.26562 31.55L282.9375 29.471874Q282.35938 28.565624 281.98438 28.096874Q281.60938 27.6125 281.3125 27.425Q281.01562 27.221874 280.70312 27.14375Q280.48438 27.096874 279.96875 27.096874L278.42188 27.096874L278.42188 31.55L277.09375 31.55ZM278.42188 25.95625L281.28125 25.95625Q282.1875 25.95625 282.70312 25.76875Q283.21875 25.58125 283.48438 25.175Q283.75 24.753124 283.75 24.26875Q283.75 23.55 283.23438 23.096874Q282.71875 22.628124 281.59375 22.628124L278.42188 22.628124L278.42188 25.95625ZM291.89062 29.20625L293.17188 29.3625Q292.85938 30.4875 292.04688 31.1125Q291.23438 31.721874 289.96875 31.721874Q288.375 31.721874 287.4375 30.7375Q286.51562 29.753124 286.51562 27.9875Q286.51562 26.14375 287.45312 25.14375Q288.40625 24.128124 289.90625 24.128124Q291.35938 24.128124 292.28125 25.128124Q293.20312 26.1125 293.20312 27.909374Q293.20312 28.01875 293.20312 28.2375L287.78125 28.2375Q287.85938 29.425 288.45312 30.065624Q289.0625 30.70625 289.98438 30.70625Q290.65625 30.70625 291.125 30.346874Q291.60938 29.9875 291.89062 29.20625ZM287.85938 27.221874L291.90625 27.221874Q291.82812 26.3 291.4375 25.846874Q290.85938 25.14375 289.92188 25.14375Q289.0625 25.14375 288.48438 25.70625Q287.92188 26.26875 287.85938 27.221874ZM294.92188 34.33125L294.92188 24.284374L296.04688 24.284374L296.04688 25.2375Q296.4375 24.675 296.9375 24.409374Q297.4375 24.128124 298.15625 24.128124Q299.07812 24.128124 299.78125 24.6125Q300.5 25.08125 300.85938 25.95625Q301.21875 26.83125 301.21875 27.8625Q301.21875 28.971874 300.8125 29.878124Q300.42188 30.76875 299.65625 31.253124Q298.90625 31.721874 298.0625 31.721874Q297.45312 31.721874 296.95312 31.45625Q296.46875 31.190624 296.15625 30.8L296.15625 34.33125L294.92188 34.33125ZM296.03125 27.95625Q296.03125 29.3625 296.59375 30.034374Q297.17188 30.70625 297.98438 30.70625Q298.79688 30.70625 299.375 30.01875Q299.96875 29.315624 299.96875 27.8625Q299.96875 26.471874 299.39062 25.784374Q298.82812 25.096874 298.03125 25.096874Q297.25 25.096874 296.64062 25.83125Q296.03125 26.565624 296.03125 27.95625ZM302.92188 31.55L302.92188 21.534374L304.15625 21.534374L304.15625 25.128124Q305.01562 24.128124 306.32812 24.128124Q307.14062 24.128124 307.73438 24.45625Q308.32812 24.76875 308.57812 25.33125Q308.84375 25.878124 308.84375 26.95625L308.84375 31.55L307.60938 31.55L307.60938 26.95625Q307.60938 26.01875 307.20312 25.6125Q306.8125 25.190624 306.07812 25.190624Q305.53125 25.190624 305.04688 25.471874Q304.5625 25.753124 304.35938 26.2375Q304.15625 26.721874 304.15625 27.58125L304.15625 31.55L302.92188 31.55ZM310.90625 31.55L310.90625 24.284374L312.01562 24.284374L312.01562 25.39375Q312.4375 24.6125 312.79688 24.378124Q313.15625 24.128124 313.59375 24.128124Q314.21875 24.128124 314.85938 24.51875L314.4375 25.659374Q313.98438 25.39375 313.53125 25.39375Q313.125 25.39375 312.79688 25.64375Q312.48438 25.878124 312.34375 26.315624Q312.14062 26.971874 312.14062 27.753124L312.14062 31.55L310.90625 31.55ZM320.65625 30.659374Q319.98438 31.2375 319.34375 31.4875Q318.71875 31.721874 317.98438 31.721874Q316.79688 31.721874 316.14062 31.14375Q315.5 30.55 315.5 29.628124Q315.5 29.096874 315.73438 28.659374Q315.98438 28.221874 316.375 27.95625Q316.78125 27.690624 317.26562 27.55Q317.625 27.45625 318.35938 27.3625Q319.85938 27.190624 320.5625 26.940624Q320.5625 26.690624 320.5625 26.628124Q320.5625 25.8625 320.21875 25.565624Q319.75 25.14375 318.8125 25.14375Q317.95312 25.14375 317.53125 25.45625Q317.125 25.753124 316.92188 26.51875L315.71875 26.3625Q315.875 25.58125 316.25 25.1125Q316.64062 24.64375 317.34375 24.39375Q318.0625 24.128124 319.0 24.128124Q319.92188 24.128124 320.5 24.346874Q321.07812 24.565624 321.34375 24.89375Q321.625 25.221874 321.73438 25.7375Q321.79688 26.05 321.79688 26.8625L321.79688 28.503124Q321.79688 30.221874 321.875 30.675Q321.95312 31.128124 322.1875 31.55L320.90625 31.55Q320.71875 31.159374 320.65625 30.659374ZM320.5625 27.909374Q319.89062 28.175 318.54688 28.378124Q317.79688 28.4875 317.46875 28.628124Q317.15625 28.753124 316.98438 29.01875Q316.8125 29.284374 316.8125 29.596874Q316.8125 30.096874 317.1875 30.425Q317.5625 30.753124 318.28125 30.753124Q319.0 30.753124 319.54688 30.440624Q320.09375 30.128124 320.35938 29.58125Q320.5625 29.175 320.5625 28.3625L320.5625 27.909374ZM323.4375 29.378124L324.64062 29.190624Q324.75 29.925 325.21875 30.315624Q325.6875 30.70625 326.53125 30.70625Q327.375 30.70625 327.78125 30.3625Q328.20312 30.01875 328.20312 29.55Q328.20312 29.128124 327.82812 28.89375Q327.57812 28.721874 326.57812 28.471874Q325.21875 28.128124 324.6875 27.878124Q324.17188 27.628124 323.90625 27.190624Q323.64062 26.753124 323.64062 26.221874Q323.64062 25.7375 323.85938 25.33125Q324.07812 24.909374 324.46875 24.628124Q324.75 24.425 325.23438 24.284374Q325.73438 24.128124 326.3125 24.128124Q327.15625 24.128124 327.79688 24.378124Q328.45312 24.6125 328.76562 25.034374Q329.07812 25.45625 329.1875 26.159374L327.98438 26.33125Q327.90625 25.76875 327.5 25.45625Q327.10938 25.14375 326.39062 25.14375Q325.54688 25.14375 325.1875 25.425Q324.82812 25.690624 324.82812 26.08125Q324.82812 26.315624 324.96875 26.503124Q325.125 26.70625 325.45312 26.83125Q325.625 26.89375 326.53125 27.14375Q327.84375 27.503124 328.35938 27.721874Q328.875 27.940624 329.15625 28.3625Q329.45312 28.784374 329.45312 29.409374Q329.45312 30.034374 329.09375 30.58125Q328.75 31.1125 328.0625 31.425Q327.39062 31.721874 326.53125 31.721874Q325.125 31.721874 324.375 31.128124Q323.64062 30.534374 323.4375 29.378124ZM335.89062 29.20625L337.17188 29.3625Q336.85938 30.4875 336.04688 31.1125Q335.23438 31.721874 333.96875 31.721874Q332.375 31.721874 331.4375 30.7375Q330.51562 29.753124 330.51562 27.9875Q330.51562 26.14375 331.45312 25.14375Q332.40625 24.128124 333.90625 24.128124Q335.35938 24.128124 336.28125 25.128124Q337.20312 26.1125 337.20312 27.909374Q337.20312 28.01875 337.20312 28.2375L331.78125 28.2375Q331.85938 29.425 332.45312 30.065624Q333.0625 30.70625 333.98438 30.70625Q334.65625 30.70625 335.125 30.346874Q335.60938 29.9875 335.89062 29.20625ZM331.85938 27.221874L335.90625 27.221874Q335.82812 26.3 335.4375 25.846874Q334.85938 25.14375 333.92188 25.14375Q333.0625 25.14375 332.48438 25.70625Q331.92188 26.26875 331.85938 27.221874ZM338.4375 28.534374L338.4375 27.3L342.21875 27.3L342.21875 28.534374L338.4375 28.534374ZM343.67188 26.675Q343.67188 24.175 345.01562 22.76875Q346.35938 21.346874 348.46875 21.346874Q349.85938 21.346874 350.96875 22.01875Q352.09375 22.675 352.67188 23.8625Q353.26562 25.05 353.26562 26.55Q353.26562 28.08125 352.64062 29.284374Q352.03125 30.4875 350.90625 31.1125Q349.78125 31.721874 348.46875 31.721874Q347.04688 31.721874 345.9375 31.034374Q344.82812 30.346874 344.25 29.175Q343.67188 27.9875 343.67188 26.675ZM345.04688 26.690624Q345.04688 28.503124 346.01562 29.55Q347.0 30.58125 348.46875 30.58125Q349.95312 30.58125 350.92188 29.534374Q351.89062 28.4875 351.89062 26.55Q351.89062 25.315624 351.46875 24.409374Q351.0625 23.503124 350.26562 23.003124Q349.46875 22.4875 348.48438 22.4875Q347.07812 22.4875 346.0625 23.45625Q345.04688 24.425 345.04688 26.690624ZM356.82812 31.55L354.17188 21.534374L355.53125 21.534374L357.0625 28.096874Q357.29688 29.128124 357.48438 30.14375Q357.85938 28.534374 357.9375 28.3L359.84375 21.534374L361.4375 21.534374L362.875 26.596874Q363.40625 28.4875 363.65625 30.14375Q363.84375 29.190624 364.15625 27.971874L365.71875 21.534374L367.0625 21.534374L364.3125 31.55L363.03125 31.55L360.92188 23.909374Q360.65625 22.95625 360.60938 22.7375Q360.45312 23.425 360.3125 23.909374L358.1875 31.55L356.82812 31.55ZM368.04688 31.55L368.04688 21.534374L370.03125 21.534374L372.40625 28.628124Q372.73438 29.6125 372.89062 30.1125Q373.0625 29.565624 373.42188 28.503124L375.8125 21.534374L377.60938 21.534374L377.60938 31.55L376.32812 31.55L376.32812 23.159374L373.40625 31.55L372.21875 31.55L369.3125 23.01875L369.3125 31.55L368.04688 31.55Z" fill-rule="nonzero"/><path fill="#fbbc04" d="M394.0 21.55C394.0 20.997715 394.44772 20.55 395.0 20.55L405.0 20.55C405.55228 20.55 406.0 20.997715 406.0 21.55L406.0 31.55C406.0 32.102283 405.55228 32.55 405.0 32.55L395.0 32.55C394.44772 32.55 394.0 32.102283 394.0 31.55Z" fill-rule="nonzero"/><path fill="#1a1a1a" d="M415.03125 31.55L415.03125 21.534374L416.35938 21.534374L416.35938 30.3625L421.28125 30.3625L421.28125 31.55L415.03125 31.55ZM422.46875 27.925Q422.46875 25.909374 423.59375 24.925Q424.51562 24.128124 425.875 24.128124Q427.35938 24.128124 428.3125 25.1125Q429.26562 26.08125 429.26562 27.815624Q429.26562 29.221874 428.84375 30.034374Q428.42188 30.83125 427.60938 31.284374Q426.8125 31.721874 425.875 31.721874Q424.34375 31.721874 423.40625 30.7375Q422.46875 29.753124 422.46875 27.925ZM423.73438 27.925Q423.73438 29.315624 424.34375 30.01875Q424.95312 30.70625 425.875 30.70625Q426.78125 30.70625 427.39062 30.003124Q428.0 29.3 428.0 27.878124Q428.0 26.534374 427.39062 25.846874Q426.78125 25.14375 425.875 25.14375Q424.95312 25.14375 424.34375 25.83125Q423.73438 26.51875 423.73438 27.925ZM430.92188 31.55L430.92188 24.284374L432.03125 24.284374L432.03125 25.315624Q432.82812 24.128124 434.34375 24.128124Q435.0 24.128124 435.54688 24.3625Q436.09375 24.596874 436.35938 24.9875Q436.64062 25.3625 436.75 25.89375Q436.82812 26.2375 436.82812 27.08125L436.82812 31.55L435.59375 31.55L435.59375 27.128124Q435.59375 26.378124 435.45312 26.01875Q435.3125 25.64375 434.9375 25.425Q434.57812 25.190624 434.07812 25.190624Q433.29688 25.190624 432.71875 25.690624Q432.15625 26.190624 432.15625 27.58125L432.15625 31.55L430.92188 31.55ZM438.70312 32.159374L439.89062 32.33125Q439.96875 32.878124 440.3125 33.14375Q440.76562 33.471874 441.5625 33.471874Q442.42188 33.471874 442.875 33.128124Q443.34375 32.8 443.51562 32.175Q443.60938 31.8 443.59375 30.596874Q442.79688 31.55 441.59375 31.55Q440.09375 31.55 439.26562 30.471874Q438.45312 29.39375 438.45312 27.878124Q438.45312 26.846874 438.82812 25.971874Q439.20312 25.08125 439.90625 24.6125Q440.625 24.128124 441.59375 24.128124Q442.875 24.128124 443.71875 25.159374L443.71875 24.284374L444.84375 24.284374L444.84375 30.565624Q444.84375 32.26875 444.5 32.971874Q444.15625 33.675 443.40625 34.08125Q442.65625 34.503124 441.5625 34.503124Q440.26562 34.503124 439.46875 33.909374Q438.67188 33.33125 438.70312 32.159374ZM439.71875 27.784374Q439.71875 29.221874 440.28125 29.878124Q440.84375 30.534374 441.70312 30.534374Q442.54688 30.534374 443.125 29.878124Q443.70312 29.221874 443.70312 27.83125Q443.70312 26.503124 443.10938 25.83125Q442.51562 25.14375 441.6875 25.14375Q440.85938 25.14375 440.28125 25.815624Q439.71875 26.471874 439.71875 27.784374ZM451.89062 29.20625L453.17188 29.3625Q452.85938 30.4875 452.04688 31.1125Q451.23438 31.721874 449.96875 31.721874Q448.375 31.721874 447.4375 30.7375Q446.51562 29.753124 446.51562 27.9875Q446.51562 26.14375 447.45312 25.14375Q448.40625 24.128124 449.90625 24.128124Q451.35938 24.128124 452.28125 25.128124Q453.20312 26.1125 453.20312 27.909374Q453.20312 28.01875 453.20312 28.2375L447.78125 28.2375Q447.85938 29.425 448.45312 30.065624Q449.0625 30.70625 449.98438 30.70625Q450.65625 30.70625 451.125 30.346874Q451.60938 29.9875 451.89062 29.20625ZM447.85938 27.221874L451.90625 27.221874Q451.82812 26.3 451.4375 25.846874Q450.85938 25.14375 449.92188 25.14375Q449.0625 25.14375 448.48438 25.70625Q447.92188 26.26875 447.85938 27.221874ZM454.4375 29.378124L455.64062 29.190624Q455.75 29.925 456.21875 30.315624Q456.6875 30.70625 457.53125 30.70625Q458.375 30.70625 458.78125 30.3625Q459.20312 30.01875 459.20312 29.55Q459.20312 29.128124 458.82812 28.89375Q458.57812 28.721874 457.57812 28.471874Q456.21875 28.128124 455.6875 27.878124Q455.17188 27.628124 454.90625 27.190624Q454.64062 26.753124 454.64062 26.221874Q454.64062 25.7375 454.85938 25.33125Q455.07812 24.909374 455.46875 24.628124Q455.75 24.425 456.23438 24.284374Q456.73438 24.128124 457.3125 24.128124Q458.15625 24.128124 458.79688 24.378124Q459.45312 24.6125 459.76562 25.034374Q460.07812 25.45625 460.1875 26.159374L458.98438 26.33125Q458.90625 25.76875 458.5 25.45625Q458.10938 25.14375 457.39062 25.14375Q456.54688 25.14375 456.1875 25.425Q455.82812 25.690624 455.82812 26.08125Q455.82812 26.315624 455.96875 26.503124Q456.125 26.70625 456.45312 26.83125Q456.625 26.89375 457.53125 27.14375Q458.84375 27.503124 459.35938 27.721874Q459.875 27.940624 460.15625 28.3625Q460.45312 28.784374 460.45312 29.409374Q460.45312 30.034374 460.09375 30.58125Q459.75 31.1125 459.0625 31.425Q458.39062 31.721874 457.53125 31.721874Q456.125 31.721874 455.375 31.128124Q454.64062 30.534374 454.4375 29.378124ZM464.60938 30.45625L464.78125 31.534374Q464.26562 31.64375 463.85938 31.64375Q463.1875 31.64375 462.8125 31.440624Q462.45312 31.221874 462.29688 30.878124Q462.15625 30.534374 462.15625 29.425L462.15625 25.253124L461.25 25.253124L461.25 24.284374L462.15625 24.284374L462.15625 22.4875L463.375 21.753124L463.375 24.284374L464.60938 24.284374L464.60938 25.253124L463.375 25.253124L463.375 29.4875Q463.375 30.01875 463.4375 30.175Q463.5 30.315624 463.64062 30.409374Q463.79688 30.503124 464.0625 30.503124Q464.28125 30.503124 464.60938 30.45625ZM477.23438 28.034374L478.5625 28.378124Q478.14062 30.003124 477.04688 30.8625Q475.96875 31.721874 474.40625 31.721874Q472.78125 31.721874 471.76562 31.065624Q470.75 30.39375 470.21875 29.14375Q469.70312 27.89375 469.70312 26.45625Q469.70312 24.89375 470.29688 23.7375Q470.89062 22.565624 472.0 21.971874Q473.10938 21.3625 474.42188 21.3625Q475.9375 21.3625 476.95312 22.128124Q477.98438 22.89375 478.39062 24.26875L477.07812 24.58125Q476.73438 23.4875 476.0625 22.9875Q475.40625 22.4875 474.40625 22.4875Q473.25 22.4875 472.46875 23.05Q471.6875 23.596874 471.375 24.534374Q471.0625 25.471874 471.0625 26.45625Q471.0625 27.7375 471.4375 28.690624Q471.8125 29.64375 472.59375 30.1125Q473.375 30.58125 474.29688 30.58125Q475.40625 30.58125 476.17188 29.940624Q476.95312 29.3 477.23438 28.034374ZM479.46875 27.925Q479.46875 25.909374 480.59375 24.925Q481.51562 24.128124 482.875 24.128124Q484.35938 24.128124 485.3125 25.1125Q486.26562 26.08125 486.26562 27.815624Q486.26562 29.221874 485.84375 30.034374Q485.42188 30.83125 484.60938 31.284374Q483.8125 31.721874 482.875 31.721874Q481.34375 31.721874 480.40625 30.7375Q479.46875 29.753124 479.46875 27.925ZM480.73438 27.925Q480.73438 29.315624 481.34375 30.01875Q481.95312 30.70625 482.875 30.70625Q483.78125 30.70625 484.39062 30.003124Q485.0 29.3 485.0 27.878124Q485.0 26.534374 484.39062 25.846874Q483.78125 25.14375 482.875 25.14375Q481.95312 25.14375 481.34375 25.83125Q480.73438 26.51875 480.73438 27.925ZM487.92188 31.55L487.92188 24.284374L489.03125 24.284374L489.03125 25.315624Q489.82812 24.128124 491.34375 24.128124Q492.0 24.128124 492.54688 24.3625Q493.09375 24.596874 493.35938 24.9875Q493.64062 25.3625 493.75 25.89375Q493.82812 26.2375 493.82812 27.08125L493.82812 31.55L492.59375 31.55L492.59375 27.128124Q492.59375 26.378124 492.45312 26.01875Q492.3125 25.64375 491.9375 25.425Q491.57812 25.190624 491.07812 25.190624Q490.29688 25.190624 489.71875 25.690624Q489.15625 26.190624 489.15625 27.58125L489.15625 31.55L487.92188 31.55ZM497.9375 31.55L495.17188 24.284374L496.48438 24.284374L498.03125 28.64375Q498.28125 29.346874 498.5 30.096874Q498.67188 29.51875 498.95312 28.721874L500.57812 24.284374L501.84375 24.284374L499.09375 31.55L497.9375 31.55ZM507.89062 29.20625L509.17188 29.3625Q508.85938 30.4875 508.04688 31.1125Q507.23438 31.721874 505.96875 31.721874Q504.375 31.721874 503.4375 30.7375Q502.51562 29.753124 502.51562 27.9875Q502.51562 26.14375 503.45312 25.14375Q504.40625 24.128124 505.90625 24.128124Q507.35938 24.128124 508.28125 25.128124Q509.20312 26.1125 509.20312 27.909374Q509.20312 28.01875 509.20312 28.2375L503.78125 28.2375Q503.85938 29.425 504.45312 30.065624Q505.0625 30.70625 505.98438 30.70625Q506.65625 30.70625 507.125 30.346874Q507.60938 29.9875 507.89062 29.20625ZM503.85938 27.221874L507.90625 27.221874Q507.82812 26.3 507.4375 25.846874Q506.85938 25.14375 505.92188 25.14375Q505.0625 25.14375 504.48438 25.70625Q503.92188 26.26875 503.85938 27.221874ZM510.90625 31.55L510.90625 24.284374L512.0156 24.284374L512.0156 25.39375Q512.4375 24.6125 512.7969 24.378124Q513.15625 24.128124 513.59375 24.128124Q514.21875 24.128124 514.8594 24.51875L514.4375 25.659374Q513.9844 25.39375 513.53125 25.39375Q513.125 25.39375 512.7969 25.64375Q512.4844 25.878124 512.34375 26.315624Q512.1406 26.971874 512.1406 27.753124L512.1406 31.55L510.90625 31.55ZM515.4375 29.378124L516.6406 29.190624Q516.75 29.925 517.21875 30.315624Q517.6875 30.70625 518.53125 30.70625Q519.375 30.70625 519.78125 30.3625Q520.2031 30.01875 520.2031 29.55Q520.2031 29.128124 519.8281 28.89375Q519.5781 28.721874 518.5781 28.471874Q517.21875 28.128124 516.6875 27.878124Q516.1719 27.628124 515.90625 27.190624Q515.6406 26.753124 515.6406 26.221874Q515.6406 25.7375 515.8594 25.33125Q516.0781 24.909374 516.46875 24.628124Q516.75 24.425 517.2344 24.284374Q517.7344 24.128124 518.3125 24.128124Q519.15625 24.128124 519.7969 24.378124Q520.4531 24.6125 520.7656 25.034374Q521.0781 25.45625 521.1875 26.159374L519.9844 26.33125Q519.90625 25.76875 519.5 25.45625Q519.1094 25.14375 518.3906 25.14375Q517.5469 25.14375 517.1875 25.425Q516.8281 25.690624 516.8281 26.08125Q516.8281 26.315624 516.96875 26.503124Q517.125 26.70625 517.4531 26.83125Q517.625 26.89375 518.53125 27.14375Q519.84375 27.503124 520.3594 27.721874Q520.875 27.940624 521.15625 28.3625Q521.4531 28.784374 521.4531 29.409374Q521.4531 30.034374 521.09375 30.58125Q520.75 31.1125 520.0625 31.425Q519.3906 31.721874 518.53125 31.721874Q517.125 31.721874 516.375 31.128124Q515.6406 30.534374 515.4375 29.378124ZM527.65625 30.659374Q526.9844 31.2375 526.34375 31.4875Q525.71875 31.721874 524.9844 31.721874Q523.7969 31.721874 523.1406 31.14375Q522.5 30.55 522.5 29.628124Q522.5 29.096874 522.7344 28.659374Q522.9844 28.221874 523.375 27.95625Q523.78125 27.690624 524.2656 27.55Q524.625 27.45625 525.3594 27.3625Q526.8594 27.190624 527.5625 26.940624Q527.5625 26.690624 527.5625 26.628124Q527.5625 25.8625 527.21875 25.565624Q526.75 25.14375 525.8125 25.14375Q524.9531 25.14375 524.53125 25.45625Q524.125 25.753124 523.9219 26.51875L522.71875 26.3625Q522.875 25.58125 523.25 25.1125Q523.6406 24.64375 524.34375 24.39375Q525.0625 24.128124 526.0 24.128124Q526.9219 24.128124 527.5 24.346874Q528.0781 24.565624 528.34375 24.89375Q528.625 25.221874 528.7344 25.7375Q528.7969 26.05 528.7969 26.8625L528.7969 28.503124Q528.7969 30.221874 528.875 30.675Q528.9531 31.128124 529.1875 31.55L527.90625 31.55Q527.71875 31.159374 527.65625 30.659374ZM527.5625 27.909374Q526.8906 28.175 525.5469 28.378124Q524.7969 28.4875 524.46875 28.628124Q524.15625 28.753124 523.9844 29.01875Q523.8125 29.284374 523.8125 29.596874Q523.8125 30.096874 524.1875 30.425Q524.5625 30.753124 525.28125 30.753124Q526.0 30.753124 526.5469 30.440624Q527.09375 30.128124 527.3594 29.58125Q527.5625 29.175 527.5625 28.3625L527.5625 27.909374ZM533.6094 30.45625L533.78125 31.534374Q533.2656 31.64375 532.8594 31.64375Q532.1875 31.64375 531.8125 31.440624Q531.4531 31.221874 531.2969 30.878124Q531.15625 30.534374 531.15625 29.425L531.15625 25.253124L530.25 25.253124L530.25 24.284374L531.15625 24.284374L531.15625 22.4875L532.375 21.753124L532.375 24.284374L533.6094 24.284374L533.6094 25.253124L532.375 25.253124L532.375 29.4875Q532.375 30.01875 532.4375 30.175Q532.5 30.315624 532.6406 30.409374Q532.7969 30.503124 533.0625 30.503124Q533.28125 30.503124 533.6094 30.45625ZM534.9375 22.940624L534.9375 21.534374L536.15625 21.534374L536.15625 22.940624L534.9375 22.940624ZM534.9375 31.55L534.9375 24.284374L536.15625 24.284374L536.15625 31.55L534.9375 31.55ZM537.46875 27.925Q537.46875 25.909374 538.59375 24.925Q539.5156 24.128124 540.875 24.128124Q542.3594 24.128124 543.3125 25.1125Q544.2656 26.08125 544.2656 27.815624Q544.2656 29.221874 543.84375 30.034374Q543.4219 30.83125 542.6094 31.284374Q541.8125 31.721874 540.875 31.721874Q539.34375 31.721874 538.40625 30.7375Q537.46875 29.753124 537.46875 27.925ZM538.7344 27.925Q538.7344 29.315624 539.34375 30.01875Q539.9531 30.70625 540.875 30.70625Q541.78125 30.70625 542.3906 30.003124Q543.0 29.3 543.0 27.878124Q543.0 26.534374 542.3906 25.846874Q541.78125 25.14375 540.875 25.14375Q539.9531 25.14375 539.34375 25.83125Q538.7344 26.51875 538.7344 27.925ZM545.9219 31.55L545.9219 24.284374L547.03125 24.284374L547.03125 25.315624Q547.8281 24.128124 549.34375 24.128124Q550.0 24.128124 550.5469 24.3625Q551.09375 24.596874 551.3594 24.9875Q551.6406 25.3625 551.75 25.89375Q551.8281 26.2375 551.8281 27.08125L551.8281 31.55L550.59375 31.55L550.59375 27.128124Q550.59375 26.378124 550.4531 26.01875Q550.3125 25.64375 549.9375 25.425Q549.5781 25.190624 549.0781 25.190624Q548.2969 25.190624 547.71875 25.690624Q547.15625 26.190624 547.15625 27.58125L547.15625 31.55L545.9219 31.55Z" fill-rule="nonzero"/></svg>